<svg id="Capa_1" enable-background="new 0 0 512 512" height="512" viewBox="0 0 512 512" width="512" xmlns="http://www.w3.org/2000/svg"><g><g><path d="m47.164 339s-1.375-17.412-17.241-33.403c-5.673-5.718-1.613-15.445 6.442-15.445h166.428c29.385 0 53.207 23.821 53.207 53.207 0-29.385 23.821-53.207 53.207-53.207h166.428c8.055 0 12.115 9.726 6.442 15.445-15.866 15.992-17.241 33.403-17.241 33.403v15h-142.243l-25.273 41.235h-81.14l-17.292-35.914-140.997-6.651z" fill="#ebebeb"/><path d="m300.58 406.24h-89.16c-8.208 0-15.073-6.594-15.001-14.802.108-12.354-9.91-22.438-22.239-22.438h-151.68c-8.284 0-15-6.716-15-15 0-8.284 6.716-15 15-15h151.68c23.594 0 43.584 15.722 50.045 37.24h63.549c6.461-21.518 26.451-37.24 50.045-37.24h151.681c8.284 0 15 6.716 15 15 0 8.284-6.716 15-15 15h-151.68c-12.329 0-22.098 10.089-22.241 22.417-.095 8.203-6.774 14.823-14.999 14.823z" fill="#60b7ff"/><path d="m149.672 418.08-33.254-24.54-33.254 24.54v-99.994h66.508z" fill="#fe646f"/><g fill="#ffe177"><path d="m256 180.566c-9.216 0-16.687-7.471-16.687-16.687v-53.272c0-9.216 7.471-16.687 16.687-16.687s16.687 7.471 16.687 16.687v53.272c0 9.216-7.471 16.687-16.687 16.687z"/><path d="m174.073 195.017c-6.816 0-13.216-4.208-15.682-10.984l-18.22-50.059c-3.152-8.66 1.313-18.236 9.973-21.388 8.658-3.151 18.236 1.313 21.388 9.973l18.22 50.059c3.152 8.66-1.313 18.236-9.973 21.388-1.884.686-3.811 1.011-5.706 1.011z"/><path d="m102.034 236.609c-4.762 0-9.491-2.027-12.792-5.961l-34.243-40.809c-5.924-7.06-5.003-17.585 2.057-23.51 7.059-5.924 17.584-5.003 23.509 2.057l34.243 40.809c5.924 7.06 5.003 17.586-2.057 23.509-3.126 2.624-6.932 3.905-10.717 3.905z"/><path d="m337.928 195.017c-1.896 0-3.822-.325-5.706-1.011-8.66-3.152-13.125-12.728-9.973-21.388l18.22-50.059c3.152-8.661 12.728-13.125 21.388-9.973s13.125 12.728 9.973 21.388l-18.22 50.059c-2.467 6.776-8.867 10.984-15.682 10.984z"/><path d="m409.967 236.609c-3.786 0-7.591-1.281-10.717-3.905-7.06-5.924-7.981-16.449-2.057-23.509l34.242-40.809c5.924-7.061 16.449-7.981 23.509-2.057s7.981 16.45 2.057 23.51l-34.242 40.809c-3.301 3.933-8.03 5.961-12.792 5.961z"/></g></g><g><path d="m489.5 331.499h-15.156c1.967-5.576 5.773-13.275 13.062-20.619 4.721-4.762 6.103-11.839 3.522-18.031-2.583-6.195-8.588-10.199-15.299-10.199h-166.419c-22.878 0-42.841 12.721-53.188 31.46-2.733-4.96-6.184-9.564-10.299-13.683-11.463-11.463-26.711-17.777-42.933-17.777h-99.4c-4.142 0-7.5 3.358-7.5 7.5s3.358 7.5 7.5 7.5h99.4c12.216 0 23.696 4.753 32.324 13.381 8.632 8.641 13.386 20.122 13.386 32.329 0 4.142 3.358 7.5 7.5 7.5 4.143 0 7.5-3.358 7.5-7.5 0-25.205 20.506-45.71 45.71-45.71h166.42c.696 0 1.185.326 1.453.97.401.963-.148 1.518-.326 1.697-11.42 11.506-16.154 23.761-18.091 31.182h-120.846c-24.26 0-46.262 15.058-55.342 37.24h-52.957c-9.08-22.183-31.082-37.24-55.341-37.24h-17.008v-13.413c0-4.142-3.358-7.5-7.5-7.5h-66.508c-4.142 0-7.5 3.358-7.5 7.5v13.413h-22.33c-1.937-7.42-6.67-19.674-18.088-31.178-.181-.183-.731-.737-.33-1.701.269-.644.757-.97 1.453-.97h32.02c4.142 0 7.5-3.358 7.5-7.5s-3.358-7.5-7.5-7.5h-32.019c-6.711 0-12.716 4.003-15.298 10.199-2.581 6.191-1.198 13.269 3.525 18.034 7.278 7.333 11.083 15.03 13.052 20.615h-15.149c-6.017 0-11.669 2.347-15.894 6.587-4.26 4.246-6.606 9.897-6.606 15.914 0 12.407 10.093 22.5 22.5 22.5h53.164v41.582c0 2.83 1.593 5.419 4.12 6.695 2.525 1.274 5.555 1.02 7.833-.661l28.801-21.253 28.8 21.253c2.283 1.685 5.316 1.932 7.833.661 2.527-1.276 4.12-3.865 4.12-6.695v-41.582h17.008c3.952 0 7.667 1.553 10.462 4.373 2.793 2.818 4.313 6.548 4.278 10.503-.05 5.883 2.226 11.446 6.408 15.664 4.222 4.258 10.087 6.701 16.092 6.701h89.16c12.257 0 22.351-9.972 22.499-22.235.094-8.274 6.707-15.005 14.741-15.005h151.681c6.008 0 11.655-2.339 15.893-6.576 4.261-4.244 6.607-9.899 6.607-15.924 0-12.408-10.094-22.501-22.5-22.501zm-467 30c-4.136 0-7.5-3.364-7.5-7.5 0-2 .779-3.877 2.213-5.306 1.409-1.415 3.287-2.194 5.287-2.194h53.164v15zm119.672 41.726-21.3-15.719c-2.648-1.954-6.26-1.954-8.907 0l-21.301 15.719v-77.639h51.508zm352.624-43.919c-1.414 1.414-3.295 2.193-5.296 2.193h-151.68c-16.212 0-29.554 13.384-29.739 29.829-.05 4.086-3.415 7.411-7.501 7.411h-89.16c-2.032 0-4.015-.825-5.44-2.262-1.344-1.355-2.076-3.122-2.06-4.971.071-7.984-2.991-15.511-8.624-21.193-5.633-5.684-13.132-8.813-21.116-8.813h-17.008v-15h17.008c19.593 0 37.22 13.118 42.867 31.9.953 3.17 3.872 5.34 7.183 5.34h63.54c3.311 0 6.229-2.17 7.183-5.34 5.647-18.782 23.275-31.9 42.868-31.9h151.679c4.136 0 7.5 3.364 7.5 7.5 0 2.005-.779 3.886-2.204 5.306z"/><path d="m256 188.066c13.337 0 24.188-10.851 24.188-24.188v-53.272c0-13.337-10.851-24.188-24.188-24.188s-24.188 10.851-24.188 24.188v53.272c0 13.338 10.851 24.188 24.188 24.188zm-9.188-77.459c0-5.066 4.122-9.188 9.188-9.188s9.188 4.122 9.188 9.188v53.272c0 5.066-4.121 9.188-9.188 9.188-5.066 0-9.188-4.122-9.188-9.188z"/><path d="m151.343 186.598c3.466 9.522 12.6 15.919 22.729 15.919 2.821 0 5.604-.492 8.272-1.463 6.071-2.21 10.918-6.652 13.648-12.507s3.017-12.424.808-18.494l-18.22-50.06c-2.209-6.071-6.651-10.918-12.508-13.649-5.855-2.729-12.422-3.018-18.494-.808-6.071 2.21-10.918 6.652-13.648 12.507s-3.017 12.424-.808 18.494zm1.366-66.965c2.302-.838 4.797-.732 7.025.307 2.224 1.037 3.912 2.878 4.75 5.184l18.22 50.06c.839 2.306.73 4.8-.306 7.024-1.037 2.224-2.878 3.911-5.184 4.75-1.019.371-2.075.559-3.142.559-3.847 0-7.317-2.431-8.634-6.049l-18.221-50.06c-1.731-4.76.732-10.043 5.492-11.775z"/><path d="m83.497 235.469c4.608 5.491 11.365 8.64 18.537 8.64 5.671 0 11.19-2.01 15.539-5.659 4.949-4.153 7.985-9.984 8.548-16.42.563-6.437-1.414-12.707-5.567-17.655l-34.243-40.81c-8.574-10.215-23.859-11.553-34.075-2.981s-11.554 23.859-2.981 34.076zm-21.621-63.395c1.718-1.441 3.813-2.145 5.897-2.145 2.624 0 5.231 1.116 7.046 3.278l34.243 40.81c1.577 1.879 2.328 4.261 2.114 6.706s-1.367 4.66-3.247 6.237c-2.117 1.776-4.375 2.149-5.896 2.149-2.728 0-5.296-1.196-7.047-3.282l-34.243-40.809c-3.255-3.881-2.747-9.687 1.133-12.944z"/><path d="m329.681 201.067c2.681.964 5.455 1.453 8.249 1.453 10.124 0 19.257-6.399 22.729-15.925l4.739-13.02c1.417-3.893-.59-8.196-4.482-9.613-3.894-1.417-8.197.59-9.613 4.482l-4.738 13.018c-1.32 3.624-4.79 6.058-8.634 6.058-1.058 0-2.124-.191-3.14-.556-4.76-1.736-7.224-7.021-5.492-11.779l18.22-50.061c1.733-4.763 7.021-7.225 11.771-5.499 4.76 1.737 7.224 7.022 5.495 11.775l-1.51 4.14c-1.419 3.892.585 8.197 4.477 9.616 3.893 1.421 8.197-.586 9.615-4.476l1.512-4.146c4.556-12.523-1.925-26.43-14.454-31.002-12.536-4.559-26.442 1.93-31.002 14.463l-18.22 50.061c-4.557 12.524 1.924 26.431 14.478 31.011z"/><path d="m394.429 238.45c4.349 3.649 9.867 5.659 15.538 5.659 7.173 0 13.929-3.149 18.537-8.64l34.242-40.809c8.573-10.217 7.235-25.503-2.981-34.076-4.949-4.152-11.218-6.132-17.655-5.566-6.437.563-12.268 3.599-16.42 8.548l-34.242 40.809c-4.153 4.949-6.131 11.219-5.567 17.656.562 6.435 3.598 12.266 8.548 16.419zm8.509-24.434 34.242-40.809c1.578-1.88 3.793-3.033 6.237-3.247.273-.024.545-.036.816-.036 2.154 0 4.22.749 5.89 2.15 3.881 3.256 4.389 9.063 1.133 12.944l-34.242 40.809c-1.75 2.086-4.319 3.282-7.047 3.282-1.521 0-3.779-.373-5.896-2.149-1.88-1.578-3.033-3.793-3.247-6.237-.215-2.446.536-4.827 2.114-6.707z"/></g></g></svg>