<svg id="Capa_1" enable-background="new 0 0 512 512" height="512" viewBox="0 0 512 512" width="512" xmlns="http://www.w3.org/2000/svg"><g><g><path d="m108.437 376.12 98.692-164.635 48.872-24.623 48.871 24.623 98.692 164.635-115.79 86.088h-68.933z" fill="#ffe177"/><path d="m185.417 376.12 52.81 86.09h-19.39l-110.4-86.09 98.69-164.64 48.87-24.62-23.38 24.62z" fill="#ffd15b"/><path d="m47.164 424.968s-1.375-17.412-17.241-33.403c-5.673-5.718-1.613-15.445 6.442-15.445h166.428c29.385 0 53.207 23.821 53.207 53.207 0-29.385 23.821-53.207 53.207-53.207h166.428c8.055 0 12.115 9.726 6.442 15.445-15.866 15.992-17.241 33.403-17.241 33.403v15h-142.243l-25.273 41.235h-81.14l-17.292-35.914-140.997-6.651z" fill="#ebebeb"/><g><path d="m256.001 7.957c-42.441 0-76.847 34.405-76.847 76.847l70.801 25.884 82.892-25.884c.001-42.442-34.405-76.847-76.846-76.847z" fill="#d4f2f6"/><path d="m227 84.804 48.763 17.822-25.811 8.06-70.798-25.882c0-42.44 34.406-76.846 76.846-76.846 8.354 0 16.397 1.336 23.923 3.803-30.728 10.056-52.923 38.957-52.923 73.043z" fill="#a6e7f0"/><path d="m304.872 211.485h-97.743c-30.3 0-56.923-20.103-65.216-49.246l114.088-38.718 114.088 38.718c-8.294 29.143-34.917 49.246-65.217 49.246z" fill="#7a6d79"/><path d="m268.923 211.485h-61.794c-30.3 0-56.922-20.111-65.214-49.253l114.085-38.716 30.897 10.483-83.187 28.234c8.291 29.141 34.913 49.252 65.213 49.252z" fill="#685e68"/><path d="m332.848 84.804h-153.694c-37.85 0-72.05 19.949-91.051 51.127-7.026 11.529 1.45 26.309 14.951 26.309h305.893c13.501 0 21.977-14.78 14.951-26.309-19-31.178-53.201-51.127-91.05-51.127z" fill="#bd80e1"/><path d="m190.127 162.24h-87.07c-13.502 0-21.981-14.776-14.954-26.31 18.998-31.173 53.199-51.124 91.052-51.124h87.079c-37.853 0-72.054 19.951-91.052 51.124-7.027 11.534 1.443 26.31 14.945 26.31z" fill="#af66da"/><g><circle cx="108.486" cy="111.602" fill="#ffe177" r="16.103"/></g><g><circle cx="174.032" cy="122.239" fill="#ffe177" r="16.103"/></g><g><circle cx="256.001" cy="122.239" fill="#ffe177" r="16.103"/></g><g><circle cx="403.515" cy="111.602" fill="#ffe177" r="16.103"/></g><g><circle cx="337.97" cy="122.239" fill="#ffe177" r="16.103"/></g></g><path d="m300.58 492.208h-89.16c-8.208 0-15.073-6.594-15.001-14.802.108-12.354-9.91-22.438-22.239-22.438h-151.68c-8.284 0-15-6.716-15-15 0-8.284 6.716-15 15-15h151.68c23.594 0 43.584 15.722 50.045 37.24h63.549c6.461-21.518 26.451-37.24 50.045-37.24h151.681c8.284 0 15 6.716 15 15 0 8.284-6.716 15-15 15h-151.68c-12.329 0-22.098 10.089-22.241 22.417-.095 8.202-6.774 14.823-14.999 14.823z" fill="#9be69d"/><path d="m149.672 504.048-33.254-24.54-33.254 24.54v-99.995h66.508z" fill="#fe646f"/></g><g><path d="m174.032 98.636c-13.015 0-23.603 10.588-23.603 23.603 0 13.014 10.588 23.603 23.603 23.603s23.603-10.588 23.603-23.603c-.001-13.015-10.589-23.603-23.603-23.603zm0 32.205c-4.744 0-8.603-3.859-8.603-8.603s3.859-8.603 8.603-8.603 8.603 3.859 8.603 8.603c-.001 4.744-3.86 8.603-8.603 8.603z"/><path d="m256 98.636c-13.015 0-23.603 10.588-23.603 23.603 0 13.014 10.588 23.603 23.603 23.603s23.603-10.588 23.603-23.603c.001-13.015-10.588-23.603-23.603-23.603zm0 32.205c-4.744 0-8.603-3.859-8.603-8.603s3.859-8.603 8.603-8.603 8.603 3.859 8.603 8.603c.001 4.744-3.859 8.603-8.603 8.603z"/><path d="m337.97 98.636c-13.015 0-23.603 10.588-23.603 23.603 0 13.014 10.588 23.603 23.603 23.603s23.603-10.588 23.603-23.603c-.001-13.015-10.589-23.603-23.603-23.603zm0 32.205c-4.744 0-8.603-3.859-8.603-8.603s3.859-8.603 8.603-8.603 8.603 3.859 8.603 8.603c-.001 4.744-3.86 8.603-8.603 8.603z"/><path d="m489.5 417.472h-15.154c1.969-5.587 5.776-13.29 13.055-20.626 4.722-4.76 6.107-11.836 3.528-18.028-2.581-6.196-8.584-10.199-15.294-10.199h-67.822l-90.345-150.71c26.295-4.507 48.694-22.871 58.047-48.174h33.436c9.141 0 17.276-4.768 21.763-12.755 4.443-7.91 4.289-17.24-.412-24.954-1.882-3.091-3.944-6.102-6.132-9.018 1.875-3.383 2.947-7.271 2.947-11.405.001-13.015-10.587-23.603-23.602-23.603-5.161 0-9.938 1.67-13.826 4.491-15.206-8.752-32.153-13.854-49.665-14.95-1.677-19.789-10.173-38.174-24.381-52.382-15.932-15.932-37.114-24.707-59.643-24.707-14.314 0-28.464 3.656-40.921 10.573-3.621 2.011-4.927 6.577-2.916 10.198 2.01 3.621 6.575 4.927 10.198 2.916 10.234-5.683 21.867-8.687 33.639-8.687 18.522 0 35.937 7.214 49.037 20.313 11.315 11.315 18.239 25.85 19.915 41.537h-137.902c1.238-11.536 5.332-22.514 12.022-32.111 2.369-3.398 1.535-8.073-1.863-10.442-3.397-2.369-8.073-1.535-10.441 1.863-8.501 12.193-13.546 26.219-14.798 40.928-17.509 1.097-34.454 6.199-49.658 14.949-3.889-2.821-8.664-4.49-13.825-4.49-13.015 0-23.603 10.588-23.603 23.603 0 4.133 1.071 8.02 2.946 11.403-2.188 2.917-4.251 5.928-6.133 9.019-4.702 7.716-4.856 17.045-.413 24.954 4.487 7.989 12.626 12.758 21.772 12.758h33.431c9.354 25.303 31.752 43.667 58.047 48.174l-90.345 150.71h-67.824c-6.71 0-12.713 4.003-15.294 10.199-2.579 6.191-1.194 13.268 3.528 18.028 7.28 7.338 11.087 15.042 13.055 20.621h-15.154c-6.017 0-11.668 2.346-15.894 6.587-4.26 4.245-6.606 9.896-6.606 15.913 0 12.406 10.093 22.5 22.5 22.5h53.164v41.58c0 2.83 1.593 5.42 4.12 6.695 1.068.539 2.226.805 3.379.805 1.575 0 3.14-.495 4.454-1.465l28.801-21.254 28.8 21.254c2.278 1.68 5.307 1.936 7.833.66 2.527-1.275 4.12-3.865 4.12-6.695v-41.575h17.008c3.954 0 7.67 1.552 10.464 4.372 2.792 2.817 4.311 6.547 4.276 10.505-.05 5.883 2.226 11.445 6.408 15.663 4.222 4.258 10.087 6.701 16.092 6.701h89.16c12.257 0 22.35-9.972 22.5-22.235.046-4.041 1.606-7.826 4.394-10.657 2.761-2.804 6.436-4.348 10.347-4.348h34.11c4.142 0 7.5-3.358 7.5-7.5s-3.358-7.5-7.5-7.5h-34.11c-16.211 0-29.552 13.384-29.739 29.828-.05 4.087-3.415 7.412-7.5 7.412h-89.16c-2.032 0-4.015-.824-5.44-2.262-1.344-1.356-2.076-3.122-2.06-4.971.071-7.987-2.991-15.514-8.621-21.194-5.632-5.683-13.132-8.812-21.118-8.812h-17.008v-15h17.008c19.593 0 37.22 13.118 42.867 31.899.953 3.17 3.872 5.341 7.183 5.341h63.54c3.311 0 6.229-2.17 7.183-5.341 5.647-18.782 23.274-31.899 42.867-31.899h151.678c4.136 0 7.5 3.365 7.5 7.5 0 2-.779 3.878-2.213 5.307-1.409 1.414-3.287 2.193-5.287 2.193h-82.57c-4.142 0-7.5 3.358-7.5 7.5s3.358 7.5 7.5 7.5h82.57c6.017 0 11.668-2.346 15.894-6.587 4.26-4.245 6.606-9.896 6.606-15.913 0-12.409-10.093-22.503-22.5-22.503zm-85.985-314.472c4.744 0 8.603 3.859 8.603 8.603s-3.859 8.603-8.603 8.603-8.603-3.859-8.603-8.603c.001-4.744 3.859-8.603 8.603-8.603zm-295.029 0c4.744 0 8.603 3.859 8.603 8.603s-3.859 8.603-8.603 8.603-8.603-3.859-8.603-8.603c.001-4.744 3.86-8.603 8.603-8.603zm-14.124 46.632c-.841-1.497-2.509-5.448.146-9.806 1.379-2.265 2.869-4.481 4.44-6.641 2.919 1.295 6.145 2.021 9.539 2.021 13.015 0 23.603-10.588 23.603-23.603 0-2.381-.358-4.679-1.016-6.847 14.682-8.161 31.169-12.453 48.081-12.453h153.691c16.913 0 33.401 4.293 48.084 12.455-.658 2.168-1.016 4.465-1.016 6.845 0 13.015 10.588 23.603 23.603 23.603 3.393 0 6.618-.725 9.536-2.02 1.571 2.161 3.061 4.377 4.44 6.643 2.654 4.357.985 8.309.145 9.806-1.794 3.194-5.041 5.102-8.685 5.102h-305.897c-3.649-.001-6.899-1.91-8.694-5.105zm58.392 20.107h206.494c-9.904 20.574-31.017 34.246-54.375 34.246h-97.743c-23.359 0-44.472-13.672-54.376-34.246zm58.624 49.246h89.246l89.7 149.634h-81.118c-22.893 0-42.867 12.738-53.207 31.498-10.34-18.76-30.314-31.498-53.207-31.498h-81.116zm-188.878 228.483c-4.136 0-7.5-3.365-7.5-7.5 0-2 .779-3.878 2.213-5.307 1.409-1.414 3.287-2.193 5.287-2.193h53.164v15zm98.372 26.005c-2.648-1.954-6.26-1.954-8.907 0l-21.301 15.719v-77.639h51.508v77.639zm161.607-18.761h-52.957c-9.08-22.183-31.082-37.24-55.341-37.24h-17.008v-13.419c0-4.142-3.358-7.5-7.5-7.5h-66.509c-4.142 0-7.5 3.358-7.5 7.5v13.415h-22.327c-1.937-7.42-6.672-19.677-18.09-31.186-.18-.182-.729-.736-.33-1.695.267-.642.754-.967 1.447-.967h166.428c25.203 0 45.707 20.504 45.707 45.707 0 4.142 3.358 7.5 7.5 7.5s7.5-3.358 7.5-7.5c0-25.203 20.504-45.707 45.707-45.707h166.428c.693 0 1.18.325 1.447.967.4.96-.149 1.513-.33 1.695-11.42 11.511-16.154 23.771-18.091 31.19h-120.84c-24.26 0-46.261 15.058-55.341 37.24z"/><path d="m222.847 263.361 12.729 85.147c.556 3.721 3.756 6.392 7.408 6.392.369 0 .742-.027 1.118-.083 4.097-.612 6.921-4.43 6.309-8.526l-2.406-16.094 33.889-19.058 12.439 10.427c3.175 2.661 7.905 2.245 10.566-.929s2.245-7.905-.929-10.566l-65.904-55.246c-.057-.048-.114-.094-.172-.14-2.99-2.359-7.066-2.676-10.384-.805-3.318 1.87-5.157 5.521-4.686 9.301.006.059.014.119.023.18zm46.76 37.477-23.975 13.483-5.739-38.392z"/></g></g></svg>