<svg id="Capa_1" enable-background="new 0 0 512 512" height="512" viewBox="0 0 512 512" width="512" xmlns="http://www.w3.org/2000/svg"><g><g><path d="m7.5 147.959c0-79.644 111.257-144.208 248.5-144.208s248.5 64.564 248.5 144.208l-119.559 236.704-130.186 76.082-127.696-76.082z" fill="#ffe177"/><path d="m402.18 224.42c-29.03 50.18-83.29 83.95-145.43 83.95s-116.4-33.77-145.43-83.95c20.4-35.27 53.27-62.43 92.57-75.46 16.62-5.51 34.39-8.49 52.86-8.49s36.24 2.98 52.86 8.49c39.3 13.03 72.17 40.19 92.57 75.46z" fill="#ebebeb"/><path d="m240.412 307.578c-55.23-5.33-102.64-37.43-129.09-83.16 20.4-35.27 53.27-62.43 92.57-75.46 15.54-5.15 32.08-8.09 49.25-8.46-30.78 17.15-51.59 50.02-51.59 87.75 0 32.26 15.21 60.97 38.86 79.33z" fill="#e2e2e2"/><path d="m320.43 184.47c0 35.17-28.51 63.68-63.68 63.68s-63.68-28.51-63.68-63.68c0-13.15 3.99-25.36 10.82-35.51 16.62-5.51 34.39-8.49 52.86-8.49s36.24 2.98 52.86 8.49c6.83 10.15 10.82 22.36 10.82 35.51z" fill="#fe646f"/><path d="m253.124 140.511c-27.75 15.46-47.39 43.7-50.99 76.76-5.76-9.58-9.08-20.8-9.08-32.79 0-13.15 3.99-25.36 10.82-35.51 15.54-5.15 32.08-8.09 49.25-8.46z" fill="#fd4755"/><path d="m47.164 433.511s-1.375-17.412-17.241-33.403c-5.673-5.718-1.613-15.445 6.442-15.445h166.428c29.385 0 53.207 23.821 53.207 53.207 0-29.385 23.821-53.207 53.207-53.207h166.428c8.055 0 12.115 9.726 6.442 15.445-15.866 15.992-17.241 33.403-17.241 33.403v15h-142.243l-25.273 41.235h-81.14l-17.292-35.914-140.997-6.651z" fill="#ebebeb"/><path d="m300.58 500.751h-89.16c-8.208 0-15.073-6.594-15.001-14.802.108-12.354-9.91-22.438-22.239-22.438h-151.68c-8.284 0-15-6.716-15-15 0-8.284 6.716-15 15-15h151.68c23.594 0 43.584 15.722 50.045 37.24h63.549c6.461-21.518 26.451-37.24 50.045-37.24h151.681c8.284 0 15 6.716 15 15 0 8.284-6.716 15-15 15h-151.68c-12.329 0-22.098 10.089-22.241 22.417-.095 8.202-6.774 14.823-14.999 14.823z" fill="#bd80e1"/><circle cx="256.75" cy="184.473" fill="#685e68" r="24.025"/><g fill="#fd8087"><path d="m254.755 108.62c-8.284 0-15-6.716-15-15v-47.886c0-8.284 6.716-15 15-15s15 6.716 15 15v47.886c0 8.284-6.716 15-15 15z"/><path d="m181.111 121.609c-6.127 0-11.879-3.782-14.096-9.874l-16.378-44.998c-2.833-7.785 1.18-16.392 8.965-19.226 7.783-2.833 16.393 1.18 19.226 8.965l16.378 44.998c2.833 7.785-1.18 16.392-8.965 19.226-1.694.617-3.426.909-5.13.909z"/><path d="m116.356 158.996c-4.281 0-8.531-1.822-11.499-5.358l-30.781-36.683c-5.325-6.346-4.497-15.807 1.849-21.133 6.345-5.325 15.806-4.497 21.132 1.849l30.781 36.683c5.325 6.346 4.497 15.808-1.849 21.132-2.809 2.358-6.231 3.51-9.633 3.51z"/><path d="m328.399 121.609c-1.704 0-3.436-.292-5.129-.909-7.785-2.833-11.798-11.441-8.965-19.226l16.378-44.998c2.833-7.785 11.441-11.798 19.226-8.965s11.798 11.441 8.965 19.226l-16.378 44.998c-2.218 6.091-7.971 9.874-14.097 9.874z"/><path d="m393.154 158.996c-3.403 0-6.823-1.151-9.634-3.51-6.346-5.325-7.174-14.786-1.849-21.132l30.78-36.683c5.325-6.347 14.786-7.174 21.132-1.849s7.174 14.786 1.849 21.133l-30.78 36.683c-2.966 3.535-7.217 5.358-11.498 5.358z"/></g></g><g><path d="m104.831 220.662c-1.346 2.324-1.347 5.19-.002 7.515 15.144 26.178 36.923 48.133 62.982 63.492 26.85 15.826 57.605 24.191 88.939 24.191s62.088-8.365 88.939-24.191c26.059-15.359 47.838-37.315 62.982-63.492 1.344-2.323 1.344-5.187 0-7.511-15.144-26.182-36.923-48.14-62.982-63.502-26.85-15.827-57.605-24.192-88.939-24.192-32.927 0-65.014 9.177-92.794 26.54-3.513 2.195-4.58 6.822-2.385 10.335 2.195 3.512 6.822 4.58 10.335 2.385 5.476-3.423 11.145-6.475 16.957-9.193-2.169 6.878-3.293 14.09-3.293 21.435 0 39.243 31.931 71.169 71.181 71.169s71.181-31.926 71.181-71.169c0-7.352-1.127-14.569-3.299-21.453 4.581 2.139 9.07 4.489 13.441 7.066 22.581 13.311 41.65 32.038 55.374 54.334-13.724 22.292-32.792 41.017-55.373 54.326-24.545 14.467-52.666 22.114-81.323 22.114s-56.778-7.647-81.323-22.114c-22.581-13.31-41.648-32.032-55.372-54.324 7.142-11.593 15.712-22.225 25.522-31.655 2.986-2.871 3.081-7.618.21-10.604-2.871-2.987-7.619-3.08-10.604-.21-11.874 11.411-22.086 24.434-30.354 38.708zm208.1-36.189c0 30.972-25.202 56.169-56.181 56.169s-56.181-25.197-56.181-56.169c0-10.361 2.815-20.384 8.152-29.154 15.439-4.837 31.616-7.348 48.029-7.348 16.375 0 32.571 2.507 48.028 7.346 5.337 8.771 8.153 18.794 8.153 29.156z"/><path d="m489.499 426.01h-15.152c1.97-5.587 5.777-13.287 13.053-20.621 4.722-4.759 6.107-11.835 3.528-18.027-2.581-6.196-8.584-10.199-15.294-10.199h-78.503l114.062-225.821c1.868-3.697.384-8.208-3.313-10.076-3.698-1.867-8.208-.384-10.076 3.313l-117.478 232.583h-71.12c-22.892 0-42.866 12.738-53.206 31.497-10.34-18.76-30.314-31.497-53.206-31.497h-71.12l-117.478-232.583c-1.867-3.697-6.379-5.181-10.076-3.313-3.697 1.868-5.181 6.379-3.313 10.076l114.062 225.821h-78.502c-6.71 0-12.713 4.003-15.294 10.199-2.579 6.192-1.194 13.268 3.528 18.027 7.28 7.337 11.086 15.041 13.055 20.621h-15.155c-6.017 0-11.669 2.347-15.894 6.587-4.26 4.245-6.606 9.896-6.606 15.913 0 12.407 10.093 22.5 22.5 22.5h151.679c3.954 0 7.67 1.552 10.464 4.372 2.792 2.817 4.311 6.547 4.276 10.505-.05 5.883 2.226 11.445 6.408 15.663 4.222 4.258 10.087 6.701 16.092 6.701h89.16c12.256 0 22.349-9.972 22.499-22.234.094-8.274 6.706-15.006 14.74-15.006h151.679c6.018 0 11.669-2.346 15.894-6.587 4.26-4.245 6.606-9.896 6.606-15.913 0-12.408-10.093-22.501-22.499-22.501zm5.286 27.806c-1.409 1.415-3.286 2.193-5.287 2.193h-151.679c-16.211 0-29.552 13.384-29.739 29.829-.05 4.086-3.415 7.411-7.5 7.411h-89.16c-2.032 0-4.015-.825-5.44-2.262-1.344-1.355-2.076-3.122-2.06-4.971.071-7.987-2.991-15.515-8.621-21.195-5.632-5.683-13.132-8.812-21.118-8.812h-151.68c-4.136 0-7.5-3.364-7.5-7.5 0-2 .779-3.877 2.213-5.306 1.409-1.415 3.287-2.194 5.287-2.194h151.679c19.593 0 37.22 13.118 42.867 31.9.954 3.17 3.872 5.34 7.183 5.34h63.54c3.311 0 6.229-2.17 7.183-5.34 5.647-18.782 23.274-31.9 42.867-31.9h48.08c4.142 0 7.5-3.358 7.5-7.5s-3.358-7.5-7.5-7.5h-48.08c-24.26 0-46.261 15.058-55.341 37.24h-52.957c-9.08-22.182-31.081-37.24-55.341-37.24h-120.843c-1.937-7.42-6.672-19.677-18.09-31.185-.181-.182-.729-.735-.33-1.695.268-.642.754-.967 1.448-.967h90.678c.007 0 .014.001.021.001.008 0 .017-.001.026-.001h75.703c25.202 0 45.706 20.504 45.706 45.706 0 4.142 3.358 7.5 7.5 7.5s7.5-3.358 7.5-7.5c0-25.202 20.504-45.706 45.706-45.706h75.703c.008 0 .017.001.026.001.007 0 .014-.001.021-.001h90.678c.693 0 1.18.325 1.448.967.399.96-.149 1.513-.33 1.695-11.418 11.508-16.152 23.766-18.09 31.185h-37.763c-4.142 0-7.5 3.358-7.5 7.5s3.358 7.5 7.5 7.5h68.6c4.136 0 7.5 3.364 7.5 7.5 0 2-.78 3.878-2.214 5.307z"/><path d="m225.226 184.473c0 17.383 14.142 31.524 31.524 31.524s31.524-14.142 31.524-31.524-14.142-31.524-31.524-31.524-31.524 14.142-31.524 31.524zm48.048 0c0 9.112-7.413 16.524-16.524 16.524-9.112 0-16.524-7.413-16.524-16.524 0-9.112 7.413-16.524 16.524-16.524 9.112 0 16.524 7.413 16.524 16.524z"/><path d="m254.755 116.121c12.407 0 22.5-10.093 22.5-22.5v-47.886c0-12.406-10.093-22.5-22.5-22.5s-22.5 10.093-22.5 22.5v47.886c0 12.406 10.093 22.5 22.5 22.5zm-7.5-70.386c0-4.135 3.364-7.5 7.5-7.5s7.5 3.364 7.5 7.5v47.886c0 4.135-3.364 7.5-7.5 7.5s-7.5-3.364-7.5-7.5z"/><path d="m159.968 114.301c3.224 8.858 11.721 14.809 21.144 14.809 2.624 0 5.213-.458 7.695-1.361 5.647-2.056 10.156-6.187 12.696-11.634s2.806-11.557.751-17.204l-16.378-44.997c-2.055-5.648-6.187-10.157-11.635-12.697-5.446-2.54-11.557-2.806-17.204-.751s-10.156 6.187-12.696 11.634-2.806 11.557-.751 17.204zm-2.032-55.862c.847-1.816 2.35-3.193 4.232-3.878 1.878-.684 3.916-.597 5.734.251 1.816.847 3.193 2.349 3.878 4.232l16.378 44.998c.686 1.883.597 3.919-.25 5.735s-2.35 3.193-4.231 3.878c-.833.303-1.696.457-2.565.457-3.141 0-5.973-1.985-7.048-4.939l-16.378-44.998c-.686-1.884-.597-3.921.25-5.736z"/><path d="m99.113 158.459c4.286 5.108 10.571 8.038 17.244 8.038 5.276 0 10.41-1.87 14.455-5.265 4.604-3.863 7.428-9.288 7.952-15.274.524-5.987-1.315-11.82-5.179-16.424l-30.781-36.684c-7.976-9.503-22.195-10.747-31.698-2.773-9.504 7.975-10.748 22.194-2.773 31.699zm-18.365-56.891c1.402-1.177 3.112-1.751 4.814-1.751 2.142 0 4.27.91 5.752 2.676l30.781 36.683c1.288 1.534 1.9 3.479 1.726 5.474-.175 1.996-1.116 3.804-2.65 5.092-1.729 1.45-3.572 1.755-4.813 1.755-2.228 0-4.324-.977-5.753-2.679l-30.78-36.683c-2.66-3.168-2.245-7.908.923-10.567z"/><path d="m320.704 127.749c2.481.903 5.07 1.361 7.694 1.361 9.423 0 17.92-5.951 21.144-14.809l16.378-44.998c2.055-5.647 1.789-11.757-.751-17.204s-7.049-9.579-12.697-11.634c-11.66-4.243-24.595 1.791-28.838 13.448l-16.378 44.998c-2.055 5.647-1.789 11.757.751 17.204 2.541 5.447 7.049 9.578 12.697 11.634zm.648-23.708 16.378-44.998c1.107-3.042 3.991-4.935 7.056-4.935.85 0 1.713.146 2.557.452 1.883.685 3.386 2.062 4.232 3.878s.936 3.852.25 5.735l-16.378 44.998c-1.075 2.954-3.908 4.939-7.048 4.939-.87 0-1.732-.154-2.564-.456-1.883-.685-3.386-2.062-4.232-3.878-.848-1.816-.936-3.852-.251-5.735z"/><path d="m378.699 161.232c4.045 3.395 9.179 5.265 14.454 5.265 6.672 0 12.957-2.93 17.244-8.038l30.78-36.682c3.863-4.604 5.703-10.437 5.179-16.424s-3.348-11.412-7.952-15.275c-9.503-7.974-23.723-6.729-31.698 2.774l-30.78 36.682c-3.863 4.604-5.703 10.437-5.179 16.424s3.348 11.411 7.952 15.274zm8.717-22.057 30.781-36.683c1.481-1.765 3.608-2.676 5.751-2.676 1.701 0 3.413.574 4.815 1.751 1.535 1.288 2.476 3.096 2.651 5.092.174 1.996-.438 3.94-1.726 5.475l-30.78 36.683c-1.429 1.703-3.526 2.679-5.753 2.679-1.241 0-3.084-.305-4.813-1.755-1.535-1.288-2.476-3.096-2.651-5.091-.176-1.996.437-3.94 1.725-5.475z"/></g></g></svg>