<svg id="Capa_1" enable-background="new 0 0 511.995 511.995" height="512" viewBox="0 0 511.995 511.995" width="512" xmlns="http://www.w3.org/2000/svg"><g><g><g><path d="m376.73 473.6v-435.206c0-17.062-13.832-30.894-30.894-30.894h-65.976c-17.062 0-30.894 13.832-30.894 30.894v435.206c0 17.062 13.832 30.894 30.894 30.894h65.977c17.062 0 30.893-13.831 30.893-30.894z" fill="#c68d7a"/><path d="m311.845 504.489h-31.99c-17.06 0-30.89-13.83-30.89-30.89v-435.205c0-17.06 13.83-30.9 30.89-30.9h31.99c-17.06 0-30.89 13.84-30.89 30.9v435.205c.001 17.06 13.831 30.89 30.89 30.89z" fill="#bc7c63"/><path d="m293.348 12.634h39.001v127.764h-39.001z" fill="#ffe177" transform="matrix(0 1 -1 0 389.365 -236.332)"/><path d="m299.316 380.584h27.064v127.764h-27.064z" fill="#ffe177" transform="matrix(0 1 -1 0 757.314 131.618)"/><g fill="#ffd15b"><path d="m245.46 60.521h39.001v31.99h-39.001z" transform="matrix(0 1 -1 0 341.477 -188.444)"/><path d="m251.428 428.471h27.064v31.99h-27.064z" transform="matrix(0 1 -1 0 709.426 179.505)"/></g></g><g><path d="m248.966 473.6v-435.206c0-17.062-13.832-30.894-30.894-30.894h-65.977c-17.062 0-30.894 13.832-30.894 30.894v435.206c0 17.062 13.832 30.894 30.894 30.894h65.977c17.062 0 30.894-13.831 30.894-30.894z" fill="#7a6d79"/><path d="m184.081 504.489h-31.99c-17.06 0-30.89-13.83-30.89-30.89v-435.205c0-17.06 13.83-30.9 30.89-30.9h31.99c-17.06 0-30.89 13.84-30.89 30.9v435.205c0 17.06 13.83 30.89 30.89 30.89z" fill="#685e68"/><path d="m165.583 12.634h39.001v127.764h-39.001z" fill="#9be69d" transform="matrix(0 1 -1 0 261.601 -108.567)"/><path d="m171.552 380.584h27.064v127.764h-27.064z" fill="#9be69d" transform="matrix(0 1 -1 0 629.55 259.382)"/><g fill="#6fd7a3"><path d="m117.696 60.521h39.001v31.99h-39.001z" transform="matrix(0 1 -1 0 213.712 -60.68)"/><path d="m123.664 428.471h27.064v31.99h-27.064z" transform="matrix(0 1 -1 0 581.662 307.27)"/></g></g><g><path d="m178.997 362.028-45.589-45.589-109.686 91.62c-20.379 17.023-21.76 47.863-2.984 66.639 18.776 18.776 49.616 17.395 66.639-2.984z" fill="#c68d7a"/><path d="m33.771 483.795c-4.71-2.164-9.136-5.2-13.034-9.097-18.782-18.782-17.391-49.628 2.987-66.637l109.684-91.627 22.141 22.141-109.684 91.627c-16.138 13.474-20.358 35.634-12.094 53.593z" fill="#bc7c63"/><circle cx="229.796" cy="265.64" fill="#ffe177" r="124.34"/><circle cx="229.796" cy="265.64" fill="#d4f2f6" r="91.501"/><path d="m257.45 352.874c-8.736 2.768-18.016 4.256-27.665 4.256-50.529 0-91.49-40.961-91.49-91.49 0-50.545 40.961-91.506 91.49-91.506 9.648 0 18.929 1.488 27.665 4.256-37.009 11.728-63.826 46.353-63.826 87.25 0 40.881 26.817 75.506 63.826 87.234z" fill="#a6e7f0"/></g><g><path d="m504.495 473.6v-435.206c0-17.062-13.832-30.894-30.894-30.894h-65.977c-17.062 0-30.894 13.832-30.894 30.894v435.206c0 17.062 13.832 30.894 30.894 30.894h65.977c17.062 0 30.894-13.831 30.894-30.894z" fill="#9be69d"/><path d="m439.61 504.489h-31.99c-17.06 0-30.89-13.83-30.89-30.89v-435.205c0-17.06 13.83-30.9 30.89-30.9h31.99c-17.06 0-30.89 13.84-30.89 30.9v435.205c0 17.06 13.83 30.89 30.89 30.89z" fill="#6fd7a3"/><path d="m421.112 12.634h39.001v127.764h-39.001z" fill="#7a6d79" transform="matrix(0 1 -1 0 517.129 -364.096)"/><path d="m427.08 380.584h27.064v127.764h-27.064z" fill="#7a6d79" transform="matrix(0 1 -1 0 885.079 3.854)"/><path d="m373.224 60.521h39.001v31.99h-39.001z" fill="#685e68" transform="matrix(0 1 -1 0 469.241 -316.208)"/><path d="m379.193 428.471h27.064v31.99h-27.064z" fill="#685e68" transform="matrix(0 1 -1 0 837.19 51.741)"/><path d="m421.112 76.657h39.001v127.764h-39.001z" fill="#7a6d79" transform="matrix(0 1 -1 0 581.151 -300.074)"/><path d="m373.224 124.544h39.001v31.99h-39.001z" fill="#685e68" transform="matrix(0 1 -1 0 533.263 -252.186)"/></g></g><g><path d="m328.796 265.64c0-54.589-44.411-99.001-99-99.001s-99 44.412-99 99c0 54.589 44.412 99.001 99 99.001 54.589.001 99-44.411 99-99zm-183.001 0c0-46.318 37.683-84 84-84s84 37.683 84 84.001-37.683 84-84 84-84-37.683-84-84.001z"/><path d="m511.995 38.394c0-21.17-17.224-38.394-38.394-38.394h-65.977c-12.656 0-23.897 6.158-30.895 15.631-6.997-9.473-18.238-15.631-30.893-15.631h-65.979c-12.653 0-23.893 6.157-30.89 15.628-7-9.471-18.242-15.628-30.899-15.628h-65.969c-21.173 0-38.399 17.222-38.399 38.39v164.823c-10.038 18.594-15.743 39.856-15.743 62.427 0 21.196 5.035 41.235 13.961 58.997l-41.128 34.351c-3.179 2.655-3.604 7.385-.949 10.564 1.483 1.776 3.614 2.692 5.76 2.692 1.696 0 3.401-.572 4.804-1.744l39.124-32.677c9.952 15.151 22.938 28.137 38.091 38.088l-75.99 90.995c-.719.857-1.501 1.71-2.325 2.535-7.059 7.059-16.476 10.963-26.517 10.993-.04 0-.078 0-.117 0-10.058 0-19.516-3.919-26.64-11.043-7.567-7.568-11.472-17.626-10.994-28.323.479-10.704 5.269-20.38 13.489-27.248l25.01-20.89c3.179-2.655 3.604-7.385.948-10.564-2.656-3.18-7.385-3.604-10.564-.948l-25.011 20.891c-11.324 9.462-18.197 23.345-18.856 38.09-.659 14.738 4.944 29.171 15.372 39.599 9.959 9.959 23.18 15.437 37.245 15.437h.164c14.03-.042 27.198-5.507 37.078-15.387 1.134-1.134 2.215-2.313 3.224-3.516l20.565-24.625v21.698c0 21.168 17.226 38.39 38.399 38.39h65.969c12.657 0 23.899-6.157 30.899-15.628 6.998 9.472 18.237 15.628 30.89 15.628h65.979c12.655 0 23.895-6.158 30.893-15.631 6.998 9.474 18.24 15.631 30.895 15.631h65.977c21.17 0 38.394-17.224 38.394-38.394v-435.207zm-15 412.104h-112.765v-12.064h112.765zm-368.293-12.064h112.764v12.064h-112.764zm232.934-172.794c0-63.562-45.214-116.761-105.168-129.127v-32.995h112.758v319.917h-112.758v-28.667c59.954-12.367 105.168-65.567 105.168-129.128zm135.359-113.101h-112.765v-24.001h112.765zm-112.765-39.001v-10.024h112.765v10.024zm-15.004-25.021h-112.758v-24.001h112.758zm-240.524 0v-24.001h112.764v24.001zm127.766 349.917h112.758v12.064h-112.758zm127.762-15v-255.895h112.765v255.895zm23.395-408.434h65.977c12.899 0 23.394 10.495 23.394 23.394v11.12h-19.497c-4.143 0-7.5 3.358-7.5 7.5s3.357 7.5 7.5 7.5h19.497v24h-112.766v-24h58.268c4.143 0 7.5-3.358 7.5-7.5s-3.357-7.5-7.5-7.5h-58.268v-11.12c0-12.899 10.495-23.394 23.395-23.394zm-127.768 0h65.979c12.897 0 23.39 10.493 23.39 23.39v11.126h-112.758v-11.126c0-12.897 10.492-23.39 23.389-23.39zm-127.758 0h65.969c12.903 0 23.4 10.493 23.4 23.39v11.126h-112.769v-11.126c0-12.897 10.497-23.39 23.4-23.39zm-23.4 88.517h112.769v30.805c-3.847-.339-7.738-.522-11.672-.522-40.559 0-76.893 18.415-101.097 47.317zm-15.743 162.123c0-64.426 52.414-116.84 116.84-116.84s116.84 52.415 116.84 116.84-52.414 116.84-116.84 116.84-116.84-52.414-116.84-116.84zm116.84 131.84c3.934 0 7.825-.184 11.672-.522v26.477h-103.991l33.33-39.911c17.76 8.922 37.796 13.956 58.989 13.956zm-11.728 99.514h-65.969c-12.902 0-23.399-10.493-23.399-23.39v-8.106h112.769v8.106c-.001 12.898-10.498 23.39-23.401 23.39zm127.768 0h-65.979c-12.896 0-23.389-10.493-23.389-23.39v-8.106h112.758v8.106c0 12.898-10.492 23.39-23.39 23.39zm127.765 0h-65.977c-12.899 0-23.395-10.495-23.395-23.394v-8.102h112.765v8.102c.001 12.9-10.494 23.394-23.393 23.394z"/><path d="m455.802 194.678c-4.143 0-7.5 3.358-7.5 7.5v144.986c0 4.142 3.357 7.5 7.5 7.5s7.5-3.358 7.5-7.5v-144.986c0-4.142-3.357-7.5-7.5-7.5z"/><path d="m425.423 194.678c-4.143 0-7.5 3.358-7.5 7.5v79.206c0 4.142 3.357 7.5 7.5 7.5s7.5-3.358 7.5-7.5v-79.206c0-4.142-3.357-7.5-7.5-7.5z"/></g></g></svg>