<svg id="Capa_1" enable-background="new 0 0 512 512" height="512" viewBox="0 0 512 512" width="512" xmlns="http://www.w3.org/2000/svg"><g><g><g><path d="m476.046 490.498v-78.21l.001-390c0-8.167-6.621-14.788-14.788-14.788h-329.347c-29.329 0-53.104 23.776-53.104 53.104v390.32" fill="#fd8087"/><path d="m128.949 412.551h319.095v77.149h-325.358c-11.579 0-20.966-9.387-20.966-20.966v-28.953c-.001-15.039 12.191-27.23 27.229-27.23z" fill="#ebebeb"/><path d="m131.918 7.505v390.788h-.01c-29.32 0-53.1 23.77-53.1 53.1v-390.788c0-29.32 23.78-53.1 53.11-53.1z" fill="#fe646f"/><path d="m476.047 416.146c0 9.863-7.995 17.858-17.858 17.858h-325.345c-4.876 0-9.706 2.05-13.252 5.623-1.912 1.927-5.113 6.036-5.067 11.905.036 4.587 1.842 8.897 5.085 12.137 1.931 1.935 6.037 5.113 12.299 5.113h326.281c9.863 0 17.858 7.995 17.858 17.858 0 9.862-7.995 17.858-17.858 17.858h-326.282c-14.66 0-27.94-5.94-37.54-15.56-9.527-9.518-15.445-22.625-15.558-37.127-.229-29.438 24.595-53.522 54.034-53.522h325.345c9.862 0 17.858 7.995 17.858 17.857z" fill="#fe646f"/><path d="m445.491 300.496v-195.203c-37.134 0-67.236-30.103-67.236-67.236h-148.551c0 37.134-30.103 67.236-67.236 67.236v195.203c37.134 0 67.236 30.103 67.236 67.236h148.551c0-37.133 30.103-67.236 67.236-67.236z" fill="#9be69d"/><g fill="#60b7ff"><circle cx="427.879" cy="55.669" r="17.612"/><circle cx="427.879" cy="350.12" r="17.612"/><circle cx="180.08" cy="55.669" r="17.612"/></g></g><g><path d="m60.865 472.589-18.336-18.979c-9.252-9.576-8.674-24.927 1.27-33.781l249.009-221.699 32.003 33.125-230.142 241.228c-9.191 9.634-24.553 9.682-33.804.106z" fill="#7a6d79"/><path d="m58.344 469.984-15.814-16.368c-9.252-9.577-8.669-24.927 1.269-33.786l249.009-221.7 15.814 16.368-249.009 221.7c-9.947 8.849-10.522 24.209-1.269 33.786z" fill="#685e68"/><path d="m399.795 147.347-13.244 36.951c-1.831 5.108-1.031 10.791 2.139 15.195l22.931 31.858c7.983 11.091-.217 26.522-13.876 26.112l-39.235-1.177c-5.424-.163-10.581 2.354-13.79 6.73l-23.213 31.653c-8.081 11.02-25.291 7.99-29.122-5.128l-11.004-37.678c-1.521-5.209-5.508-9.336-10.662-11.036l-37.277-12.295c-12.978-4.281-15.414-21.584-4.122-29.282l32.434-22.109c4.484-3.057 7.177-8.124 7.201-13.55l.174-39.252c.061-13.666 15.765-21.329 26.575-12.969l31.05 24.014c4.293 3.32 9.944 4.315 15.112 2.661l37.385-11.964c13.013-4.166 25.155 8.401 20.544 21.266z" fill="#ffe177"/><path d="m399.796 147.356-4.616 12.871-33.051 10.581c-5.178 1.653-10.822.656-15.111-2.661l-31.062-24.015c-10.802-8.365-26.508-.689-26.569 12.976l-.173 39.254c-.025 5.41-2.716 10.484-7.202 13.542l-32.437 22.109c-.597.406-1.147.842-1.658 1.297l-14.475-4.779c-12.983-4.279-15.424-21.578-4.122-29.281l32.427-22.099c4.486-3.059 7.177-8.132 7.212-13.552l.173-39.254c.061-13.665 15.757-21.331 26.569-12.976l31.052 24.025c4.289 3.316 9.943 4.304 15.111 2.661l37.382-11.968c13.023-4.17 25.166 8.399 20.55 21.269z" fill="#ffd15b"/><path d="m215.496 376.016c-11.248 4.365-23.904-1.215-28.268-12.462l-24.368-62.794c-4.365-11.247 1.215-23.904 12.462-28.268 11.247-4.365 23.904 1.215 28.268 12.462l24.368 62.793c4.365 11.248-1.214 23.904-12.462 28.269z" fill="#7a6d79"/><path d="m181.398 408.959c-11.248 4.365-23.904-1.215-28.268-12.462l-24.368-62.793c-4.365-11.247 1.215-23.904 12.462-28.268 11.247-4.365 23.904 1.215 28.268 12.462l24.368 62.793c4.365 11.247-1.214 23.903-12.462 28.268z" fill="#7a6d79"/><g fill="#685e68"><path d="m151.975 333.108c-11.254 4.365-16.834 17.025-12.469 28.26l-10.741-27.663c-4.365-11.254 1.225-23.905 12.459-28.27 8.458-3.281 17.699-.944 23.624 5.188 1.959 2.028 3.562 4.475 4.646 7.271l7.581 19.546 3.16 8.136c-1.084-2.796-2.687-5.244-4.646-7.271-5.934-6.141-15.176-8.478-23.614-5.197z"/><path d="m186.073 300.164c-11.254 4.365-16.834 17.025-12.469 28.26l-10.741-27.663c-4.365-11.254 1.225-23.905 12.459-28.27 8.458-3.281 17.699-.944 23.624 5.188 1.959 2.028 3.562 4.475 4.646 7.271l7.581 19.546 3.16 8.136c-1.084-2.796-2.687-5.244-4.646-7.271-5.934-6.141-15.176-8.478-23.614-5.197z"/></g></g></g><g><path d="m427.879 80.781c13.847 0 25.112-11.265 25.112-25.113 0-13.847-11.266-25.112-25.112-25.112s-25.112 11.265-25.112 25.112c0 13.848 11.265 25.113 25.112 25.113zm0-35.224c5.576 0 10.112 4.536 10.112 10.112s-4.536 10.113-10.112 10.113-10.112-4.536-10.112-10.113c0-5.576 4.536-10.112 10.112-10.112z"/><path d="m427.879 325.008c-13.847 0-25.112 11.265-25.112 25.112s11.266 25.113 25.112 25.113 25.112-11.266 25.112-25.113-11.265-25.112-25.112-25.112zm0 35.225c-5.576 0-10.112-4.537-10.112-10.113s4.536-10.112 10.112-10.112 10.112 4.536 10.112 10.112-4.536 10.113-10.112 10.113z"/><path d="m180.08 80.781c13.847 0 25.113-11.265 25.113-25.113 0-13.847-11.266-25.112-25.113-25.112s-25.112 11.265-25.112 25.112c0 13.848 11.265 25.113 25.112 25.113zm0-35.224c5.576 0 10.113 4.536 10.113 10.112s-4.537 10.113-10.113 10.113-10.112-4.536-10.112-10.113c0-5.576 4.536-10.112 10.112-10.112z"/><path d="m461.259 0h-329.351c-33.413 0-60.596 27.188-60.596 60.606v324.687l-32.502 28.935c-6.348 5.659-10.019 13.456-10.335 21.953-.316 8.491 2.76 16.533 8.663 22.643l18.333 18.976c5.883 6.088 13.777 9.438 22.241 9.438h.091c1.688-.005 3.352-.148 4.983-.415 1.891 2.621 3.973 5.114 6.274 7.415 11.43 11.454 26.647 17.762 42.848 17.762h326.28c6.774 0 13.144-2.637 17.934-7.427 4.788-4.789 7.426-11.154 7.426-17.923v-464.361c0-12.29-9.999-22.289-22.289-22.289zm7.289 22.289v370.719c-3.164-1.422-6.667-2.22-10.355-2.22h-255.439c.158-2.064.091-4.159-.201-6.254 1.667.294 3.362.462 5.074.462 3.523 0 7.105-.64 10.583-1.989 4.387-1.703 8.213-4.375 11.259-7.787.08.002.158.012.239.012h148.552c4.143 0 7.5-3.358 7.5-7.5 0-32.937 26.796-59.733 59.732-59.733 4.143 0 7.5-3.358 7.5-7.5v-195.21c0-4.142-3.357-7.5-7.5-7.5-32.937 0-59.732-26.796-59.732-59.733 0-4.142-3.357-7.5-7.5-7.5h-148.553c-4.142 0-7.5 3.358-7.5 7.5 0 32.937-26.801 59.733-59.743 59.733-4.142 0-7.5 3.358-7.5 7.5v179.663c-1.099 3.899-1.369 7.945-.81 11.928-4.903-.861-9.952-.447-14.746 1.24v-283.12h321.851c4.019 0 7.289 3.27 7.289 7.289zm-10.355 419.219c3.688 0 7.191-.798 10.355-2.221v24.215c-3.165-1.423-6.67-2.222-10.359-2.222h-2.644v-19.772zm0-15h-309.296l11.244-11.787c.498.254 1.002.498 1.517.725 3.791 1.671 7.806 2.509 11.828 2.509 3.587 0 7.181-.667 10.626-2.003 5.472-2.124 9.941-5.723 13.143-10.163h260.938c5.71 0 10.355 4.645 10.355 10.355 0 5.714-4.646 10.364-10.355 10.364zm-322.439-95.518c-1.386-3.572-1.299-7.47.247-10.977 1.546-3.506 4.364-6.2 7.937-7.586 1.684-.654 3.44-.979 5.194-.979 1.966 0 3.929.41 5.782 1.227 3.506 1.546 6.2 4.364 7.586 7.937l24.368 62.793c2.862 7.374-.809 15.701-8.183 18.562v.001c-3.572 1.386-7.47 1.298-10.976-.248s-6.2-4.364-7.586-7.937zm58.466 29.85-24.368-62.793c-1.386-3.572-1.299-7.47.247-10.977 1.546-3.506 4.364-6.2 7.937-7.586 1.684-.654 3.44-.979 5.194-.979 1.966 0 3.929.41 5.782 1.227 3.506 1.546 6.2 4.364 7.586 7.937l24.368 62.793c1.386 3.572 1.299 7.47-.247 10.976s-4.364 6.2-7.937 7.586c-7.372 2.862-15.7-.81-18.562-8.184zm74.147-112.888c2.812.928 4.984 3.174 5.812 6.011l4.362 14.928-51.991 54.494-15.967-41.145c-.082-.212-.174-.418-.261-.627l43.279-38.533zm-33.416 97.082-2.407-6.202 50.858-53.305 1.787 6.115c2.577 8.831 9.807 15.307 18.865 16.902 1.416.25 2.83.372 4.231.372 7.555 0 14.683-3.553 19.271-9.811l23.211-31.651c1.751-2.389 4.572-3.762 7.518-3.667l39.239 1.17c9.221.278 17.589-4.6 21.903-12.723s3.653-17.805-1.722-25.264l-22.932-31.864c-1.728-2.396-2.162-5.491-1.166-8.274l13.251-36.952c3.102-8.658 1.061-18.145-5.327-24.759-6.391-6.616-15.807-8.985-24.568-6.184l-37.39 11.963c-2.295.738-4.734.528-6.874-.588-3.67-1.917-8.202-.495-10.119 3.177s-.494 8.202 3.178 10.119c5.724 2.989 12.259 3.547 18.396 1.575l37.378-11.959c3.338-1.065 6.779-.199 9.211 2.318 2.43 2.515 3.176 5.984 1.996 9.276l-13.251 36.953c-2.663 7.437-1.498 15.7 3.114 22.1l22.932 31.863c2.045 2.838 2.286 6.375.646 9.463-1.641 3.089-4.698 4.876-8.208 4.766l-39.229-1.169c-7.901-.256-15.398 3.413-20.073 9.791l-23.211 31.65c-2.067 2.821-5.362 4.144-8.804 3.536-3.445-.606-6.088-2.974-7.068-6.334l-11.009-37.677c-2.21-7.575-8.008-13.576-15.511-16.052l-37.281-12.301c-3.321-1.095-5.595-3.814-6.083-7.275-.489-3.465.947-6.712 3.838-8.685l32.429-22.109c6.522-4.445 10.442-11.812 10.486-19.715l.17-39.249c.016-3.5 1.9-6.506 5.043-8.039 3.145-1.535 6.672-1.171 9.436.967l5.67 4.39c3.273 2.534 7.985 1.937 10.522-1.339 2.535-3.275 1.936-7.986-1.339-10.522l-5.674-4.393c-7.276-5.627-16.928-6.617-25.194-2.583-8.264 4.033-13.423 12.254-13.464 21.454l-.17 39.24c-.017 2.963-1.487 5.727-3.935 7.396l-32.432 22.11c-7.601 5.184-11.525 14.063-10.241 23.171 1.283 9.104 7.505 16.548 16.237 19.427l6.055 1.998-35.941 32c-1.868-1.442-3.924-2.668-6.138-3.645-7.171-3.162-15.146-3.341-22.454-.506-.906.352-1.789.745-2.646 1.177v-154.262c35.239-3.526 63.343-31.625 66.87-66.86h134.299c3.526 35.234 31.625 63.333 66.859 66.859v180.958c-35.234 3.526-63.333 31.625-66.859 66.859h-134.3c-.032-.317-.073-.631-.109-.946.604-4.769.018-9.643-1.77-14.251zm-148.639-284.428c0-22.592 16.511-41.389 38.096-44.978v46.214c-15.126 1.878-28.534 9.344-38.096 20.271zm0 61.204c.075-22.521 16.558-41.239 38.096-44.822v232.992c-.803 1.26-1.518 2.589-2.132 3.982-3.162 7.172-3.341 15.146-.506 22.454l1.142 2.942-36.6 32.582zm-8.552 350.427c-.016 0-.031 0-.047 0-4.359 0-8.425-1.725-11.454-4.86l-18.333-18.976c-3.04-3.146-4.625-7.288-4.461-11.661.163-4.38 2.055-8.398 5.323-11.312l79.917-71.143 17.434 44.926c.757 1.949 1.709 3.785 2.827 5.495l-59.714 62.598c-3.029 3.169-7.109 4.921-11.492 4.933zm387.756 21.729c-1.957 1.957-4.559 3.034-7.327 3.034h-326.28c-12.188 0-23.635-4.744-32.237-13.364-.978-.978-1.889-2.009-2.77-3.064 1.12-.89 2.192-1.858 3.2-2.912l11.433-11.986c.822 1.165 1.743 2.271 2.77 3.299 2.729 2.729 8.644 7.307 17.604 7.307h23.27c4.142 0 7.5-3.358 7.5-7.5s-3.358-7.5-7.5-7.5h-23.27c-3.375 0-5.668-1.584-6.997-2.913-1.171-1.171-2.008-2.585-2.473-4.123l12.149-12.736h305.957v19.772h-250.367c-4.142 0-7.5 3.358-7.5 7.5s3.358 7.5 7.5 7.5h268.01c5.712 0 10.359 4.652 10.359 10.37.001 2.762-1.076 5.361-3.031 7.316z"/></g></g></svg>