<svg id="Capa_1" enable-background="new 0 0 512 512" height="512" viewBox="0 0 512 512" width="512" xmlns="http://www.w3.org/2000/svg"><g><g><path d="m122.138 92.495h41.235v81.944h-41.235z" fill="#ebebeb"/><path d="m122.138 92.495h41.235v31.241h-41.235z" fill="#e2e2e2"/><path d="m122.138 92.495h17.89v81.944h-17.89z" fill="#e2e2e2"/><path d="m425.734 161.564h-339.468c-17.433 0-31.566 14.132-31.566 31.566v150.507h402.6v-150.507c0-17.434-14.132-31.566-31.566-31.566z" fill="#ebebeb"/><path d="m457.3 322.114h-402.6c-13.951 0-25.261 11.31-25.261 25.261v76.287c0 13.951 11.31 25.261 25.261 25.261h402.6c13.951 0 25.261-11.31 25.261-25.261v-76.287c0-13.951-11.309-25.261-25.261-25.261z" fill="#ebebeb"/><path d="m476.793 365.162h-441.586c-15.302 0-27.707 12.405-27.707 27.707v83.674c0 15.302 12.405 27.707 27.707 27.707h441.586c15.302 0 27.707-12.405 27.707-27.707v-83.674c0-15.302-12.405-27.707-27.707-27.707z" fill="#f8f6f6"/><path d="m37.5 455.743v-42.073c0-10.221 8.286-18.508 18.508-18.508h399.985c10.221 0 18.508 8.286 18.508 18.508v42.073c0 10.221-8.286 18.508-18.508 18.508h-399.985c-10.222-.001-18.508-8.287-18.508-18.508z" fill="#ebebeb"/><circle cx="256" cy="434.706" fill="#7a6d79" r="16.05"/><path d="m212.85 7.75h-140.188c-9.92 0-17.962 8.042-17.962 17.962v61.696c0 9.92 8.042 17.962 17.962 17.962h140.188c9.92 0 17.962-8.042 17.962-17.962v-61.695c0-9.921-8.042-17.963-17.962-17.963z" fill="#ebebeb"/><path d="m87.3 105.369h-14.64c-9.92 0-17.96-8.04-17.96-17.96v-61.7c0-9.92 8.04-17.96 17.96-17.96h14.64c-9.92 0-17.97 8.04-17.97 17.96v61.7c0 9.92 8.05 17.96 17.97 17.96z" fill="#e2e2e2"/><path d="m89.7 267.051v-50.428c0-11.078 8.981-20.059 20.059-20.059h81.987c11.078 0 20.059 8.981 20.059 20.059v50.428c0 11.078-8.981 20.059-20.059 20.059h-81.987c-11.078 0-20.059-8.98-20.059-20.059z" fill="#d4f2f6"/><path d="m289.428 154.238h90.546v175.198h-90.546z" fill="#7a6d79" transform="matrix(0 1 -1 0 576.538 -92.863)"/><path d="m123.946-1.495h37.621v116.112h-37.621z" fill="#d4f2f6" transform="matrix(0 1 -1 0 199.317 -86.196)"/></g><g><path d="m490.06 360.266v-12.896c0-15.483-10.8-28.482-25.26-31.883v-122.357c0-21.541-17.525-39.066-39.065-39.066h-254.861v-41.194h41.977c14.039 0 25.46-11.421 25.46-25.46v-61.7c0-14.039-11.421-25.46-25.46-25.46h-88.251c-4.142 0-7.5 3.358-7.5 7.5s3.358 7.5 7.5 7.5h88.25c5.768 0 10.46 4.692 10.46 10.46v61.7c0 5.768-4.692 10.46-10.46 10.46h-140.19c-5.768 0-10.46-4.692-10.46-10.46v-61.7c0-5.768 4.692-10.46 10.46-10.46h16.96c4.142 0 7.5-3.358 7.5-7.5s-3.358-7.5-7.5-7.5h-16.96c-14.039 0-25.46 11.421-25.46 25.46v61.7c0 14.039 11.421 25.46 25.46 25.46h41.979v41.194h-28.373c-21.541 0-39.065 17.525-39.065 39.066v122.357c-14.46 3.401-25.26 16.4-25.26 31.883v12.896c-12.856 5.25-21.941 17.882-21.941 32.603v83.674c0 19.413 15.794 35.207 35.207 35.207h441.586c19.413 0 35.207-15.794 35.207-35.207v-83.674c0-14.721-9.085-27.353-21.94-32.603zm-360.421-247.395h26.235v41.193h-26.235zm-67.439 80.259c0-13.27 10.796-24.066 24.065-24.066h339.469c13.27 0 24.065 10.796 24.065 24.066v121.48h-387.599zm-7.5 136.48h402.6c9.793 0 17.76 7.967 17.76 17.76v10.292h-438.12v-10.292c0-9.793 7.967-17.76 17.76-17.76zm442.3 146.933c0 11.142-9.065 20.207-20.207 20.207h-441.586c-11.142 0-20.207-9.064-20.207-20.207v-83.674c0-11.142 9.065-20.207 20.207-20.207h441.586c11.142 0 20.207 9.065 20.207 20.207z"/><path d="m455.99 387.66h-52.05c-4.142 0-7.5 3.358-7.5 7.5s3.358 7.5 7.5 7.5h52.05c6.071 0 11.01 4.939 11.01 11.01v42.07c0 6.071-4.939 11.01-11.01 11.01h-399.98c-6.071 0-11.01-4.939-11.01-11.01v-42.07c0-6.071 4.939-11.01 11.01-11.01h312.93c4.142 0 7.5-3.358 7.5-7.5s-3.358-7.5-7.5-7.5h-312.93c-14.342 0-26.01 11.668-26.01 26.01v42.07c0 14.342 11.668 26.01 26.01 26.01h399.98c14.342 0 26.01-11.668 26.01-26.01v-42.07c0-14.342-11.668-26.01-26.01-26.01z"/><path d="m232.45 434.707c0 12.985 10.564 23.55 23.55 23.55s23.55-10.564 23.55-23.55-10.564-23.55-23.55-23.55-23.55 10.564-23.55 23.55zm32.1 0c0 4.714-3.835 8.55-8.55 8.55s-8.55-3.835-8.55-8.55 3.835-8.55 8.55-8.55 8.55 3.835 8.55 8.55z"/><path d="m191.747 189.064h-81.987c-15.196 0-27.559 12.363-27.559 27.559v50.428c0 15.196 12.363 27.559 27.559 27.559h81.987c15.196 0 27.559-12.363 27.559-27.559v-50.428c-.001-15.196-12.364-27.559-27.559-27.559zm12.558 77.987c0 6.925-5.634 12.559-12.559 12.559h-81.987c-6.925 0-12.559-5.634-12.559-12.559v-50.428c0-6.925 5.634-12.559 12.559-12.559h81.987c6.925 0 12.559 5.634 12.559 12.559z"/><path d="m422.3 189.064h-175.198c-4.142 0-7.5 3.358-7.5 7.5v90.546c0 4.142 3.358 7.5 7.5 7.5h175.198c4.142 0 7.5-3.358 7.5-7.5v-90.546c0-4.142-3.358-7.5-7.5-7.5zm-7.5 30.707h-41.883v-15.707h41.883zm0 29.132h-41.883v-14.132h41.883zm-160.198-14.132h41.882v14.132h-41.882zm56.882 0h46.433v14.132h-46.433zm46.433-30.707v15.707h-46.433v-15.707zm-61.433 0v15.707h-41.882v-15.707zm-41.882 59.839h41.882v15.707h-41.882zm56.882 15.707v-15.707h46.433v15.707zm61.433 0v-15.707h41.883v15.707z"/><path d="m77.2 37.75v37.621c0 4.142 3.358 7.5 7.5 7.5h116.112c4.142 0 7.5-3.358 7.5-7.5v-37.621c0-4.142-3.358-7.5-7.5-7.5h-116.112c-4.142 0-7.5 3.358-7.5 7.5zm15 7.5h101.112v22.621h-101.112z"/></g></g></svg>