<svg id="Capa_1" enable-background="new 0 0 511.994 511.994" height="512" viewBox="0 0 511.994 511.994" width="512" xmlns="http://www.w3.org/2000/svg"><g><g><path d="m270.833 473.601v-435.207c0-17.062-13.832-30.894-30.894-30.894h-65.977c-17.062 0-30.894 13.832-30.894 30.894v435.206c0 17.062 13.832 30.894 30.894 30.894h65.977c17.062 0 30.894-13.831 30.894-30.893z" fill="#c68d7a"/><path d="m205.948 504.489h-31.99c-17.06 0-30.89-13.83-30.89-30.89v-435.205c0-17.06 13.83-30.9 30.89-30.9h31.99c-17.06 0-30.89 13.84-30.89 30.9v435.205c0 17.06 13.83 30.89 30.89 30.89z" fill="#bc7c63"/><path d="m187.45 12.635h39.001v127.764h-39.001z" fill="#ffe177" transform="matrix(0 1 -1 0 283.468 -130.434)"/><path d="m193.419 380.584h27.064v127.764h-27.064z" fill="#ffe177" transform="matrix(0 1 -1 0 651.417 237.515)"/><path d="m139.563 60.521h39.001v31.99h-39.001z" fill="#ffd15b" transform="matrix(0 1 -1 0 235.579 -82.547)"/><path d="m145.531 428.471h27.064v31.99h-27.064z" fill="#ffd15b" transform="matrix(0 1 -1 0 603.529 285.403)"/><g><path d="m143.069 473.601v-435.207c0-17.062-13.832-30.894-30.894-30.894h-65.977c-17.062 0-30.894 13.832-30.894 30.894v435.206c0 17.062 13.832 30.894 30.894 30.894h65.977c17.062 0 30.894-13.831 30.894-30.893z" fill="#c68d7a"/><path d="m78.184 504.489h-31.99c-17.06 0-30.89-13.83-30.89-30.89v-435.205c0-17.06 13.83-30.9 30.89-30.9h31.99c-17.06 0-30.89 13.84-30.89 30.9v435.205c0 17.06 13.83 30.89 30.89 30.89z" fill="#bc7c63"/><path d="m59.686 12.635h39.001v127.764h-39.001z" fill="#ffe177" transform="matrix(0 1 -1 0 155.703 -2.67)"/><path d="m65.655 380.584h27.064v127.764h-27.064z" fill="#ffe177" transform="matrix(0 1 -1 0 523.653 365.28)"/><g fill="#ffd15b"><path d="m11.798 60.521h39.001v31.99h-39.001z" transform="matrix(0 1 -1 0 107.815 45.218)"/><path d="m17.767 428.471h27.064v31.99h-27.064z" transform="matrix(0 1 -1 0 475.765 413.167)"/></g></g><g><path d="m495.837 451.439-100.482-420.382c-3.939-16.481-20.493-26.648-36.975-22.709l-63.729 15.233c-16.481 3.939-26.648 20.493-22.709 36.975l100.483 420.383c3.939 16.481 20.493 26.648 36.975 22.709l63.729-15.233c16.481-3.941 26.648-20.495 22.708-36.976z" fill="#c68d7a"/><path d="m440.294 496.256-30.9 7.386c-16.479 3.939-33.031-6.227-36.969-22.706l-100.483-420.381c-3.939-16.479 6.225-33.04 22.703-36.979l30.9-7.386c-16.479 3.939-26.642 20.5-22.703 36.979l100.482 420.381c3.939 16.479 20.491 26.645 36.97 22.706z" fill="#bc7c63"/><path d="m323.083 19.186h38.734v126.889h-38.734z" fill="#ffe177" transform="matrix(.233 .973 -.973 .233 343.204 -269.647)"/><path d="m413.965 374.602h26.879v126.889h-26.879z" fill="#ffe177" transform="matrix(.233 .973 -.973 .233 754.087 -79.484)"/><g fill="#ffd15b"><path d="m276.827 77.801h38.734v31.77h-38.734z" transform="matrix(.233 .973 -.973 .233 318.455 -216.172)"/><path d="m367.708 433.218h26.879v31.77h-26.879z" transform="matrix(.233 .973 -.973 .233 729.338 -26.009)"/></g></g></g><g><path d="m39.436 178.245 13.38 5.096v34.39l-13.359 5.042c-3.875 1.463-5.831 5.79-4.368 9.665 1.133 3.003 3.987 4.854 7.018 4.854.88 0 1.775-.156 2.647-.485l73.122-27.595c.068-.026.137-.053.205-.081 3.458-1.423 5.69-4.759 5.688-8.499s-2.241-7.072-5.702-8.489c-.058-.023-.114-.046-.173-.068l-73.119-27.848c-3.867-1.475-8.203.468-9.678 4.339-1.476 3.872.468 8.205 4.339 9.679zm28.38 33.826v-23.017l30.355 11.561z"/><path d="m115.725 319.04h-73.62c-4.143 0-7.5 3.358-7.5 7.5s3.357 7.5 7.5 7.5h30.008v19.968c0 4.142 3.357 7.5 7.5 7.5s7.5-3.358 7.5-7.5v-19.968h21.112v22.338c0 4.142 3.357 7.5 7.5 7.5s7.5-3.358 7.5-7.5v-29.838c0-4.142-3.357-7.5-7.5-7.5z"/><path d="m73.076 257.656v26.936c0 4.142 3.357 7.5 7.5 7.5s7.5-3.358 7.5-7.5v-26.936c0-4.142-3.357-7.5-7.5-7.5s-7.5 3.357-7.5 7.5z"/><path d="m244.033 322.924h-74.101c-3.653 0-6.774 2.632-7.392 6.232-.136.789-.253 1.47-.108 27.28.023 4.128 3.376 7.458 7.499 7.458h.043c4.142-.023 7.481-3.4 7.458-7.542-.036-6.456-.062-13.411-.062-18.428h66.663c4.143 0 7.5-3.358 7.5-7.5s-3.358-7.5-7.5-7.5z"/><path d="m206.951 247.814c4.143 0 7.5-3.358 7.5-7.5v-22.186c0-4.142-3.357-7.5-7.5-7.5s-7.5 3.358-7.5 7.5v14.029c-11.376-2.038-22.081-9.025-22.081-23.854 0-16.312 13.27-29.582 29.581-29.582s29.582 13.271 29.582 29.582c0 5.929-1.745 11.646-5.048 16.534-2.318 3.433-1.416 8.095 2.017 10.414 3.432 2.319 8.095 1.416 10.413-2.016 4.983-7.377 7.618-15.999 7.618-24.931 0-24.583-19.999-44.582-44.582-44.582-24.582 0-44.581 20-44.581 44.582 0 23.262 18.332 39.51 44.581 39.51z"/><path d="m208.339 264.401c-4.143 0-7.5 3.358-7.5 7.5v26.936c0 4.142 3.357 7.5 7.5 7.5s7.5-3.358 7.5-7.5v-26.936c0-4.142-3.357-7.5-7.5-7.5z"/><path d="m503.129 449.691-100.48-420.381c-4.897-20.477-25.541-33.153-46.009-28.26l-63.729 15.24c-6.406 1.532-12.174 4.623-16.898 8.955-5.38-14.714-19.52-25.245-36.074-25.245h-65.977c-12.655 0-23.895 6.157-30.894 15.63-6.998-9.472-18.238-15.63-30.893-15.63h-65.976c-21.171 0-38.395 17.224-38.395 38.394v435.206c0 21.17 17.224 38.394 38.395 38.394h65.977c12.655 0 23.895-6.157 30.894-15.63 6.999 9.473 18.239 15.63 30.894 15.63h65.977c21.171 0 38.395-17.224 38.395-38.394v-354.052l62.847 262.94c.963 4.028 5.008 6.516 9.038 5.551 4.029-.963 6.515-5.009 5.552-9.038l-61.484-257.235 108.822-26.011 73.839 308.921-108.82 26.011-4.217-17.645c-.963-4.029-5.01-6.514-9.038-5.551-4.029.963-6.515 5.009-5.552 9.038l15.811 66.151c4.186 17.506 19.875 29.311 37.133 29.311 2.929 0 5.905-.34 8.875-1.051l63.729-15.23c9.924-2.371 18.328-8.463 23.665-17.153 5.332-8.691 6.964-18.942 4.593-28.866zm-221.096-408.398c3.24-5.276 8.343-8.974 14.366-10.414l63.729-15.24c12.426-2.969 24.959 4.726 27.932 17.159l2.556 10.695-108.821 26.012-2.556-10.694c-1.44-6.022-.448-12.243 2.794-17.518zm-18.7 409.205h-112.764v-12.064h112.765v12.064zm-240.529-346.984h112.765v319.919h-112.765zm240.529-14.997h-112.764v-24.001h112.765v24.001zm-240.529 349.917h112.765v12.064h-112.765zm127.765-15v-319.917h112.765v319.917zm23.393-408.434h65.977c12.899 0 23.395 10.495 23.395 23.394v11.122h-112.765v-11.122c0-12.899 10.494-23.394 23.393-23.394zm-127.763 0h65.977c12.899 0 23.394 10.495 23.394 23.394v11.12h-54.396c-4.143 0-7.5 3.358-7.5 7.5s3.357 7.5 7.5 7.5h54.391v24h-112.761v-24h23.37c4.143 0 7.5-3.358 7.5-7.5s-3.357-7.5-7.5-7.5h-23.37v-11.12c0-12.899 10.495-23.394 23.395-23.394zm65.976 481.994h-65.976c-12.899 0-23.395-10.495-23.395-23.394v-8.102h112.765v8.102c0 12.9-10.494 23.394-23.394 23.394zm127.764 0h-65.977c-12.899 0-23.394-10.495-23.394-23.394v-8.102h112.765v8.102c0 12.9-10.495 23.394-23.394 23.394zm159.681-415.828-108.821 26.011-5.517-23.083 108.822-26.011 2.866 11.992zm80.813 338.098 2.762 11.554-108.821 26.011-2.761-11.553zm5.316 51.442c-3.239 5.275-8.342 8.974-14.368 10.414l-63.73 15.23c-12.423 2.971-24.959-4.725-27.932-17.159l-1.858-7.773 108.821-26.011 1.857 7.771c1.441 6.027.451 12.252-2.79 17.528z"/><path d="m364.294 349.267c7.936 9.399 16.393 12.085 23.467 12.085 2.51 0 4.845-.338 6.921-.834l49.242-11.77c4.029-.963 6.515-5.009 5.552-9.038-.963-4.028-5.01-6.514-9.038-5.551l-49.243 11.77c-3.605.862-9.126 1.141-15.438-6.338-1.895-2.244-3.229-4.962-3.971-8.084-.829-3.488-.695-6.73.409-9.915 2.235-6.444 5.288-9.584 10.537-10.839l49.295-11.783c4.029-.963 6.515-5.009 5.552-9.038-.964-4.028-5.008-6.515-9.038-5.551l-49.295 11.783c-10.352 2.474-17.294 9.184-21.223 20.512-2.04 5.88-2.319 12.038-.831 18.298 1.288 5.428 3.678 10.236 7.102 14.293z"/><path d="m334.138 230.489c1.314.927 2.823 1.372 4.317 1.372 2.355 0 4.674-1.106 6.135-3.177l17.979-25.482c4.44 10.003 14.19 16.485 24.69 16.485 1.973 0 3.972-.229 5.966-.706 6.986-1.669 12.858-6.129 16.536-12.557 3.573-6.246 4.614-13.563 2.932-20.603l-4.55-19.037c-.464-1.938-1.68-3.613-3.381-4.654-1.7-1.041-3.746-1.361-5.682-.891-.002 0-71.619 17.094-71.619 17.094-4.029.963-6.515 5.009-5.552 9.038.823 3.442 3.897 5.758 7.289 5.758.577 0 1.163-.067 1.749-.208l24.678-5.899-23.292 33.012c-2.387 3.387-1.579 8.067 1.805 10.455zm63.965-41.18c.781 3.266.284 6.789-1.362 9.667-1.6 2.795-4.086 4.719-7.002 5.416-6.145 1.467-12.678-2.962-14.281-9.67-.644-2.69-1.822-7.53-2.827-11.642 4.034-.987 18.451-4.469 22.672-5.491z"/><path d="m380.862 237.394c-4.029.963-6.515 5.009-5.552 9.038l6.219 26.018c.823 3.442 3.897 5.758 7.289 5.758.577 0 1.163-.067 1.749-.208 4.029-.963 6.515-5.009 5.552-9.038l-6.219-26.018c-.964-4.027-5.008-6.514-9.038-5.55z"/></g></g></svg>