<svg id="Capa_1" enable-background="new 0 0 512 512" height="512" viewBox="0 0 512 512" width="512" xmlns="http://www.w3.org/2000/svg"><g><g><g><g fill="#fe9738"><path d="m395.501 121.772v-33.754c0-31.838 25.81-57.647 57.647-57.647h5.191v91.401"/><path d="m285.263 108.919h-90.572c-70.427 0-127.52 57.092-127.52 127.52v31.334c0 38.196 30.964 69.16 69.16 69.16h276.452v-100.495c0-70.427-57.093-127.519-127.52-127.519z"/><path d="m224.881 286.947v18.867c0 17.186 13.932 31.118 31.118 31.118h18.867 21.646c14.105 0 25.482-11.685 24.976-25.904-.481-13.543-12.023-24.081-25.575-24.081h-21.047v-46.639"/></g><path d="m232.101 336.928h-95.77c-38.2 0-69.16-30.96-69.16-69.16v-31.33c0-70.43 57.09-127.52 127.52-127.52h90.57c.87 0 1.74.01 2.6.03-69.23 1.38-124.92 57.93-124.92 127.49v31.33c0 38.2 30.96 69.16 69.16 69.16z" fill="#fe7d43"/><path d="m464.196 234.596v71.218c0 17.186-13.932 31.118-31.118 31.118h-18.867-21.646c-14.105 0-25.482-11.685-24.976-25.904.481-13.543 12.023-24.081 25.575-24.081h21.047v-46.639" fill="#fe7d43"/><path d="m336.377 290.293h48.557c60.339 0 109.253-48.914 109.253-109.253 0-60.339-48.914-109.253-109.253-109.253h-48.557c-60.339 0-109.253 48.914-109.253 109.253" fill="#fe9738"/><path d="m401.554 290.29h-65.18c-60.33 0-109.25-48.91-109.25-109.25 0-30.17 12.23-57.48 32-77.25s47.09-32 77.25-32h48.56c2.79 0 5.56.1 8.31.31-26.85 2.02-51 13.75-68.94 31.69-19.77 19.77-32 47.08-32 77.25 0 60.34 48.91 109.25 109.25 109.25z" fill="#fe7d43"/><path d="m392.119 222.863h-27.135c-9.071 0-16.424-7.353-16.424-16.424 0-9.071 7.353-16.424 16.424-16.424h27.135c9.071 0 16.424 7.353 16.424 16.424 0 9.071-7.354 16.424-16.424 16.424z" fill="#685e68"/><path d="m278.611 336.933h-22.61c-17.187 0-31.12-13.933-31.12-31.12v-48.245h1.556c11.633 0 21.064 9.431 21.064 21.064v27.181c0 17.191 13.93 31.12 31.11 31.12z" fill="#fe7d43"/><path d="m37.54 283.153h104.14c14.851 0 26.89 12.039 26.89 26.89 0 14.851-12.039 26.89-26.89 26.89h-104.14c-14.851 0-26.89-12.039-26.89-26.89 0-14.852 12.039-26.89 26.89-26.89z" fill="#fe9738"/><path d="m106.191 336.932h-68.651c-14.85 0-26.89-12.04-26.89-26.89 0-7.42 3.01-14.15 7.88-19.01 4.86-4.87 11.58-7.88 19.01-7.88h68.65c-7.43 0-14.15 3.01-19.01 7.88-4.87 4.86-7.88 11.59-7.88 19.01.001 14.85 12.041 26.89 26.891 26.89z" fill="#fe7d43"/><path d="m267.507 121.772v-33.754c0-31.838 25.81-57.647 57.647-57.647h5.191v71.569" fill="#fe7d43"/></g><g><path d="m466.346 356.357v105.111h-399.063c-15.783 0-28.57-12.787-28.57-28.559v-39.446c0-20.496 16.61-37.106 37.095-37.106z" fill="#ebebeb"/><path d="m466.346 356.357v41.476h-427.633v-4.37c0-20.496 16.61-37.106 37.095-37.106z" fill="#e2e2e2"/><path d="m45.647 409.289c0 9.128 3.569 17.711 10.027 24.183 6.458 6.458 15.041 10.014 24.183 10.014h405.569c10.534 0 19.074 8.54 19.074 19.074 0 10.534-8.54 19.074-19.074 19.074h-405.583c-19.973 0-38.065-8.093-51.144-21.199-13.106-13.094-21.199-31.173-21.199-51.16 0-39.959 32.398-72.343 72.343-72.343h405.583c10.534 0 19.074 8.54 19.074 19.074 0 10.534-8.54 19.074-19.074 19.074h-405.569c-18.856-.001-34.21 15.34-34.21 34.209z" fill="#6fd7a3"/></g></g><g><path d="m316.801 184.295c-6.081 6.081-15.973 6.08-22.052 0-2.929-2.929-7.678-2.929-10.606 0-2.929 2.929-2.929 7.678 0 10.606 5.778 5.778 13.461 8.96 21.632 8.96 8.172 0 15.854-3.182 21.633-8.96 2.929-2.929 2.929-7.678 0-10.606-2.929-2.929-7.678-2.929-10.607 0z"/><path d="m476.078 194.901c2.929-2.929 2.929-7.678 0-10.606-2.929-2.929-7.678-2.929-10.606 0-2.945 2.945-6.861 4.567-11.026 4.567s-8.081-1.622-11.026-4.567c-2.929-2.929-7.678-2.929-10.606 0-2.929 2.929-2.929 7.677 0 10.606 5.778 5.778 13.46 8.96 21.632 8.96s15.853-3.182 21.632-8.96z"/><path d="m357.01 241.726c-7.742 0-14.041-6.299-14.041-14.042 0-4.142-3.358-7.5-7.5-7.5s-7.5 3.358-7.5 7.5c0 16.014 13.028 29.042 29.041 29.042 8.536 0 16.223-3.703 21.541-9.586 5.318 5.883 13.005 9.586 21.542 9.586 16.013 0 29.041-13.028 29.041-29.042 0-4.142-3.358-7.5-7.5-7.5s-7.5 3.358-7.5 7.5c0 7.743-6.299 14.042-14.041 14.042-6.826 0-12.524-4.898-13.778-11.363h5.804c13.191 0 23.924-10.732 23.924-23.924s-10.732-23.924-23.924-23.924h-27.135c-13.191 0-23.923 10.732-23.923 23.924s10.732 23.924 23.923 23.924h5.804c-1.254 6.465-6.952 11.363-13.778 11.363zm-.949-35.287c0-4.92 4.003-8.924 8.923-8.924h27.135c4.92 0 8.924 4.003 8.924 8.924s-4.003 8.924-8.924 8.924h-27.135c-4.921 0-8.923-4.003-8.923-8.924z"/><path d="m99.659 198.892c0 4.142 3.358 7.5 7.5 7.5 28.545 0 51.768 23.223 51.768 51.768 0 4.142 3.358 7.5 7.5 7.5s7.5-3.358 7.5-7.5c0-36.816-29.952-66.768-66.768-66.768-4.142 0-7.5 3.358-7.5 7.5z"/><path d="m485.43 435.981h-11.58v-53.4h11.58c7.091 0 13.761-2.765 18.784-7.787 5.021-5.021 7.786-11.696 7.786-18.793 0-14.651-11.919-26.57-26.57-26.57h-21.829c5.07-6.535 8.099-14.729 8.099-23.622v-46.737c18.632-20.694 29.99-48.061 29.99-78.033 0-31.183-12.145-60.501-34.197-82.553-.543-.543-1.097-1.079-1.653-1.614v-66.503c0-4.142-3.358-7.5-7.5-7.5h-5.19c-27.033 0-51.179 16.85-60.77 41.666-2.477-.158-4.966-.246-7.45-.246h-47.084v-33.919c0-4.142-3.358-7.5-7.5-7.5h-5.191c-35.922 0-65.147 29.225-65.147 65.147v4.72c-3.181 2.75-6.193 5.648-9.03 8.682h-56.288c-14.526 0-28.815 2.295-42.47 6.821-3.932 1.303-6.062 5.547-4.759 9.479 1.044 3.148 3.973 5.142 7.118 5.142.782 0 1.578-.124 2.361-.383 12.129-4.021 24.831-6.059 37.75-6.059h44.412c-12.596 18.912-19.482 41.266-19.482 64.619 0 4.142 3.358 7.5 7.5 7.5s7.5-3.358 7.5-7.5c0-24.895 8.977-48.49 25.063-66.882.112-.115.219-.234.323-.356v7.97c0 4.142 3.358 7.5 7.5 7.5s7.5-3.358 7.5-7.5v-33.752c0-26.878 21.254-48.886 47.839-50.095v64.017c0 4.142 3.358 7.5 7.5 7.5s7.5-3.358 7.5-7.5v-22.65h47.084c3.953 0 7.923.231 11.824.691 21.148 2.429 40.702 11.313 56.543 25.691 1.215 1.104 2.423 2.255 3.589 3.421 19.219 19.219 29.803 44.77 29.803 71.947 0 56.105-45.649 101.75-101.76 101.75h-48.55c-4.142 0-7.5 3.358-7.5 7.5s3.358 7.5 7.5 7.5h26.991c-1.964 3.984-3.112 8.377-3.276 12.971-.241 6.716 1.537 13.161 5.074 18.67h-41.262c3.537-5.509 5.315-11.953 5.077-18.669-.613-17.268-15.448-31.315-33.07-31.315h-13.547v-4.86c0-4.142-3.358-7.5-7.5-7.5s-7.5 3.358-7.5 7.5v12.36c0 4.142 3.358 7.5 7.5 7.5h21.047c9.639 0 17.75 7.558 18.08 16.848.17 4.802-1.567 9.345-4.893 12.791-3.323 3.443-7.786 5.34-12.569 5.346h-40.571c-13.006-.021-23.58-10.607-23.58-23.617v-48.245c0-4.142-3.358-7.5-7.5-7.5s-7.5 3.358-7.5 7.5v48.245c0 8.891 3.028 17.083 8.096 23.617h-55.412c3.785-5.524 6.005-12.201 6.005-19.389 0-18.962-15.427-34.39-34.39-34.39h-66.49c-.332-2.602-.519-39.212-.519-39.212 0-39.882 19.744-77.064 52.815-99.46 3.43-2.323 4.327-6.986 2.004-10.416s-6.985-4.326-10.416-2.004c-37.197 25.19-59.404 67.015-59.404 111.88 0 0 .141 36.601.408 39.212h-22.536c-18.962 0-34.39 15.427-34.39 34.39 0 17.648 13.366 32.228 30.505 34.164-20.346 14.484-33.655 38.241-33.655 65.064 0 21.346 8.311 41.4 23.391 56.458 15.057 15.091 35.104 23.402 56.449 23.402h405.59c7.105 0 13.779-2.768 18.784-7.787 5.021-5.021 7.786-11.692 7.786-18.783 0-14.656-11.919-26.58-26.57-26.58zm-34.59-398.058v46.742c-12.984-8.916-27.54-15.068-43.012-18.123 7.853-16.544 24.39-27.759 43.012-28.619zm-65.91 259.866c27.038 0 51.957-9.24 71.77-24.724v32.744c0 13.024-10.596 23.62-23.62 23.62h-40.52c-4.791 0-9.262-1.899-12.589-5.348-3.323-3.444-5.058-7.984-4.886-12.784.194-5.416 2.966-10.345 7.497-13.508zm-347.39 31.643c-10.691 0-19.39-8.698-19.39-19.39s8.698-19.39 19.39-19.39h104.14c10.691 0 19.39 8.698 19.39 19.39 0 10.685-8.688 19.378-19.37 19.389zm456.059 141.313c-2.177 2.184-5.078 3.386-8.169 3.386h-405.59c-17.332 0-33.608-6.747-45.84-19.007-12.252-12.233-19-28.518-19-45.853 0-35.74 29.066-64.818 64.801-64.839l405.629-.001c6.38 0 11.57 5.19 11.57 11.57 0 3.091-1.205 5.999-3.393 8.187-2.189 2.188-5.093 3.394-8.177 3.394h-41.32c-4.142 0-7.5 3.358-7.5 7.5s3.358 7.5 7.5 7.5h14.74v53.4h-378.99c-7.141 0-13.848-2.775-18.878-7.805-5.05-5.066-7.832-11.773-7.832-18.885 0-14.728 11.982-26.71 26.71-26.71h329.25c4.142 0 7.5-3.358 7.5-7.5s-3.358-7.5-7.5-7.5h-329.25c-22.999 0-41.71 18.711-41.71 41.71 0 11.109 4.335 21.578 12.217 29.483 7.872 7.872 18.346 12.207 29.493 12.207h405.57c6.38 0 11.57 5.195 11.57 11.58 0 3.083-1.205 5.987-3.401 8.183z"/></g></g></svg>