<svg id="Capa_1" enable-background="new 0 0 512 512" height="512" viewBox="0 0 512 512" width="512" xmlns="http://www.w3.org/2000/svg"><g><g><g><path d="m155.483 378.334 137.45-38.022-42.879-155.008c15.274-23.162 20.845-52.544 12.866-81.39l-15.553-56.223-169.015 46.753 4.024 79.406" fill="#ffdfcf"/><path d="m113.368 122.493 143.791-39.776 16.907 61.12-112.51 31.123c-17.276 4.779-35.155-5.352-39.934-22.628z" fill="#7a6d79"/><g><path d="m250.795 60.082 23.272 83.755 135.687-37.661c35.051-9.739 60.826-39.575 65.368-75.67l-38.365 10.66c-20.638 5.734-41.836-1.858-54.429-17.59z" fill="#e2e2e2"/><path d="m475.121 30.506c-4.542 36.098-30.318 65.931-65.37 75.67 0 0-10.903-36.633 26.998-65.008z" fill="#fe646f"/></g><g fill="#ffdfcf"><path d="m244.504 125.51c-12.513 3.461-25.462-3.876-28.923-16.389l-13.427-48.539c-3.461-12.513 3.876-25.462 16.389-28.923 12.513-3.461 25.462 3.876 28.923 16.389l13.427 48.539c3.461 12.512-3.877 25.461-16.389 28.923z"/><path d="m199.414 139.063c-12.513 3.461-25.462-3.876-28.923-16.389l-16.898-61.088c-3.461-12.513 3.876-25.462 16.389-28.923 12.513-3.461 25.462 3.876 28.923 16.389l16.898 61.088c3.461 12.512-3.877 25.462-16.389 28.923z"/><path d="m105.28 151.833c-12.513 3.461-25.462-3.876-28.923-16.389l-13.075-47.263c-3.461-12.513 3.876-25.462 16.389-28.923 12.513-3.461 25.462 3.876 28.923 16.389l13.074 47.263c3.462 12.513-3.876 25.462-16.388 28.923z"/><path d="m153.247 148.683c-12.513 3.461-25.462-3.876-28.923-16.389l-19.292-69.74c-3.461-12.513 3.876-25.462 16.389-28.923 12.513-3.461 25.462 3.876 28.923 16.389l19.292 69.74c3.462 12.513-3.876 25.462-16.389 28.923z"/></g><path d="m252.117 121.823c-2.235 1.635-4.79 2.902-7.614 3.683-12.51 3.461-25.454-3.874-28.915-16.384l-13.429-48.547c-3.461-12.51 3.874-25.454 16.384-28.915 2.824-.781 5.667-1.007 8.424-.753-7.665 5.596-11.469 15.551-8.79 25.237l13.429 48.547c2.68 9.687 11.059 16.271 20.511 17.132z" fill="#ffcebf"/><path d="m207.028 135.375c-2.232 1.645-4.79 2.902-7.614 3.683-12.51 3.461-25.454-3.874-28.915-16.384l-16.9-61.095c-3.461-12.51 3.874-25.454 16.384-28.915 2.824-.781 5.664-1.017 8.424-.753-7.665 5.596-11.469 15.551-8.79 25.237l16.9 61.095c2.68 9.687 11.059 16.271 20.511 17.132z" fill="#ffcebf"/><path d="m112.895 148.144c-2.225 1.632-4.79 2.902-7.614 3.683-12.51 3.461-25.464-3.871-28.924-16.381l-13.075-47.265c-3.461-12.51 3.881-25.466 16.391-28.927 2.824-.781 5.676-1.01 8.424-.753-7.665 5.596-11.467 15.56-8.787 25.247l13.075 47.265c2.679 9.686 11.058 16.27 20.51 17.131z" fill="#ffcebf"/><path d="m160.863 145.002c-2.232 1.645-4.79 2.902-7.614 3.683-12.51 3.461-25.457-3.883-28.917-16.394l-19.292-69.741c-3.461-12.51 3.871-25.464 16.381-28.924 2.824-.781 5.664-1.017 8.424-.753-7.665 5.596-11.466 15.56-8.787 25.246l19.292 69.741c2.68 9.686 11.061 16.28 20.513 17.142z" fill="#ffcebf"/><path d="m112.085 155.659 14.447-3.996c14.081-3.895 22.338-18.467 18.443-32.548-3.895-14.081-18.467-22.338-32.548-18.443l-14.447 3.996-18.299 5.062c-18.055 4.995-28.643 23.68-23.648 41.735l5.062 18.299 12.178 44.023c3.895 14.081 18.467 22.338 32.548 18.443l8.589-2.376 41.073 148.48" fill="#ffdfcf"/><path d="m137.477 223.47 41.074 148.484-23.073 6.383-41.074-148.484-8.587 2.376c-14.081 3.895-28.649-4.359-32.544-18.44l-17.239-62.32c-4.994-18.052 5.587-36.739 23.649-41.736l23.073-6.383c-18.062 4.996-28.642 23.684-23.649 41.736l17.239 62.32c3.895 14.081 18.463 22.336 32.544 18.44z" fill="#ffcebf"/></g><path d="m303.382 374.617v-38.349c0-16.547-13.414-29.96-29.96-29.96-16.547 0-29.96 13.414-29.96 29.96 0-16.547-13.414-29.96-29.96-29.96s-29.96 13.414-29.96 29.96c0-16.547-13.414-29.96-29.96-29.96-16.547 0-29.96 13.414-29.96 29.96v65.912" fill="#c68d7a"/><g><path d="m466.346 363.15v105.111h-399.063c-15.783 0-28.57-12.787-28.57-28.559v-39.446c0-20.496 16.61-37.106 37.095-37.106z" fill="#ebebeb"/><path d="m466.346 363.15v41.476h-427.633v-4.37c0-20.496 16.61-37.106 37.095-37.106z" fill="#e2e2e2"/><path d="m45.647 416.081c0 9.128 3.569 17.711 10.027 24.183 6.458 6.458 15.041 10.014 24.183 10.014h405.569c10.534 0 19.074 8.54 19.074 19.074 0 10.534-8.54 19.074-19.074 19.074h-405.583c-19.973 0-38.065-8.093-51.144-21.199-13.106-13.094-21.199-31.173-21.199-51.159 0-39.959 32.398-72.343 72.343-72.343h405.583c10.534 0 19.074 8.54 19.074 19.074 0 10.534-8.54 19.074-19.074 19.074h-405.569c-18.856-.001-34.21 15.339-34.21 34.208z" fill="#9be69d"/></g></g><path d="m485.43 442.78h-11.58v-53.41h11.58c7.106 0 13.779-2.768 18.783-7.787 5.021-5.021 7.787-11.692 7.787-18.783 0-14.656-11.919-26.58-26.57-26.58h-174.551c-.018-14.541-8.369-27.158-20.519-33.348l-32.183-116.355c6.458-10.537 11.106-22.243 13.62-34.267l139.963-38.844c38.079-10.582 65.871-42.753 70.803-81.96.313-2.49-.64-4.971-2.539-6.612s-4.492-2.223-6.911-1.55l-38.358 10.66c-17.158 4.764-35.438-1.144-46.568-15.05-1.875-2.343-4.968-3.343-7.86-2.541l-37.71 10.46c-3.991 1.107-6.33 5.24-5.222 9.232 1.107 3.991 5.24 6.331 9.232 5.222l33.164-9.199c9.809 10.337 22.838 16.649 36.631 18.151-15.939 19.655-16.455 39.918-15.254 50.56l-121.869 33.826-19.272-69.305 52.88-14.674c3.991-1.108 6.329-5.241 5.222-9.232-1.107-3.992-5.246-6.33-9.232-5.222l-52.874 14.672-1.327-4.798c-2.208-7.982-7.393-14.627-14.598-18.71-7.207-4.083-15.572-5.117-23.553-2.907-6.801 1.881-12.442 5.905-16.407 11.136-7.557-9.111-20.025-13.485-32.154-10.132-6.784 1.877-12.415 5.885-16.379 11.097-2.379-2.877-5.28-5.327-8.621-7.215-7.201-4.091-15.567-5.127-23.56-2.917-12.571 3.478-21.188 14.264-22.549 26.5-6.116-2.32-12.782-2.646-19.2-.871-7.981 2.208-14.626 7.393-18.71 14.601s-5.117 15.573-2.909 23.554l5.748 20.78c-11.803 10.138-17.41 26.542-13 42.503l17.241 62.323c2.421 8.74 8.099 16.016 15.988 20.486 7.892 4.472 17.052 5.6 25.784 3.182l1.365-.377 19.22 69.477c-7.528 6.847-12.265 16.713-12.278 27.664h-36.284c-44.024 0-79.84 35.821-79.84 79.85 0 21.335 8.31 41.388 23.393 56.459 15.06 15.084 35.107 23.391 56.447 23.391h405.59c7.098 0 13.769-2.762 18.783-7.777 5.021-5.021 7.787-11.695 7.787-18.793 0-14.651-11.919-26.57-26.57-26.57zm-189.551-106.56h-44.918c.026-12.363 10.09-22.413 22.459-22.413s22.433 10.051 22.459 22.413zm-159.015-180.893c5.926 2.071 12.32 2.272 18.384.589 7.981-2.208 14.626-7.393 18.71-14.601.077-.136.145-.275.22-.412 5.364 4.143 12.023 6.515 18.976 6.515 2.729 0 5.503-.364 8.257-1.126 7.982-2.208 14.627-7.393 18.71-14.599.511-.901.973-1.82 1.388-2.754 4.927 3.156 10.722 4.926 16.735 4.926 2.729 0 5.502-.363 8.257-1.125 5.553-1.536 10.457-4.516 14.303-8.612l4.026 14.486-105.277 29.122c-10.503 2.906-21.466-1.493-27.321-10.106 1.621-.656 3.166-1.428 4.632-2.303zm303.289-107.316 25.275-7.024c-6.828 25.197-25.151 45.692-49.581 55.258-.533-10.814 2.046-30.99 24.306-48.234zm-219.611-9.124c1.418-.393 2.86-.586 4.292-.586 2.729 0 5.427.705 7.866 2.087 3.72 2.107 6.396 5.538 7.536 9.659l13.427 48.54c2.353 8.507-2.653 17.342-11.16 19.695-8.505 2.353-17.342-2.654-19.695-11.16l-13.427-48.539c-2.352-8.508 2.655-17.343 11.161-19.696zm-48.562 1.004c1.422-.394 2.853-.581 4.262-.581 7.017 0 13.474 4.657 15.433 11.741l16.898 61.087c1.14 4.121.607 8.439-1.501 12.159-2.107 3.72-5.538 6.396-9.659 7.536-4.12 1.141-8.438.607-12.159-1.501-3.72-2.107-6.396-5.538-7.536-9.659l-16.898-61.086c-2.353-8.507 2.654-17.343 11.16-19.696zm-48.56.966c4.123-1.14 8.439-.607 12.166 1.511 3.717 2.1 6.393 5.528 7.533 9.651l19.292 69.741c1.14 4.12.605 8.438-1.503 12.161-2.109 3.722-5.539 6.399-9.659 7.539-.552.153-1.109.268-1.668.361 3.827-7.353 5.002-16.106 2.626-24.706-3.929-14.169-16.622-24.207-31.183-24.869l-8.766-31.688c-2.353-8.51 2.654-17.347 11.162-19.701zm-52.91 45.327c-1.14-4.12-.606-8.438 1.503-12.161 2.109-3.722 5.539-6.399 9.659-7.539 4.117-1.139 8.436-.604 12.159 1.506 3.716 2.105 6.391 5.535 7.531 9.658l4.702 16.997-28.385 7.852c-.829.229-1.64.491-2.443.767zm51.129 141.674c-1.104-3.99-5.234-6.332-9.223-5.23l-8.598 2.372c-4.877 1.351-9.989.721-14.393-1.775-4.405-2.496-7.575-6.558-8.926-11.437l-17.24-62.317c-3.879-14.041 4.386-28.627 18.42-32.515l32.742-9.058c1.665-.458 3.37-.691 5.069-.691 8.481 0 15.991 5.722 18.261 13.908 2.782 10.071-3.149 20.534-13.219 23.323l-14.44 3.99c-3.993 1.103-6.335 5.234-5.231 9.227 1.103 3.992 5.234 6.333 9.227 5.231l3.315-.916c6.879 13.289 20.818 21.653 35.638 21.651 3.482 0 7.016-.462 10.514-1.43l91.608-25.341c-2.584 8.578-6.429 16.835-11.366 24.331-1.19 1.807-1.542 4.04-.965 6.125l30.842 111.507c-.085 0-.169-.006-.254-.006-12.235 0-23.12 5.896-29.96 14.997-6.84-9.101-17.725-14.997-29.96-14.997s-23.12 5.896-29.96 14.997c-6.84-9.101-17.725-14.997-29.96-14.997-4.117 0-8.077.677-11.786 1.91zm114.32 108.362h-44.918c.026-12.363 10.09-22.413 22.459-22.413s22.433 10.051 22.459 22.413zm-82.379-22.413c12.369 0 22.433 10.05 22.459 22.413h-44.918c.026-12.362 10.091-22.413 22.459-22.413zm340.027 163.73c-2.182 2.182-5.086 3.383-8.177 3.383h-405.59c-17.329 0-33.606-6.744-45.838-18.995-12.254-12.244-19.002-28.529-19.002-45.855 0-35.758 29.087-64.85 64.84-64.85h405.59c6.38 0 11.57 5.195 11.57 11.58 0 3.084-1.205 5.989-3.401 8.185-2.177 2.184-5.078 3.386-8.169 3.386h-344.31c-4.142 0-7.5 3.358-7.5 7.5s3.358 7.5 7.5 7.5h317.73v53.41h-378.99c-7.135 0-13.842-2.778-18.878-7.815-5.05-5.066-7.832-11.773-7.832-18.885 0-14.728 11.982-26.71 26.71-26.71h26.26c4.142 0 7.5-3.358 7.5-7.5s-3.358-7.5-7.5-7.5h-26.26c-22.999 0-41.71 18.711-41.71 41.71 0 11.11 4.336 21.578 12.216 29.483 7.878 7.878 18.352 12.217 29.494 12.217h405.57c6.38 0 11.57 5.19 11.57 11.57 0 3.09-1.205 5.998-3.393 8.186z"/></g></svg>