<svg id="Capa_1" enable-background="new 0 0 512 512" height="512" viewBox="0 0 512 512" width="512" xmlns="http://www.w3.org/2000/svg"><g><g><path d="m267.205 106.762h113.099c16.564 0 31.003 11.273 35.02 27.343l25.639 102.555 22.107 12.001c16.831 9.137 27.311 26.751 27.311 45.902v107.293h-223.176z" fill="#60b7ff"/><path d="m402.9 236.66h-99.76c-2.26 0-4.09-1.83-4.09-4.09v-89.87c0-2.26 1.83-4.09 4.09-4.09h77.16c1.96 0 3.66 1.33 4.13 3.22l22.44 89.75c.64 2.58-1.31 5.08-3.97 5.08z" fill="#d4f2f6"/><path d="m402.9 236.66h-79.36l45.13-98.05h11.63c1.96 0 3.66 1.33 4.13 3.22l22.44 89.75c.64 2.58-1.31 5.08-3.97 5.08z" fill="#a6e7f0"/><path d="m62.483 38.399h162.447c23.348 0 42.275 18.927 42.275 42.275v321.181h-246.998v-321.18c0-23.348 18.928-42.276 42.276-42.276z" fill="#fe9738"/><path d="m104.327 38.405c-23.35 0-42.28 18.92-42.28 42.27v321.18h-41.84v-321.18c0-23.35 18.92-42.27 42.27-42.27z" fill="#fe7d43"/><g><path d="m53.881 110.088h54.368c19.997 0 36.209 16.211 36.209 36.209 0-19.997 16.211-36.209 36.209-36.209h54.368v125.16h-54.368c-19.997 0-36.209 16.211-36.209 36.209 0-19.997-16.211-36.209-36.209-36.209h-54.368z" fill="#f8f6f6"/></g><path d="m481.203 418.799h-82.598v-46.594h82.598c12.866 0 23.297 10.43 23.297 23.297 0 12.867-10.43 23.297-23.297 23.297z" fill="#f8f6f6"/><path d="m459.6 395.505c0 6.43-2.61 12.25-6.83 16.47-4.21 4.21-10.04 6.82-16.47 6.82h-42.69v-46.59h42.69c12.86 0 23.3 10.43 23.3 23.3z" fill="#ebebeb"/><path d="m30.797 418.799h82.598v-46.594h-82.598c-12.866 0-23.297 10.43-23.297 23.297 0 12.867 10.43 23.297 23.297 23.297z" fill="#f8f6f6"/><path d="m446.611 341.143c-7.798 0-14.119-6.321-14.119-14.119v-28.239c0-7.798 6.321-14.119 14.119-14.119 7.798 0 14.119 6.321 14.119 14.119v28.239c0 7.797-6.321 14.119-14.119 14.119z" fill="#ffe177"/><g><circle cx="123.469" cy="407.43" fill="#7a6d79" r="66.17"/><path d="m135.248 472.56c-3.82.68-7.76 1.04-11.78 1.04-36.55 0-66.17-29.63-66.17-66.17 0-36.55 29.62-66.17 66.17-66.17 4.02 0 7.96.36 11.78 1.04-30.92 5.56-54.39 32.6-54.39 65.13 0 32.52 23.47 59.56 54.39 65.13z" fill="#685e68"/><circle cx="123.469" cy="407.43" fill="#f8f6f6" r="29.085"/></g><g><circle cx="356.812" cy="407.43" fill="#7a6d79" r="66.17"/><path d="m368.592 472.56c-3.82.68-7.76 1.04-11.78 1.04-36.55 0-66.17-29.63-66.17-66.17 0-36.55 29.62-66.17 66.17-66.17 4.02 0 7.96.36 11.78 1.04-30.92 5.56-54.39 32.6-54.39 65.13 0 32.52 23.47 59.56 54.39 65.13z" fill="#685e68"/><circle cx="356.812" cy="407.43" fill="#f8f6f6" r="29.085"/></g></g><g><path d="m412.034 239.701c2.211-2.833 2.98-6.457 2.109-9.942l-22.438-89.771c-1.321-5.227-6.01-8.878-11.401-8.878h-77.167c-6.39 0-11.589 5.199-11.589 11.589v89.871c0 6.39 5.199 11.589 11.589 11.589h99.763c3.593-.001 6.923-1.626 9.134-4.458zm-105.485-10.543v-83.048h71.225l20.757 83.048z"/><path d="m108.249 242.748c15.83 0 28.709 12.878 28.709 28.708 0 4.142 3.358 7.5 7.5 7.5s7.5-3.358 7.5-7.5c0-15.83 12.878-28.708 28.708-28.708h54.368c4.142 0 7.5-3.358 7.5-7.5v-125.16c0-4.142-3.358-7.5-7.5-7.5h-54.368c-15.047 0-28.343 7.643-36.208 19.251-7.866-11.608-21.162-19.251-36.209-19.251h-54.368c-4.142 0-7.5 3.358-7.5 7.5v125.16c0 4.142 3.358 7.5 7.5 7.5zm72.417-125.16h46.868v110.16h-46.868c-10.983 0-21.022 4.085-28.708 10.799v-92.25c0-15.83 12.878-28.709 28.708-28.709zm-119.285 0h46.867c15.83 0 28.709 12.879 28.709 28.709v92.25c-7.687-6.714-17.726-10.799-28.709-10.799h-46.867z"/><path d="m83.594 153.031h28.329c4.142 0 7.5-3.358 7.5-7.5s-3.358-7.5-7.5-7.5h-28.329c-4.142 0-7.5 3.358-7.5 7.5s3.358 7.5 7.5 7.5z"/><path d="m83.594 180.594h28.329c4.142 0 7.5-3.358 7.5-7.5s-3.358-7.5-7.5-7.5h-28.329c-4.142 0-7.5 3.358-7.5 7.5s3.358 7.5 7.5 7.5z"/><path d="m119.423 200.657c0-4.142-3.358-7.5-7.5-7.5h-28.329c-4.142 0-7.5 3.358-7.5 7.5s3.358 7.5 7.5 7.5h28.329c4.142 0 7.5-3.357 7.5-7.5z"/><path d="m176.992 153.031h28.329c4.142 0 7.5-3.358 7.5-7.5s-3.358-7.5-7.5-7.5h-28.329c-4.142 0-7.5 3.358-7.5 7.5s3.358 7.5 7.5 7.5z"/><path d="m176.992 180.594h28.329c4.142 0 7.5-3.358 7.5-7.5s-3.358-7.5-7.5-7.5h-28.329c-4.142 0-7.5 3.358-7.5 7.5s3.358 7.5 7.5 7.5z"/><path d="m176.992 208.157h28.329c4.142 0 7.5-3.358 7.5-7.5s-3.358-7.5-7.5-7.5h-28.329c-4.142 0-7.5 3.358-7.5 7.5s3.358 7.5 7.5 7.5z"/><path d="m497.88 369.631v-75.068c0-21.927-11.968-42.041-31.232-52.492l-19.211-10.427-24.839-99.357c-4.852-19.444-22.245-33.024-42.297-33.024h-105.591v-18.593c0-27.443-22.331-49.77-49.78-49.77h-162.45c-27.443 0-49.77 22.327-49.77 49.77v12.29c0 4.142 3.358 7.5 7.5 7.5s7.5-3.358 7.5-7.5v-12.29c0-19.172 15.598-34.77 34.77-34.77h162.45c19.178 0 34.78 15.598 34.78 34.77v26.093 287.587h-63.757c-6.193-34.401-36.327-60.59-72.484-60.59-24.701 0-46.584 12.232-59.957 30.943h-32.712c-1.043 0-2.073.053-3.09.155v-236.898c0-4.142-3.358-7.5-7.5-7.5s-7.5 3.358-7.5 7.5v242.638c-7.695 5.604-12.71 14.678-12.71 24.905 0 8.219 3.2 15.953 9.022 21.79 5.824 5.811 13.559 9.011 21.777 9.011h21.459c8.358 31.506 37.11 54.797 71.209 54.797 39.978 0 72.597-32.015 73.622-71.75l86.099.003c1.026 39.734 33.644 71.747 73.621 71.747 34.099 0 62.851-23.291 71.209-54.797h53.182c8.219 0 15.953-3.2 21.79-9.023 5.81-5.824 9.01-13.558 9.01-21.777 0-10.84-5.633-20.382-14.12-25.873zm-467.08 41.672c-4.219 0-8.19-1.644-11.17-4.618-2.986-2.991-4.63-6.963-4.63-11.182 0-8.712 7.088-15.8 15.8-15.8h24.433c-3.493 8.565-5.435 17.921-5.435 27.727 0 1.299.036 2.59.103 3.873zm92.669 54.797c-32.351 0-58.67-26.319-58.67-58.67s26.319-58.67 58.67-58.67 58.67 26.319 58.67 58.67-26.319 58.67-58.67 58.67zm233.341 0c-32.351 0-58.67-26.319-58.67-58.67s26.319-58.67 58.67-58.67c8.663 0 17.001 1.845 24.783 5.484 3.752 1.754 8.216.135 9.971-3.617s.135-8.216-3.617-9.971c-9.786-4.576-20.262-6.896-31.137-6.896-36.157 0-66.292 26.191-72.484 60.593h-9.616v-280.09h105.59c13.153 0 24.562 8.905 27.744 21.659l25.64 102.56c.509 2.039 1.851 3.771 3.698 4.773l22.111 12c14.425 7.826 23.386 22.887 23.386 39.308v70.188c-.556-.03-1.116-.047-1.68-.047h-64.477c-2.5-2.66-6.629-3.171-9.721-1.031-3.406 2.357-4.257 7.029-1.9 10.435 6.789 9.812 10.377 21.334 10.377 33.323.002 32.35-26.317 58.669-58.668 58.669zm135.573-59.427c-2.992 2.986-6.964 4.63-11.183 4.63h-50.823c.067-1.283.103-2.574.103-3.873 0-9.615-1.849-18.992-5.402-27.727h56.122c8.712 0 15.8 7.088 15.8 15.8 0 4.219-1.644 8.191-4.617 11.17z"/><path d="m446.611 348.643c11.921 0 21.619-9.698 21.619-21.619v-28.239c0-11.921-9.698-21.619-21.619-21.619s-21.619 9.698-21.619 21.619v28.239c0 11.921 9.698 21.619 21.619 21.619zm-6.619-49.858c0-3.65 2.969-6.619 6.619-6.619s6.619 2.969 6.619 6.619v28.239c0 3.65-2.969 6.619-6.619 6.619s-6.619-2.969-6.619-6.619z"/><path d="m123.469 370.844c-20.173 0-36.585 16.412-36.585 36.585s16.412 36.585 36.585 36.585 36.585-16.412 36.585-36.585c0-20.172-16.412-36.585-36.585-36.585zm0 58.171c-11.902 0-21.585-9.683-21.585-21.585s9.683-21.585 21.585-21.585 21.585 9.683 21.585 21.585-9.683 21.585-21.585 21.585z"/><path d="m356.812 370.844c-20.173 0-36.585 16.412-36.585 36.585s16.412 36.585 36.585 36.585 36.585-16.412 36.585-36.585c.001-20.172-16.411-36.585-36.585-36.585zm0 58.171c-11.902 0-21.585-9.683-21.585-21.585s9.683-21.585 21.585-21.585 21.585 9.683 21.585 21.585c.001 11.902-9.682 21.585-21.585 21.585z"/><path d="m329.577 256.926h-30.527c-4.142 0-7.5 3.358-7.5 7.5s3.358 7.5 7.5 7.5h30.527c4.142 0 7.5-3.358 7.5-7.5s-3.358-7.5-7.5-7.5z"/></g></g></svg>