<svg id="Capa_1" enable-background="new 0 0 512 512" height="512" viewBox="0 0 512 512" width="512" xmlns="http://www.w3.org/2000/svg"><g><g><g><path d="m361.63 91.012v371.49l-311.52 12.85-28 1.15v-371.49c0-15.46 12.53-28 28-28h297.52c3.87 0 7.37 1.57 9.9 4.1 2.53 2.54 4.1 6.04 4.1 9.9z" fill="#60b7ff"/><path d="m50.11 77.012v398.34l-28 1.15v-371.49c0-15.46 12.53-28 28-28z" fill="#26a6fe"/><path d="m357.535 480.6c2.53 2.54 4.1 6.04 4.1 9.9 0 7.73-6.27 14-14 14h-297.52c-7.73 0-14.73-3.14-19.8-8.2-5.07-5.07-8.2-12.07-8.2-19.8 0-15.46 12.53-28 28-28h297.52c3.87 0 7.37 1.57 9.9 4.1 2.53 2.54 4.1 6.04 4.1 9.9 0 7.73-6.27 14-14 14 3.87 0 7.37 1.57 9.9 4.1z" fill="#ebebeb"/></g><path d="m311.38 7.5 6.994 19.666c14.532 40.863 61.21 60.198 100.38 41.579l18.852-8.961-8.961 18.852c-18.619 39.17.715 85.848 41.579 100.38l19.666 6.994-19.666 6.994c-40.863 14.532-60.198 61.209-41.579 100.38l8.961 18.852-18.852-8.961c-39.17-18.619-85.848.715-100.38 41.579l-6.994 19.666-6.994-19.666c-14.532-40.863-61.209-60.198-100.38-41.579l-18.852 8.961 8.961-18.852c18.619-39.17-.715-85.848-41.579-100.38l-19.666-6.994 19.666-6.994c40.863-14.532 60.198-61.209 41.579-100.38l-8.961-18.852 18.852 8.961c39.17 18.619 85.848-.715 100.38-41.579z" fill="#ffe177"/><path d="m311.38 103.057 3.25 9.139c6.753 18.989 28.444 27.974 46.646 19.321l8.76-4.164-4.164 8.76c-8.652 18.202.332 39.893 19.321 46.646l9.139 3.25-9.139 3.25c-18.989 6.753-27.974 28.444-19.321 46.646l4.164 8.76-8.76-4.164c-18.202-8.652-39.893.332-46.646 19.321l-3.25 9.139-3.25-9.139c-6.753-18.989-28.444-27.974-46.646-19.321l-8.76 4.164 4.164-8.76c8.652-18.202-.332-39.893-19.321-46.646l-9.139-3.25 9.139-3.25c18.989-6.753 27.974-28.444 19.321-46.646l-4.164-8.76 8.76 4.164c18.202 8.652 39.893-.332 46.646-19.321z" fill="#fe646f"/><g><path d="m131.8 50.647 6.453 13.074c.906 1.836 2.658 3.109 4.685 3.404l14.428 2.097c5.104.742 7.141 7.013 3.448 10.613l-10.44 10.177c-1.466 1.429-2.136 3.489-1.789 5.507l2.465 14.37c.872 5.083-4.463 8.959-9.028 6.559l-12.905-6.785c-1.813-.953-3.978-.953-5.791 0l-12.905 6.785c-4.565 2.4-9.9-1.476-9.028-6.559l2.465-14.37c.346-2.018-.323-4.078-1.789-5.507l-10.44-10.177c-3.693-3.6-1.655-9.871 3.448-10.613l14.428-2.097c2.027-.294 3.779-1.567 4.685-3.404l6.453-13.074c2.28-4.624 8.875-4.624 11.157 0z" fill="#fe646f"/></g><g><path d="m121.645 229.901 6.453 13.074c.906 1.836 2.658 3.109 4.685 3.404l14.428 2.097c5.104.742 7.141 7.013 3.448 10.613l-10.44 10.177c-1.466 1.429-2.136 3.489-1.789 5.507l2.465 14.37c.872 5.083-4.463 8.959-9.028 6.559l-12.905-6.785c-1.813-.953-3.978-.953-5.791 0l-12.905 6.785c-4.565 2.4-9.9-1.476-9.028-6.559l2.465-14.37c.346-2.018-.323-4.078-1.789-5.507l-10.44-10.177c-3.693-3.6-1.655-9.871 3.448-10.613l14.428-2.097c2.027-.294 3.779-1.567 4.685-3.404l6.453-13.074c2.281-4.625 8.875-4.625 11.157 0z" fill="#fe646f"/></g><circle cx="406.885" cy="349.565" fill="#ffe177" r="19.952"/><g><circle cx="137.083" cy="400.668" fill="#ffe177" r="24.965"/></g></g><g><path d="m492.401 178.943-19.666-6.989c-17.65-6.282-31.354-19.256-38.587-36.531-1.6-3.821-5.995-5.621-9.814-4.021-3.821 1.6-5.622 5.994-4.021 9.814 8.726 20.84 25.913 37.155 47.181 44.793-21.375 7.668-38.605 24.085-47.298 45.072-8.693 20.988-8.116 44.782 1.579 65.321-20.533-9.693-44.324-10.271-65.307-1.583-20.988 8.691-37.409 25.923-45.086 47.302-7.669-21.375-24.085-38.605-45.073-47.298s-44.783-8.116-65.32 1.578c9.695-20.537 10.272-44.332 1.579-65.32-8.693-20.986-25.924-37.403-47.298-45.073 21.378-7.675 38.611-24.097 47.302-45.086 8.691-20.99 8.11-44.785-1.588-65.319 20.542 9.698 44.344 10.278 65.334 1.582 20.982-8.691 37.396-25.919 45.065-47.29 7.673 21.374 24.092 38.604 45.078 47.294 20.989 8.69 44.785 8.11 65.321-1.587-4.158 8.806-6.672 18.149-7.474 27.773-.344 4.128 2.724 7.753 6.852 8.097 4.119.342 7.753-2.724 8.097-6.852.657-7.884 2.729-15.542 6.159-22.761l8.97-18.86c1.363-2.866.775-6.279-1.469-8.523-2.243-2.245-5.657-2.833-8.523-1.472l-18.861 8.961c-16.755 7.964-36.194 8.461-53.333 1.365-17.141-7.098-30.54-21.195-36.76-38.673l-6.99-19.67c-1.066-2.989-3.897-4.987-7.071-4.987s-6.004 1.998-7.067 4.989l-6.989 19.668c-6.215 17.477-19.609 31.572-36.749 38.671-17.144 7.101-36.587 6.604-53.346-1.362l-18.85-8.96c-2.864-1.363-6.278-.774-8.522 1.469-2.244 2.244-2.833 5.656-1.472 8.522l3.095 6.514h-12.607c-1.947-4.142-5.806-7.041-10.428-7.712l-13.764-2-6.155-12.472c-2.329-4.718-7.043-7.649-12.305-7.649s-9.977 2.931-12.305 7.649l-6.155 12.473-13.763 2c-4.622.671-8.481 3.57-10.428 7.712h-33.459c-19.575 0-35.5 15.925-35.5 35.5v371.49h.009c0 9.483 3.693 18.397 10.402 25.106 6.715 6.702 15.628 10.392 25.099 10.392h297.52c11.855 0 21.5-9.645 21.5-21.5 0-5.184-1.829-10.095-5.189-14.007 3.233-3.763 5.189-8.654 5.189-13.993 0-.064-.009-156.233-.009-156.233 15.319-4.412 31.868-3.131 46.401 3.777l18.86 8.96c2.867 1.361 6.279.772 8.523-1.473 2.243-2.245 2.831-5.659 1.467-8.524l-8.969-18.847c-7.965-16.755-8.46-36.196-1.36-53.338 7.101-17.143 21.199-30.54 38.679-36.755l19.669-6.99c2.991-1.062 4.989-3.893 4.989-7.067s-1.998-6.005-4.989-7.067zm-381.819-104.396c4.47-.649 8.333-3.456 10.332-7.506l5.307-10.752 5.307 10.752c1.999 4.051 5.862 6.857 10.332 7.507l11.866 1.725-8.586 8.37c-3.235 3.153-4.71 7.693-3.947 12.146l2.027 11.818-10.614-5.58c-3.997-2.102-8.77-2.102-12.771 0l-10.613 5.58 2.027-11.818c.764-4.453-.712-8.994-3.947-12.146l-8.586-8.37zm237.058 422.453h-297.52c-5.469 0-10.62-2.134-14.497-6.003-3.871-3.871-6.003-9.02-6.003-14.497 0-11.304 9.196-20.5 20.5-20.5h27.81c4.142 0 7.5-3.358 7.5-7.5s-3.358-7.5-7.5-7.5h-27.81c-7.637 0-14.712 2.432-20.509 6.551v-342.539c0-11.304 9.196-20.5 20.5-20.5h35.618c.212.237.433.469.664.693l9.959 9.708-2.352 13.709c-.889 5.186 1.203 10.328 5.459 13.421s9.793 3.491 14.451 1.044l12.31-6.472 12.31 6.472c2.026 1.065 4.218 1.591 6.398 1.591 2.833 0 5.648-.888 8.053-2.635 4.257-3.093 6.349-8.235 5.459-13.421l-2.351-13.708 9.959-9.708c.23-.225.451-.456.663-.693h21.809c6.807 16.129 6.913 34.431.188 50.673-7.099 17.145-21.199 30.547-38.682 36.768l-19.67 6.99c-2.991 1.062-4.989 3.893-4.989 7.067s1.998 6.004 4.989 7.067l19.668 6.99c17.481 6.216 31.579 19.613 38.68 36.756 7.1 17.142 6.604 36.582-1.361 53.337l-8.96 18.85c-1.362 2.866-.773 6.279 1.471 8.523 2.243 2.244 5.658 2.834 8.523 1.47l18.85-8.96c16.756-7.964 36.198-8.46 53.337-1.36 17.143 7.101 30.541 21.199 36.756 38.678l6.928 19.498c-9.888 5.571-16.586 16.165-16.586 28.301 0 17.901 14.564 32.465 32.465 32.465 7.191 0 13.654-2.371 18.688-6.854.986-.878 1.924-1.845 2.787-2.874 2.662-3.174 2.247-7.904-.927-10.566-3.173-2.662-7.905-2.247-10.566.927-.396.472-.822.912-1.269 1.309-2.277 2.029-5.209 3.058-8.713 3.058-9.63 0-17.465-7.835-17.465-17.465s7.835-17.465 17.465-17.465c3.501 0 6.876 1.03 9.76 2.979 3.433 2.319 8.095 1.417 10.414-2.016 2.319-3.432 1.416-8.094-2.016-10.413-5.374-3.63-11.652-5.549-18.157-5.549-.048 0-.096.003-.145.004l5.449-15.333c5.206-14.63 15.45-26.872 28.695-34.644v129.282c-2.073-.654-4.254-1.003-6.491-1.003h-234.706c-4.142 0-7.5 3.358-7.5 7.5s3.358 7.5 7.5 7.5h234.71c1.737 0 3.369.676 4.586 1.893 1.189 1.194 1.857 2.757 1.905 4.418v.191h.009c-.001 3.583-2.917 6.498-6.5 6.498-.001 0-.001 0-.002 0s-.001 0-.002 0h-290.308c-4.142 0-7.5 3.358-7.5 7.5s3.358 7.5 7.5 7.5h290.307.002s.001 0 .002 0c1.737 0 3.369.676 4.586 1.893 1.234 1.239 1.914 2.875 1.914 4.607.001 3.581-2.915 6.497-6.499 6.497z"/><path d="m387.706 196.325 9.139-3.25c2.99-1.063 4.987-3.893 4.987-7.066s-1.997-6.003-4.987-7.066l-9.139-3.25c-7.158-2.546-12.702-7.813-15.609-14.833-2.908-7.02-2.713-14.665.549-21.527l4.164-8.76c1.363-2.866.774-6.279-1.47-8.523-2.244-2.245-5.659-2.833-8.523-1.471l-8.76 4.164c-6.863 3.262-14.508 3.457-21.526.55-7.02-2.908-12.287-8.452-14.833-15.61l-3.25-9.139c-1.063-2.99-3.893-4.987-7.066-4.987s-6.003 1.997-7.066 4.987l-3.25 9.139c-2.546 7.158-7.813 12.702-14.833 15.609-7.019 2.908-14.664 2.712-21.527-.549l-8.76-4.164c-2.865-1.363-6.279-.773-8.523 1.47-2.244 2.244-2.833 5.657-1.47 8.523l4.164 8.76c3.262 6.862 3.457 14.507.549 21.527-2.907 7.02-8.451 12.287-15.609 14.833l-9.139 3.25c-2.99 1.063-4.987 3.893-4.987 7.066s1.997 6.003 4.987 7.066l9.139 3.25c7.158 2.546 12.702 7.813 15.61 14.833 2.907 7.02 2.712 14.664-.55 21.526l-4.164 8.76c-1.362 2.866-.773 6.279 1.471 8.523s5.658 2.833 8.523 1.47l8.76-4.164c6.862-3.263 14.507-3.458 21.527-.549 7.02 2.907 12.287 8.451 14.833 15.609l3.25 9.139c1.063 2.99 3.893 4.987 7.066 4.987s6.003-1.997 7.066-4.987l3.25-9.139c2.546-7.158 7.813-12.702 14.833-15.61 7.019-2.907 14.664-2.712 21.526.55l8.76 4.164c2.865 1.362 6.279.773 8.523-1.471s2.833-5.657 1.471-8.523l-4.164-8.76c-3.262-6.862-3.457-14.507-.55-21.526 2.905-7.017 8.449-12.285 15.608-14.831zm-29.468 9.092c-3.352 8.092-4.025 16.996-2.052 25.397-8.401-1.974-17.304-1.3-25.397 2.052-8.092 3.352-14.863 9.171-19.409 16.507-4.545-7.336-11.317-13.155-19.409-16.507-5.083-2.105-10.484-3.154-15.881-3.154-3.196 0-6.391.368-9.515 1.102 1.973-8.401 1.3-17.305-2.052-25.397s-9.171-14.863-16.507-19.409c7.336-4.545 13.155-11.317 16.507-19.409s4.025-16.995 2.052-25.396c8.401 1.973 17.304 1.299 25.396-2.052 8.092-3.352 14.864-9.171 19.409-16.507 4.545 7.336 11.317 13.155 19.409 16.507s16.995 4.024 25.397 2.052c-1.973 8.401-1.3 17.304 2.052 25.396s9.171 14.864 16.507 19.409c-7.336 4.546-13.155 11.318-16.507 19.409z"/><path d="m86.196 274.167-2.351 13.708c-.889 5.186 1.203 10.329 5.459 13.421 4.256 3.093 9.793 3.492 14.451 1.044l12.31-6.472 12.31 6.472c2.026 1.065 4.218 1.591 6.398 1.591 2.833 0 5.648-.888 8.053-2.635 4.257-3.093 6.349-8.235 5.459-13.422l-2.351-13.707 9.959-9.708c3.768-3.672 5.098-9.062 3.473-14.066-1.626-5.004-5.871-8.583-11.078-9.339l-13.763-2-6.155-12.472c-2.329-4.718-7.043-7.649-12.305-7.649s-9.977 2.931-12.305 7.649l-6.155 12.472-13.764 2c-5.207.756-9.451 4.335-11.077 9.339s-.295 10.394 3.472 14.066zm14.231-20.366c4.471-.649 8.333-3.456 10.333-7.506l5.307-10.752 5.307 10.752c1.999 4.051 5.861 6.857 10.332 7.507l11.866 1.725-8.585 8.369c-3.236 3.152-4.711 7.693-3.948 12.147l2.027 11.818-10.613-5.58c-3.999-2.102-8.773-2.102-12.771 0l-10.613 5.58 2.027-11.818c.764-4.452-.712-8.993-3.946-12.146l-8.586-8.37z"/><path d="m406.885 322.113c-15.137 0-27.452 12.315-27.452 27.453s12.315 27.452 27.452 27.452 27.453-12.315 27.453-27.452-12.316-27.453-27.453-27.453zm0 39.905c-6.866 0-12.452-5.586-12.452-12.452s5.586-12.453 12.452-12.453 12.453 5.586 12.453 12.453-5.587 12.452-12.453 12.452z"/><path d="m98.567 400.303c.709-1.116 1.347-2.302 1.895-3.524 1.693-3.78.001-8.217-3.779-9.911-3.783-1.695-8.218-.001-9.911 3.779-.251.561-.541 1.101-.861 1.604-1.638 2.574-4.177 4.364-7.548 5.32-9.264 2.63-18.941-2.769-21.57-12.034s2.77-18.941 12.034-21.57c3.367-.955 6.895-.886 10.203.202 3.933 1.291 8.173-.847 9.467-4.783 1.293-3.935-.848-8.173-4.783-9.467-6.16-2.025-12.724-2.157-18.982-.382-17.221 4.887-27.256 22.874-22.37 40.095 4.05 14.271 17.094 23.607 31.245 23.606 2.926 0 5.9-.399 8.851-1.236 6.918-1.964 12.488-6.009 16.109-11.699z"/><path d="m137.083 368.202c-17.902 0-32.466 14.564-32.466 32.466 0 17.901 14.564 32.465 32.466 32.465 17.901 0 32.465-14.564 32.465-32.465.001-17.902-14.563-32.466-32.465-32.466zm0 49.931c-9.631 0-17.466-7.835-17.466-17.465 0-9.631 7.835-17.466 17.466-17.466 9.63 0 17.465 7.835 17.465 17.466.001 9.63-7.834 17.465-17.465 17.465z"/><path d="m268.994 430.412c4.142 0 7.5-3.358 7.5-7.5v-37.738c0-4.142-3.358-7.5-7.5-7.5s-7.5 3.358-7.5 7.5v37.738c0 4.142 3.358 7.5 7.5 7.5z"/><path d="m268.994 370.387c4.142 0 7.5-3.358 7.5-7.5v-.5c0-4.142-3.358-7.5-7.5-7.5s-7.5 3.358-7.5 7.5v.5c0 4.142 3.358 7.5 7.5 7.5z"/><path d="m175.629 398.534c.397 3.859 3.654 6.733 7.451 6.733.257 0 .516-.013.777-.04 4.12-.424 7.117-4.107 6.693-8.228l-3.362-32.681c-.241-2.346.445-4.645 1.934-6.474 1.488-1.829 3.6-2.969 5.945-3.211 4.842-.497 9.187 3.036 9.686 7.879l3.362 32.681c.397 3.859 3.654 6.733 7.451 6.733.257 0 .516-.013.777-.04 4.12-.424 7.117-4.107 6.693-8.228l-3.362-32.681c-.241-2.346.445-4.645 1.934-6.474 1.488-1.829 3.6-2.969 5.945-3.211 2.343-.238 4.645.446 6.474 1.934s2.969 3.6 3.211 5.945l3.362 32.68c.424 4.12 4.111 7.116 8.228 6.693 4.12-.424 7.117-4.107 6.693-8.228l-3.362-32.68c-.651-6.332-3.729-12.03-8.667-16.046-4.937-4.017-11.141-5.871-17.475-5.218-6.096.627-11.6 3.508-15.586 8.127-4.657-3.563-10.622-5.434-16.899-4.786-3.537.364-6.875 1.486-9.834 3.266-1.546-1.841-3.947-2.908-6.516-2.644-4.12.424-7.117 4.107-6.693 8.228z"/></g></g></svg>