<svg id="Capa_1" enable-background="new 0 0 512 512" height="512" viewBox="0 0 512 512" width="512" xmlns="http://www.w3.org/2000/svg"><g><g><g><path d="m470.084 372.026v94.813h-408.658c-14.236 0-25.771-11.534-25.771-25.761v-35.581c0-18.488 14.982-33.47 33.461-33.47h400.968z" fill="#ebebeb"/><path d="m470.084 372.026v37.412h-434.429v-3.942c0-18.488 14.982-33.47 33.461-33.47z" fill="#e2e2e2"/><path d="m41.91 419.771c0 8.234 3.22 15.976 9.045 21.813 5.825 5.825 13.567 9.033 21.813 9.033h414.528c9.502 0 17.205 7.703 17.205 17.205 0 9.502-7.703 17.205-17.205 17.205h-414.541c-18.016 0-34.336-7.3-46.133-19.122-11.822-11.811-19.122-28.118-19.122-46.146 0-36.044 29.224-65.255 65.255-65.255h414.54c9.502 0 17.205 7.703 17.205 17.205 0 9.502-7.703 17.205-17.205 17.205h-414.528c-17.008-.001-30.857 13.837-30.857 30.857z" fill="#7a6d79"/></g><g><path d="m462.924 182.068 29.878 119.716c2.565 10.277-3.677 21.11-14.001 23.487-10.015 2.3-20.071-3.842-22.569-13.855 2.529 10.134-3.633 20.394-13.767 22.923s-20.394-3.633-22.923-13.766c2.529 10.134-3.633 20.394-13.766 22.923-10.134 2.529-20.394-3.633-22.923-13.766 2.499 10.012-3.492 20.159-13.413 22.835-10.231 2.753-20.83-3.876-23.395-14.153l-3.07-12.3-65.699 16.397c-10.068 2.513-20.203.71-28.447-4.241s-14.6-13.061-17.113-23.129c-.623-2.498-.979-5.003-1.094-7.487-29.769-19.09-52.6-49.138-61.837-86.148l-2.83-11.338c-19.72-79.015 28.343-159.064 107.37-178.787 71.246-17.781 143.335 19.555 171.277 84.99-1.401 1.582-2.695 3.314-3.861 5.178-11.768 18.891-5.145 44.11 13.94 55.57z" fill="#ebebeb"/><path d="m288.889 328.27c8.244 4.951 18.379 6.753 28.447 4.241l-40.06 9.998c-10.068 2.513-20.203.71-28.447-4.241s-14.6-13.061-17.113-23.129c-.623-2.498-.979-5.003-1.094-7.487-29.769-19.09-52.6-49.138-61.837-86.148l-2.83-11.338c-19.72-79.015 28.343-159.064 107.37-178.787 11.471-2.863 22.969-4.3 34.295-4.404-59.213 30.72-91.884 99.015-75.027 166.56l2.83 11.338c6.997 28.037 21.803 52.082 41.503 70.386-4.296 6.496-6.592 14.277-6.244 22.349v.047c.115 2.483.47 4.989 1.094 7.487 2.513 10.066 8.869 18.177 17.113 23.128z" fill="#e2e2e2"/><g fill="#685e68"><path d="m424.325 208.471-6.49 22.652c-3.64 12.705 7.839 24.586 20.661 21.385l22.862-5.706c12.823-3.2 17.372-19.081 8.19-28.586l-16.373-16.947c-9.181-9.503-25.21-5.502-28.85 7.202z"/><circle cx="346.111" cy="193.981" r="43.179"/></g></g><g><g><path d="m136.028 352.994c-5.972-24.028.657-50.484 19.737-68.917 19.08-18.434 45.748-24.148 69.556-17.352 5.965 24.021-.664 50.476-19.744 68.91-19.08 18.433-45.748 24.148-69.549 17.359z" fill="#9be69d"/><path d="m136.028 352.994c-5.972-24.028.657-50.484 19.737-68.917 19.08-18.434 45.748-24.148 69.556-17.352z" fill="#6fd7a3"/></g><path d="m85.672 150.799v61.936c0 31.176 25.273 56.449 56.449 56.449h14.05v-47.886c0-38.935-31.563-70.499-70.499-70.499z" fill="#fd4755"/><path d="m195.235 154.979v105.831c0 31.176-25.273 56.449-56.449 56.449h-14.05v-91.781c0-38.936 31.563-70.499 70.499-70.499z" fill="#fe646f"/><path d="m68.287 198.874v61.936c0 31.176 25.273 56.449 56.449 56.449h14.05v-47.886c0-38.935-31.563-70.499-70.499-70.499z" fill="#fe646f"/><g><path d="m136.025 354.501c-24.028 5.972-50.484-.657-68.917-19.737-18.434-19.08-24.148-45.748-17.352-69.556 24.021-5.965 50.476.664 68.91 19.744 18.433 19.079 24.148 45.748 17.359 69.549z" fill="#9be69d"/><path d="m136.025 354.501c-24.028 5.972-50.484-.657-68.917-19.737-18.434-19.08-24.148-45.748-17.352-69.556z" fill="#6fd7a3"/></g></g></g><g><path d="m487.3 443.12h-9.712v-46.71h9.712c6.609 0 12.814-2.573 17.455-7.228 4.672-4.657 7.245-10.862 7.245-17.472 0-13.625-11.08-24.71-24.7-24.71h-71.245c3.125-2.123 5.781-4.914 7.783-8.25.06-.099.117-.197.176-.296 5.848 3.611 13.085 4.956 20.262 3.163 6.848-1.708 12.618-5.979 16.25-12.025.065-.11.131-.22.195-.33 5.721 3.536 12.77 4.924 19.756 3.318 6.828-1.566 12.646-5.783 16.381-11.874 3.793-6.186 4.967-13.744 3.219-20.732l-29.88-119.72c-.481-1.93-1.709-3.589-3.414-4.613l-8.241-4.95c-7.591-4.56-13.145-12.156-15.236-20.842-2.042-8.479-.692-17.121 3.784-24.305.968-1.538 2.019-2.951 3.125-4.2 1.922-2.17 2.422-5.253 1.283-7.918-12.763-29.887-34.287-54.626-62.244-71.541-3.544-2.143-8.154-1.011-10.3 2.534-2.145 3.544-1.01 8.155 2.534 10.3 23.987 14.513 42.727 35.391 54.42 60.571-.525.742-1.037 1.508-1.532 2.296-6.637 10.651-8.645 23.357-5.653 35.777 3.027 12.569 11.081 23.573 22.096 30.188l5.578 3.351 2.347 9.405-.237-.245c-6.197-6.414-15.066-8.954-23.715-6.793-8.652 2.16-15.284 8.567-17.74 17.14l-6.489 22.652c-2.456 8.573-.223 17.52 5.974 23.934 4.743 4.909 11.048 7.548 17.626 7.548 2.016 0 4.059-.248 6.088-.755l22.862-5.706c3.338-.833 6.37-2.304 8.982-4.281l13.43 53.811c.777 3.108.248 6.481-1.453 9.255-1.611 2.628-4.079 4.438-6.95 5.096-6.007 1.381-12.118-2.368-13.613-8.358-1.004-4.019-5.072-6.463-9.094-5.459-4.019 1.004-6.463 5.075-5.459 9.094.001.002.001.006.002.008.735 2.953.277 6.015-1.289 8.623-1.569 2.612-4.062 4.457-7.024 5.195-6.099 1.524-12.303-2.2-13.826-8.301-1.004-4.019-5.074-6.462-9.094-5.459-3.41.852-5.687 3.913-5.685 7.276.001.6.073 1.209.226 1.818.738 2.955.281 6.021-1.286 8.632s-4.059 4.456-7.013 5.194c-6.104 1.522-12.315-2.203-13.838-8.309-1.004-4.019-5.08-6.463-9.093-5.461-4.02 1.003-6.464 5.073-5.462 9.093.001.002.002.006.003.008 1.489 5.989-2.139 12.167-8.082 13.773-2.842.764-5.873.323-8.535-1.242-2.809-1.651-4.865-4.38-5.642-7.482l-3.07-12.3c-1.003-4.019-5.079-6.463-9.092-5.46l-65.688 16.39c-7.807 1.946-15.896.741-22.778-3.394-6.883-4.13-11.745-10.704-13.698-18.54-.483-1.908-.779-3.928-.879-6.002 0-.003-.001-.005-.001-.008-.254-5.833 1.202-11.616 4.277-16.737 4.137-6.889 10.709-11.755 18.506-13.7 4.019-1.003 6.464-5.074 5.46-9.093-1.003-4.019-5.079-6.463-9.093-5.461-8.92 2.227-16.765 7.01-22.74 13.74-.375-3.723-1.007-7.441-1.923-11.127-.647-2.607-2.64-4.668-5.224-5.404-7.963-2.268-16.343-3.268-24.637-2.984v-101.552c0-4.142-3.358-7.5-7.5-7.5-8.473 0-16.626 1.376-24.27 3.886 9.083-54.619 49.62-99.092 104.179-112.704 25.189-6.291 51.516-5.479 76.129 2.351 3.943 1.254 8.164-.926 9.421-4.874 1.255-3.947-.927-8.165-4.874-9.421-27.266-8.673-56.42-9.575-84.309-2.61-63.665 15.884-110.104 69.72-116.676 134.67-4.382 2.664-8.479 5.752-12.241 9.199-14.7-15.778-35.014-24.679-56.93-24.679-4.142 0-7.5 3.358-7.5 7.5v41.197c-3.247-.405-6.544-.618-9.88-.618-4.142 0-7.5 3.358-7.5 7.5v56.974c-4.294.338-8.587 1.027-12.837 2.083-2.605.647-4.665 2.637-5.402 5.218-7.75 27.128-.406 56.568 19.17 76.834 2.466 2.55 5.091 4.915 7.846 7.094-12.33.538-24.295 4.172-34.786 10.609-3.53 2.166-4.637 6.784-2.47 10.315 2.166 3.53 6.783 4.638 10.315 2.47 9.034-5.538 19.455-8.468 30.137-8.468h414.54c5.349 0 9.7 4.356 9.7 9.71 0 2.594-1.007 5.026-2.852 6.865-1.822 1.828-4.255 2.835-6.849 2.835h-414.529c-21.152 0-38.36 17.208-38.36 38.36 0 10.226 3.989 19.854 11.237 27.113 7.246 7.246 16.878 11.237 27.123 11.237h414.53c5.349 0 9.7 4.352 9.7 9.7 0 2.594-1.01 5.033-2.843 6.866-1.834 1.834-4.27 2.844-6.857 2.844h-414.54c-15.442 0-29.942-6.011-40.839-16.936-10.912-10.902-16.921-25.403-16.921-40.834 0-9.401 2.299-18.71 6.647-26.919 1.939-3.66.544-8.199-3.117-10.138-3.662-1.939-8.2-.544-10.138 3.116-5.49 10.364-8.392 22.101-8.392 33.941 0 19.439 7.571 37.71 21.31 51.436 13.722 13.757 31.994 21.334 51.45 21.334h414.54c6.595 0 12.796-2.57 17.464-7.237 4.666-4.667 7.236-10.872 7.236-17.473 0-13.62-11.08-24.7-24.7-24.7zm-20.868-210.311c-.462 1.614-2.065 5.498-6.953 6.718l-22.862 5.706c-4.888 1.221-8.128-1.456-9.294-2.663s-3.729-4.537-2.341-9.38l6.489-22.652c1.388-4.843 5.324-6.311 6.952-6.717 1.629-.407 5.793-.962 9.296 2.663l16.372 16.946c3.5 3.622 2.802 7.766 2.341 9.379zm-127.667 107.432c.595 2.376 1.525 4.647 2.73 6.759h-51.23l47.244-11.788zm-93.797 4.458c1.42.853 2.878 1.615 4.361 2.301h-45.488c2.416-1.85 4.739-3.84 6.95-5.976 6.073-5.866 11.067-12.598 14.912-19.882 3.479 9.857 10.203 18.12 19.265 23.557zm-26.007-71.831c3.679 20.901-3.238 42.537-18.593 57.369-8.876 8.578-19.912 14.36-31.945 16.763h-23.102c1.171-7.545 1.23-15.161.239-22.616 28.328-3.021 51.499-24.738 56.273-52.813 5.722-.324 11.515.113 17.128 1.297zm-31.223-109.95v97.896c0 1.202-.037 2.309-.113 3.397-1.575 23-19.135 41.505-41.337 44.956v-39.794c0-16.141-4.85-31.512-14.033-44.622.361-31.873 24.502-58.141 55.483-61.833zm-94.571-4.188c15.221 1.781 29.068 8.978 39.339 20.453-6.636 8.969-11.401 19.399-13.704 30.717-7.573-6.476-16.254-11.385-25.635-14.516zm25.571 72.915c8.21 10.944 12.549 23.99 12.549 37.729v19.022c-2.185-3.032-4.59-5.931-7.225-8.658-12.981-13.431-30.179-21.623-48.275-23.638v-49.29c17.083 1.998 32.447 10.8 42.951 24.835zm-62.836 39.925c20.899-3.68 42.536 3.239 57.373 18.591 14.565 15.077 20.767 36.425 16.825 56.839h-27.831c-11.299-2.962-21.578-8.975-29.764-17.441-14.838-15.36-21.005-37.229-16.603-57.989zm.356 164.711c-4.416-4.423-6.848-10.287-6.848-16.511 0-12.881 10.479-23.36 23.36-23.36h389.818v46.71h-389.818c-6.238 0-12.104-2.43-16.512-6.839z"/><path d="m333.839 144.809c-13.134 3.278-24.205 11.474-31.175 23.079s-9.002 25.23-5.724 38.364c3.277 13.134 11.474 24.205 23.078 31.175 7.984 4.795 16.924 7.253 26.002 7.253 4.117 0 8.264-.506 12.362-1.529 27.112-6.767 43.665-34.33 36.898-61.443-3.277-13.134-11.474-24.206-23.079-31.175-11.604-6.969-25.226-9.001-38.362-5.724zm46.89 40.532c4.764 19.088-6.891 38.493-25.979 43.257-9.246 2.308-18.837.877-27.009-4.03-8.17-4.906-13.939-12.701-16.248-21.948-2.308-9.247-.877-18.838 4.03-27.009 4.906-8.17 12.701-13.941 21.948-16.248 2.886-.72 5.804-1.076 8.703-1.076 6.391 0 12.685 1.731 18.305 5.106 8.171 4.907 13.942 12.701 16.25 21.948z"/><path d="m237.343 192.316-20.376 5.085c-4.019 1.003-6.464 5.074-5.461 9.093.851 3.409 3.909 5.686 7.271 5.686.601 0 1.212-.073 1.822-.225l20.376-5.085c9.458-2.361 17.432-8.263 22.45-16.62 5.02-8.357 6.483-18.169 4.122-27.627l-2.885-11.557c-1.003-4.019-5.077-6.464-9.093-5.46-4.019 1.003-6.463 5.074-5.46 9.093l2.885 11.556c1.391 5.571.528 11.35-2.428 16.272s-7.652 8.398-13.223 9.789z"/></g></g></svg>