<svg id="Capa_1" enable-background="new 0 0 512 512" height="512" viewBox="0 0 512 512" width="512" xmlns="http://www.w3.org/2000/svg"><g><g><g><path d="m7.5 411.652v-283.984c0-7.767 6.296-14.063 14.063-14.063h142.203c22.12 0 40.861 14.739 46.919 34.913h59.578c6.057-20.174 24.799-34.913 46.919-34.913h142.203c7.767 0 14.063 6.296 14.063 14.063v283.984h-173.163l-22.447 36.288h-72.018l-19.641-34.606z" fill="#60b7ff"/><path d="m282.269 460.628h-83.59c-7.695 0-14.131-6.182-14.064-13.877.102-11.582-9.29-21.036-20.849-21.036h-142.203c-7.767 0-14.063-6.296-14.063-14.063 0-7.767 6.296-14.063 14.063-14.063h142.203c22.12 0 40.861 14.739 46.919 34.913h59.578c6.057-20.174 24.799-34.913 46.919-34.913h142.203c7.767 0 14.063 6.296 14.063 14.063 0 7.767-6.296 14.063-14.063 14.063h-142.203c-11.559 0-20.717 9.458-20.851 21.016-.089 7.69-6.351 13.897-14.062 13.897z" fill="#26a6fe"/><path d="m34.71 82.429h163.364c23.417 0 42.4 18.983 42.4 42.4 0-23.417 18.983-42.4 42.4-42.4h163.364v284.329h-163.364c-23.417 0-42.4 18.983-42.4 42.4 0-23.417-18.983-42.4-42.4-42.4h-163.364z" fill="#e2e2e2"/><path d="m240.474 378.107c0-11.71-4.744-22.313-12.422-29.982-7.669-7.678-18.272-12.422-29.982-12.422h-163.363v-284.331h163.363c23.419 0 42.404 18.985 42.404 42.404" fill="#ebebeb"/><path d="m240.474 93.776c0-11.71 4.744-22.313 12.422-29.982 7.669-7.678 18.272-12.422 29.982-12.422h163.363v284.331h-163.363c-23.419 0-42.404 18.985-42.404 42.404" fill="#f8f6f6"/><path d="m294.672 51.372v284.331h-11.794c-23.419 0-42.404 18.985-42.404 42.404v-284.331c0-11.71 4.744-22.313 12.422-29.982 7.669-7.678 18.272-12.422 29.982-12.422z" fill="#ebebeb"/><path d="m150.087 335.705h47.987c23.417 0 42.4 18.983 42.4 42.4v-284.329c0-23.417-18.983-42.4-42.4-42.4h-57.963l47.388 32.854-43.647 28.526 42.4 28.526-40.529 28.526 33.047 28.526-24.941 28.526 31.176 28.526-33.671 28.526 28.682 28.526z" fill="#f8f6f6"/></g><path d="m453.819 309.412-25.843 25.843-25.843-25.843c-5.486-5.486-14.381-5.486-19.867 0l-26.699 26.699c-5.486 5.486-5.486 14.381 0 19.867l25.843 25.843-25.843 25.843c-5.486 5.486-5.486 14.381 0 19.867l26.699 26.699c5.486 5.486 14.381 5.486 19.867 0l25.843-25.843 25.843 25.843c5.486 5.486 14.381 5.486 19.867 0l26.699-26.699c5.486-5.486 5.486-14.381 0-19.867l-25.843-25.843 25.843-25.843c5.486-5.486 5.486-14.381 0-19.867l-26.699-26.699c-5.486-5.486-14.381-5.486-19.867 0z" fill="#fe646f"/></g><g><path d="m293.193 215.489h109.246c4.142 0 7.5-3.358 7.5-7.5s-3.358-7.5-7.5-7.5h-109.246c-4.142 0-7.5 3.358-7.5 7.5s3.358 7.5 7.5 7.5z"/><path d="m293.193 179.058h109.246c4.142 0 7.5-3.358 7.5-7.5s-3.358-7.5-7.5-7.5h-109.246c-4.142 0-7.5 3.358-7.5 7.5s3.358 7.5 7.5 7.5z"/><path d="m293.193 142.626h109.246c4.142 0 7.5-3.358 7.5-7.5s-3.358-7.5-7.5-7.5h-109.246c-4.142 0-7.5 3.358-7.5 7.5s3.358 7.5 7.5 7.5z"/><path d="m319.448 106.195h82.991c4.142 0 7.5-3.358 7.5-7.5s-3.358-7.5-7.5-7.5h-82.991c-4.142 0-7.5 3.358-7.5 7.5s3.358 7.5 7.5 7.5z"/><path d="m293.193 288.352h84.244c4.142 0 7.5-3.358 7.5-7.5s-3.358-7.5-7.5-7.5h-84.244c-4.142 0-7.5 3.358-7.5 7.5s3.358 7.5 7.5 7.5z"/><path d="m293.193 251.921h109.246c4.142 0 7.5-3.358 7.5-7.5s-3.358-7.5-7.5-7.5h-109.246c-4.142 0-7.5 3.358-7.5 7.5s3.358 7.5 7.5 7.5z"/><path d="m78.508 215.485h58.336c4.142 0 7.5-3.358 7.5-7.5s-3.358-7.5-7.5-7.5h-58.336c-4.142 0-7.5 3.358-7.5 7.5s3.358 7.5 7.5 7.5z"/><path d="m78.509 288.352h46.007c4.142 0 7.5-3.358 7.5-7.5s-3.358-7.5-7.5-7.5h-46.007c-4.142 0-7.5 3.358-7.5 7.5s3.358 7.5 7.5 7.5z"/><path d="m485.148 381.822 20.54-20.54c4.07-4.07 6.312-9.481 6.312-15.237 0-5.755-2.241-11.167-6.312-15.237l-24.737-24.737v-178.401c0-11.893-9.675-21.568-21.568-21.568h-5.643v-54.732c0-4.142-3.358-7.5-7.5-7.5h-163.36c-13.333 0-25.867 5.191-35.296 14.62-2.743 2.747-5.128 5.756-7.13 8.971-8.817-14.153-24.519-23.591-42.384-23.591h-163.36c-4.142 0-7.5 3.358-7.5 7.5v54.734h-5.647c-11.89 0-21.563 9.674-21.563 21.563v283.984c.001 11.887 9.672 21.558 21.56 21.558h142.2c3.583 0 6.951 1.407 9.483 3.961 2.531 2.553 3.908 5.932 3.877 9.511-.052 5.64 2.128 10.976 6.139 15.022 4.046 4.083 9.667 6.426 15.421 6.426h34.92c4.142 0 7.5-3.358 7.5-7.5s-3.358-7.5-7.5-7.5h-34.92c-1.78 0-3.517-.723-4.766-1.984-1.172-1.183-1.81-2.719-1.795-4.331.066-7.613-2.854-14.789-8.224-20.205-5.37-5.417-12.521-8.4-20.136-8.4h-142.199c-3.617 0-6.56-2.943-6.56-6.56 0-1.751.687-3.405 1.913-4.636 1.252-1.247 2.902-1.934 4.647-1.934h142.2c18.17 0 34.515 12.163 39.748 29.578.953 3.171 3.872 5.342 7.183 5.342h59.58c3.312 0 6.232-2.173 7.184-5.345 5.223-17.413 21.559-29.575 39.727-29.575h30.809c-2.794 3.905-4.128 8.528-3.999 13.13h-26.812c-15.456 0-28.173 12.756-28.35 28.433-.042 3.577-2.985 6.487-6.561 6.487h-13.81c-4.142 0-7.5 3.358-7.5 7.5s3.358 7.5 7.5 7.5h13.81c11.75 0 21.422-9.561 21.56-21.315.084-7.501 6.073-13.604 13.351-13.604h33.458l26.324 26.325c4.07 4.07 9.481 6.312 15.237 6.312s11.167-2.242 15.237-6.312l20.54-20.54 20.54 20.54c4.07 4.07 9.481 6.311 15.237 6.312 5.755 0 11.167-2.242 15.236-6.312l26.7-26.699c4.069-4.07 6.311-9.481 6.311-15.237s-2.242-11.167-6.312-15.236zm-25.765-260.72c3.622 0 6.568 2.947 6.568 6.568v170.255c-4.161-.423-8.421.352-12.211 2.338v-179.161zm-176.503-62.232h155.86v255.014l-10.765 10.765-20.54-20.54c-4.07-4.07-9.481-6.312-15.237-6.312-5.755 0-11.167 2.241-15.237 6.312l-24.101 24.101h-69.98c-13.578 0-25.898 5.458-34.906 14.282v-248.716c0-.017-.002-.034-.003-.051.014-9.297 3.643-18.045 10.222-24.632 6.593-6.592 15.36-10.223 24.687-10.223zm-240.667 284.34h155.857c9.333 0 18.101 3.627 24.687 10.213 5.411 5.411 8.819 12.292 9.865 19.747-9.339-8.972-21.561-13.914-34.548-13.914h-155.861zm306.285 16.046h-65.62c-13.399 0-25.58 5.305-34.554 13.925 2.4-16.917 16.978-29.972 34.556-29.972h61.278c-.122.934-.207 1.877-.207 2.835.001 4.852 1.61 9.448 4.547 13.212zm-115.528-265.476c0 .026.004.051.004.077v248.589c-9.375-9.179-21.745-14.236-34.904-14.236h-26.12l12.669-9.847c1.702-1.322 2.752-3.313 2.884-5.464.131-2.151-.669-4.255-2.197-5.775l-22.891-22.766 27.438-23.247c1.644-1.393 2.609-3.425 2.65-5.579s-.846-4.222-2.436-5.676l-25.767-23.577 20.115-23.007c1.314-1.504 1.975-3.47 1.835-5.462-.14-1.993-1.069-3.847-2.581-5.152l-25.772-22.247 32.671-22.995c2.019-1.421 3.208-3.744 3.183-6.212s-1.265-4.766-3.313-6.144l-33.016-22.213 34.18-22.339c2.089-1.365 3.362-3.68 3.396-6.175.034-2.496-1.175-4.844-3.226-6.266l-27.688-19.197h33.985c19.245 0 34.901 15.661 34.901 34.91zm32.022 331.22h-49.027c-8.655-20.814-29.371-34.92-52.206-34.92h-142.199c-2.259 0-4.463.359-6.56 1.029v-263.442c0-3.619 2.944-6.563 6.563-6.563h5.647v28.266c0 4.142 3.358 7.5 7.5 7.5s7.5-3.358 7.5-7.5v-90.5h95.547l36.314 25.176-10.943 7.152h-58.361c-4.142 0-7.5 3.358-7.5 7.5s3.358 7.5 7.5 7.5h35.41l-.429.28c-2.104 1.375-3.38 3.714-3.397 6.228s1.228 4.869 3.313 6.272l12.858 8.651h-74.014c-4.142 0-7.5 3.358-7.5 7.5s3.358 7.5 7.5 7.5h92.799l-29.901 21.046c-.171.12-.328.254-.487.386h-62.411c-4.142 0-7.5 3.358-7.5 7.5s3.358 7.5 7.5 7.5h66.456l23.191 20.019-19.973 22.845c-2.683 3.069-2.424 7.718.583 10.47l4.941 4.521h-75.198c-4.142 0-7.5 3.358-7.5 7.5s3.358 7.5 7.5 7.5h91.592l3.558 3.255-27.172 23.021c-1.603 1.357-2.562 3.325-2.646 5.423-.083 2.099.716 4.136 2.205 5.617l22.64 22.517-21.177 16.46h-105.295l-.003-143.839c0-4.142-3.358-7.5-7.5-7.5s-7.5 3.358-7.5 7.5l.003 182.386c0 4.142 3.358 7.5 7.5 7.5h163.361c9.322 0 18.088 3.631 24.682 10.225 6.587 6.587 10.215 15.349 10.215 24.671 0 4.142 3.358 7.5 7.5 7.5s7.5-3.358 7.5-7.5c0-19.242 15.659-34.896 34.907-34.896h80.36l7.565 7.565-8.258 8.258h-45.365c-22.833.001-43.542 14.108-52.188 34.921zm230.091-2.771-26.7 26.699c-1.236 1.237-2.881 1.918-4.63 1.918s-3.394-.681-4.63-1.918l-25.843-25.843c-2.929-2.929-7.678-2.929-10.606 0l-25.844 25.843c-1.236 1.237-2.881 1.918-4.63 1.918s-3.393-.681-4.63-1.918l-26.7-26.7c-2.553-2.553-2.553-6.707 0-9.26l25.843-25.843c2.929-2.929 2.929-7.678 0-10.606l-25.843-25.843c-2.553-2.553-2.553-6.708 0-9.261l26.699-26.699c1.237-1.237 2.881-1.918 4.63-1.918s3.394.681 4.63 1.918l25.843 25.843c2.929 2.929 7.678 2.929 10.606 0l25.843-25.843c2.554-2.554 6.708-2.553 9.261 0l26.699 26.699c1.237 1.237 1.918 2.881 1.918 4.63s-.681 3.394-1.918 4.63l-25.843 25.843c-2.929 2.929-2.929 7.678 0 10.606l25.843 25.844c2.554 2.553 2.554 6.708.002 9.261z"/></g></g></svg>