<svg id="Capa_1" enable-background="new 0 0 512 512" height="512" viewBox="0 0 512 512" width="512" xmlns="http://www.w3.org/2000/svg"><g><g><g><path d="m7.5 452.256v-302.909c0-8.284 6.716-15 15-15h151.68c23.594 0 43.584 15.722 50.045 37.24h63.549c6.461-21.518 26.451-37.24 50.045-37.24h151.681c8.284 0 15 6.716 15 15v302.909h-184.703l-23.943 38.706h-76.817l-20.95-36.912z" fill="#60b7ff"/><path d="m300.58 504.496h-89.16c-8.208 0-15.073-6.594-15.001-14.802.108-12.354-9.91-22.438-22.239-22.438h-151.68c-8.284 0-15-6.716-15-15 0-8.284 6.716-15 15-15h151.68c23.594 0 43.584 15.722 50.045 37.24h63.549c6.461-21.518 26.451-37.24 50.045-37.24h151.681c8.284 0 15 6.716 15 15 0 8.284-6.716 15-15 15h-151.68c-12.329 0-22.098 10.089-22.241 22.417-.095 8.203-6.774 14.823-14.999 14.823z" fill="#26a6fe"/><path d="m36.523 101.093h174.252c24.977 0 45.226 20.248 45.226 45.226 0-24.977 20.248-45.226 45.226-45.226h174.252v303.277h-174.253c-24.977 0-45.226 20.248-45.226 45.226 0-24.977-20.248-45.226-45.226-45.226h-174.251z" fill="#e2e2e2"/><path d="m475.48 67.966v303.28h-174.25c-24.98 0-45.23 20.25-45.23 45.23 0-12.49-5.06-23.8-13.25-31.98-8.18-8.19-19.49-13.25-31.98-13.25h-174.25v-303.28h174.25c24.98 0 45.23 20.25 45.23 45.23 0-12.49 5.06-23.8 13.25-31.98 8.18-8.19 19.49-13.25 31.98-13.25z" fill="#f8f6f6"/><path d="m313.81 67.966v303.28h-12.58c-24.98 0-45.23 20.25-45.23 45.23v-303.28c0-12.49 5.06-23.8 13.25-31.98 8.18-8.19 19.49-13.25 31.98-13.25z" fill="#ebebeb"/></g><g><path d="m363.03 79.334v158.29c-43.39 26.59-94.29 35.4-142.66 26.44-23.98-4.45-47.33-13.26-68.84-26.44v-158.29c1.4.86 2.8 1.69 4.21 2.5 20.33 11.8 42.21 19.78 64.63 23.92 46.81 8.69 96 .71 138.45-23.92 1.41-.81 2.81-1.64 4.21-2.5z" fill="#7a6d79"/><path d="m363.03 83.924v92.59l-100.32 49.88c-3.42 1.7-7.44 1.7-10.86 0l-100.32-49.88v-92.59l4.21-2.09c62.78 36.43 140.3 36.43 203.08 0z" fill="#685e68"/><path d="m220.37 105.754v158.31c-23.98-4.45-47.33-13.26-68.84-26.44v-158.29c1.4.86 2.8 1.69 4.21 2.5 20.33 11.8 42.21 19.78 64.63 23.92z" fill="#685e68"/><path d="m434.174 94.025-171.464-85.253c-3.42-1.701-7.44-1.701-10.86 0l-171.464 85.253c-9.022 4.486-9.022 17.357 0 21.843l171.464 85.253c3.42 1.701 7.44 1.701 10.86 0l171.464-85.253c9.022-4.486 9.022-17.357 0-21.843z" fill="#7a6d79"/><path d="m122.946 115.865 155.61 77.38-15.85 7.88c-3.42 1.7-7.44 1.7-10.86 0l-171.46-85.26c-9.03-4.48-9.03-17.35 0-21.84l171.46-85.25c3.42-1.7 7.44-1.7 10.86 0l15.85 7.88-155.61 77.37c-9.02 4.49-9.02 17.36 0 21.84z" fill="#685e68"/><circle cx="407.431" cy="216.209" fill="#ffe177" r="19.952"/></g></g><path d="m489.5 126.846h-6.52v-58.88c0-4.142-3.357-7.5-7.5-7.5h-91.96l-44.521-22.136c-3.707-1.843-8.211-.332-10.055 3.377-1.844 3.708-.332 8.21 3.377 10.055l98.516 48.983c2.352 1.167 2.605 3.327 2.605 4.201 0 .875-.254 3.035-2.612 4.205l-24.586 12.226-147.77-23.835c-4.097-.664-7.939 2.121-8.599 6.21-.659 4.089 2.121 7.939 6.21 8.599l127.088 20.498-123.802 61.561c-1.31.651-2.871.651-4.183 0l-171.465-85.263c-2.352-1.167-2.605-3.327-2.605-4.202s.254-3.035 2.611-4.204l171.476-85.258c1.298-.649 2.852-.65 4.167.008l41.61 20.69c3.707 1.843 8.211.333 10.055-3.376s.332-8.211-3.377-10.055l-41.596-20.682c-5.501-2.751-12.068-2.75-17.554-.008l-117.47 58.406h-94.52c-4.143 0-7.5 3.358-7.5 7.5v58.88h-6.52c-12.406 0-22.5 10.093-22.5 22.5v302.91c0 12.406 10.094 22.5 22.5 22.5h151.68c3.952 0 7.668 1.552 10.462 4.371 2.793 2.818 4.312 6.547 4.277 10.501-.052 5.88 2.224 11.443 6.406 15.663 4.224 4.261 10.09 6.705 16.095 6.705h89.16c12.265 0 22.356-9.975 22.498-22.236.096-8.273 6.709-15.004 14.741-15.004h151.681c12.406 0 22.5-10.093 22.5-22.5v-302.91c0-12.407-10.094-22.5-22.5-22.5zm-445.478 251.9h166.748c10.084 0 19.557 3.924 26.681 11.057 6.206 6.198 9.98 14.183 10.852 22.802-9.568-9.706-22.855-15.735-37.528-15.735h-166.753zm393.481-256.161c6.748-3.348 10.939-10.106 10.939-17.639 0-7.532-4.191-14.291-10.934-17.636l-23.82-11.844h54.292l-.003 288.28h-166.747c-14.775 0-28.147 6.113-37.73 15.938v-104.829c36.559-1.083 72.201-11.684 103.449-30.835 2.225-1.363 3.581-3.785 3.581-6.395v-81.738l29.4-14.62v48.539c-11.501 3.272-19.952 13.866-19.952 26.402 0 15.137 12.315 27.453 27.452 27.453 15.138 0 27.453-12.315 27.453-27.453 0-12.537-8.451-23.13-19.953-26.402v-55.998zm30.475 256.161v18.124h-166.752c-14.673 0-27.96 6.029-37.528 15.735 1.945-18.993 18.035-33.859 37.533-33.859zm-60.547-174.989c6.866 0 12.453 5.586 12.453 12.452s-5.587 12.453-12.453 12.453-12.452-5.586-12.452-12.453 5.585-12.452 12.452-12.452zm-150.152 6.132c3.012 0 6.024-.683 8.771-2.047l89.48-44.495v70.027c-29.806 17.403-63.683 26.58-98.25 26.58-34.568 0-68.444-9.177-98.25-26.58v-70.027l89.48 44.495c2.746 1.364 5.758 2.047 8.769 2.047zm-234.779-68.043h6.52v150.64c0 4.142 3.357 7.5 7.5 7.5s7.5-3.358 7.5-7.5v-217.02h56.852l-23.815 11.841c-6.748 3.348-10.939 10.106-10.939 17.639s4.191 14.291 10.933 17.636l66.98 33.307v81.738c0 2.609 1.356 5.031 3.581 6.395 30.519 18.704 65.228 29.251 100.889 30.742v104.904c-.151-.155-.29-.318-.443-.471-9.95-9.963-23.192-15.45-37.287-15.45h-166.749l-.003-36.26c0-4.142-3.357-7.5-7.5-7.5s-7.5 3.358-7.5 7.5l.003 76.884c0 4.142 3.357 7.5 7.5 7.5h174.252c20.802 0 37.726 16.924 37.726 37.726 0 4.142 3.357 7.5 7.5 7.5s7.5-3.358 7.5-7.5c0-20.802 16.924-37.726 37.726-37.726h174.252c4.143 0 7.5-3.358 7.5-7.5l.003-262.524h6.52c4.136 0 7.5 3.364 7.5 7.5v281.7c-2.347-.833-4.871-1.29-7.5-1.29h-151.682c-24.265 0-46.266 15.059-55.338 37.24h-52.963c-9.073-22.182-31.073-37.24-55.339-37.24h-151.679c-2.629 0-5.153.458-7.5 1.29v-281.7c0-4.137 3.364-7.501 7.5-7.501zm467 317.91h-151.681c-16.208 0-29.55 13.382-29.74 29.831-.047 4.085-3.411 7.409-7.499 7.409h-89.16c-2.031 0-4.015-.826-5.441-2.265-1.345-1.356-2.076-3.122-2.06-4.971.069-7.986-2.993-15.512-8.624-21.193-5.633-5.682-13.131-8.811-21.115-8.811h-151.68c-4.136 0-7.5-3.364-7.5-7.5s3.364-7.5 7.5-7.5h151.68c19.598 0 37.224 13.117 42.862 31.897.953 3.171 3.872 5.343 7.184 5.343h63.549c3.312 0 6.23-2.172 7.184-5.343 5.639-18.78 23.264-31.897 42.861-31.897h151.68c4.136 0 7.5 3.365 7.5 7.5 0 4.136-3.364 7.5-7.5 7.5z"/></g></svg>