<svg id="Capa_1" enable-background="new 0 0 512 512" height="512" viewBox="0 0 512 512" width="512" xmlns="http://www.w3.org/2000/svg"><g><g><g><path d="m7.5 401.787v-302.909c0-8.284 6.716-15 15-15h151.68c23.594 0 43.584 15.722 50.045 37.24h63.549c6.461-21.518 26.451-37.24 50.045-37.24h151.681c8.284 0 15 6.716 15 15v302.909h-184.703l-23.943 38.706h-76.817l-20.95-36.912z" fill="#c68d7a"/><path d="m300.58 454.027h-89.16c-8.208 0-15.073-6.594-15.001-14.802.108-12.354-9.91-22.438-22.239-22.438h-151.68c-8.284 0-15-6.716-15-15 0-8.284 6.716-15 15-15h151.68c23.594 0 43.584 15.722 50.045 37.24h63.549c6.461-21.518 26.451-37.24 50.045-37.24h151.681c8.284 0 15 6.716 15 15 0 8.284-6.716 15-15 15h-151.68c-12.329 0-22.098 10.089-22.241 22.417-.095 8.203-6.774 14.823-14.999 14.823z" fill="#bc7c63"/><path d="m36.523 50.624h174.252c24.977 0 45.226 20.248 45.226 45.226 0-24.977 20.248-45.226 45.226-45.226h174.252v303.277h-174.253c-24.977 0-45.226 20.248-45.226 45.226 0-24.977-20.248-45.226-45.226-45.226h-174.251z" fill="#e2e2e2"/><path d="m475.48 17.497v303.28h-174.25c-24.98 0-45.23 20.25-45.23 45.23 0-12.49-5.06-23.8-13.25-31.98-8.18-8.19-19.49-13.25-31.98-13.25h-174.25v-303.28h174.25c24.98 0 45.23 20.25 45.23 45.23 0-12.49 5.06-23.8 13.25-31.98 8.18-8.19 19.49-13.25 31.98-13.25z" fill="#f8f6f6"/><path d="m313.81 17.497v303.28h-12.58c-24.98 0-45.23 20.25-45.23 45.23v-303.28c0-12.49 5.06-23.8 13.25-31.98 8.18-8.19 19.49-13.25 31.98-13.25z" fill="#ebebeb"/></g><g><path d="m300.692 293.388c-.18-10.806-8.981-19.513-19.83-19.513-10.632 0-19.286 8.367-19.798 18.873l-.049-.001v-8.666c0-10.762-8.368-19.927-19.123-20.31-11.291-.401-20.571 8.632-20.571 19.834v-10.116c0-10.961-8.886-19.847-19.847-19.847-10.961 0-19.847 8.886-19.847 19.847v-78.159c0-13.015-10.551-23.565-23.565-23.565-13.015 0-23.565 10.551-23.565 23.565v137.074l-30.569-30.569c-11.191-11.192-29.336-11.191-40.528 0-11.191 11.191-11.191 29.336 0 40.528l59.61 59.61c8.241 8.241 18.026 14.57 28.667 18.753v73.776h120.276v-88.672c17.614-15.394 28.756-38.008 28.756-63.238v-48.87-.333z" fill="#ffdfcf"/><g fill="#ffcebf"><path d="m184.733 411.738v82.763h-33.055v-98.224c9.771 7.541 21.072 12.801 33.055 15.461z"/><path d="m194.94 273.488v5.018c0 5.116-4.148 9.264-9.264 9.264h-4.047v-14.282c0-5.486 2.219-10.444 5.815-14.032 3.588-3.596 8.546-5.815 14.032-5.815 2.331 0 4.573.4 6.656 1.145-2.803.993-5.31 2.603-7.377 4.669-3.597 3.589-5.815 8.547-5.815 14.033z"/><path d="m234.633 283.605v5.018c0 5.116-4.148 9.264-9.264 9.264h-4.047v-14.282c0-5.486 2.219-10.444 5.815-14.032 3.588-3.596 8.546-5.815 14.032-5.815 2.331 0 4.573.4 6.656 1.145-2.803.993-5.31 2.603-7.377 4.669-3.596 3.589-5.815 8.546-5.815 14.033z"/><path d="m274.327 293.722v5.017c0 5.116-4.148 9.264-9.264 9.264h-4.047v-14.282c0-5.486 2.219-10.444 5.815-14.032 3.588-3.596 8.546-5.815 14.032-5.815 2.331 0 4.573.4 6.656 1.145-2.803.993-5.31 2.603-7.377 4.669-3.597 3.589-5.815 8.547-5.815 14.034z"/><path d="m158.059 171.768c2.924 0 5.716.536 8.295 1.507-3.166 1.194-6.009 3.045-8.366 5.392-4.259 4.269-6.899 10.157-6.899 16.662v120.487c0 9.163-7.428 16.591-16.591 16.591v-137.077c0-6.505 2.64-12.393 6.899-16.662 4.269-4.259 10.157-6.9 16.662-6.9z"/><path d="m184.733 411.738v14.837h-2.348c-10.619 0-21.014-2.007-30.707-5.836-10.648-4.17-20.429-10.522-28.671-18.763l-59.602-59.612c-5.602-5.592-8.388-12.928-8.388-20.263 0-7.336 2.786-14.672 8.388-20.264 4.696-4.706 10.629-7.423 16.756-8.164-3.069 4.725-4.608 10.151-4.608 15.597 0 7.326 2.786 14.671 8.388 20.263l59.602 59.602c2.572 2.572 5.29 4.949 8.135 7.141 9.771 7.542 21.072 12.802 33.055 15.462z"/></g></g></g><g><path d="m504.5 128.469c4.142 0 7.5-3.358 7.5-7.5v-22.09c0-12.407-10.093-22.5-22.5-22.5h-6.52v-58.878c0-4.142-3.358-7.5-7.5-7.5h-174.25c-14.093 0-27.335 5.487-37.28 15.443-3.1 3.097-5.767 6.511-7.969 10.171-9.232-15.336-26.043-25.615-45.21-25.615h-174.251c-4.142 0-7.5 3.358-7.5 7.5v58.876h-6.52c-12.407.001-22.5 10.094-22.5 22.501v302.91.004c0 12.407 10.093 22.5 22.5 22.5h118.77c.963.482 1.928.961 2.91 1.411v68.797c0 4.142 3.358 7.5 7.5 7.5s7.5-3.358 7.5-7.5v-73.76c0-3.087-1.891-5.858-4.765-6.984-9.839-3.853-18.622-9.599-26.102-17.08l-59.6-59.6c-4-4.015-6.203-9.333-6.203-14.977 0-5.651 2.2-10.963 6.196-14.959 3.995-3.999 9.308-6.201 14.959-6.201s10.964 2.202 14.962 6.203l30.57 30.57c2.145 2.146 5.373 2.787 8.173 1.626 2.803-1.161 4.63-3.896 4.63-6.929v-53.73c0-4.142-3.358-7.5-7.5-7.5s-7.5 3.358-7.5 7.5v35.623l-17.764-17.764c-6.829-6.835-15.91-10.599-25.571-10.599s-18.742 3.764-25.569 10.597c-4.697 4.698-7.942 10.461-9.509 16.745h-4.567v-288.279h166.75c20.804 0 37.73 16.926 37.73 37.73v194.545c-2.026-.565-4.144-.914-6.338-.992-5.921-.208-11.593 1.434-16.372 4.699-4.546-8.808-13.737-14.844-24.311-14.844-4.365 0-8.575 1.017-12.36 2.938v-17.867h10.65c4.142 0 7.5-3.358 7.5-7.5s-3.358-7.5-7.5-7.5h-10.65v-20.882c0-1.005-.052-1.997-.146-2.978h10.796c4.142 0 7.5-3.358 7.5-7.5s-3.358-7.5-7.5-7.5h-16.406c-5.636-7.909-14.874-13.082-25.304-13.082-8.276 0-16.072 3.223-21.963 9.087-1.247 1.247-2.368 2.586-3.371 3.995h-49.485c-4.142 0-7.5 3.358-7.5 7.5s3.358 7.5 7.5 7.5h43.902c-.093.984-.142 1.977-.142 2.978v20.882h-43.76c-4.142 0-7.5 3.358-7.5 7.5s3.358 7.5 7.5 7.5h43.76v12.468c0 4.142 3.358 7.5 7.5 7.5s7.5-3.358 7.5-7.5v-48.35c0-4.297 1.67-8.333 4.691-11.354 3.049-3.035 7.086-4.706 11.369-4.706 8.855 0 16.06 7.205 16.06 16.06l.008 92.441c0 4.142 3.358 7.5 7.5 7.5s7.5-3.358 7.5-7.5v-14.282c0-.026-.004-.052-.004-.078.021-3.262 1.302-6.33 3.619-8.648 2.336-2.336 5.439-3.623 8.737-3.623 6.804 0 12.34 5.54 12.34 12.35v10.11c0 4.142 3.358 7.5 7.5 7.5s7.5-3.358 7.5-7.5c0-3.377 1.341-6.531 3.776-8.879 2.432-2.345 5.649-3.556 9.029-3.446 6.553.232 11.885 5.976 11.885 12.805v8.67c0 4.142 3.408 7.5 7.55 7.5 3.992 0 7.285-3.127 7.49-7.115.164-3.189 1.516-6.154 3.799-8.341 2.306-2.202 5.328-3.414 8.51-3.414 6.688 0 12.22 5.444 12.331 12.135.002.143.009.284.019.425v48.65c0 22.082-9.546 43.08-26.192 57.61-1.632 1.424-2.568 3.484-2.568 5.65v88.65c0 4.142 3.358 7.5 7.5 7.5s7.5-3.358 7.5-7.5v-32.968h21.13c12.257 0 22.35-9.976 22.5-22.244.096-8.409 6.57-14.996 14.74-14.996h151.681c6.008 0 11.656-2.339 15.903-6.587 4.254-4.254 6.597-9.905 6.597-15.913v-.001s0 0 0-.001v-245.82c0-4.142-3.358-7.5-7.5-7.5s-7.5 3.358-7.5 7.5v224.612c-2.347-.833-4.871-1.29-7.5-1.29h-151.68c-24.259 0-46.261 15.057-55.341 37.24h-3.028v-7.36c13.693-12.897 22.982-29.604 26.802-47.766l169.228-.004c4.142 0 7.5-3.358 7.5-7.5v-262.521h6.52c4.136 0 7.5 3.364 7.5 7.5v22.09c-.001 4.142 3.357 7.5 7.499 7.5zm-482-37.092h6.52v262.524c0 4.142 3.358 7.5 7.5 7.5h35.305l17.89 17.89h-67.215c-2.599 0-5.12.463-7.5 1.303v-281.717c0-4.136 3.364-7.5 7.5-7.5zm97.305 317.914h-97.305c-4.135 0-7.5-3.364-7.5-7.5 0-2.001.782-3.886 2.203-5.307 1.415-1.415 3.295-2.193 5.297-2.193h82.215l12.991 12.991c.687.687 1.394 1.347 2.099 2.009zm-71.76-81.01c1.155 6.729 4.183 12.979 8.845 18.12h-12.87v-18.12zm239.725 103.25c3.311 0 6.229-2.17 7.183-5.34 5.647-18.782 23.274-31.899 42.867-31.899h151.68c4.135 0 7.5 3.364 7.5 7.5 0 2.001-.782 3.886-2.203 5.307-1.415 1.415-3.295 2.193-5.297 2.193h-151.68c-16.211 0-29.552 13.379-29.739 29.819-.05 4.092-3.415 7.421-7.5 7.421h-21.13v-15h8.319zm-6.91-165.152c-5.569 0-10.916 1.672-15.438 4.778-.57-1.113-1.215-2.179-1.922-3.196v-205.23c0-10.083 3.924-19.556 11.057-26.68 7.117-7.126 16.59-11.05 26.673-11.05h166.75v288.28h-159.77v-19.892c0-.261-.013-.519-.04-.772-.587-14.527-12.704-26.238-27.31-26.238zm27.263 80.022c.053-1.268.087-2.538.087-3.812v-14.308h159.77v18.12z"/><path d="m312.232 192.354h116.526c4.142 0 7.5-3.358 7.5-7.5s-3.358-7.5-7.5-7.5h-116.526c-4.142 0-7.5 3.358-7.5 7.5s3.358 7.5 7.5 7.5z"/><path d="m312.232 153.496h116.526c4.142 0 7.5-3.358 7.5-7.5s-3.358-7.5-7.5-7.5h-116.526c-4.142 0-7.5 3.358-7.5 7.5s3.358 7.5 7.5 7.5z"/><path d="m312.232 114.636h116.526c4.142 0 7.5-3.358 7.5-7.5s-3.358-7.5-7.5-7.5h-116.526c-4.142 0-7.5 3.358-7.5 7.5s3.358 7.5 7.5 7.5z"/><path d="m340.237 75.777h88.521c4.142 0 7.5-3.358 7.5-7.5s-3.358-7.5-7.5-7.5h-88.521c-4.142 0-7.5 3.358-7.5 7.5s3.358 7.5 7.5 7.5z"/><path d="m312.232 270.073h89.857c4.142 0 7.5-3.358 7.5-7.5s-3.358-7.5-7.5-7.5h-89.857c-4.142 0-7.5 3.358-7.5 7.5s3.358 7.5 7.5 7.5z"/><path d="m312.232 231.214h116.526c4.142 0 7.5-3.358 7.5-7.5s-3.358-7.5-7.5-7.5h-116.526c-4.142 0-7.5 3.358-7.5 7.5s3.358 7.5 7.5 7.5z"/><path d="m83.241 153.496h116.526c4.142 0 7.5-3.358 7.5-7.5s-3.358-7.5-7.5-7.5h-116.526c-4.142 0-7.5 3.358-7.5 7.5s3.358 7.5 7.5 7.5z"/><path d="m75.741 107.136c0 4.142 3.358 7.5 7.5 7.5h116.526c4.142 0 7.5-3.358 7.5-7.5s-3.358-7.5-7.5-7.5h-116.526c-4.142 0-7.5 3.358-7.5 7.5z"/><path d="m199.768 75.777c4.142 0 7.5-3.358 7.5-7.5s-3.358-7.5-7.5-7.5h-88.521c-4.142 0-7.5 3.358-7.5 7.5s3.358 7.5 7.5 7.5z"/><path d="m83.241 255.073c-4.142 0-7.5 3.358-7.5 7.5s3.358 7.5 7.5 7.5h32.446c4.142 0 7.5-3.358 7.5-7.5s-3.358-7.5-7.5-7.5z"/></g></g></svg>