<svg id="Capa_1" enable-background="new 0 0 512 512" height="512" viewBox="0 0 512 512" width="512" xmlns="http://www.w3.org/2000/svg"><g><g><g><path d="m322.279 359.111v-56.935l.001-283.911c0-5.946-4.82-10.765-10.765-10.765h-239.758c-21.351 0-38.659 17.308-38.659 38.659v284.144" fill="#fe9738"/><path d="m69.6 302.367h232.294v56.163h-236.854c-8.429 0-15.263-6.833-15.263-15.263v-21.077c0-10.948 8.875-19.823 19.823-19.823z" fill="#ebebeb"/><g fill="#fe7d43"><path d="m71.761 7.503v284.485h-.007c-21.344 0-38.655 17.304-38.655 38.655v-284.484c-.001-21.345 17.311-38.656 38.662-38.656z"/><path d="m322.279 304.985c0 7.18-5.82 13-13 13h-236.844c-3.55 0-7.066 1.492-9.647 4.094-1.392 1.403-3.722 4.394-3.689 8.667.026 3.339 1.341 6.477 3.702 8.835 1.406 1.409 4.395 3.722 8.954 3.722h237.525c7.18 0 13 5.82 13 13 0 7.18-5.82 13-13 13h-237.526c-10.672 0-20.34-4.324-27.328-11.327-6.936-6.929-11.244-16.471-11.326-27.028-.167-21.43 17.905-38.963 39.336-38.963h236.844c7.179 0 12.999 5.82 12.999 13z"/></g></g><g><path d="m478.906 494.308v-56.935l.001-283.911c0-5.946-4.82-10.765-10.765-10.765h-239.758c-21.351 0-38.659 17.308-38.659 38.659v284.144" fill="#60b7ff"/><path d="m226.227 437.564h232.294v56.163h-236.854c-8.429 0-15.263-6.833-15.263-15.263v-21.077c0-10.948 8.875-19.823 19.823-19.823z" fill="#ebebeb"/><g fill="#26a6fe"><path d="m228.388 142.7v284.485h-.007c-21.344 0-38.655 17.304-38.655 38.655v-284.484c-.001-21.345 17.311-38.656 38.662-38.656z"/><path d="m478.906 440.182c0 7.18-5.82 13-13 13h-236.844c-3.55 0-7.066 1.492-9.647 4.094-1.392 1.403-3.722 4.394-3.689 8.667.026 3.339 1.341 6.477 3.702 8.835 1.406 1.409 4.395 3.722 8.954 3.722h237.525c7.18 0 13 5.82 13 13 0 7.18-5.82 13-13 13h-237.526c-10.672 0-20.34-4.324-27.328-11.327-6.936-6.929-11.244-16.471-11.326-27.028-.167-21.43 17.905-38.963 39.336-38.963h236.844c7.179 0 12.999 5.82 12.999 13z"/></g></g><path d="m165.782 102.165-13.162-10.38c-3.61-2.848-8.702-2.848-12.313 0l-13.162 10.381c-6.52 5.142-16.098.498-16.098-7.805v-86.861h70.831v86.86c.001 8.304-9.576 12.948-16.096 7.805z" fill="#ffe177"/></g><g><path d="m486.402 386.76c0-4.142-3.358-7.5-7.5-7.5s-7.5 3.358-7.5 7.5v33.692c-1.752-.489-3.59-.77-5.496-.77h-230.022v-269.482h232.258c1.797 0 3.26 1.462 3.26 3.26v198.3c0 4.142 3.358 7.5 7.5 7.5s7.5-3.358 7.5-7.5v-198.3c0-10.069-8.191-18.26-18.26-18.26h-138.36v-116.93c0-10.074-8.191-18.27-18.26-18.27h-59.95c-4.142 0-7.5 3.358-7.5 7.5s3.358 7.5 7.5 7.5h59.95c1.797 0 3.26 1.467 3.26 3.27v116.93h-86.4c-25.453 0-46.16 20.707-46.16 46.16v103.12h-102.965v-269.48h24.291v79.36c0 6.74 3.767 12.753 9.832 15.693 6.064 2.941 13.119 2.175 18.411-1.999l13.162-10.381c.89-.702 2.134-.702 3.023 0l13.162 10.381c3.158 2.491 6.944 3.768 10.772 3.768 2.586 0 5.193-.583 7.638-1.769 6.064-2.94 9.832-8.954 9.832-15.693v-79.36h27.192c4.142 0 7.5-3.358 7.5-7.5s-3.358-7.5-7.5-7.5h-144.81c-25.453 0-46.16 20.707-46.16 46.16 0 0-.005 284.653-.003 284.847.093 12.196 4.898 23.66 13.523 32.272 8.706 8.719 20.297 13.521 32.637 13.521h110.463s.01 88.871.013 88.958c0 .149-.009.297-.008.446.094 12.195 4.897 23.657 13.517 32.267 8.707 8.725 20.297 13.529 32.637 13.529h237.525c11.028 0 20.024-8.759 20.459-19.682.026-.279.037-105.558.037-105.558zm-35.381 84.24h-222.64c-1.759 0-2.953-.827-3.653-1.528-.972-.971-1.492-2.212-1.502-3.588-.012-1.555.942-2.751 1.513-3.326 1.166-1.175 2.782-1.876 4.324-1.876h221.959v10.318zm15-10.324c1.865-.01 3.664-.286 5.381-.764v11.859c-1.716-.479-3.516-.754-5.381-.764zm-245.137-89.673c-9.034 1.483-17.193 5.592-23.662 11.522v-156.501h.003c0-14.595 10.089-26.874 23.658-30.24v175.219zm-23.659 45.54c0-14.595 10.089-26.874 23.658-30.24v34.13c-8.755 1.581-17.031 5.645-23.662 11.726v-15.616zm23.659-265.425v29.366c-9.034 1.483-17.193 5.592-23.662 11.522v-10.646c0-14.597 10.091-26.876 23.662-30.242zm-156.627 84.688c-9.031 1.482-17.188 5.588-23.655 11.516v-156.63c.062-14.536 10.128-26.749 23.655-30.105zm0 15.299v34.126c-8.751 1.581-17.025 5.643-23.655 11.722v-15.743c.062-14.535 10.128-26.749 23.655-30.105zm110.122-236.105v79.36c0 1.331-.862 1.947-1.376 2.197-.514.249-1.533.544-2.577-.28l-13.162-10.381c-6.359-5.016-15.242-5.015-21.602 0l-13.162 10.381c-1.045.824-2.063.529-2.577.28s-1.376-.866-1.376-2.197v-79.36zm-110.122.919v29.368c-9.031 1.482-17.188 5.588-23.655 11.516v-10.643c0-14.595 10.088-26.873 23.655-30.241zm7.502 345.881c-8.33 0-16.151-3.239-22.031-9.127-5.825-5.817-9.067-13.552-9.13-21.782-.064-8.134 3.152-15.891 9.056-21.842 6.033-6.081 14.337-9.568 22.784-9.568h109.784v11h-63.33c-4.142 0-7.5 3.358-7.5 7.5s3.358 7.5 7.5 7.5h63.33v10.32h-110.46c-1.763 0-2.962-.829-3.656-1.523-.971-.971-1.491-2.214-1.503-3.58-.011-1.563.942-2.759 1.514-3.334 1.17-1.179 2.787-1.883 4.326-1.883h11.45c4.142 0 7.5-3.358 7.5-7.5s-3.358-7.5-7.5-7.5h-11.45c-5.532 0-10.99 2.302-14.972 6.315-2.213 2.228-5.917 7.011-5.868 14.022.047 5.316 2.141 10.311 5.896 14.067 2.21 2.209 7.001 5.916 14.263 5.916h110.46v11h-110.463zm394.147 135.2h-237.525c-8.327 0-16.147-3.241-22.027-9.133-5.822-5.816-9.063-13.551-9.127-21.78-.063-8.135 3.153-15.892 9.056-21.842 6.031-6.078 14.333-9.563 22.78-9.563h236.843c3.007 0 5.454 2.426 5.496 5.423v.154c-.042 2.997-2.489 5.423-5.496 5.423h-236.844c-5.535 0-10.991 2.3-14.971 6.311-2.214 2.231-5.919 7.017-5.865 14.009.042 5.321 2.138 10.322 5.893 14.074 2.208 2.213 6.997 5.924 14.262 5.924h237.525c3.007 0 5.454 2.426 5.496 5.423v.154c-.042 2.997-2.49 5.423-5.496 5.423z"/><path d="m432.733 232.896c0-4.142-3.358-7.5-7.5-7.5h-144.945c-4.142 0-7.5 3.358-7.5 7.5s3.358 7.5 7.5 7.5h144.945c4.142 0 7.5-3.358 7.5-7.5z"/><path d="m305.516 259.98c-4.142 0-7.5 3.358-7.5 7.5s3.358 7.5 7.5 7.5h94.489c4.142 0 7.5-3.358 7.5-7.5s-3.358-7.5-7.5-7.5z"/></g></g></svg>