<svg id="Capa_1" enable-background="new 0 0 512 512" height="512" viewBox="0 0 512 512" width="512" xmlns="http://www.w3.org/2000/svg"><g><g><path d="m7.5 432.434v-302.909c0-8.284 6.716-15 15-15h151.68c23.594 0 43.584 15.722 50.045 37.24h63.549c6.461-21.518 26.451-37.24 50.045-37.24h151.681c8.284 0 15 6.716 15 15v302.909h-184.703l-23.943 38.706h-76.817l-20.95-36.912z" fill="#7a6d79"/><path d="m300.58 484.674h-89.16c-8.208 0-15.073-6.594-15.001-14.802.108-12.354-9.91-22.438-22.239-22.438h-151.68c-8.284 0-15-6.716-15-15 0-8.284 6.716-15 15-15h151.68c23.594 0 43.584 15.722 50.045 37.24h63.549c6.461-21.518 26.451-37.24 50.045-37.24h151.681c8.284 0 15 6.716 15 15 0 8.284-6.716 15-15 15h-151.68c-12.329 0-22.098 10.089-22.241 22.417-.095 8.203-6.774 14.823-14.999 14.823z" fill="#685e68"/><path d="m36.523 81.271h174.252c24.977 0 45.226 20.248 45.226 45.226 0-24.977 20.248-45.226 45.226-45.226h174.252v303.277h-174.253c-24.977 0-45.226 20.248-45.226 45.226 0-24.977-20.248-45.226-45.226-45.226h-174.251z" fill="#e2e2e2"/><path d="m475.48 48.144v303.28h-174.25c-24.98 0-45.23 20.25-45.23 45.23 0-12.49-5.06-23.8-13.25-31.98-8.18-8.19-19.49-13.25-31.98-13.25h-174.25v-303.28h174.25c24.98 0 45.23 20.25 45.23 45.23 0-12.49 5.06-23.8 13.25-31.98 8.18-8.19 19.49-13.25 31.98-13.25z" fill="#f8f6f6"/><path d="m313.81 48.144v303.28h-12.58c-24.98 0-45.23 20.25-45.23 45.23v-303.28c0-12.49 5.06-23.8 13.25-31.98 8.18-8.19 19.49-13.25 31.98-13.25z" fill="#ebebeb"/><g><path d="m84.412 96.658 93.738 72.87 44.761-20.519 5.497-44.131-93.738-72.87c-9.72-7.556-23.725-5.802-31.281 3.918l-22.895 29.451c-7.557 9.72-5.802 23.725 3.918 31.281z" fill="#7a6d79"/><path d="m224.739 134.311-1.827 14.701-44.768 20.513-93.732-72.867c-9.725-7.56-11.479-21.561-3.919-31.286l16.734-21.527c-7.551 9.714-5.796 23.724 3.917 31.276l93.744 72.875z" fill="#685e68"/><path d="m393.13 283.074-37.81 37.82c-20.23-2.31-39.89-10.07-56.67-23.11l-106.12-82.5 14.15-50.33 52.86-35.88 101.85 79.18c-6.43 24.48 1.79 51.54 23.03 68.05z" fill="#e2e2e2"/><path d="m393.13 283.074-37.81 37.82c-20.23-2.31-39.89-10.07-56.67-23.11 0 0 28.77-38.44 85.77-21.48z" fill="#fe646f"/><path d="m155.744 230.473c8.596 6.683 20.983 5.131 27.665-3.465l77.668-99.91c6.683-8.596 5.131-20.983-3.465-27.665-8.596-6.683-20.983-5.131-27.665 3.465l-77.668 99.91c-6.683 8.597-5.132 20.983 3.465 27.665z" fill="#7a6d79"/><path d="m216.478 184.479-33.061 42.529c-6.684 8.597-19.076 10.15-27.674 3.466-8.596-6.673-10.148-19.067-3.465-27.664l33.071-42.53c-6.683 8.597-5.132 20.98 3.465 27.664 8.598 6.683 20.981 5.132 27.664-3.465z" fill="#685e68"/><path d="m297.218 219.452 1.437 1.117c11.108 8.635 27.113 6.63 35.748-4.477l-41.662-32.387c-8.635 11.107-6.631 27.112 4.477 35.747z" fill="#e2e2e2"/><path d="m297.218 219.452 1.437 1.117c11.108 8.635 27.113 6.63 35.748-4.477l-41.662-32.387c-8.635 11.107-6.631 27.112 4.477 35.747z" fill="#f8f6f6"/></g><path d="m36.523 224.727h45.341c11.846 0 21.449 9.603 21.449 21.449 0 11.846-9.603 21.449-21.449 21.449h49.376c11.574 0 20.956 9.382 20.956 20.956 0 11.574-9.382 20.956-20.956 20.956h-37.934c11.567 0 20.944 9.377 20.944 20.944 0 11.567-9.377 20.944-20.944 20.944h-56.783z" fill="#fe646f"/></g><g><path d="m489.5 107.024h-6.52v-58.88c0-4.142-3.357-7.5-7.5-7.5h-174.25c-14.095 0-27.337 5.487-37.28 15.443-3.101 3.096-5.768 6.511-7.97 10.171-9.232-15.336-26.043-25.615-45.211-25.615h-52.766l-18.733-14.563c-12.977-10.079-31.729-7.727-41.802 5.239l-7.25 9.323h-53.7c-4.143 0-7.5 3.358-7.5 7.5v58.88h-6.518c-12.406 0-22.5 10.094-22.5 22.5v302.91c0 12.406 10.094 22.5 22.5 22.5h151.68c3.952 0 7.668 1.552 10.462 4.371 2.793 2.818 4.312 6.547 4.277 10.501-.052 5.88 2.224 11.443 6.406 15.662 4.224 4.261 10.09 6.705 16.095 6.705h89.16c12.265 0 22.356-9.975 22.498-22.236.096-8.273 6.709-15.004 14.741-15.004h151.681c12.406 0 22.5-10.094 22.5-22.5v-302.91c0-12.403-10.094-22.497-22.5-22.497zm-214.943-40.33c7.116-7.125 16.59-11.05 26.674-11.05h166.75v269.18 19.1h-166.751c-14.775 0-28.147 6.114-37.73 15.938v-79.905l30.548 23.749c13.58 10.554 29.203 18.031 45.805 22.036l-2.249 2.248c-2.931 2.927-2.934 7.676-.007 10.606 1.465 1.467 3.386 2.2 5.307 2.2 1.918 0 3.836-.731 5.3-2.194l63.688-63.673c2.93-2.928 2.932-7.677.004-10.606-2.929-2.931-7.677-2.931-10.607-.004l-8.777 8.775-3.489-2.711c-18.261-14.194-26.26-37.833-20.379-60.223.763-2.904-.28-5.983-2.65-7.826l-96.298-74.864c5.661-10.968 3.228-24.675-6.289-32.972.055-.367.093-.74.093-1.123 0-10.085 3.924-19.558 11.057-26.681zm-192.693 208.431h49.377c7.419 0 13.455 6.036 13.455 13.456s-6.036 13.456-13.455 13.456h-37.935c-4.143 0-7.5 3.358-7.5 7.5s3.357 7.5 7.5 7.5c7.413 0 13.444 6.031 13.444 13.444 0 7.405-6.018 13.43-13.42 13.443h-49.31v-19.1-92.597h37.845c7.691 0 13.949 6.258 13.949 13.949s-6.258 13.949-13.949 13.949c-4.143 0-7.5 3.358-7.5 7.5s3.357 7.5 7.499 7.5zm-37.844 83.799h49.286v.001c.016 0 .032-.001.048-.001h117.416c10.084 0 19.558 3.924 26.681 11.057 6.198 6.19 9.97 14.164 10.849 22.771-.083-.084-.159-.173-.242-.257-9.95-9.963-23.192-15.45-37.287-15.45h-166.751zm193.739-214.049-60.27 77.53c-2.003 2.576-4.889 4.218-8.126 4.624-3.241.405-6.44-.474-9.016-2.477-5.317-4.134-6.281-11.823-2.147-17.141l77.668-99.909c4.135-5.318 11.825-6.281 17.142-2.147s6.281 11.823 2.147 17.141zm20.332-1.716 2.767-3.56 92.167 71.653c-3.585 18.813.427 37.973 10.685 53.55-20.535-1.576-36.391 3.673-47.023 9.235-8.591 4.493-14.888 9.717-18.88 13.592l-94.753-73.663zm94.53 169.816c-15.244-2.265-29.778-7.839-42.619-16.295 9.891-8.933 33.427-24.221 70.967-13.56l.851.662zm-141.851-257.331c18.953 0 34.68 14.048 37.331 32.278-7.374-.693-14.903 1.626-20.64 6.716l-50.161-38.994zm-132.214 0-3.989 5.13c-10.079 12.976-7.728 31.729 5.239 41.802l9.17 7.13c3.268 2.542 7.98 1.953 10.524-1.317 2.542-3.27 1.953-7.982-1.317-10.524l-9.173-7.133c-6.438-5-7.603-14.312-2.6-20.753l22.901-29.453c5.002-6.438 14.313-7.603 20.755-2.6l87.818 68.267-41.054 52.808-51.02-39.658c-3.269-2.541-7.982-1.952-10.524 1.319-2.542 3.27-1.951 7.982 1.319 10.524l51.02 39.658-21.27 27.361c-9.21 11.847-7.064 28.979 4.782 38.189 4.825 3.75 10.635 5.733 16.648 5.733 1.141 0 2.288-.071 3.438-.215 7.214-.903 13.644-4.562 18.104-10.301l4.514-5.806 54.656 42.491v91.549c-.151-.154-.29-.318-.443-.47-9.95-9.963-23.192-15.45-37.287-15.45h-92.404c2.158-4.006 3.385-8.583 3.385-13.443 0-4.859-1.226-9.439-3.383-13.444h12.874c15.69 0 28.455-12.765 28.455-28.456s-12.765-28.456-28.455-28.456h-24.016c2.286-4.139 3.588-8.896 3.588-13.949 0-15.963-12.986-28.949-28.949-28.949h-37.842v-161.584zm-56.056 66.38h6.52v202.801 26.6 33.12c0 4.142 3.357 7.5 7.5 7.5h174.25c10.084 0 19.557 3.924 26.681 11.057 7.126 7.116 11.05 16.589 11.05 26.673 0 4.142 3.357 7.5 7.5 7.5s7.5-3.358 7.5-7.5c0-20.804 16.926-37.73 37.73-37.73h71.899c4.143 0 7.5-3.358 7.5-7.5s-3.357-7.5-7.5-7.5h-71.9c-14.674 0-27.964 6.031-37.533 15.738 1.945-18.992 18.035-33.858 37.533-33.858h166.75v18.12h-59.85c-4.143 0-7.5 3.358-7.5 7.5s3.357 7.5 7.5 7.5h67.351c4.143 0 7.5-3.358 7.5-7.5v-33.12-26.6-202.801h6.52c4.136 0 7.5 3.365 7.5 7.5v281.7c-2.347-.833-4.871-1.29-7.5-1.29h-151.682c-24.265 0-46.265 15.058-55.338 37.24h-52.963c-9.073-22.182-31.073-37.24-55.339-37.24h-151.679c-2.629 0-5.153.458-7.5 1.29v-281.7c0-4.135 3.364-7.5 7.5-7.5zm467 317.91h-151.681c-16.208 0-29.55 13.382-29.74 29.83-.047 4.086-3.411 7.41-7.499 7.41h-89.16c-2.031 0-4.015-.826-5.441-2.265-1.345-1.356-2.076-3.122-2.06-4.971.069-7.986-2.993-15.512-8.624-21.193-5.633-5.682-13.131-8.811-21.115-8.811h-151.68c-4.136 0-7.5-3.365-7.5-7.5s3.364-7.5 7.5-7.5h151.68c19.598 0 37.224 13.116 42.862 31.897.953 3.172 3.872 5.343 7.184 5.343h63.549c3.312 0 6.23-2.172 7.184-5.343 5.639-18.78 23.264-31.897 42.861-31.897h151.68c4.136 0 7.5 3.365 7.5 7.5s-3.364 7.5-7.5 7.5z"/><path d="m314.224 233.436c1.381 0 2.771-.086 4.164-.261 8.74-1.095 16.53-5.527 21.936-12.481 2.543-3.27 1.952-7.982-1.317-10.524l-41.661-32.387c-3.271-2.542-7.981-1.954-10.524 1.318-5.406 6.954-7.781 15.596-6.687 24.336s5.527 16.53 12.48 21.936c.001 0 .001.001.002.001l1.436 1.116c5.844 4.544 12.884 6.946 20.171 6.946zm-18.879-38.208 27.247 21.182c-1.868.971-3.916 1.612-6.067 1.882-4.766.598-9.476-.698-13.268-3.645l-1.438-1.117c-3.79-2.947-6.205-7.193-6.802-11.956-.269-2.154-.153-4.295.328-6.346z"/><path d="m299.845 112.513h140.665c4.143 0 7.5-3.358 7.5-7.5s-3.357-7.5-7.5-7.5h-140.665c-4.143 0-7.5 3.358-7.5 7.5s3.357 7.5 7.5 7.5z"/><path d="m440.51 130.434h-120.712c-4.143 0-7.5 3.358-7.5 7.5s3.357 7.5 7.5 7.5h120.712c4.143 0 7.5-3.358 7.5-7.5s-3.358-7.5-7.5-7.5z"/><path d="m440.51 163.356h-86.793c-4.143 0-7.5 3.358-7.5 7.5s3.357 7.5 7.5 7.5h86.793c4.143 0 7.5-3.358 7.5-7.5s-3.358-7.5-7.5-7.5z"/></g></g></svg>