<svg id="Capa_1" enable-background="new 0 0 512 512" height="512" viewBox="0 0 512 512" width="512" xmlns="http://www.w3.org/2000/svg"><g><g><g><path d="m374.649 491.561v-72.286l.001-360.459c0-7.549-6.119-13.668-13.668-13.668h-304.4c-27.107.001-49.082 21.975-49.082 49.082v360.755" fill="#ffe177"/><path d="m53.843 419.517h294.925v71.305h-300.714c-10.702 0-19.378-8.676-19.378-19.378v-26.76c0-13.899 11.268-25.167 25.167-25.167z" fill="#ebebeb"/><g fill="#ffd15b"><path d="m56.587 45.153v361.187h-.009c-27.099 0-49.078 21.969-49.078 49.078v-361.188c0-27.099 21.979-49.077 49.087-49.077z"/><path d="m374.649 422.841c0 9.115-7.389 16.505-16.505 16.505h-300.701c-4.507 0-8.971 1.895-12.249 5.198-1.767 1.781-4.726 5.579-4.684 11.003.033 4.24 1.702 8.223 4.7 11.218 1.785 1.789 5.58 4.726 11.368 4.726h301.566c9.115 0 16.505 7.39 16.505 16.505 0 9.115-7.39 16.505-16.505 16.505h-301.566c-13.549 0-25.823-5.49-34.696-14.381-8.806-8.797-14.275-20.911-14.38-34.315-.212-27.208 22.732-49.468 49.941-49.468h300.701c9.116-.001 16.505 7.388 16.505 16.504z"/></g></g><path d="m504.5 52.88v201.02c0 25.06-20.32 45.38-45.38 45.38h-55.33c0 41.65-33.76 75.41-75.41 75.41-41.64 0-75.41-33.76-75.41-75.41h-55.32c-25.07 0-45.38-20.32-45.38-45.38v-201.02c0-25.06 20.31-45.38 45.38-45.38h261.47c25.06 0 45.38 20.32 45.38 45.38z" fill="#9be69d"/><g fill="#6fd7a3"><path d="m185.52 52.88v201.02c0 25.06 20.31 45.38 45.38 45.38h-33.25c-25.07 0-45.38-20.32-45.38-45.38v-201.02c0-25.06 20.31-45.38 45.38-45.38h33.25c-25.07 0-45.38 20.32-45.38 45.38z"/><path d="m345.01 372.85c-5.35 1.2-10.92 1.84-16.63 1.84-41.64 0-75.41-33.76-75.41-75.41h33.25c0 35.94 25.14 66 58.79 73.57z"/></g></g><g><path d="m459.12 0h-31.97c-4.142 0-7.5 3.358-7.5 7.5s3.358 7.5 7.5 7.5h31.97c20.888 0 37.88 16.993 37.88 37.88v201.02c0 20.887-16.993 37.88-37.88 37.88h-55.33c-4.142 0-7.5 3.358-7.5 7.5 0 37.446-30.464 67.91-67.91 67.91-37.445 0-67.91-30.464-67.91-67.91 0-4.142-3.358-7.5-7.5-7.5h-55.32c-20.887 0-37.88-16.993-37.88-37.88v-201.02c0-20.887 16.993-37.88 37.88-37.88h194.5c4.142 0 7.5-3.358 7.5-7.5s-3.358-7.5-7.5-7.5h-194.5c-23.865 0-44.078 15.894-50.634 37.65h-90.436c-31.198 0-56.58 25.382-56.58 56.58v360.75h.015c-.002.294-.017.586-.015.881.123 14.944 6.01 28.995 16.571 39.556 10.67 10.694 24.879 16.583 40.009 16.583h301.56c6.406 0 12.434-2.492 16.992-7.036 4.526-4.541 7.018-10.565 7.018-16.964v-125.676c16.031-13.693 26.806-33.37 28.804-55.544h48.167c29.158 0 52.88-23.722 52.88-52.88v-201.02c-.001-29.158-23.722-52.88-52.881-52.88zm-444.12 94.23c0-20.366 14.723-37.348 34.082-40.89v41.532c-13.403 1.784-25.338 8.267-34.082 17.748zm0 56.712c0-20.367 14.723-37.348 34.082-40.891v226.708c-13.403 1.784-25.338 8.267-34.082 17.748zm0 241.886c0-20.367 14.723-37.348 34.082-40.891v47.534c-12.234 1.836-23.809 7.638-32.645 16.542-.493.497-.964 1.008-1.437 1.519zm41.58 71.162c-2.92 0-4.911-1.378-6.076-2.543-1.593-1.587-2.479-3.701-2.495-5.952-.02-2.712 1.566-4.724 2.499-5.667 1.881-1.892 4.407-2.978 6.931-2.978h283.828v17.14zm299.688-17.14h1.872c3.186 0 6.226-.629 9.01-1.761v20.662c-2.784-1.132-5.824-1.761-9.01-1.761h-1.872zm10.882-46.25c-2.784-1.131-5.824-1.76-9.01-1.76h-231.27c-4.142 0-7.5 3.358-7.5 7.5s3.358 7.5 7.5 7.5h231.27c4.968 0 9.01 4.038 9.01 9 0 4.968-4.042 9.01-9.01 9.01h-300.7c-6.489 0-12.893 2.698-17.583 7.417-2.583 2.612-6.906 8.208-6.847 16.337.044 6.226 2.497 12.075 6.897 16.459 2.587 2.587 8.193 6.927 16.673 6.927h301.56c4.968 0 9.01 4.042 9.01 9.01 0 2.402-.938 4.666-2.625 6.358-1.709 1.704-3.977 2.642-6.385 2.642h-301.56c-11.118 0-21.556-4.325-29.396-12.183-7.767-7.767-12.094-18.094-12.184-29.075-.084-10.869 4.208-21.226 12.084-29.164 8.033-8.095 19.098-12.738 30.356-12.738h34.43c4.142 0 7.5-3.358 7.5-7.5s-3.358-7.5-7.5-7.5h-27.788v-346.19h80.694c0 .077-.006.153-.006.23v201.02c0 29.158 23.722 52.88 52.88 52.88h48.157c3.803 42.215 39.385 75.41 82.573 75.41 14.001 0 27.192-3.506 38.77-9.659z"/><path d="m307.298 63.577c4.142 0 7.5-3.358 7.5-7.5s-3.358-7.5-7.5-7.5h-37.439c-4.142 0-7.5 3.358-7.5 7.5v88.854c0 4.142 3.358 7.5 7.5 7.5h37.439c4.142 0 7.5-3.358 7.5-7.5s-3.358-7.5-7.5-7.5h-29.939v-29.427h27.179c4.142 0 7.5-3.358 7.5-7.5s-3.358-7.5-7.5-7.5h-27.179v-29.427z"/><path d="m249.112 120.688c0-11.208-5.863-21.065-14.678-26.687 4.13-4.897 6.626-11.215 6.626-18.108 0-15.513-12.621-28.134-28.134-28.134h-26.048c-4.142 0-7.5 3.358-7.5 7.5v89.673c0 1.995.795 3.908 2.208 5.315 1.406 1.4 3.309 2.185 5.292 2.185h.033c.24-.001 24.045-.106 30.563-.106 17.445-.001 31.638-14.194 31.638-31.638zm-36.186-57.93c7.242 0 13.134 5.892 13.134 13.134s-5.892 13.134-13.134 13.134c-1.925 0-18.548.024-18.548.024v-26.292zm4.548 74.567c-4.192 0-15.46.043-23.097.075v-33.314c2.801-.012 23.097-.035 23.097-.035 9.174 0 16.637 7.463 16.637 16.637s-7.463 16.637-16.637 16.637z"/><path d="m375.765 93.765c-11.624-4.288-22.399-8.971-25.023-10.124-3.045-2.207-4.527-5.75-3.977-9.583.684-4.763 4.323-8.579 9.734-10.209 14.644-4.411 27.825 6.165 28.101 6.39 3.171 2.643 7.884 2.227 10.542-.936 2.665-3.17 2.255-7.902-.916-10.567-.784-.659-19.458-16.058-42.054-9.25-10.982 3.308-18.744 11.907-20.256 22.44-1.406 9.794 2.835 19.212 11.068 24.58.331.216.679.405 1.04.566.514.229 12.754 5.678 26.548 10.766 10.161 3.748 15.31 9.704 14.125 16.34-1.147 6.425-8.307 13.253-19.316 13.253-9.942 0-19.547-4.048-25.691-10.829-2.781-3.069-7.524-3.303-10.594-.521-3.069 2.782-3.303 7.525-.521 10.594 8.941 9.866 22.701 15.756 36.807 15.756 16.823 0 31.475-11.013 34.083-25.617 3.002-16.814-10.274-28.097-23.7-33.049z"/><path d="m420.367 62.758h17.161v82.173c0 4.142 3.358 7.5 7.5 7.5s7.5-3.358 7.5-7.5v-82.173h17.361c4.142 0 7.5-3.358 7.5-7.5s-3.358-7.5-7.5-7.5h-49.522c-4.142 0-7.5 3.358-7.5 7.5s3.358 7.5 7.5 7.5z"/><path d="m334.788 251.525v-69.696c0-4.142-3.358-7.5-7.5-7.5s-7.5 3.358-7.5 7.5v69.696c0 4.142 3.358 7.5 7.5 7.5s7.5-3.358 7.5-7.5z"/><path d="m464.587 189.964c4.142 0 7.5-3.358 7.5-7.5s-3.358-7.5-7.5-7.5h-29.099c-4.142 0-7.5 3.358-7.5 7.5v69.06c0 4.142 3.358 7.5 7.5 7.5h29.099c4.142 0 7.5-3.358 7.5-7.5s-3.358-7.5-7.5-7.5h-21.599v-19.53h19.453c4.142 0 7.5-3.358 7.5-7.5s-3.358-7.5-7.5-7.5h-19.453v-19.53z"/><path d="m345.445 216.676c0 23.351 18.997 42.348 42.348 42.348 9.297 0 17.635-3.049 24.114-8.819 1.27-1.131 2.477-2.376 3.587-3.7 2.662-3.174 2.247-7.904-.927-10.566-3.173-2.662-7.904-2.246-10.566.927-.645.769-1.341 1.488-2.07 2.137-3.741 3.332-8.498 5.021-14.138 5.021-15.08 0-27.348-12.269-27.348-27.348s12.269-27.348 27.348-27.348c5.481 0 10.767 1.614 15.285 4.666 3.432 2.32 8.095 1.417 10.413-2.016 2.319-3.432 1.417-8.094-2.016-10.413-7.008-4.735-15.197-7.237-23.683-7.237-23.35 0-42.347 18.997-42.347 42.348z"/><path d="m252.301 251.525c0 4.142 3.358 7.5 7.5 7.5s7.5-3.358 7.5-7.5v-22.94l24.551 27.896c1.482 1.685 3.552 2.545 5.633 2.545 1.76 0 3.527-.616 4.952-1.87 3.109-2.736 3.412-7.476.675-10.585l-19.028-21.62c11.938-2.532 20.898-12.78 20.898-25.008 0-14.123-11.95-25.613-26.638-25.613h-18.521c-1.993 0-3.905.793-5.312 2.206-1.407 1.412-2.194 3.326-2.188 5.319zm26.043-62.197c6.309 0 11.638 4.86 11.638 10.613s-5.33 10.613-11.638 10.613c-2.53 0-7.02.02-10.935.039-.021-3.836-.051-17.252-.063-21.266h10.998z"/><path d="m184.68 251.525c0 4.142 3.358 7.5 7.5 7.5s7.5-3.358 7.5-7.5v-22.815c4.196-.022 9.158-.045 11.906-.045 15.193 0 27.554-12.188 27.554-27.168 0-14.981-12.36-27.168-27.554-27.168h-19.406c-1.993 0-3.905.793-5.312 2.205s-2.195 3.326-2.188 5.319zm26.906-62.197c6.805 0 12.554 5.572 12.554 12.168s-5.749 12.168-12.554 12.168c-2.728 0-7.63.022-11.813.044-.022-4.312-.058-19.874-.071-24.381h11.884z"/><path d="m313.208 348.084c1.052.508 2.163.749 3.257.749 2.787 0 5.464-1.561 6.758-4.239l23.83-49.32c1.802-3.729.24-8.214-3.49-10.016-3.731-1.803-8.213-.24-10.016 3.49l-23.83 49.32c-1.802 3.729-.239 8.214 3.491 10.016z"/><path d="m303.777 308.001c4.142 0 7.5-3.358 7.5-7.5v-.5c0-4.142-3.358-7.5-7.5-7.5s-7.5 3.358-7.5 7.5v.5c0 4.142 3.358 7.5 7.5 7.5z"/><path d="m352.993 340.84c4.142 0 7.5-3.358 7.5-7.5v-.5c0-4.142-3.358-7.5-7.5-7.5s-7.5 3.358-7.5 7.5v.5c0 4.143 3.358 7.5 7.5 7.5z"/></g></g></svg>