<svg id="Capa_1" enable-background="new 0 0 512 512" height="512" viewBox="0 0 512 512" width="512" xmlns="http://www.w3.org/2000/svg"><g><g><path d="m7.5 452.26v-302.909c0-8.284 6.716-15 15-15h151.68c23.594 0 43.584 15.722 50.045 37.24h63.549c6.461-21.518 26.451-37.24 50.045-37.24h151.681c8.284 0 15 6.716 15 15v302.909h-184.703l-23.943 38.706h-76.817l-20.95-36.912z" fill="#7a6d79"/><path d="m300.58 504.5h-89.16c-8.208 0-15.073-6.594-15.001-14.802.108-12.354-9.91-22.438-22.239-22.438h-151.68c-8.284 0-15-6.716-15-15 0-8.284 6.716-15 15-15h151.68c23.594 0 43.584 15.722 50.045 37.24h63.549c6.461-21.518 26.451-37.24 50.045-37.24h151.681c8.284 0 15 6.716 15 15 0 8.284-6.716 15-15 15h-151.68c-12.329 0-22.098 10.089-22.241 22.417-.095 8.203-6.774 14.823-14.999 14.823z" fill="#685e68"/><path d="m36.523 101.097h174.252c24.977 0 45.226 20.248 45.226 45.226 0-24.977 20.248-45.226 45.226-45.226h174.252v303.277h-174.253c-24.977 0-45.226 20.248-45.226 45.226 0-24.977-20.248-45.226-45.226-45.226h-174.251z" fill="#e2e2e2"/><path d="m475.48 67.97v303.28h-174.25c-24.98 0-45.23 20.25-45.23 45.23 0-12.49-5.06-23.8-13.25-31.98-8.18-8.19-19.49-13.25-31.98-13.25h-174.25v-303.28h174.25c24.98 0 45.23 20.25 45.23 45.23 0-12.49 5.06-23.8 13.25-31.98 8.18-8.19 19.49-13.25 31.98-13.25z" fill="#f8f6f6"/><path d="m313.81 67.97v303.28h-12.58c-24.98 0-45.23 20.25-45.23 45.23v-303.28c0-12.49 5.06-23.8 13.25-31.98 8.18-8.19 19.49-13.25 31.98-13.25z" fill="#ebebeb"/><g><path d="m186.524 27.552-.592.592-.593-.593c-26.736-26.736-70.084-26.736-96.821 0-26.736 26.736-26.736 70.084 0 96.82l.593.593 76.757 76.757c11.081 11.081 29.047 11.081 40.128 0l76.757-76.757.592-.592c26.736-26.736 26.736-70.084 0-96.821-26.737-26.735-70.085-26.735-96.821.001z" fill="#fd8087"/><path d="m203.243 204.144c-11.132 8.589-27.176 7.778-37.378-2.425l-77.346-77.346c-13.367-13.367-20.051-30.891-20.051-48.415s6.684-35.04 20.051-48.407c17.807-17.807 42.999-23.759 65.727-17.831-11.399 2.96-22.177 8.904-31.104 17.831-13.367 13.367-20.051 30.883-20.051 48.407s6.684 35.048 20.051 48.415l77.346 77.346c.881.882 1.795 1.685 2.755 2.425z" fill="#fe646f"/></g><g><path d="m330.009 209.142-.419.419-.42-.42c-18.929-18.929-49.619-18.929-68.548 0-18.929 18.929-18.929 49.619 0 68.548l.42.42 54.343 54.343c7.845 7.845 20.565 7.845 28.41 0l54.343-54.343.419-.419c18.929-18.929 18.929-49.619 0-68.548-18.929-18.929-49.619-18.929-68.548 0z" fill="#fd8087"/><path d="m341.846 334.168c-7.881 6.081-19.24 5.507-26.464-1.717l-54.761-54.761c-9.464-9.464-14.196-21.871-14.196-34.278s4.732-24.808 14.196-34.272c12.607-12.608 30.443-16.821 46.534-12.624-8.071 2.096-15.701 6.304-22.021 12.624-9.464 9.464-14.196 21.865-14.196 34.272s4.732 24.814 14.196 34.278l54.761 54.761c.624.625 1.271 1.193 1.951 1.717z" fill="#fe646f"/></g><g><path d="m162.239 253.516-.251.251-.251-.251c-11.311-11.311-29.651-11.311-40.962 0-11.311 11.311-11.311 29.651 0 40.962l.251.251 32.474 32.474c4.688 4.688 12.289 4.688 16.977 0l32.474-32.474.251-.251c11.311-11.311 11.311-29.651 0-40.962-11.312-11.311-29.651-11.311-40.963 0z" fill="#fd8087"/><path d="m169.313 328.228c-4.71 3.634-11.497 3.291-15.814-1.026l-32.723-32.723c-5.655-5.655-8.483-13.069-8.483-20.483s2.828-14.825 8.483-20.48c7.534-7.534 18.192-10.052 27.807-7.544-4.823 1.252-9.382 3.767-13.159 7.544-5.655 5.655-8.483 13.066-8.483 20.48s2.828 14.828 8.483 20.483l32.723 32.723c.373.373.759.713 1.166 1.026z" fill="#fe646f"/></g></g><g><path d="m489.5 126.85h-6.52v-58.88c0-4.142-3.358-7.5-7.5-7.5h-166.169c-2.965-14.381-10.043-27.599-20.666-38.221-14.336-14.348-33.413-22.249-53.715-22.249-18.144 0-35.315 6.316-49.003 17.91-29.817-25.197-74.621-23.751-102.71 4.337-10.627 10.626-17.707 23.845-20.673 38.223h-26.024c-4.142 0-7.5 3.358-7.5 7.5v58.88h-6.52c-12.407 0-22.5 10.094-22.5 22.5v302.91c0 12.407 10.093 22.5 22.5 22.5h151.68c3.954 0 7.67 1.552 10.464 4.372 2.792 2.817 4.311 6.547 4.276 10.505-.05 5.883 2.226 11.445 6.408 15.663 4.222 4.258 10.087 6.701 16.092 6.701h89.16c12.256 0 22.35-9.972 22.5-22.234.094-8.274 6.707-15.006 14.74-15.006h62.31c4.142 0 7.5-3.358 7.5-7.5s-3.358-7.5-7.5-7.5h-62.31c-16.211 0-29.552 13.384-29.739 29.829-.05 4.086-3.415 7.411-7.5 7.411h-89.16c-2.032 0-4.015-.825-5.44-2.262-1.344-1.355-2.076-3.122-2.06-4.971.071-7.987-2.991-15.515-8.621-21.195-5.632-5.683-13.132-8.812-21.118-8.812h-151.682c-4.136 0-7.5-3.364-7.5-7.5 0-2 .779-3.877 2.213-5.306 1.409-1.415 3.287-2.194 5.287-2.194h151.68c19.593 0 37.22 13.118 42.867 31.9.954 3.17 3.872 5.34 7.183 5.34h63.54c3.311 0 6.229-2.17 7.183-5.34 5.647-18.782 23.274-31.9 42.867-31.9h151.68c4.136 0 7.5 3.364 7.5 7.5 0 2-.779 3.878-2.213 5.307-1.409 1.415-3.286 2.193-5.287 2.193h-54.37c-4.142 0-7.5 3.358-7.5 7.5s3.358 7.5 7.5 7.5h54.37c6.018 0 11.669-2.346 15.894-6.587 4.26-4.245 6.606-9.896 6.606-15.913v-302.911c0-12.406-10.093-22.5-22.5-22.5zm-445.477 251.9h166.747c10.083 0 19.556 3.924 26.68 11.057 6.206 6.198 9.981 14.183 10.853 22.802-9.568-9.705-22.855-15.735-37.528-15.735h-166.752zm221.902-164.305c7.738-7.738 18.027-12 28.971-12s21.233 4.262 28.971 12l.419.419c2.929 2.929 7.678 2.929 10.606 0l.419-.419c7.738-7.738 18.027-12 28.971-12s21.233 4.262 28.971 12 12 18.027 12 28.971-4.262 21.232-12 28.971l-54.763 54.763c-2.378 2.378-5.539 3.688-8.902 3.688s-6.524-1.31-8.902-3.688l-54.763-54.763c-7.738-7.738-12-18.027-12-28.971s4.264-21.232 12.002-28.971zm202.055-138.975v269.178h-.003v19.102h-166.747c-14.775 0-28.147 6.114-37.73 15.938v-88.513l46.581 46.581c5.21 5.211 12.139 8.081 19.508 8.081s14.298-2.87 19.508-8.081l54.763-54.763c10.572-10.571 16.394-24.627 16.394-39.577 0-14.951-5.822-29.006-16.394-39.578-10.571-10.572-24.627-16.394-39.578-16.394-12.751 0-24.851 4.234-34.693 12.04-9.843-7.805-21.942-12.04-34.694-12.04-11.362 0-22.203 3.371-31.396 9.626v-42.245l24.598-24.598.544-.554c14.35-14.344 22.253-33.419 22.253-53.71 0-.165-.011-.329-.012-.494h157.098zm-.003 303.28v18.124h-166.751c-14.673 0-27.96 6.029-37.528 15.734 1.945-18.992 18.035-33.858 37.532-33.858zm-407.005-303.28c-.001.164-.012.326-.012.49 0 13.833 3.754 27.375 10.856 39.161 2.137 3.547 6.745 4.692 10.295 2.553 3.548-2.138 4.69-6.747 2.553-10.295-5.694-9.45-8.704-20.314-8.704-31.419 0-16.279 6.344-31.587 17.863-43.107 23.765-23.765 62.441-23.764 86.215.002l.59.59c2.929 2.927 7.676 2.925 10.604-.002l.59-.59c11.514-11.512 26.823-17.853 43.108-17.853 16.293 0 31.602 6.34 43.106 17.853 11.516 11.516 17.858 26.826 17.858 43.111 0 16.283-6.342 31.591-17.903 43.148l-77.293 77.303c-8.144 8.137-21.389 8.139-29.526.002l-64.38-64.38c-2.929-2.929-7.678-2.929-10.606 0-2.929 2.929-2.929 7.677 0 10.606l64.38 64.38c6.992 6.992 16.176 10.486 25.364 10.486 9.186 0 18.376-3.496 25.373-10.486l37.197-37.197v42.266c-6.224 9.177-9.575 19.991-9.575 31.324s3.352 22.149 9.575 31.324v104.93c-.151-.155-.29-.318-.443-.471-9.951-9.963-23.193-15.45-37.287-15.45h-166.747v-19.102h-.003v-269.177zm428.528 354.29h-151.68c-24.26 0-46.261 15.058-55.341 37.24h-52.957c-9.08-22.183-31.082-37.24-55.341-37.24h-151.681c-2.6 0-5.122.463-7.5 1.303v-281.713c0-4.135 3.364-7.5 7.5-7.5h6.52v229.4c0 .02.003.038.003.058v33.066c0 4.142 3.358 7.5 7.5 7.5h174.251c20.802 0 37.726 16.924 37.726 37.726 0 4.142 3.358 7.5 7.5 7.5s7.5-3.358 7.5-7.5c0-20.802 16.924-37.726 37.726-37.726h174.251c4.142 0 7.5-3.358 7.5-7.5v-33.066c0-.02.003-.039.003-.058v-229.4h6.52c4.136 0 7.5 3.365 7.5 7.5v281.7c-2.347-.833-4.871-1.29-7.5-1.29z"/><path d="m148.196 332.506c3.684 3.684 8.582 5.713 13.792 5.713s10.108-2.029 13.792-5.713l32.479-32.479.245-.246c6.887-6.887 10.681-16.044 10.681-25.784s-3.793-18.897-10.681-25.785c-12.635-12.635-32.312-14.041-46.516-4.218-14.201-9.823-33.88-8.417-46.517 4.218-6.887 6.887-10.68 16.044-10.68 25.785s3.793 18.897 10.68 25.784zm-22.117-73.687c4.054-4.054 9.445-6.287 15.178-6.287s11.124 2.232 15.178 6.287l.251.251c1.406 1.407 3.314 2.197 5.303 2.197h.003c1.991-.001 3.899-.793 5.305-2.202l.249-.25c8.37-8.366 21.984-8.364 30.353.003 4.054 4.054 6.287 9.445 6.287 15.178s-2.233 11.124-6.292 15.183l-32.72 32.72c-.851.851-1.981 1.319-3.185 1.319s-2.334-.468-3.186-1.319l-32.725-32.725c-4.054-4.054-6.287-9.444-6.287-15.178s2.233-11.122 6.288-15.177z"/><path d="m321.198 129.345h106.413c4.142 0 7.5-3.358 7.5-7.5s-3.358-7.5-7.5-7.5h-106.413c-4.142 0-7.5 3.358-7.5 7.5s3.358 7.5 7.5 7.5z"/><path d="m321.198 165.154h106.413c4.142 0 7.5-3.358 7.5-7.5s-3.358-7.5-7.5-7.5h-106.413c-4.142 0-7.5 3.358-7.5 7.5s3.358 7.5 7.5 7.5z"/></g></g></svg>