<svg id="Capa_1" enable-background="new 0 0 511.998 511.998" height="512" viewBox="0 0 511.998 511.998" width="512" xmlns="http://www.w3.org/2000/svg"><g><g><path d="m106.234 412.752h-52.124c-25.735 0-46.606-20.871-46.606-46.616 0-12.873 5.215-51.11 13.653-59.548s20.09-13.653 32.952-13.653l52.124-2.324" fill="#fe646f"/><g><path d="m439.68 472.947v-72.357l.001-360.813c0-7.556-6.125-13.681-13.681-13.681h-304.7c-27.134 0-49.13 21.996-49.13 49.13v361.109" fill="#9be69d"/><path d="m118.559 400.833h295.215v71.375h-301.01c-10.713 0-19.397-8.684-19.397-19.397v-26.786c0-13.913 11.278-25.192 25.192-25.192z" fill="#ebebeb"/><g fill="#6fd7a3"><path d="m121.305 26.1v361.542h-.009c-27.126 0-49.126 21.991-49.126 49.126v-361.542c0-27.126 22-49.126 49.135-49.126z"/><path d="m439.68 404.16c0 9.124-7.397 16.521-16.521 16.521h-300.997c-4.511 0-8.98 1.896-12.261 5.203-1.769 1.783-4.73 5.585-4.688 11.014.034 4.244 1.704 8.231 4.704 11.229 1.787 1.79 5.585 4.73 11.379 4.73h301.862c9.124 0 16.521 7.397 16.521 16.521 0 9.124-7.397 16.521-16.521 16.521h-301.862c-13.563 0-25.849-5.495-34.73-14.395-8.814-8.805-14.289-20.932-14.394-34.349-.212-27.235 22.755-49.517 49.99-49.517h300.997c9.124 0 16.521 7.397 16.521 16.522z"/></g></g><path d="m502.518 213.583-41.817 92.733c-3.624 8.036-11.621 13.202-20.436 13.202h-386.152c-12.856 0-24.517 5.222-32.954 13.66-8.437 8.437-13.649 20.087-13.649 32.963l-.01-230.302c0-25.742 20.871-46.613 46.613-46.613h386.153c8.815 0 16.812 5.166 20.436 13.202l41.816 92.724c2.643 5.859 2.643 12.571 0 18.431z" fill="#fd8087"/><path d="m54.113 89.226v230.293c-12.856 0-24.517 5.222-32.954 13.66-8.437 8.437-13.649 20.087-13.649 32.963l-.01-230.303c0-25.743 20.871-46.613 46.613-46.613z" fill="#fe646f"/><g><path d="m399.827 120.533 6.717 13.61c.929 1.882 2.724 3.186 4.8 3.487l15.019 2.182c5.229.76 7.317 7.186 3.533 10.874l-10.868 10.594c-1.503 1.465-2.188 3.575-1.833 5.643l2.566 14.959c.893 5.208-4.573 9.179-9.25 6.72l-13.434-7.062c-1.857-.976-4.076-.976-5.933 0l-13.434 7.062c-4.677 2.459-10.143-1.513-9.25-6.72l2.566-14.959c.355-2.068-.331-4.178-1.833-5.643l-10.868-10.594c-3.784-3.688-1.696-10.114 3.533-10.874l15.019-2.182c2.076-.302 3.871-1.606 4.8-3.487l6.717-13.61c2.339-4.738 9.095-4.738 11.433 0z" fill="#ffe177"/></g></g><g><path d="m509.357 192.074-41.818-92.726c-3.85-8.551-11.462-14.672-20.357-16.794v-42.774c0-11.679-9.501-21.18-21.179-21.18h-304.708c-31.222 0-56.624 25.401-56.624 56.624v6.503h-10.561c-29.837.001-54.11 24.274-54.11 54.11v38.739c0 4.142 3.358 7.5 7.5 7.5s7.5-3.358 7.5-7.5v-38.739c0-21.565 17.544-39.11 39.11-39.11h386.15c5.861 0 11.2 3.446 13.604 8.784l41.819 92.728c1.756 3.898 1.756 8.37.001 12.265l-41.82 92.731c-2.405 5.335-7.745 8.783-13.603 8.783h-386.151c-.038 0-.075.005-.113.006-14.406.029-27.948 5.653-38.143 15.847-.293.293-.569.599-.854.897v-119.192c0-4.142-3.358-7.5-7.5-7.5s-7.5 3.358-7.5 7.5v156.551c0 .056.007.11.008.166.086 29.767 24.321 53.958 54.102 53.958h10.562s-.003 16.74-.001 16.967c.123 14.963 6.018 29.025 16.59 39.585 10.676 10.7 24.896 16.593 40.039 16.593h243.65c4.142 0 7.5-3.358 7.5-7.5s-3.358-7.5-7.5-7.5h-243.65c-11.131 0-21.579-4.328-29.43-12.196-7.777-7.769-12.11-18.105-12.2-29.101-.084-10.887 4.214-21.26 12.102-29.209 8.042-8.105 19.119-12.753 30.389-12.753h301c4.974 0 9.02 4.046 9.02 9.02s-4.046 9.02-9.02 9.02h-301c-6.497 0-12.908 2.708-17.578 7.421-2.592 2.606-6.932 8.197-6.872 16.369.059 6.221 2.511 12.068 6.892 16.448 2.578 2.592 8.176 6.941 16.698 6.941h301.86c4.974 0 9.02 4.046 9.02 9.02 0 2.407-.939 4.672-2.644 6.377s-3.969 2.643-6.376 2.643h-23.21c-4.142 0-7.5 3.358-7.5 7.5s3.358 7.5 7.5 7.5h23.21c6.414 0 12.445-2.499 16.983-7.037s7.037-10.569 7.037-16.983l.002-143.188c8.891-2.122 16.502-8.242 20.355-16.789l41.821-92.732c3.519-7.813 3.519-16.776-.002-24.593zm-77.175-152.294v41.947h-303.387v-48.126h297.208c3.407 0 6.179 2.772 6.179 6.179zm-352.51 35.445c0-20.39 14.741-37.391 34.124-40.934v47.437h-34.124zm-25.562 330.027c-21.563 0-39.106-17.547-39.106-39.116 0-10.448 4.069-20.271 11.457-27.659s17.208-11.457 27.649-11.457h10.562v78.231h-10.562zm27.014-7.927c-.498.502-.975 1.019-1.452 1.535v-71.843h34.124v53.751c-12.243 1.838-23.828 7.646-32.672 16.557zm342.036-17.187h-294.365v-53.12h303.387v54.885c-2.787-1.135-5.832-1.765-9.022-1.765zm-307.937 62.686c-1.6-1.6-2.492-3.729-2.513-5.982-.02-2.715 1.562-4.715 2.517-5.675 1.883-1.9 4.41-2.989 6.933-2.989h284.113v17.18h-284.973c-2.94-.001-4.92-1.37-6.077-2.534zm307.937 2.533h-1.887v-17.18h1.887c3.19 0 6.234-.63 9.022-1.765v20.709c-2.787-1.133-5.832-1.764-9.022-1.764z"/><path d="m189.62 124.071c4.142 0 7.5-3.358 7.5-7.5s-3.358-7.5-7.5-7.5h-33.375c-4.142 0-7.5 3.358-7.5 7.5v79.209c0 4.142 3.358 7.5 7.5 7.5h33.375c4.142 0 7.5-3.358 7.5-7.5s-3.358-7.5-7.5-7.5h-25.875v-24.604h23.415c4.142 0 7.5-3.358 7.5-7.5s-3.358-7.5-7.5-7.5h-23.415v-24.604h25.875z"/><path d="m105.491 108.341h-23.22c-4.142 0-7.5 3.358-7.5 7.5v79.939c0 1.995.795 3.908 2.208 5.315 1.406 1.4 3.309 2.185 5.292 2.185h.033c.002 0 21.356-.095 27.242-.095 16 0 29.017-13.017 29.017-29.017 0-9.954-5.039-18.75-12.699-23.979 3.453-4.4 5.521-9.938 5.521-15.953 0-14.278-11.616-25.895-25.894-25.895zm0 15c6.007 0 10.894 4.887 10.894 10.894s-4.887 10.894-10.894 10.894c-1.706 0-4.921.009-8.425.021h-7.295v-21.81h15.72zm4.055 64.844c-3.607 0-13.011.036-19.775.063v-28.07c2.317-.009 4.899-.019 7.343-.028h12.432c7.729 0 14.017 6.288 14.017 14.017s-6.288 14.018-14.017 14.018z"/><path d="m241.399 188.28c-8.637 0-16.973-3.509-22.3-9.386-2.78-3.068-7.523-3.303-10.594-.521-3.069 2.781-3.302 7.524-.521 10.594 8.122 8.962 20.613 14.313 33.414 14.313 15.385 0 28.792-10.106 31.185-23.507 1.812-10.152-2.922-23.462-21.647-30.369-10.225-3.771-19.713-7.888-22.178-8.971-2.419-1.791-3.591-4.638-3.149-7.718.563-3.923 3.594-7.078 8.107-8.437 12.616-3.8 24.052 5.346 24.298 5.545 3.169 2.639 7.881 2.223 10.539-.939 2.665-3.17 2.255-7.901-.916-10.567-.712-.599-17.686-14.598-38.248-8.402-10.097 3.042-17.234 10.961-18.628 20.668-1.299 9.048 2.62 17.75 10.228 22.709.332.216.679.405 1.041.566.459.205 11.395 5.073 23.715 9.618 8.652 3.191 13.052 8.17 12.072 13.659-.978 5.479-7.387 11.145-16.418 11.145z"/><path d="m331.056 108.341h-44.147c-4.142 0-7.5 3.358-7.5 7.5s3.358 7.5 7.5 7.5h14.484v72.439c0 4.142 3.358 7.5 7.5 7.5s7.5-3.358 7.5-7.5v-72.439h14.663c4.142 0 7.5-3.358 7.5-7.5s-3.358-7.5-7.5-7.5z"/><path d="m266.038 229.421c0-4.142-3.358-7.5-7.5-7.5s-7.5 3.358-7.5 7.5v60.184c0 3.653 2.632 6.774 6.232 7.392.535.092.946.163 7.648.163 3.224 0 7.905-.017 14.754-.055 4.142-.023 7.481-3.4 7.458-7.542s-3.394-7.431-7.542-7.458c-4.653.026-9.64.045-13.55.05z"/><path d="m301.775 221.921c-4.142 0-7.5 3.358-7.5 7.5v60.184c0 3.652 2.631 6.774 6.231 7.392.535.092.946.163 7.651.163 3.224 0 7.904-.017 14.751-.055 4.142-.023 7.481-3.4 7.458-7.542-.023-4.128-3.376-7.458-7.499-7.458-.014 0-.029 0-.043 0-4.654.026-9.64.045-13.55.05v-52.733c.001-4.143-3.357-7.501-7.499-7.501z"/><path d="m202.63 229.971v59.685c0 4.142 3.358 7.5 7.5 7.5h25.148c4.142 0 7.5-3.358 7.5-7.5s-3.358-7.5-7.5-7.5h-17.648v-14.842h15.794c4.142 0 7.5-3.358 7.5-7.5s-3.358-7.5-7.5-7.5h-15.794v-14.842h17.648c4.142 0 7.5-3.358 7.5-7.5s-3.358-7.5-7.5-7.5h-25.148c-4.142-.001-7.5 3.357-7.5 7.499z"/><path d="m337.506 229.971v59.685c0 4.142 3.358 7.5 7.5 7.5h25.148c4.142 0 7.5-3.358 7.5-7.5s-3.358-7.5-7.5-7.5h-17.648v-14.842h15.794c4.142 0 7.5-3.358 7.5-7.5s-3.358-7.5-7.5-7.5h-15.794v-14.842h17.648c4.142 0 7.5-3.358 7.5-7.5s-3.358-7.5-7.5-7.5h-25.148c-4.142-.001-7.5 3.357-7.5 7.499z"/><path d="m169.117 282.155c-5.995 0-11.764-2.417-15.433-6.465-2.781-3.069-7.524-3.303-10.594-.521-3.069 2.782-3.303 7.524-.521 10.594 6.464 7.134 16.389 11.393 26.548 11.393 12.68 0 23.327-8.09 25.317-19.236 1.498-8.387-2.311-19.343-17.492-24.943-7.403-2.73-14.295-5.705-16.406-6.629-1.654-1.327-1.599-3.178-1.488-3.949.153-1.068.929-3.68 4.811-4.85 8.502-2.561 16.384 3.662 16.604 3.838 3.17 2.629 7.874 2.209 10.528-.948 2.665-3.171 2.255-7.902-.916-10.567-.568-.478-14.104-11.637-30.543-6.686-8.304 2.501-14.18 9.046-15.333 17.081-1.082 7.538 2.186 14.789 8.527 18.923.332.216.679.405 1.041.566.349.156 8.643 3.848 17.983 7.293 2.648.977 8.72 3.734 7.916 8.233-.602 3.379-4.713 6.873-10.549 6.873z"/><path d="m433.108 245.075c0-12.767-10.784-23.154-24.04-23.154h-16.006c-1.993 0-3.905.793-5.312 2.206-1.407 1.412-2.194 3.326-2.188 5.319 0 .001-.02 60.21-.02 60.21 0 4.142 3.358 7.5 7.5 7.5s7.5-3.358 7.5-7.5v-17.128l19.436 22.083c1.482 1.685 3.552 2.545 5.633 2.545 1.76 0 3.527-.616 4.952-1.87 3.109-2.736 3.412-7.476.675-10.585l-15.339-17.428c9.938-2.844 17.209-11.716 17.209-22.198zm-24.04 8.155c-1.971 0-5.318.014-8.438.028-.016-3.042-.038-13.148-.046-16.337h8.484c4.9 0 9.04 3.734 9.04 8.154s-4.139 8.155-9.04 8.155z"/><path d="m438.643 141.834c-1.644-5.06-5.936-8.679-11.201-9.443l-14.434-2.097-6.455-13.08c-2.354-4.771-7.122-7.734-12.442-7.734s-10.088 2.964-12.442 7.734l-6.455 13.08-14.434 2.097c-5.265.765-9.557 4.383-11.201 9.443s-.299 10.51 3.511 14.223l10.444 10.181-2.465 14.375c-.899 5.243 1.215 10.443 5.519 13.571 2.432 1.767 5.278 2.665 8.143 2.665 2.205 0 4.421-.532 6.47-1.608l12.91-6.788 12.911 6.788c4.709 2.475 10.308 2.07 14.612-1.057s6.418-8.327 5.52-13.57l-2.465-14.375 10.444-10.181c3.808-3.714 5.154-9.164 3.51-14.224zm-24.848 14.075c-3.272 3.188-4.765 7.78-3.992 12.282l2.18 12.712-11.416-6.001c-2.021-1.063-4.239-1.595-6.457-1.595s-4.436.532-6.457 1.594l-11.416 6.002 2.18-12.713c.772-4.502-.72-9.093-3.991-12.28l-9.236-9.003 12.764-1.854c4.52-.657 8.425-3.494 10.447-7.59l5.708-11.566 5.708 11.565c2.021 4.096 5.927 6.934 10.448 7.591l12.763 1.854z"/></g></g></svg>