<?xml version="1.0" encoding="iso-8859-1"?>
<!-- Generator: Adobe Illustrator 19.0.0, SVG Export Plug-In . SVG Version: 6.00 Build 0)  -->
<svg version="1.1" id="Capa_1" xmlns="http://www.w3.org/2000/svg" xmlns:xlink="http://www.w3.org/1999/xlink" x="0px" y="0px"
	 viewBox="0 0 514 514" style="enable-background:new 0 0 514 514;" xml:space="preserve">
<path style="fill:#FFFFFF;" d="M490.4,414.2l-84-84l-1.6-1.6c-13.6,1.6-28.8-3.2-40-15.2c-0.8-0.8-2.4-2.4-3.2-4
	c-7.2-8.8-10.4-20-10.4-32v-17.6c0-12-14.4-18.4-23.2-9.6l-23.2,23.2L266.4,235l-29.6,31.2l36.8,36.8l1.6,1.6L252,327.8
	c-8.8,8.8-2.4,23.2,9.6,23.2h17.6c11.2,0,23.2,3.2,32,10.4c1.6,0.8,2.4,2.4,4,3.2c11.2,11.2,16,26.4,15.2,40l1.6,1.6l84,84
	c20.8,20.8,54.4,20.8,75.2-0.8C511.2,469.4,511.2,435,490.4,414.2z"/>
<polygon style="fill:#2EA2DB;" points="121.6,91.8 124.8,63.8 40,11 9.6,41.4 63.2,126.2 91.2,122.2 236,266.2 265.6,235.8 "/>
<path style="fill:#FDBF5E;" d="M196,343.8l146.4-146.4c32.8,9.6,69.6,1.6,95.2-24s33.6-62.4,24-95.2l-74.4,74.4L324,89.4L398.4,15
	c-32.8-9.6-69.6-1.6-95.2,24s-33.6,62.4-24,95.2L132.8,279.8c-32.8-9.6-69.6-1.6-95.2,24S4,366.2,13.6,399L88,324.6l63.2,63.2
	l-74.4,74.4c32.8,9.6,69.6,1.6,95.2-24C198.4,412.6,206.4,375.8,196,343.8z"/>
<g>
	<path style="fill:#193651;" d="M496,408.6l-88.8-88.8h-4c-12,0.8-24.8-3.2-33.6-12.8c-0.8-0.8-1.6-2.4-2.4-3.2
		c-5.6-7.2-8.8-16-8.8-26.4v-17.6c0-5.6-2.4-11.2-6.4-15.2c-8-8-22.4-8-31.2,0l-17.6,17.6l-8-8l48.8-48.8c8,2.4,16.8,3.2,25.6,3.2
		c27.2,0,53.6-10.4,72.8-30.4C469.6,151,479.2,111.8,468,75l-4-12.8l-78.4,78.4l-52-52L412,10.2L400.8,7c-9.6-3.2-20-4.8-30.4-4.8
		c-27.2,0-53.6,10.4-72.8,30.4c-25.6,25.6-36,63.2-27.2,98.4l-48.8,48.8l-91.2-91.2l3.2-28.8L39.2,0.6L0,39.8l59.2,94.4l29.6-4
		l91.2,91.2L130.4,271c-8-2.4-16.8-3.2-25.6-3.2c-27.2,0-53.6,10.4-72.8,30.4C4.8,325.4-4.8,364.6,6.4,401.4l4,12.8l78.4-78.4l52,52
		l-78.4,78.4l12.8,4c9.6,3.2,20,4.8,30.4,4.8c27.2,0,53.6-10.4,72.8-30.4c25.6-25.6,36-63.2,27.2-98.4l49.6-49.6l8,8l-18.4,16.8
		c-6.4,6.4-8,15.2-4.8,24c3.2,8,11.2,13.6,20,13.6h17.6c10.4,0,20,3.2,26.4,8.8c0.8,0.8,2.4,1.6,3.2,3.2
		c8.8,8.8,13.6,21.6,12.8,33.6v4l88.8,87.2c11.2,11.2,26.4,17.6,43.2,17.6c16.8,0,32-6.4,44-18.4C520,471.8,520,432.6,496,408.6z
		 M94.4,113.4l-27.2,4L20,42.2l20.8-20.8L116,68.6L112.8,95l96.8,96.8L190.4,211L94.4,113.4z M188.8,346.2
		c9.6,31.2,0.8,64-21.6,87.2c-16.8,16-38.4,24.8-62.4,24.8c-4,0-8,0-12-0.8l69.6-69.6L88,313.4L18.4,383c-4-26.4,5.6-53.6,24.8-73.6
		c16.8-16.8,38.4-25.6,61.6-25.6c8.8,0,16.8,1.6,25.6,4l4.8,1.6l153.6-153.6l-1.6-4.8c-9.6-31.2-0.8-64,21.6-87.2
		c16.8-16.8,38.4-25.6,61.6-25.6c4,0,8,0,12,0.8l-69.6,69.6l74.4,74.4l69.6-69.6c4,26.4-5.6,53.6-24.8,73.6
		c-16.8,16.8-38.4,25.6-61.6,25.6c-8.8,0-16.8-1.6-25.6-4L340,187L187.2,341.4L188.8,346.2z M484.8,484.6
		c-8.8,8.8-20,13.6-32.8,13.6c-12,0-23.2-4.8-32-12.8l-83.2-84c0-15.2-5.6-31.2-17.6-42.4c-1.6-1.6-3.2-2.4-4-4
		c-9.6-8-22.4-12-36.8-12h-17.6c-3.2,0-4.8-2.4-5.6-3.2c-0.8-0.8-1.6-4,1.6-6.4l28.8-28.8l-19.2-19.2l19.2-19.2l19.2,19.2l28.8-28.8
		c2.4-2.4,6.4-2.4,8,0c0.8,0.8,1.6,2.4,1.6,4v17.6c0,14.4,4,27.2,12,36.8c0.8,1.6,2.4,3.2,4,4c11.2,11.2,27.2,17.6,42.4,17.6
		l84,83.2C502.4,437.4,502.4,466.2,484.8,484.6z"/>
	
		<rect x="368.961" y="369.966" transform="matrix(-0.7071 0.7071 -0.7071 -0.7071 910.7745 378.6762)" style="fill:#193651;" width="16" height="16"/>
	
		<rect x="401.682" y="403.504" transform="matrix(0.707 0.7072 -0.7072 0.707 411.0522 -169.162)" style="fill:#193651;" width="16" height="16"/>
	
		<rect x="435.686" y="436.431" transform="matrix(-0.707 0.7072 -0.7072 -0.707 1071.679 444.87)" style="fill:#193651;" width="16" height="16"/>
	
		<rect x="263.533" y="196.563" transform="matrix(-0.7071 -0.7071 0.7071 -0.7071 318.8885 541.213)" style="fill:#193651;" width="16" height="16"/>
	
		<rect x="229.922" y="230.918" transform="matrix(0.7074 0.7068 -0.7068 0.7074 238.4828 -98.2592)" style="fill:#193651;" width="16" height="16"/>
	
		<rect x="195.999" y="263.878" transform="matrix(0.707 0.7072 -0.7072 0.707 252.0445 -64.6109)" style="fill:#193651;" width="16" height="16"/>
</g>
<g>
</g>
<g>
</g>
<g>
</g>
<g>
</g>
<g>
</g>
<g>
</g>
<g>
</g>
<g>
</g>
<g>
</g>
<g>
</g>
<g>
</g>
<g>
</g>
<g>
</g>
<g>
</g>
<g>
</g>
</svg>
