<svg id="Capa_1" enable-background="new 0 0 512 512" height="512" viewBox="0 0 512 512" width="512" xmlns="http://www.w3.org/2000/svg"><g><g><g><path d="m351.928 493.194v-63.159l.001-314.951c0-6.596-5.347-11.942-11.942-11.942h-265.97c-23.685 0-42.885 19.2-42.885 42.885v315.21" fill="#60b7ff"/><path d="m71.624 430.246h257.691v62.303h-262.749c-9.351 0-16.932-7.581-16.932-16.932v-23.382c0-12.143 9.845-21.989 21.99-21.989z" fill="#ebebeb"/><g fill="#26a6fe"><path d="m74.021 103.145v315.587h-.008c-23.678 0-42.882 19.196-42.882 42.882v-315.588c.001-23.677 19.204-42.881 42.89-42.881z"/><path d="m351.928 433.15c0 7.965-6.457 14.421-14.421 14.421h-262.738c-3.938 0-7.838 1.655-10.702 4.541-1.544 1.556-4.129 4.875-4.092 9.614.029 3.704 1.487 7.185 4.106 9.801 1.559 1.563 4.876 4.129 9.933 4.129h263.493c7.965 0 14.421 6.457 14.421 14.421 0 7.965-6.457 14.421-14.421 14.421h-263.494c-11.839 0-22.563-4.797-30.316-12.566-7.694-7.686-12.473-18.271-12.564-29.983-.185-23.773 19.862-43.223 43.636-43.223h262.738c7.964.003 14.421 6.459 14.421 14.424z"/></g></g><g><path d="m456.136 90.325h-51.793v-58.084c0-13.664-11.077-24.741-24.741-24.741h-50.136c-13.664 0-24.741 11.077-24.741 24.741v58.084h-51.793c-13.664 0-24.741 11.077-24.741 24.741v50.136c0 13.664 11.077 24.741 24.741 24.741h51.793v118.915c0 13.664 11.077 24.741 24.741 24.741h50.136c13.664 0 24.741-11.077 24.741-24.741v-118.915h51.793c13.664 0 24.741-11.077 24.741-24.741v-50.136c0-13.664-11.077-24.741-24.741-24.741z" fill="#c68d7a"/><g fill="#bc7c63"><path d="m252.096 115.066v50.137c0 13.67 11.084 24.744 24.744 24.744h-23.905c-13.67 0-24.744-11.074-24.744-24.744v-50.137c0-13.66 11.074-24.734 24.744-24.734h23.905c-13.66 0-24.744 11.074-24.744 24.734z"/><path d="m353.379 333.599h-23.915c-13.66 0-24.734-11.074-24.734-24.734v-118.918h23.905v118.917c0 13.661 11.074 24.735 24.744 24.735z"/><path d="m328.635 90.332h-23.905v-58.085c0-13.67 11.074-24.744 24.734-24.744h23.915c-13.67 0-24.744 11.074-24.744 24.744z"/></g><path d="m334.682 303.642v-143.656h-76.534v-39.704h76.534v-82.826h39.704v82.826h76.535v39.704h-76.535v143.656z" fill="#ffe177"/><g fill="#ffd15b"><path d="m334.682 37.456h15.925v82.825h-15.925z"/><path d="m334.682 159.986h15.925v143.656h-15.925z"/><path d="m258.148 120.282h15.925v39.705h-15.925z"/></g></g><path d="m140.858 343.552h-20.311c-3.927 0-7.111-3.184-7.111-7.111v-243.595c0-3.927 3.184-7.111 7.111-7.111h20.311c3.928 0 7.111 3.184 7.111 7.111v243.594c0 3.928-3.184 7.112-7.111 7.112z" fill="#fe646f"/></g><g><path d="m456.132 82.83h-44.29v-50.59c0-17.777-14.463-32.24-32.24-32.24h-50.14c-17.777 0-32.24 14.463-32.24 32.24v50.59h-44.29c-10.487 0-19.817 5.036-25.708 12.813h-71.754v-2.798c0-8.057-6.555-14.611-14.611-14.611h-20.312c-8.057 0-14.611 6.555-14.611 14.611v2.798h-31.92c-27.784 0-50.388 22.604-50.388 50.388 0 0 .003 315.717.005 315.977.103 13.32 5.35 25.833 14.76 35.219 9.502 9.526 22.151 14.773 35.619 14.773h263.49c5.843 0 11.345-2.275 15.504-6.417 4.144-4.144 6.426-9.65 6.426-15.503l-.001-148.98h20.171c17.777 0 32.24-14.463 32.24-32.24v-54.79c0-4.142-3.357-7.5-7.5-7.5s-7.5 3.358-7.5 7.5v54.79c0 9.506-7.734 17.24-17.24 17.24h-50.14c-9.506 0-17.24-7.734-17.24-17.24v-118.92c0-4.142-3.357-7.5-7.5-7.5h-51.79c-9.506 0-17.239-7.734-17.239-17.24v-50.13c0-9.506 7.733-17.24 17.239-17.24h51.79c4.143 0 7.5-3.358 7.5-7.5v-58.09c0-9.506 7.734-17.24 17.24-17.24h50.14c9.506 0 17.24 7.734 17.24 17.24v58.09c0 4.142 3.357 7.5 7.5 7.5h51.79c9.506 0 17.24 7.734 17.24 17.24v50.13c0 9.506-7.734 17.24-17.24 17.24h-51.79c-4.143 0-7.5 3.358-7.5 7.5v29.13c0 4.142 3.357 7.5 7.5 7.5s7.5-3.358 7.5-7.5v-21.63h44.29c17.777 0 32.24-14.463 32.24-32.24v-50.13c.001-17.777-14.462-32.24-32.24-32.24zm-335.197 10.404h19.534v242.817h-19.534zm-54.418 263.868c-10.79 1.617-20.468 6.669-27.89 14.002v-175.526h.004c0-16.938 11.965-31.127 27.886-34.578zm-27.886 49.824c0-16.938 11.965-31.127 27.886-34.578v39.58c-10.429 1.738-20.27 6.713-27.89 14.244v-19.247h.004zm27.886-295.476v34.304c-10.79 1.617-20.468 6.669-27.89 14.002v-13.725c0-16.94 11.968-31.131 27.89-34.581zm7.495 356.71c-2.227 0-3.744-1.051-4.626-1.933-1.221-1.22-1.9-2.839-1.914-4.543-.013-2.034 1.202-3.57 1.902-4.28 1.456-1.461 3.475-2.334 5.397-2.334h247.043v13.09zm262.803-13.09h.688c2.421 0 4.75-.4 6.929-1.128v15.346c-2.18-.728-4.508-1.128-6.93-1.128h-.688v-13.09zm-83.883-257.63h44.29v111.42c0 17.777 14.463 32.24 32.24 32.24h14.969v71.258c-2.18-.728-4.508-1.128-6.929-1.128h-203.45c-4.143 0-7.5 3.358-7.5 7.5s3.357 7.5 7.5 7.5h203.45c3.819 0 6.925 3.1 6.929 6.913v.014c-.004 3.812-3.11 6.913-6.929 6.913h-262.73c-5.91 0-11.75 2.459-16.047 6.771-2.355 2.385-6.299 7.497-6.253 14.95.047 5.679 2.286 11.021 6.307 15.041 2.362 2.363 7.482 6.327 15.233 6.327h263.49c3.821 0 6.93 3.104 6.93 6.92 0 1.847-.722 3.586-2.022 4.886-1.316 1.312-3.06 2.034-4.907 2.034h-263.491c-9.453 0-18.332-3.682-25.014-10.38-6.613-6.596-10.295-15.378-10.366-24.726-.07-9.247 3.584-18.06 10.289-24.816 6.842-6.894 16.264-10.848 25.851-10.848h24.28c4.143 0 7.5-3.358 7.5-7.5s-3.357-7.5-7.5-7.5h-17.535v-300.586h24.418v225.797c0 8.057 6.555 14.611 14.611 14.611h20.312c8.057 0 14.611-6.555 14.611-14.611v-225.797h65.535c-.2 1.448-.311 2.924-.311 4.427v50.13c0 17.777 14.463 32.24 32.239 32.24z"/><path d="m334.682 311.142h39.704c4.143 0 7.5-3.358 7.5-7.5v-136.156h69.034c4.143 0 7.5-3.358 7.5-7.5v-39.704c0-4.142-3.357-7.5-7.5-7.5h-69.034v-75.325c0-4.142-3.357-7.5-7.5-7.5h-39.704c-4.143 0-7.5 3.358-7.5 7.5v75.325h-69.034c-4.143 0-7.5 3.358-7.5 7.5v39.704c0 4.142 3.357 7.5 7.5 7.5h69.034v136.156c0 4.142 3.358 7.5 7.5 7.5zm-69.034-158.656v-24.704h69.034c4.143 0 7.5-3.358 7.5-7.5v-75.325h24.704v75.325c0 4.142 3.357 7.5 7.5 7.5h69.034v24.704h-69.034c-4.143 0-7.5 3.358-7.5 7.5v136.156h-24.704v-136.156c0-4.142-3.357-7.5-7.5-7.5z"/></g></g></svg>