<svg id="Capa_1" enable-background="new 0 0 511.994 511.994" height="512" viewBox="0 0 511.994 511.994" width="512" xmlns="http://www.w3.org/2000/svg"><g><g><path d="m315.316 190.438v.06l-.77 54.719-1.86 131.509h-113.378l-1.86-131.509-.76-53.889-.01-.83v-.06z" fill="#ebebeb"/><path d="m315.316 190.498-.77 54.719-58.549 10.07-58.549-10.07-.76-53.889-.01-.83.34-.06 58.979-10.15 58.979 10.15z" fill="#e2e2e2"/><path d="m230.377 204.208v172.518h-31.069l-2.62-185.398z" fill="#e2e2e2"/><path d="m222.593 30.86h66.809v139.756h-66.809z" fill="#7a6d79"/><path d="m222.593 30.86h28.9v139.756h-28.9z" fill="#685e68"/><path d="m296.893 40.808h-81.792c-9.198 0-16.654-7.456-16.654-16.654 0-9.198 7.456-16.654 16.654-16.654h81.792c9.198 0 16.654 7.456 16.654 16.654 0 9.198-7.456 16.654-16.654 16.654z" fill="#ffe177"/><path d="m255.071 40.808h-39.969c-9.2 0-16.66-7.46-16.66-16.66 0-4.59 1.86-8.76 4.88-11.77 3.02-3.02 7.18-4.88 11.78-4.88h39.969c-4.59 0-8.76 1.86-11.77 4.88-3.02 3.01-4.88 7.18-4.88 11.77 0 9.2 7.46 16.66 16.65 16.66z" fill="#ffd15b"/><path d="m393.135 193.798c0 8.03-5.79 14.9-13.71 16.26l-123.429 21.24s-.01 0-.03-.01l-123.398-21.23c-3.96-.68-7.39-2.74-9.83-5.63-2.43-2.89-3.88-6.61-3.88-10.63 0-8.04 5.79-14.91 13.71-16.27l123.398-21.22c.02-.01.03-.01.03-.01l123.429 21.23c7.92 1.36 13.71 8.23 13.71 16.27z" fill="#ffe177"/><path d="m255.967 231.287-123.398-21.23c-3.96-.68-7.39-2.74-9.83-5.63-2.43-2.89-3.88-6.61-3.88-10.63 0-8.04 5.79-14.91 13.71-16.27l123.398-21.22c-1.13.36-37.27 12.21-37.27 37.289s36.14 37.311 37.27 37.691z" fill="#ffd15b"/><path d="m330.818 408.654v-31.924c0-13.774-11.166-24.94-24.94-24.94s-24.94 11.166-24.94 24.94c0-13.774-11.166-24.94-24.94-24.94s-24.94 11.166-24.94 24.94c0-13.774-11.166-24.94-24.94-24.94s-24.94 11.166-24.94 24.94v54.869" fill="#7a6d79"/><path d="m473.6 376.73h-435.206c-17.062 0-30.894 13.832-30.894 30.894v65.976c0 17.062 13.832 30.894 30.894 30.894h435.206c17.062 0 30.894-13.832 30.894-30.894v-65.977c0-17.061-13.832-30.893-30.894-30.893z" fill="#c68d7a"/><path d="m504.488 441.615v31.99c0 17.06-13.83 30.89-30.89 30.89h-435.204c-17.06 0-30.9-13.83-30.9-30.89v-31.99c0 17.06 13.84 30.89 30.9 30.89h435.205c17.059 0 30.889-13.83 30.889-30.89z" fill="#bc7c63"/><g fill="#ffe177"><path d="m57.016 376.73h39.001v127.764h-39.001z"/><path d="m430.934 376.73h27.064v127.764h-27.064z"/><path d="m370.079 376.73h27.064v127.764h-27.064z"/></g><path d="m57.016 472.505h39.001v31.99h-39.001z" fill="#ffd15b"/><path d="m430.934 472.505h27.064v31.99h-27.064z" fill="#ffd15b"/><path d="m370.079 472.505h27.064v31.99h-27.064z" fill="#ffd15b"/></g><g><path d="m473.601 369.23h-136.168c-2.219-9.339-8.483-17.123-16.835-21.397l1.7-120.331 58.404-10.046c11.549-1.998 19.932-11.948 19.932-23.66s-8.383-21.663-19.94-23.662l-22.06-3.79c-4.079-.703-7.96 2.039-8.661 6.122s2.039 7.96 6.122 8.662l22.051 3.789c4.339.75 7.488 4.485 7.488 8.88s-3.149 8.129-7.481 8.879l-122.158 21.011-122.142-21.009c-2.108-.367-4.021-1.461-5.37-3.059-1.372-1.637-2.128-3.705-2.128-5.822 0-4.395 3.149-8.129 7.481-8.879l122.158-21.011 65.619 11.281c4.08.704 7.961-2.039 8.662-6.121.702-4.082-2.038-7.96-6.121-8.662l-27.258-4.686v-107.411c13.317-.002 24.15-10.837 24.15-24.154.001-13.319-10.835-24.154-24.153-24.154h-81.791c-13.318 0-24.154 10.835-24.154 24.154 0 13.317 10.834 24.152 24.15 24.154v107.413l-83.812 14.416c-11.549 1.998-19.932 11.948-19.932 23.66 0 5.635 2 11.125 5.648 15.478 3.634 4.305 8.703 7.21 14.29 8.184l58.404 10.045 1.701 120.33c-8.353 4.273-14.617 12.057-16.836 21.397h-136.167c-21.17-.001-38.394 17.222-38.394 38.393v65.976c0 21.17 17.224 38.394 38.394 38.394h435.207c21.17 0 38.394-17.223 38.394-38.394v-65.977c-.001-21.17-17.224-38.393-38.394-38.393zm-191.705-305.58-51.799 13.298v-28.638h51.799zm-51.798 28.785 51.799-13.298v22.701l-51.799 13.298zm-24.151-68.281c0-5.048 4.106-9.154 9.154-9.154h81.791c5.048 0 9.154 4.106 9.154 9.154s-4.106 9.154-9.154 9.154h-81.791c-5.047 0-9.154-4.106-9.154-9.154zm24.151 106.468 51.799-13.298v35.815l-24.632-4.235c-.841-.145-1.701-.145-2.542 0l-24.625 4.236zm193.336 253.608v112.764h-18.79v-112.764zm-327.42 49.626c-4.143 0-7.5 3.358-7.5 7.5v55.638h-24v-112.764h24v22.126c0 4.142 3.357 7.5 7.5 7.5s7.5-3.358 7.5-7.5v-22.126h259.065v112.764h-259.065v-55.638c0-4.142-3.358-7.5-7.5-7.5zm159.983-74.57c6.931 0 12.912 4.074 15.722 9.944h-31.445c2.811-5.87 8.792-9.944 15.723-9.944zm34.157 9.944c2.81-5.87 8.792-9.944 15.722-9.944s12.912 4.074 15.723 9.944zm-35.431-130.542c.421.073.846.109 1.271.109s.851-.036 1.271-.109l49.995-8.599-1.614 114.204c-9.922.07-18.801 4.611-24.71 11.71-4.42-5.31-10.503-9.187-17.439-10.836v-80.2c0-4.142-3.357-7.5-7.5-7.5s-7.5 3.358-7.5 7.5v80.2c-6.936 1.649-13.019 5.526-17.439 10.836-5.909-7.099-14.789-11.64-24.71-11.71l-1.614-114.203zm-48.606 120.598c6.931 0 12.912 4.074 15.723 9.944h-31.446c2.811-5.87 8.793-9.944 15.723-9.944zm-191.117 114.314v-65.977c0-12.899 10.494-23.394 23.394-23.394h11.12v112.764h-11.12c-12.9.001-23.394-10.493-23.394-23.393zm362.579 23.394v-112.764h12.064v112.764zm60.855 0v-112.764h12.064v112.764zm58.56-23.394c0 12.899-10.494 23.394-23.394 23.394h-8.103v-112.764h8.103c12.899 0 23.394 10.494 23.394 23.394z"/><path d="m140.49 432.351h154.63c4.143 0 7.5-3.358 7.5-7.5s-3.357-7.5-7.5-7.5h-154.63c-4.143 0-7.5 3.358-7.5 7.5s3.358 7.5 7.5 7.5z"/><path d="m140.49 462.214h82.802c4.143 0 7.5-3.358 7.5-7.5s-3.357-7.5-7.5-7.5h-82.802c-4.143 0-7.5 3.358-7.5 7.5s3.358 7.5 7.5 7.5z"/></g></g></svg>