<svg id="Capa_1" enable-background="new 0 0 512 512" height="512" viewBox="0 0 512 512" width="512" xmlns="http://www.w3.org/2000/svg"><g><g><path d="m394.51 174.14-.69 1.36-.36-.85z" fill="#9be69d"/><path d="m7.5 443.13v-302.909c0-8.284 6.716-15 15-15h151.68c23.594 0 43.584 15.722 50.045 37.24h63.549c6.461-21.518 26.451-37.24 50.045-37.24h151.681c8.284 0 15 6.716 15 15v302.909h-184.703l-23.943 38.706h-76.817l-20.95-36.912z" fill="#60b7ff"/><path d="m300.58 495.37h-89.16c-8.208 0-15.073-6.594-15.001-14.802.108-12.354-9.91-22.438-22.239-22.438h-151.68c-8.284 0-15-6.716-15-15 0-8.284 6.716-15 15-15h151.68c23.594 0 43.584 15.722 50.045 37.24h63.549c6.461-21.518 26.451-37.24 50.045-37.24h151.681c8.284 0 15 6.716 15 15 0 8.284-6.716 15-15 15h-151.68c-12.329 0-22.098 10.089-22.241 22.417-.095 8.203-6.774 14.823-14.999 14.823z" fill="#26a6fe"/><path d="m36.523 91.967h174.252c24.977 0 45.226 20.248 45.226 45.226 0-24.977 20.248-45.226 45.226-45.226h174.252v303.277h-174.253c-24.977 0-45.226 20.248-45.226 45.226 0-24.977-20.248-45.226-45.226-45.226h-174.251z" fill="#e2e2e2"/><path d="m475.48 58.84v303.28h-174.25c-24.98 0-45.23 20.25-45.23 45.23 0-12.49-5.06-23.8-13.25-31.98-8.18-8.19-19.49-13.25-31.98-13.25h-174.25v-303.28h174.25c24.98 0 45.23 20.25 45.23 45.23 0-12.49 5.06-23.8 13.25-31.98 8.18-8.19 19.49-13.25 31.98-13.25z" fill="#f8f6f6"/><path d="m313.81 58.84v303.28h-12.58c-24.98 0-45.23 20.25-45.23 45.23v-303.28c0-12.49 5.06-23.8 13.25-31.98 8.18-8.19 19.49-13.25 31.98-13.25z" fill="#ebebeb"/><g><path d="m312.405 183.712-41.982-14.569-10.045-37.459 127.808-109.383c9.463-8.092 23.551-7.544 32.353 1.257 8.793 8.793 9.342 22.882 1.249 32.345z" fill="#9be69d"/><path d="m279.948 151.254-7.431 18.619-2.095-.726-10.043-37.463 127.807-109.383c9.463-8.092 23.551-7.544 32.353 1.257-2.184-2.184-10.768 2.773-19.715 11.381z" fill="#6fd7a3"/><path d="m249.964 256.679-62.554-62.554 72.968-62.441 52.027 52.028z" fill="#ffe177"/><path d="m279.948 151.254-69.01 66.398-23.528-23.527 72.968-62.441z" fill="#ffd15b"/><path d="m260.61 234.949-51.462-51.462c-14.655-14.655-38.415-14.655-53.07 0-8.054 8.054-11.678 18.857-10.876 29.388 1.292 16.959-5.43 33.556-17.456 45.582l-24.737 24.737c29.29 29.29 75.241 31.729 107.329 7.356 14.74 12.067 36.516 11.224 50.272-2.531 14.655-14.655 14.655-38.415 0-53.07z" fill="#c68d7a"/><path d="m153.578 284.291-18.659 18.659c-11.663-3.877-22.625-10.47-31.91-19.755l24.736-24.736c12.025-12.025 18.748-28.613 17.45-45.579-.395-5.263.306-10.607 2.12-15.628s4.731-9.729 8.761-13.759c14.653-14.653 38.414-14.653 53.067 0l25.832 25.832c-14.653-14.653-38.414-14.653-53.067 0-4.03 4.03-6.948 8.737-8.761 13.759-1.805 5.029-2.523 10.357-2.12 15.628 1.298 16.965-5.424 33.553-17.449 45.579z" fill="#bc7c63"/></g></g><g><path d="m489.5 117.72h-6.52v-58.88c0-4.142-3.358-7.5-7.5-7.5h-42.455c4.118-11.181 1.65-24.247-7.179-33.077-11.491-11.505-30.17-12.233-42.523-1.658l-40.59 34.735h-41.503c-14.093 0-27.335 5.487-37.28 15.443-3.1 3.097-5.767 6.511-7.969 10.171-9.232-15.336-26.043-25.615-45.21-25.615h-174.251c-4.142 0-7.5 3.358-7.5 7.5v58.883h-6.52c-12.407 0-22.5 10.093-22.5 22.5v209.44c0 4.142 3.358 7.5 7.5 7.5s7.5-3.358 7.5-7.5v-209.44c0-4.136 3.364-7.5 7.5-7.5h6.52l.003 262.521c0 4.142 3.358 7.5 7.5 7.5h174.251c20.802 0 37.726 16.923 37.726 37.725 0 4.142 3.358 7.5 7.5 7.5s7.5-3.358 7.5-7.5c0-20.802 16.924-37.725 37.726-37.725h174.251c4.142 0 7.5-3.358 7.5-7.5l.003-262.524h6.52c4.136 0 7.5 3.364 7.5 7.5v281.7c-2.347-.833-4.871-1.29-7.5-1.29h-151.68c-24.265 0-46.266 15.058-55.338 37.24h-52.963c-9.073-22.182-31.073-37.24-55.338-37.24h-151.681c-2.629 0-5.153.458-7.5 1.29v-37.257c0-4.142-3.358-7.5-7.5-7.5s-7.5 3.358-7.5 7.5v58.47.003c.004 12.404 10.095 22.493 22.5 22.493h151.68c3.952 0 7.667 1.552 10.461 4.371 2.793 2.818 4.312 6.547 4.278 10.502-.052 5.88 2.224 11.443 6.406 15.662 4.224 4.261 10.09 6.705 16.094 6.705h89.16c12.264 0 22.357-9.975 22.499-22.236.096-8.273 6.708-15.004 14.741-15.004h151.681c12.407 0 22.5-10.093 22.5-22.5v-302.908c0-12.407-10.093-22.5-22.5-22.5zm-21.523 236.9h-166.747c-14.775 0-28.147 6.114-37.73 15.938v-75.001c.823-.713 1.631-1.453 2.413-2.234 14.318-14.317 16.954-35.956 7.919-52.975l148.908-174.008h45.24zm-315.296-142.314c-.666-8.748 2.505-17.319 8.701-23.515 5.671-5.671 13.211-8.794 21.232-8.794 8.02 0 15.56 3.124 21.231 8.794l51.462 51.461c5.671 5.671 8.794 13.211 8.794 21.231 0 8.021-3.124 15.561-8.794 21.232-10.958 10.957-28.248 11.831-40.217 2.031-2.683-2.196-6.524-2.267-9.287-.169-27.412 20.82-65.664 19.747-91.917-1.652l19.164-19.165c13.907-13.907 21.062-32.661 19.631-51.454zm107.307-70.402 42.217 42.217-37.728 44.088-48.578-48.577zm14.569-64.514c7.117-7.126 16.59-11.05 26.673-11.05h23.974l-22.84 19.545c-3.147 2.693-3.515 7.427-.822 10.575 2.693 3.147 7.427 3.516 10.575.822l80.961-69.281c6.437-5.51 16.168-5.132 22.159.866 5.993 5.993 6.373 15.727.865 22.161l-104.115 121.663-40.568-40.568 14.118-12.081c3.147-2.693 3.515-7.427.822-10.575-2.693-3.147-7.428-3.516-10.575-.822l-12.284 10.512v-15.087c0-10.083 3.924-19.556 11.057-26.68zm-230.537-11.05h166.75c20.804 0 37.73 16.926 37.73 37.73v27.922l-44.719 38.266c-6.438-3.438-13.662-5.262-21.167-5.262-12.027 0-23.334 4.684-31.838 13.188-9.293 9.293-14.05 22.145-13.052 35.261 1.099 14.425-4.471 28.898-15.281 39.709l-24.737 24.737c-2.929 2.929-2.929 7.678 0 10.606 17.262 17.262 40.231 26.085 63.293 26.084 17.166 0 34.383-4.889 49.329-14.826 11.638 7.272 25.66 8.677 38.172 4.424v66.361c-.151-.155-.29-.318-.443-.471-9.951-9.963-23.193-15.45-37.287-15.45h-166.747zm166.754 321.405h-166.751v-18.125h166.747c10.083 0 19.556 3.924 26.68 11.057 6.206 6.198 9.98 14.183 10.853 22.802-9.568-9.706-22.856-15.734-37.529-15.734zm90.452 0c-14.673 0-27.96 6.029-37.528 15.734 1.945-18.992 18.035-33.858 37.532-33.858h166.747v18.125h-166.751zm188.274 62.885h-151.68c-16.208 0-29.55 13.382-29.74 29.831-.047 4.085-3.412 7.409-7.5 7.409h-89.16c-2.031 0-4.015-.826-5.441-2.265-1.345-1.356-2.076-3.122-2.06-4.971.07-7.986-2.993-15.512-8.624-21.193-5.632-5.682-13.13-8.811-21.114-8.811h-151.681c-4.136 0-7.5-3.364-7.5-7.5s3.364-7.5 7.5-7.5h151.68c19.598 0 37.223 13.116 42.862 31.896.952 3.171 3.872 5.343 7.183 5.343h63.549c3.312 0 6.231-2.172 7.183-5.343 5.639-18.78 23.265-31.896 42.862-31.896h151.681c4.136 0 7.5 3.364 7.5 7.5s-3.364 7.5-7.5 7.5z"/><path d="m386.441 307.663h-72.631c-4.142 0-7.5 3.358-7.5 7.5s3.358 7.5 7.5 7.5h72.631c4.142 0 7.5-3.358 7.5-7.5s-3.358-7.5-7.5-7.5z"/><path d="m430.336 268.804h-116.526c-4.142 0-7.5 3.358-7.5 7.5s3.358 7.5 7.5 7.5h116.526c4.142 0 7.5-3.358 7.5-7.5s-3.357-7.5-7.5-7.5z"/><path d="m430.336 229.945h-116.526c-4.142 0-7.5 3.358-7.5 7.5s3.358 7.5 7.5 7.5h116.526c4.142 0 7.5-3.358 7.5-7.5s-3.357-7.5-7.5-7.5z"/><path d="m342.546 191.085c-4.142 0-7.5 3.358-7.5 7.5s3.358 7.5 7.5 7.5h87.791c4.142 0 7.5-3.358 7.5-7.5s-3.358-7.5-7.5-7.5z"/><path d="m71.52 231.067h43.568c4.142 0 7.5-3.358 7.5-7.5s-3.358-7.5-7.5-7.5h-43.568c-4.142 0-7.5 3.358-7.5 7.5s3.358 7.5 7.5 7.5z"/><path d="m71.52 192.207h45.563c4.142 0 7.5-3.358 7.5-7.5s-3.358-7.5-7.5-7.5h-45.563c-4.142 0-7.5 3.358-7.5 7.5s3.358 7.5 7.5 7.5z"/><path d="m71.52 153.348h116.526c4.142 0 7.5-3.358 7.5-7.5s-3.358-7.5-7.5-7.5h-116.526c-4.142 0-7.5 3.358-7.5 7.5s3.358 7.5 7.5 7.5z"/><path d="m100.256 114.489h87.791c4.142 0 7.5-3.358 7.5-7.5s-3.358-7.5-7.5-7.5h-87.791c-4.142 0-7.5 3.358-7.5 7.5s3.358 7.5 7.5 7.5z"/></g></g></svg>