<svg id="Capa_1" enable-background="new 0 0 512 512" height="512" viewBox="0 0 512 512" width="512" xmlns="http://www.w3.org/2000/svg"><g><g><path d="m366.98 88.52h-11.22v-9.02c0-21.47-17.4-38.87-38.87-38.87h-121.78c-21.47 0-38.87 17.4-38.87 38.87v9.02h-11.21c-29.81 0-53.97 24.16-53.97 53.96v240.34c0 29.81 24.16 53.97 53.97 53.97h221.95c29.8 0 53.96-24.16 53.96-53.97v-240.34c0-29.8-24.16-53.96-53.96-53.96zm-166.84-17.89h111.73c7.67 0 13.89 6.22 13.89 13.9 0 3.83-1.56 7.31-4.07 9.82s-5.99 4.07-9.82 4.07h-111.73c-7.68 0-13.9-6.22-13.9-13.89 0-7.68 6.22-13.9 13.9-13.9z" fill="#ffe177"/><path d="m195.11 40.63c-21.47 0-38.87 17.4-38.87 38.87v9.02h-11.21c-29.81 0-53.97 24.16-53.97 53.96v240.34c0 29.81 24.16 53.97 53.97 53.97h22.31c-29.81 0-53.97-24.16-53.97-53.97v-240.34c0-29.8 24.16-53.96 53.97-53.96h11.21v-9.02c0-21.47 17.4-38.87 38.87-38.87z" fill="#ffd15b"/><path d="m420.94 382.82v67.71c0 29.81-24.16 53.97-53.96 53.97h-221.95c-29.81 0-53.97-24.16-53.97-53.97v-67.71z" fill="#f8f6f6"/><path d="m167.34 504.5h-22.31c-29.81 0-53.97-24.16-53.97-53.97v-67.71h22.31v67.71c0 29.809 24.16 53.97 53.97 53.97z" fill="#ebebeb"/><path d="m210.541 7.5h90.922v90.922h-90.922z" fill="#9be69d"/><path d="m210.541 68.565h90.922v29.858h-90.922z" fill="#6fd7a3"/><g><path d="m370.377 151.822v158.041h-68.651c-3.994 0-7.868.509-11.566 1.473-19.656 5.125-34.158 22.992-34.158 44.25 0-12.622-5.115-24.057-13.391-32.333-8.275-8.275-19.711-13.391-32.333-13.391h-68.651v-158.04h68.651c25.253 0 45.724 20.471 45.724 45.724 0-12.622 5.115-24.057 13.391-32.333 5.653-5.653 12.789-9.833 20.768-11.918 3.698-.964 7.571-1.473 11.566-1.473z" fill="#f8f6f6"/><path d="m290.161 153.296v158.041c-19.656 5.125-34.158 22.992-34.158 44.25v-158.041c0-12.622 5.115-24.057 13.391-32.333 5.652-5.653 12.788-9.832 20.767-11.917z" fill="#ebebeb"/></g></g><g><path d="m423.916 119.29c-1.563-3.835-5.938-5.678-9.776-4.115-3.835 1.563-5.678 5.94-4.114 9.776 2.266 5.559 3.415 11.457 3.415 17.529v308.05c0 25.624-20.842 46.47-46.46 46.47h-221.951c-25.624 0-46.47-20.847-46.47-46.47v-308.05c0-25.618 20.846-46.46 46.47-46.46h11.21c4.142 0 7.5-3.358 7.5-7.5v-9.02c0-17.297 14.072-31.37 31.37-31.37h7.931v15h-2.901c-11.8 0-21.4 9.6-21.4 21.4 0 11.794 9.6 21.39 21.4 21.39h111.73c5.711 0 11.082-2.226 15.123-6.267s6.267-9.412 6.267-15.124c0-11.8-9.595-21.4-21.39-21.4h-2.907v-15h7.927c17.297 0 31.37 14.073 31.37 31.37v9.02c0 4.142 3.358 7.5 7.5 7.5h11.22c8.321 0 16.476 2.222 23.582 6.425 1.198.709 2.513 1.046 3.811 1.046 2.564 0 5.062-1.316 6.462-3.683 2.109-3.565.929-8.165-2.637-10.273-9.417-5.571-20.212-8.515-31.218-8.515h-3.72v-1.519c0-25.568-20.801-46.37-46.37-46.37h-7.927v-25.63c0-4.142-3.358-7.5-7.5-7.5h-90.922c-4.142 0-7.5 3.358-7.5 7.5v25.63h-7.931c-25.568 0-46.37 20.802-46.37 46.37v1.52h-3.71c-33.895 0-61.47 27.571-61.47 61.46v308.05c0 33.895 27.575 61.47 61.47 61.47h221.95c33.889 0 61.46-27.576 61.46-61.47v-308.05c0-8.022-1.523-15.825-4.524-23.19zm-230.176-34.76c0-3.529 2.871-6.4 6.4-6.4h2.901v12.79h-2.901c-3.529 0-6.4-2.867-6.4-6.39zm118.13-6.4c3.523 0 6.39 2.871 6.39 6.4 0 1.705-.665 3.309-1.873 4.517s-2.812 1.873-4.517 1.873h-2.907v-12.79zm-17.907-63.13v75.92h-75.922v-75.92z"/><path d="m248.502 355.591c0 4.142 3.358 7.5 7.5 7.5s7.5-3.358 7.5-7.5c0-21.076 17.147-38.223 38.223-38.223h68.654c4.142 0 7.5-3.358 7.5-7.5v-158.049c0-4.142-3.358-7.5-7.5-7.5h-68.654c-19.408 0-36.424 10.444-45.723 26.004-9.299-15.561-26.315-26.004-45.724-26.004h-68.654c-4.142 0-7.5 3.358-7.5 7.5v158.048c0 4.142 3.358 7.5 7.5 7.5h68.654c21.077.001 38.224 17.148 38.224 38.224zm53.224-196.272h61.154v143.048h-61.154c-14.985 0-28.541 6.23-38.223 16.231v-121.056c-.001-21.076 17.146-38.223 38.223-38.223zm-152.601 0h61.154c21.077 0 38.224 17.147 38.224 38.223v121.056c-9.682-10-23.238-16.231-38.224-16.231h-61.154z"/><path d="m179.146 204.076h35.773c4.142 0 7.5-3.358 7.5-7.5s-3.358-7.5-7.5-7.5h-35.773c-4.142 0-7.5 3.358-7.5 7.5s3.357 7.5 7.5 7.5z"/><path d="m179.146 229.839h35.773c4.142 0 7.5-3.358 7.5-7.5s-3.358-7.5-7.5-7.5h-35.773c-4.142 0-7.5 3.358-7.5 7.5s3.357 7.5 7.5 7.5z"/><path d="m179.146 255.604h35.773c4.142 0 7.5-3.358 7.5-7.5s-3.358-7.5-7.5-7.5h-35.773c-4.142 0-7.5 3.358-7.5 7.5s3.357 7.5 7.5 7.5z"/><path d="m297.086 204.076h35.773c4.142 0 7.5-3.358 7.5-7.5s-3.358-7.5-7.5-7.5h-35.773c-4.142 0-7.5 3.358-7.5 7.5s3.358 7.5 7.5 7.5z"/><path d="m297.086 229.839h35.773c4.142 0 7.5-3.358 7.5-7.5s-3.358-7.5-7.5-7.5h-35.773c-4.142 0-7.5 3.358-7.5 7.5s3.358 7.5 7.5 7.5z"/><path d="m297.086 255.604h35.773c4.142 0 7.5-3.358 7.5-7.5s-3.358-7.5-7.5-7.5h-35.773c-4.142 0-7.5 3.358-7.5 7.5s3.358 7.5 7.5 7.5z"/><path d="m222.418 273.867c0-4.142-3.358-7.5-7.5-7.5h-35.773c-4.142 0-7.5 3.358-7.5 7.5s3.358 7.5 7.5 7.5h35.773c4.143 0 7.5-3.358 7.5-7.5z"/><path d="m297.086 281.367h35.773c4.142 0 7.5-3.358 7.5-7.5s-3.358-7.5-7.5-7.5h-35.773c-4.142 0-7.5 3.358-7.5 7.5s3.358 7.5 7.5 7.5z"/><path d="m403.17 382.82c0-4.142-3.358-7.5-7.5-7.5h-202.96c-4.142 0-7.5 3.358-7.5 7.5s3.358 7.5 7.5 7.5h202.96c4.142 0 7.5-3.358 7.5-7.5z"/><path d="m116.33 375.32c-4.142 0-7.5 3.358-7.5 7.5s3.358 7.5 7.5 7.5h41.38c4.142 0 7.5-3.358 7.5-7.5s-3.358-7.5-7.5-7.5z"/><path d="m322.843 410.233h-133.686c-4.142 0-7.5 3.358-7.5 7.5s3.358 7.5 7.5 7.5h133.686c4.142 0 7.5-3.358 7.5-7.5s-3.358-7.5-7.5-7.5z"/><path d="m322.843 445.15h-133.686c-4.142 0-7.5 3.358-7.5 7.5s3.358 7.5 7.5 7.5h133.686c4.142 0 7.5-3.358 7.5-7.5s-3.358-7.5-7.5-7.5z"/></g></g></svg>