<svg id="Capa_1" enable-background="new 0 0 512 512" height="512" viewBox="0 0 512 512" width="512" xmlns="http://www.w3.org/2000/svg"><g><g><ellipse cx="255.999" cy="468.148" fill="#ebebeb" rx="109.621" ry="36.352"/><path d="m441.518 193.021c0-102.581-83.258-185.717-185.886-185.518-102.39.198-185.778 84.295-185.148 186.683.417 67.778 37.183 126.928 91.785 158.955 29.219 17.139 49.405 46.263 54.272 79.787l.179 1.231c2.833 19.514 19.561 33.99 39.28 33.99 19.718 0 36.447-14.476 39.28-33.99l.179-1.236c4.829-33.263 24.566-62.517 53.627-79.406 55.269-32.121 92.432-91.965 92.432-160.496z" fill="#fe646f"/><path d="m268.469 466.148c-3.94 1.3-8.13 2-12.47 2-19.72 0-36.45-14.48-39.28-33.99l-.18-1.23c-4.87-33.53-25.05-62.65-54.27-79.79-54.6-32.03-91.37-91.18-91.79-158.959-.629-102.379 82.761-186.478 185.15-186.678 4.31-.01 8.59.13 12.83.42-96.77 6.49-173.639 87.949-173.039 186.259.42 67.78 37.19 126.929 91.79 158.959 29.22 17.14 49.4 46.26 54.27 79.79l.18 1.23c2.209 15.219 12.869 27.369 26.809 31.989z" fill="#fd4755"/><circle cx="255.999" cy="193.021" fill="#9be69d" r="128.576"/><path d="m285.922 318.101c-9.6 2.29-19.62 3.5-29.93 3.5-71.01 0-128.569-57.57-128.569-128.579s57.56-128.579 128.569-128.579c10.31 0 20.33 1.21 29.93 3.5-56.58 13.49-98.65 64.37-98.65 125.079s42.07 111.589 98.65 125.079z" fill="#6fd7a3"/><g><path d="m170.669 131.01h51.219c18.839 0 34.112 15.272 34.112 34.112 0-18.839 15.272-34.112 34.112-34.112h51.219v117.911h-51.219c-18.839 0-34.112 15.272-34.112 34.112 0-18.839-15.272-34.112-34.112-34.112h-51.219z" fill="#f8f6f6"/></g></g><g><path d="m255.999 56.945c-75.033 0-136.076 61.043-136.076 136.076s61.043 136.076 136.076 136.076c75.032 0 136.076-61.043 136.076-136.076 0-75.032-61.044-136.076-136.076-136.076zm0 257.152c-66.762 0-121.076-54.314-121.076-121.076 0-66.761 54.314-121.076 121.076-121.076s121.076 54.314 121.076 121.076-54.314 121.076-121.076 121.076z"/><path d="m402.018 66.782c-2.71-3.133-7.446-3.474-10.579-.764-3.132 2.71-3.474 7.447-.763 10.579 27.948 32.298 43.341 73.644 43.341 116.422 0 31.743-8.456 62.9-24.453 90.102-15.535 26.416-37.751 48.517-64.245 63.914-31.212 18.141-52.091 49.052-57.284 84.809l-.179 1.236c-1.114 7.661-4.947 14.663-10.797 19.719-5.849 5.062-13.328 7.85-21.062 7.85-15.882 0-29.578-11.851-31.859-27.577l-.179-1.219c-5.156-35.577-26.259-66.625-57.897-85.184-26.168-15.351-48.142-37.279-63.545-63.412-15.858-26.905-24.34-57.72-24.53-89.116-.292-47.524 18.097-92.399 51.782-126.358 33.672-33.944 78.375-52.69 125.874-52.783 40.649-.13 78.983 13.195 110.797 38.399 3.245 2.572 7.964 2.025 10.536-1.222s2.025-7.964-1.222-10.536c-34.5-27.332-76.07-41.698-120.142-41.641-51.517.101-99.99 20.422-136.492 57.222-36.515 36.813-56.45 85.472-56.133 137.014.206 34.04 9.407 67.457 26.607 96.641 16.696 28.326 40.513 52.094 68.878 68.733 25.843 15.158 43.641 39.796 49.557 68.265-9.539 1.492-18.417 3.419-26.454 5.766-3.976 1.161-6.259 5.325-5.098 9.301.956 3.275 3.949 5.4 7.196 5.4.696 0 1.403-.098 2.105-.302 7.602-2.219 16.067-4.04 25.214-5.445 6.099 19.279 24.276 33.055 45.005 33.055 11.339 0 22.305-4.087 30.874-11.506 6.658-5.755 11.525-13.236 14.138-21.551 39.315 6.026 57.108 18.32 57.108 25.557 0 10.068-35.073 28.85-102.12 28.85s-102.12-18.782-102.12-28.85c0-2.452 2.034-4.903 3.741-6.527 3-2.855 3.118-7.603.263-10.604s-7.603-3.117-10.604-.263c-6.942 6.607-8.4 13.105-8.4 17.393 0 9.337 6.462 22.611 37.247 32.82 21.448 7.113 49.814 11.03 79.874 11.03 30.063 0 58.431-3.917 79.877-11.03 30.782-10.209 37.243-23.483 37.243-32.82 0-18.704-25.689-33.542-69.157-40.283 5.903-28.583 23.466-53.083 48.895-67.863 28.718-16.689 52.798-40.646 69.638-69.279 17.352-29.504 26.523-63.291 26.523-97.706 0-46.381-16.692-91.213-46.999-126.236z"/><path d="m290.11 123.51c-14.098 0-26.581 7.047-34.111 17.805-7.53-10.757-20.014-17.805-34.112-17.805h-51.219c-4.142 0-7.5 3.358-7.5 7.5v117.911c0 4.142 3.358 7.5 7.5 7.5h51.219c14.674 0 26.612 11.938 26.612 26.611 0 4.142 3.358 7.5 7.5 7.5 4.143 0 7.5-3.358 7.5-7.5 0-14.673 11.938-26.611 26.611-26.611h51.219c4.143 0 7.5-3.358 7.5-7.5v-117.911c0-4.142-3.357-7.5-7.5-7.5zm-68.223 117.911h-43.719v-102.911h43.719c14.674 0 26.612 11.938 26.612 26.611v85.968c-7.22-6.025-16.494-9.668-26.612-9.668zm111.942 0h-43.719c-10.117 0-19.391 3.643-26.611 9.668v-85.968c0-14.673 11.938-26.611 26.611-26.611h43.719z"/><path d="m225.349 156.9h-26.688c-4.142 0-7.5 3.358-7.5 7.5s3.358 7.5 7.5 7.5h26.688c4.142 0 7.5-3.358 7.5-7.5s-3.358-7.5-7.5-7.5z"/><path d="m225.349 182.867h-26.688c-4.142 0-7.5 3.358-7.5 7.5s3.358 7.5 7.5 7.5h26.688c4.142 0 7.5-3.358 7.5-7.5s-3.358-7.5-7.5-7.5z"/><path d="m225.349 208.834h-26.688c-4.142 0-7.5 3.358-7.5 7.5s3.358 7.5 7.5 7.5h26.688c4.142 0 7.5-3.358 7.5-7.5s-3.358-7.5-7.5-7.5z"/><path d="m279.149 164.4c0 4.142 3.357 7.5 7.5 7.5h26.688c4.143 0 7.5-3.358 7.5-7.5s-3.357-7.5-7.5-7.5h-26.688c-4.142 0-7.5 3.358-7.5 7.5z"/><path d="m313.338 182.867h-26.688c-4.143 0-7.5 3.358-7.5 7.5s3.357 7.5 7.5 7.5h26.688c4.143 0 7.5-3.358 7.5-7.5s-3.358-7.5-7.5-7.5z"/><path d="m313.338 208.834h-26.688c-4.143 0-7.5 3.358-7.5 7.5s3.357 7.5 7.5 7.5h26.688c4.143 0 7.5-3.358 7.5-7.5s-3.358-7.5-7.5-7.5z"/></g></g></svg>