<svg id="Capa_1" enable-background="new 0 0 512 512" height="512" viewBox="0 0 512 512" width="512" xmlns="http://www.w3.org/2000/svg"><g><g><g><path d="m441.455 22.799v435.819l-340.334 14.036-30.587 1.263v-435.82c0-16.895 13.691-30.597 30.587-30.597h325.035c4.237 0 8.056 1.722 10.822 4.487 2.765 2.776 4.477 6.596 4.477 10.812z" fill="#9be69d"/><path d="m441.455 22.799v87.251c-1.482.073-2.974.104-4.477.104-54.223 0-98.177-43.955-98.177-98.167 0-1.503.031-3.005.104-4.487h87.251c4.237 0 8.056 1.722 10.822 4.487 2.765 2.776 4.477 6.596 4.477 10.812z" fill="#ffe177"/><path d="m101.124 7.505v465.151l-30.59 1.256v-435.817c.001-16.89 13.69-30.59 30.59-30.59z" fill="#6fd7a3"/><path d="m436.981 478.39c2.764 2.775 4.479 6.599 4.479 10.815 0 8.445-6.85 15.295-15.295 15.295h-325.036c-8.445 0-16.092-3.431-21.631-8.958-5.539-5.539-8.958-13.186-8.958-21.631 0-16.89 13.689-30.59 30.59-30.59h325.036c4.228 0 8.052 1.715 10.816 4.479 2.764 2.775 4.479 6.599 4.479 10.815 0 8.445-6.85 15.295-15.295 15.295 4.227 0 8.051 1.716 10.815 4.48z" fill="#ebebeb"/></g><path d="m107.362 129.773h297.579v277.022h-297.579z" fill="#ebebeb"/><path d="m342.088 371.543c0 13.368-4.706 25.64-12.554 35.251h-222.172v-219.991c8.15-15.841 24.659-26.673 43.704-26.673h100.598c13.566 0 25.849 5.5 34.74 14.38 8.891 8.891 14.391 21.174 14.391 34.74 0 12.742-4.852 24.346-12.815 33.081 10.696 2.661 20.015 8.818 26.652 17.187 6.637 8.38 10.603 18.972 10.603 30.482 0 12.471-4.654 23.845-12.303 32.507 8.682 4.727 15.977 11.698 21.09 20.13s8.066 18.325 8.066 28.906z" fill="#fe9738"/><path d="m199.883 174.51c-8.891 8.891-14.391 21.174-14.391 34.74 0 12.742 4.853 24.346 12.815 33.081-10.696 2.661-20.015 8.818-26.652 17.187-6.637 8.38-10.602 18.972-10.602 30.482 0 12.471 4.654 23.845 12.303 32.507-8.682 4.727-15.977 11.698-21.09 20.13s-8.067 18.325-8.067 28.906c0 13.368 4.706 25.64 12.554 35.251h-49.391v-219.991c8.15-15.841 24.659-26.673 43.704-26.673h83.557c-13.566 0-25.849 5.499-34.74 14.38z" fill="#fe7d43"/><path d="m268.131 282.402v30.816c0 36.87-29.889 66.759-66.759 66.759s-66.769-29.889-66.769-66.759c36.88 0 66.769-29.899 66.769-66.769v-30.816c18.43 0 35.13 7.475 47.207 19.552 12.077 12.087 19.552 28.777 19.552 47.217z" fill="#ffdfcf"/><path d="m226.362 375.132c-7.712 3.131-16.144 4.842-24.983 4.842-36.869 0-66.777-29.887-66.777-66.756 19.89 0 37.745-8.693 49.976-22.488v22.488c0 28.04 17.282 52.031 41.784 61.914z" fill="#ffcebf"/></g><g><path d="m448.96 458.616c0-.003 0-.007 0-.01v-378.916c0-4.142-3.358-7.5-7.5-7.5s-7.5 3.358-7.5 7.5v22.909c-47.607-1.565-86.041-39.997-87.604-87.599h79.814c2.079 0 4.034.811 5.498 2.274 1.479 1.483 2.292 3.446 2.292 5.526v21.89c0 4.142 3.358 7.5 7.5 7.5s7.5-3.358 7.5-7.5v-21.89c0-6.077-2.368-11.799-6.677-16.123-4.305-4.306-10.028-6.677-16.113-6.677h-325.04c-21.003 0-38.09 17.087-38.09 38.09v435.802.019c0 10.176 3.962 19.741 11.161 26.939 7.205 7.19 16.768 11.15 26.929 11.15h325.036c12.569 0 22.795-10.226 22.795-22.795 0-5.701-2.087-11.093-5.9-15.302 3.664-4.047 5.899-9.411 5.899-15.287zm-347.83-443.616h230.217c1.573 55.875 46.735 101.033 102.614 102.608v319.602c-2.468-.897-5.09-1.39-7.794-1.39h-325.038c-8.676 0-16.678 2.921-23.089 7.824v-405.554c0-12.732 10.358-23.09 23.09-23.09zm325.036 482h-325.037c-6.16 0-11.96-2.403-16.328-6.762-4.359-4.359-6.76-10.155-6.761-16.323 0-.002 0-.003 0-.005v-.019c.01-12.723 10.364-23.071 23.089-23.071h325.036c2.083 0 4.04.811 5.502 2.272 1.476 1.482 2.29 3.439 2.292 5.512v.014.003c-.004 4.295-3.499 7.788-7.795 7.788h-317.155c-4.142 0-7.5 3.358-7.5 7.5s3.358 7.5 7.5 7.5h317.156c2.083 0 4.041.811 5.512 2.282 1.473 1.483 2.283 3.44 2.283 5.513 0 4.299-3.496 7.796-7.794 7.796z"/><path d="m107.36 414.3h31.89c4.142 0 7.5-3.358 7.5-7.5s-3.358-7.5-7.5-7.5h-24.39v-210.549c7.397-13.062 21.105-21.121 36.206-21.121h100.599c11.117 0 21.572 4.328 29.437 12.184 7.863 7.863 12.194 18.317 12.194 29.437 0 10.394-3.856 20.348-10.857 28.028-1.78 1.952-2.401 4.697-1.636 7.225.765 2.529 2.804 4.468 5.368 5.106 8.864 2.205 16.885 7.379 22.584 14.566 5.875 7.418 8.981 16.349 8.981 25.825 0 10.148-3.702 19.93-10.425 27.542-1.511 1.711-2.161 4.018-1.765 6.266.396 2.249 1.795 4.194 3.8 5.286 3.789 2.063 7.271 4.622 10.364 7.587h-8.383c-4.142 0-7.5 3.358-7.5 7.5s3.358 7.5 7.5 7.5h18.973c1.84 4.076 3.108 8.386 3.759 12.815h-42.513c-4.142 0-7.5 3.358-7.5 7.5s3.358 7.5 7.5 7.5h42.373c-1.192 7.107-3.968 13.893-8.122 19.804h-151.547c-4.142 0-7.5 3.358-7.5 7.5s3.358 7.5 7.5 7.5h230.69c4.142 0 7.5-3.358 7.5-7.5v-277.021c0-4.142-3.358-7.5-7.5-7.5h-297.58c-4.142 0-7.5 3.358-7.5 7.5v277.02c0 4.142 3.358 7.5 7.5 7.5zm290.08-277.02v262.02h-54.287c3.033-6.22 5.049-12.915 5.926-19.804h28.876c4.142 0 7.5-3.358 7.5-7.5s-3.358-7.5-7.5-7.5h-28.767c-.488-4.366-1.429-8.66-2.801-12.815h31.568c4.142 0 7.5-3.358 7.5-7.5s-3.358-7.5-7.5-7.5h-38.845c-4.127-6.245-9.318-11.714-15.325-16.137 5.815-9.067 8.95-19.649 8.95-30.544 0-12.893-4.227-25.043-12.226-35.142-5.479-6.91-12.538-12.451-20.468-16.165 5.372-8.809 8.254-18.961 8.254-29.444 0-15.125-5.891-29.347-16.59-40.046-10.7-10.688-24.92-16.574-40.04-16.574h-100.6c-13.521 0-26.228 4.745-36.206 13.052v-28.401z"/><path d="m275.63 313.218v-30.816c0-19.832-7.723-38.483-21.749-52.52-14.024-14.025-32.673-21.749-52.51-21.749-4.142 0-7.5 3.358-7.5 7.5v30.816c0 32.681-26.588 59.269-59.269 59.269-4.142 0-7.5 3.358-7.5 7.5 0 40.946 33.317 74.259 74.269 74.259 40.947 0 74.259-33.313 74.259-74.259zm-133.107 7.08c37.243-3.965 66.348-35.572 66.348-73.85v-22.848c12.99 1.63 24.999 7.483 34.401 16.887 11.193 11.202 17.357 26.088 17.357 41.916v30.816c0 32.675-26.583 59.259-59.259 59.259-30.284-.001-55.337-22.829-58.847-52.18z"/><path d="m227.685 309.677c6.846 0 13.282-2.666 18.123-7.507 2.929-2.929 2.929-7.678 0-10.606-2.929-2.929-7.678-2.929-10.606 0-2.008 2.008-4.677 3.113-7.517 3.113s-5.509-1.105-7.517-3.113c-2.929-2.929-7.678-2.929-10.606 0-2.929 2.929-2.929 7.678 0 10.606 4.841 4.841 11.277 7.507 18.123 7.507z"/><path d="m216.47 334.004c0-4.142-3.358-7.5-7.5-7.5h-15.206c-4.142 0-7.5 3.358-7.5 7.5s3.358 7.5 7.5 7.5h15.206c4.142 0 7.5-3.358 7.5-7.5z"/><path d="m325.901 202.514h52.054c4.142 0 7.5-3.358 7.5-7.5s-3.358-7.5-7.5-7.5h-52.054c-4.142 0-7.5 3.358-7.5 7.5s3.358 7.5 7.5 7.5z"/><path d="m377.955 215.623h-33.314c-4.142 0-7.5 3.358-7.5 7.5s3.358 7.5 7.5 7.5h33.314c4.142 0 7.5-3.358 7.5-7.5s-3.358-7.5-7.5-7.5z"/><path d="m193.832 105.242c3.873 1.476 8.204-.469 9.678-4.339l3.685-9.674h25.284l3.643 9.653c1.134 3.003 3.987 4.854 7.019 4.854.88 0 1.775-.156 2.646-.485 3.875-1.462 5.832-5.79 4.369-9.665l-21.979-58.242c-.026-.069-.053-.138-.082-.207-1.369-3.327-4.577-5.475-8.173-5.475-.003 0-.007 0-.011 0-3.601.004-6.808 2.161-8.171 5.494-.023.056-.045.112-.066.168l-22.181 58.239c-1.474 3.872.468 8.205 4.339 9.679zm26.063-47.36 6.924 18.346h-13.911z"/><path d="m110.48 105.152c4.075.733 7.978-1.972 8.713-6.049l5.759-31.908 9.515 32.25c.026.089.054.178.084.267 1.211 3.606 4.573 6.021 8.374 6.021h.047c3.82-.02 7.178-2.475 8.357-6.108.028-.085.054-.172.079-.258l9.185-32.222 6.123 32.035c.778 4.069 4.708 6.738 8.774 5.959 4.069-.777 6.736-4.706 5.959-8.774l-11.015-57.632c-.801-3.928-4.155-6.83-8.158-7.056-4.012-.229-7.663 2.28-8.901 6.093-.028.086-.054.172-.079.259l-10.472 36.734-10.86-36.81c-.026-.089-.054-.177-.083-.265-1.276-3.803-4.957-6.273-8.965-6.003-4.002.268-7.327 3.206-8.101 7.23l-10.382 57.524c-.737 4.077 1.971 7.978 6.047 8.713z"/><path d="m287.565 105.733c19.428 0 32.997-15.229 32.997-37.036 0-4.142-3.358-7.5-7.5-7.5h-17.671c-4.142 0-7.5 3.358-7.5 7.5s3.358 7.5 7.5 7.5h9.285c-1.903 7.723-7.048 14.536-17.111 14.536-12.15 0-22.036-9.885-22.036-22.036s9.885-22.036 22.036-22.036c4.417 0 8.675 1.3 12.315 3.759 3.433 2.319 8.095 1.416 10.414-2.016 2.319-3.433 1.416-8.095-2.016-10.414-6.129-4.141-13.292-6.329-20.712-6.329-20.421 0-37.036 16.614-37.036 37.036s16.614 37.036 37.035 37.036z"/></g></g></svg>