<svg id="Capa_1" enable-background="new 0 0 512 512" height="512" viewBox="0 0 512 512" width="512" xmlns="http://www.w3.org/2000/svg"><g><g><g><path d="m328.18 18.526v61.598l.001 233.597c0 6.432-5.215 11.647-11.647 11.647h-200.152c-23.099 0-41.825-18.726-41.825-41.825v-233.849" fill="#ffe177"/><path d="m114.048 79.918h192.077v-60.763h-197.01c-9.12 0-16.513 7.393-16.513 16.513v22.804c0 11.844 9.602 21.446 21.446 21.446z" fill="#ebebeb"/><g fill="#ffe177"><path d="m116.386 325.365v-234.218h-.008c-23.092 0-41.821-18.721-41.821-41.821v234.218c0 23.092 18.729 41.821 41.829 41.821z"/><path d="m328.18 77.086c0-7.768-6.297-14.065-14.065-14.065h-196.999c-3.841 0-7.645-1.614-10.438-4.429-1.506-1.518-4.027-4.754-3.991-9.377.029-3.613 1.451-7.007 4.005-9.559 1.521-1.524 4.755-4.027 9.687-4.027h197.736c7.768 0 14.065-6.297 14.065-14.065 0-7.768-6.297-14.065-14.065-14.065h-197.736c-11.546 0-22.005 4.678-29.566 12.255-7.504 7.496-12.165 17.82-12.254 29.241-.181 23.185 19.371 42.154 42.557 42.154h196.999c7.768.002 14.065-6.295 14.065-14.063z"/></g></g><g><path d="m419.155 102.177v61.598l.001 233.597c0 6.432-5.215 11.647-11.647 11.647h-200.152c-23.099 0-41.825-18.726-41.825-41.825v-233.849" fill="#60b7ff"/><path d="m205.023 163.569h192.077v-60.763h-197.01c-9.12 0-16.513 7.393-16.513 16.513v22.804c0 11.844 9.602 21.446 21.446 21.446z" fill="#ebebeb"/><g fill="#26a6fe"><path d="m207.361 409.016v-234.218h-.008c-23.092 0-41.821-18.721-41.821-41.822v234.218c0 23.093 18.729 41.822 41.829 41.822z"/><path d="m419.155 160.737c0-7.768-6.297-14.065-14.065-14.065h-196.999c-3.841 0-7.645-1.614-10.438-4.429-1.506-1.518-4.027-4.754-3.991-9.377.029-3.613 1.451-7.007 4.005-9.559 1.521-1.524 4.755-4.027 9.687-4.027h197.736c7.768 0 14.065-6.297 14.065-14.065 0-7.768-6.297-14.065-14.065-14.065h-197.737c-11.546 0-22.005 4.678-29.566 12.255-7.504 7.496-12.165 17.82-12.254 29.241-.181 23.185 19.371 42.154 42.557 42.154h197c7.768.002 14.065-6.295 14.065-14.063z"/></g></g><path d="m461.24 300.55-4.12 28.6-20.13 139.68c-2.94 20.47-20.49 35.67-41.17 35.67h-279.64c-20.68 0-38.23-15.2-41.17-35.67l-20.13-139.68-4.12-28.6 81.75-44.56h271.35z" fill="#fd8087"/><path d="m461.24 300.55-4.12 28.6h-402.24l-4.12-28.6 81.75-44.56h271.35z" fill="#fe646f"/><path d="m178.704 504.5h-62.52c-20.68 0-38.23-15.19-41.17-35.67l-24.25-168.28 81.75-44.56h62.52l-81.75 44.56 24.24 168.28c2.95 20.48 20.5 35.67 41.18 35.67z" fill="#fe646f"/><path d="m476.707 300.547h-441.414c-15.35 0-27.793-12.443-27.793-27.793v-24.223c0-15.35 12.443-27.793 27.793-27.793h441.414c15.35 0 27.793 12.443 27.793 27.793v24.223c0 15.35-12.443 27.793-27.793 27.793z" fill="#fd8087"/><path d="m110.28 300.551h-74.99c-15.35 0-27.79-12.45-27.79-27.8v-24.22c0-15.35 12.44-27.79 27.79-27.79h74.99c-15.35 0-27.79 12.44-27.79 27.79v24.22c0 15.349 12.44 27.8 27.79 27.8z" fill="#fe646f"/><g><g><path d="m20.352 428.931c-12.467-12.467-12.467-32.68 0-45.147l130.945-130.945c12.467-12.467 32.68-12.467 45.147 0 12.467 12.467 12.467 32.68 0 45.147l-130.945 130.945c-12.467 12.467-32.68 12.467-45.147 0z" fill="#7a6d79"/><path d="m31.117 436.022c-3.917-1.556-7.594-3.917-10.769-7.092-12.466-12.466-12.466-32.675.007-45.149l130.942-130.942c12.466-12.466 32.676-12.466 45.142 0 3.175 3.175 5.537 6.852 7.092 10.769-11.476-4.561-25.074-2.192-34.365 7.1l-130.943 130.942c-9.298 9.298-11.667 22.896-7.106 34.372z" fill="#685e68"/></g><g><path d="m491.651 428.931c-12.467 12.467-32.68 12.467-45.147 0l-130.945-130.945c-12.467-12.467-12.467-32.68 0-45.147 12.467-12.467 32.68-12.467 45.147 0l130.945 130.945c12.467 12.467 12.467 32.68 0 45.147z" fill="#7a6d79"/><path d="m498.742 418.166c-1.556 3.917-3.917 7.594-7.092 10.769-12.466 12.466-32.675 12.466-45.149-.007l-130.942-130.942c-12.466-12.466-12.466-32.676 0-45.142 3.175-3.175 6.852-5.537 10.769-7.092-4.561 11.476-2.192 25.074 7.1 34.365l130.941 130.943c9.299 9.298 22.896 11.667 34.373 7.106z" fill="#685e68"/></g></g></g><path d="m476.71 308.05c19.459 0 35.29-15.835 35.29-35.3v-24.22c0-19.459-15.831-35.29-35.29-35.29h-50.06v-107.948c0-.026.004-.051.004-.077 0-11.891-9.674-21.564-21.564-21.564h-69.41v-62.087c0-11.89-9.674-21.564-21.565-21.564h-197.736c-13.187 0-25.572 5.134-34.867 14.449-9.219 9.209-14.352 21.458-14.453 34.489-.001.192.009.383.01.575-.002.06-.009 105.837-.009 105.837 0 4.142 3.357 7.5 7.5 7.5s7.5-3.358 7.5-7.5v-17.312c7.187 6.974 16.475 11.794 26.82 13.379v61.823h-26.82v-22.89c0-4.142-3.357-7.5-7.5-7.5s-7.5 3.358-7.5 7.5v22.89h-31.77c-19.459 0-35.29 15.831-35.29 35.29v24.22c0 19.464 15.831 35.3 35.29 35.3h8.972l5.189 36.028-34.401 34.402c-7.447 7.446-11.548 17.346-11.548 27.877s4.101 20.431 11.547 27.877c7.686 7.686 17.781 11.528 27.877 11.528 7.067 0 14.13-1.89 20.37-5.655l4.29 29.789c3.448 24.003 24.339 42.104 48.594 42.104h233.27c4.143 0 7.5-3.358 7.5-7.5s-3.357-7.5-7.5-7.5h-233.27c-16.844 0-31.352-12.569-33.746-29.239l-5.685-39.473 120.239-120.238h118.027l120.236 120.236-5.685 39.478c-2.394 16.667-16.902 29.236-33.746 29.236h-11.37c-4.143 0-7.5 3.358-7.5 7.5s3.357 7.5 7.5 7.5h11.37c24.255 0 45.146-18.101 48.594-42.101l4.291-29.793c6.241 3.767 13.305 5.657 20.373 5.657 10.096 0 20.191-3.843 27.876-11.528 7.447-7.446 11.548-17.346 11.548-27.877s-4.101-20.431-11.547-27.877l-34.405-34.406 5.189-36.025zm-261.85-94.81v-30.938h190.23c2.288 0 4.49-.365 6.561-1.028v31.966zm-41.83-45.26c7.378 7.164 16.821 11.911 26.83 13.611v31.649h-26.83zm35.061-28.808c-1.828 0-3.739-.827-5.114-2.212-.685-.689-1.829-2.129-1.814-4.035.013-1.653.637-3.145 1.814-4.32.83-.832 2.264-1.824 4.377-1.824h182.247v12.392h-181.51zm196.51-12.392h.489c2.288 0 4.49-.365 6.561-1.028v14.448c-2.071-.663-4.273-1.028-6.561-1.028h-.489zm7.053-21.565c0 3.62-2.944 6.565-6.564 6.565h-197.736c-7.64 0-12.675 3.903-14.987 6.221-3.957 3.953-6.16 9.211-6.204 14.806-.058 7.342 3.84 12.374 6.168 14.718 4.19 4.224 9.936 6.646 15.761 6.646h196.998c3.594 0 6.519 2.904 6.561 6.488v.154c-.042 3.584-2.967 6.488-6.561 6.488h-196.999c-9.301 0-18.443-3.837-25.082-10.528-6.503-6.554-10.046-15.101-9.976-24.067.07-9.066 3.642-17.587 10.062-24.002 6.469-6.482 15.084-10.053 24.258-10.053h106.762 90.975c3.62 0 6.564 2.945 6.564 6.564zm-294.538-49.694c-1.828 0-3.74-.827-5.114-2.211-.684-.69-1.829-2.131-1.814-4.036.013-1.654.637-3.145 1.814-4.321.83-.832 2.264-1.824 4.377-1.824h182.247v12.392zm196.51-12.392h.489c2.289 0 4.493-.365 6.564-1.029v14.451c-2.072-.664-4.275-1.029-6.564-1.029h-.489zm-221.505-18.076c6.469-6.483 15.084-10.053 24.258-10.053h197.736c3.62 0 6.564 2.945 6.564 6.564 0 3.62-2.944 6.565-6.564 6.565h-197.736c-7.64 0-12.675 3.903-14.987 6.221-3.957 3.953-6.16 9.211-6.204 14.807-.058 7.339 3.839 12.371 6.167 14.718 4.191 4.224 9.937 6.646 15.762 6.646h196.999c3.62 0 6.564 2.945 6.564 6.564 0 3.62-2.944 6.564-6.564 6.564h-106.762-90.237c-9.301 0-18.443-3.837-25.082-10.528-6.503-6.554-10.046-15.101-9.976-24.067.07-9.065 3.641-17.586 10.062-24.001zm-10.061 77.724v-18.444c7.375 7.16 16.816 11.905 26.82 13.606v38.212c-15.293-3.425-26.766-17.076-26.82-33.374zm41.82-4.126h48.081c-8.881 9.145-13.828 21.162-13.927 33.938-.002.255-.003 80.651-.003 80.651h-34.15v-114.589zm-108.88 174.099v-24.22c0-11.188 9.103-20.29 20.29-20.29h441.42c11.188 0 20.29 9.102 20.29 20.29v24.22c0 11.193-9.103 20.3-20.29 20.3h-65.186l-45.514-45.514c-15.371-15.371-40.382-15.371-55.755 0-12.293 12.294-14.743 30.751-7.372 45.514h-93.763c7.371-14.763 4.921-33.22-7.373-45.515-15.371-15.37-40.383-15.371-55.754 0l-45.514 45.514h-65.189c-11.187.001-20.29-9.106-20.29-20.299zm44.418 35.3h26.062l-22.781 22.781zm.777 115.578c-9.521 9.522-25.018 9.522-34.539 0h-.001c-4.613-4.613-7.153-10.747-7.153-17.271s2.54-12.657 7.154-17.271l130.944-130.945c4.761-4.761 11.016-7.142 17.27-7.142 6.255 0 12.509 2.38 17.271 7.142 9.522 9.523 9.522 25.018 0 34.541zm433.306-17.271c0 6.524-2.54 12.657-7.153 17.271-.001 0-.001 0-.001 0-4.612 4.613-10.746 7.153-17.27 7.153s-12.657-2.541-17.27-7.153l-130.945-130.945c-9.522-9.523-9.522-25.018-.001-34.541 4.763-4.762 11.016-7.142 17.271-7.142 6.254 0 12.509 2.381 17.27 7.142l130.945 130.945c4.614 4.613 7.154 10.746 7.154 17.27zm-44.2-75.53-22.778-22.778h26.058z"/></g></svg>