<svg id="Capa_1" enable-background="new 0 0 512 512" height="512" viewBox="0 0 512 512" width="512" xmlns="http://www.w3.org/2000/svg"><g><g><path d="m83.623 264.257c-3.547 0-7.106-1.25-9.965-3.792-6.189-5.506-6.744-14.987-1.238-21.177l172.372-193.778c5.508-6.19 14.988-6.743 21.178-1.238 6.189 5.506 6.744 14.987 1.237 21.177l-172.371 193.778c-2.964 3.331-7.08 5.03-11.213 5.03z" fill="#c68d7a"/><path d="m428.377 264.257c-4.134 0-8.249-1.699-11.213-5.03l-172.371-193.777c-5.507-6.19-4.952-15.671 1.237-21.177 6.19-5.505 15.672-4.952 21.178 1.238l172.372 193.777c5.506 6.19 4.951 15.671-1.238 21.177-2.859 2.542-6.418 3.792-9.965 3.792z" fill="#c68d7a"/><path d="m469.01 492.677h-426.02c-19.6 0-35.49-15.889-35.49-35.49v-202.369c0-19.6 15.889-35.49 35.49-35.49h426.02c19.6 0 35.49 15.889 35.49 35.49v202.369c0 19.601-15.889 35.49-35.49 35.49z" fill="#9be69d"/><path d="m78.9 492.678h-35.91c-19.6 0-35.49-15.89-35.49-35.49v-202.37c0-19.6 15.89-35.49 35.49-35.49h35.91c-19.6 0-35.49 15.89-35.49 35.49v202.37c0 19.6 15.89 35.49 35.49 35.49z" fill="#6fd7a3"/><circle cx="256" cy="55.48" fill="#7a6d79" r="36.153"/><path d="m269.957 88.84c-4.29 1.8-9.01 2.8-13.96 2.8-19.97 0-36.15-16.19-36.15-36.16 0-19.96 16.18-36.15 36.15-36.15 4.95 0 9.67 1 13.96 2.8-13.03 5.46-22.18 18.34-22.18 33.35 0 15.02 9.15 27.89 22.18 33.36z" fill="#685e68"/></g><g><path d="m469.01 211.833h-43.818l-127.516-143.356c1.284-4.107 1.976-8.473 1.976-12.997 0-24.07-19.582-43.653-43.652-43.653s-43.652 19.583-43.652 43.653c0 4.523.692 8.888 1.975 12.994l-33.816 38.014c-2.753 3.095-2.477 7.835.619 10.588 1.429 1.271 3.208 1.896 4.981 1.896 2.067 0 4.125-.85 5.606-2.515l30.119-33.857c3.13 3.935 6.919 7.32 11.205 9.983l-106.078 119.25h-20.088l61.582-69.225c2.753-3.095 2.477-7.835-.618-10.588-3.096-2.753-7.836-2.475-10.589.619l-70.451 79.195h-43.805c-23.705 0-42.99 19.285-42.99 42.99v202.36c0 23.705 19.285 42.99 42.99 42.99h344.37c4.143 0 7.5-3.358 7.5-7.5s-3.357-7.5-7.5-7.5h-344.37c-15.434 0-27.99-12.556-27.99-27.99v-202.36c0-15.434 12.557-27.99 27.99-27.99h426.02c15.434 0 27.99 12.556 27.99 27.99v202.36c0 15.434-12.557 27.99-27.99 27.99h-46.65c-4.143 0-7.5 3.358-7.5 7.5s3.357 7.5 7.5 7.5h46.649c23.705 0 42.99-19.285 42.99-42.99v-202.36c.001-23.706-19.284-42.991-42.989-42.991zm-63.894 0h-20.075l-106.079-119.25c4.286-2.662 8.074-6.046 11.203-9.98zm-149.116-185.006c15.799 0 28.652 12.854 28.652 28.653s-12.854 28.652-28.652 28.652-28.652-12.854-28.652-28.652c0-15.799 12.853-28.653 28.652-28.653zm-8.041 71.551c2.608.488 5.294.755 8.041.755s5.433-.267 8.041-.755l100.924 113.455h-217.93z"/><path d="m359.019 304.079c-3.133.977-5.268 3.878-5.268 7.16v89.696c0 4.142 3.357 7.5 7.5 7.5s7.5-3.358 7.5-7.5v-65.637l46.976 68.023c2.352 3.399 6.216 4.864 9.845 3.729 3.736-1.167 6.15-4.756 6.15-9.216l-.84-86.835c-.04-4.117-3.39-7.427-7.498-7.427-.025 0-.05 0-.074 0-4.143.04-7.468 3.43-7.428 7.572l.648 66.944-49.107-71.111c-1.865-2.7-5.267-3.874-8.404-2.898z"/><path d="m327.52 319.391c4.143 0 7.5-3.358 7.5-7.5s-3.357-7.5-7.5-7.5h-37.519c-4.143 0-7.5 3.358-7.5 7.5v89.043c0 4.142 3.357 7.5 7.5 7.5h37.519c4.143 0 7.5-3.358 7.5-7.5s-3.357-7.5-7.5-7.5h-30.019v-29.521h27.252c4.143 0 7.5-3.358 7.5-7.5s-3.357-7.5-7.5-7.5h-27.252v-29.522z"/><path d="m202.951 400.935c0 4.142 3.357 7.5 7.5 7.5s7.5-3.358 7.5-7.5v-31.575c5.775-.032 13.519-.069 17.522-.069 18.393 0 33.355-14.741 33.355-32.859 0-18.119-14.963-32.86-33.355-32.86h-25.022c-1.993 0-3.904.793-5.312 2.205s-2.194 3.326-2.188 5.319zm32.523-82.364c9.949 0 18.355 8.179 18.355 17.86s-8.406 17.859-18.355 17.859c-3.982 0-11.62.037-17.391.068-.031-5.929-.091-29.618-.109-35.788h17.5z"/><path d="m185.142 356.003c0-28.911-23.521-52.432-52.432-52.432s-52.432 23.521-52.432 52.432 23.521 52.432 52.432 52.432 52.432-23.521 52.432-52.432zm-52.432 37.432c-20.64 0-37.432-16.792-37.432-37.432s16.792-37.432 37.432-37.432 37.432 16.792 37.432 37.432-16.792 37.432-37.432 37.432z"/><path d="m58.396 255.779c4.143 0 7.5-3.358 7.5-7.5s-3.357-7.5-7.5-7.5c-13.487 0-24.46 10.973-24.46 24.459 0 13.487 10.973 24.46 24.46 24.46h36.791c20.277 0 37.185-14.65 40.726-33.919h21.248c4.143 0 7.5-3.358 7.5-7.5s-3.357-7.5-7.5-7.5h-47.886c-20.277 0-37.186 14.65-40.727 33.919h-10.152c-5.216 0-9.46-4.244-9.46-9.46s4.244-9.459 9.46-9.459zm50.878 0h11.247c-3.24 10.926-13.372 18.919-25.335 18.919h-11.248c3.241-10.926 13.373-18.919 25.336-18.919z"/><path d="m453.604 274.698h-10.152c-3.541-19.269-20.45-33.919-40.727-33.919h-47.885c-4.143 0-7.5 3.358-7.5 7.5s3.357 7.5 7.5 7.5h21.248c3.541 19.269 20.449 33.919 40.726 33.919h36.791c13.487 0 24.46-10.973 24.46-24.46s-10.973-24.459-24.46-24.459c-4.143 0-7.5 3.358-7.5 7.5s3.357 7.5 7.5 7.5c5.216 0 9.46 4.244 9.46 9.459-.001 5.216-4.245 9.46-9.461 9.46zm-36.791 0c-11.963 0-22.095-7.993-25.335-18.919h11.247c11.964 0 22.096 7.993 25.336 18.919z"/><path d="m58.396 437.308h10.152c3.541 19.269 20.45 33.919 40.727 33.919h47.886c4.143 0 7.5-3.358 7.5-7.5s-3.357-7.5-7.5-7.5h-21.248c-3.541-19.269-20.449-33.919-40.726-33.919h-36.791c-13.487 0-24.46 10.973-24.46 24.46s10.973 24.459 24.46 24.459c4.143 0 7.5-3.358 7.5-7.5s-3.357-7.5-7.5-7.5c-5.216 0-9.46-4.244-9.46-9.459 0-5.216 4.244-9.46 9.46-9.46zm36.791 0c11.963 0 22.095 7.993 25.335 18.919h-11.247c-11.964 0-22.096-7.993-25.336-18.919z"/><path d="m354.84 471.227h47.886c20.277 0 37.186-14.65 40.727-33.919h10.152c5.216 0 9.46 4.244 9.46 9.46s-4.244 9.459-9.46 9.459c-4.143 0-7.5 3.358-7.5 7.5s3.357 7.5 7.5 7.5c13.487 0 24.46-10.973 24.46-24.459 0-13.487-10.973-24.46-24.46-24.46h-36.791c-20.277 0-37.185 14.65-40.726 33.919h-21.248c-4.143 0-7.5 3.358-7.5 7.5s3.357 7.5 7.5 7.5zm61.973-33.919h11.248c-3.24 10.926-13.372 18.919-25.336 18.919h-11.247c3.241-10.926 13.373-18.919 25.335-18.919z"/></g></g></svg>