<svg id="Capa_1" enable-background="new 0 0 511.998 511.998" height="512" viewBox="0 0 511.998 511.998" width="512" xmlns="http://www.w3.org/2000/svg"><g><g><g><path d="m503.934 53.464v122.677c0 10.147-8.23 18.378-18.378 18.378h-216.893c-10.147 0-18.378-8.231-18.378-18.378v-122.677c0-10.147 8.23-18.378 18.378-18.378h216.894c10.147.001 18.377 8.231 18.377 18.378z" fill="#bbf49b"/><g fill="#9be69d"><path d="m306.083 194.519h-37.421c-10.147 0-18.378-8.231-18.378-18.378v-37.421c30.819 0 55.799 24.981 55.799 55.799z"/><path d="m503.934 138.72v37.421c0 10.147-8.23 18.378-18.378 18.378h-37.421c.001-30.818 24.982-55.799 55.799-55.799z"/><path d="m503.934 53.464v37.421c-30.817 0-55.798-24.981-55.798-55.798h37.421c10.147 0 18.377 8.23 18.377 18.377z"/></g></g><g><g><path d="m242.481 494.306v-56.935l.001-215.913c0-5.946-4.82-10.765-10.765-10.765h-185c-21.351 0-38.659 17.308-38.659 38.659v216.146" fill="#60b7ff"/><path d="m44.56 437.562h177.536v56.163h-182.096c-8.429 0-15.263-6.833-15.263-15.263v-21.077c0-10.948 8.875-19.823 19.823-19.823z" fill="#ebebeb"/><g fill="#26a6fe"><path d="m46.721 210.696v216.486h-.007c-21.344 0-38.655 17.304-38.655 38.655v-216.485c0-21.345 17.311-38.656 38.662-38.656z"/><path d="m242.481 440.18c0 7.18-5.82 13-13 13h-182.086c-3.55 0-7.066 1.492-9.647 4.094-1.392 1.403-3.722 4.394-3.689 8.667.026 3.339 1.341 6.477 3.702 8.835 1.406 1.409 4.395 3.722 8.954 3.722h182.767c7.18 0 13 5.82 13 13 0 7.18-5.82 13-13 13h-182.768c-10.672 0-20.34-4.324-27.328-11.327-6.936-6.929-11.244-16.471-11.326-27.028-.167-21.43 17.905-38.963 39.336-38.963h182.086c7.179-.001 12.999 5.82 12.999 13z"/></g></g></g><g fill="#fe646f"><path d="m183.028 17.586h-60.883c-29.899 0-54.224 24.324-54.224 54.223v21.454h-16.136c-8.963 0-14.565 9.703-10.083 17.465l36.136 62.577c4.482 7.761 15.684 7.76 20.165 0l36.133-62.577c4.482-7.762-1.12-17.465-10.083-17.465h-16.133v-21.454c0-7.843 6.381-14.223 14.224-14.223h60.883c11.046 0 20-8.954 20-20s-8.953-20-19.999-20z"/><path d="m304.555 394.41h60.883c29.899 0 54.224-24.324 54.224-54.223v-21.454h16.136c8.963 0 14.565-9.703 10.083-17.465l-36.136-62.577c-4.482-7.761-15.684-7.76-20.165 0l-36.133 62.577c-4.482 7.762 1.12 17.465 10.083 17.465h16.133v21.454c0 7.843-6.381 14.223-14.224 14.223h-60.883c-11.046 0-20 8.954-20 20s8.953 20 19.999 20z"/></g><g><path d="m478.934 25.875v122.677c0 10.147-8.23 18.378-18.378 18.378h-216.893c-10.147 0-18.378-8.231-18.378-18.378v-122.677c0-10.147 8.23-18.378 18.378-18.378h216.894c10.147.001 18.377 8.231 18.377 18.378z" fill="#bbf49b"/><g fill="#9be69d"><path d="m281.083 166.93h-37.421c-10.147 0-18.378-8.231-18.378-18.378v-37.421c30.819 0 55.799 24.981 55.799 55.799z"/><path d="m281.083 7.498c0 30.817-24.981 55.798-55.798 55.798v-37.421c0-10.147 8.23-18.378 18.378-18.378h37.42z"/><path d="m478.934 111.131v37.421c0 10.147-8.23 18.378-18.378 18.378h-37.421c.001-30.818 24.982-55.799 55.799-55.799z"/><path d="m478.934 25.875v37.421c-30.817 0-55.798-24.981-55.798-55.798h37.421c10.147 0 18.377 8.23 18.377 18.377z"/><circle cx="352.111" cy="87.214" r="56.625"/></g></g></g><g><path d="m486.434 27.61v-1.733c0-14.269-11.607-25.877-25.876-25.877h-216.893c-14.269 0-25.876 11.608-25.876 25.876v122.675c0 13.975 11.137 25.39 25 25.854v1.732c0 14.27 11.61 25.88 25.88 25.88h216.89c14.271 0 25.881-11.61 25.881-25.88v-122.669c-.001-13.977-11.14-25.394-25.006-25.858zm10.005 25.858v29.329c-3.428-.532-6.769-1.435-10.005-2.701v-37.464c5.591.449 10.005 5.132 10.005 10.836zm-208.315 105.96c-3.432-28.915-26.421-51.905-55.336-55.337v-33.755c28.915-3.432 51.903-26.421 55.335-55.336h127.973c3.432 28.916 26.422 51.905 55.338 55.336v33.754c-28.916 3.431-51.906 26.421-55.338 55.337h-127.972zm155.779 15c-1.362 4.083-2.301 8.304-2.812 12.589h-127.965c-.511-4.286-1.45-8.507-2.812-12.589zm16.655-15h-29.336c3.232-20.637 19.576-36.98 40.212-40.212v29.335c0 5.998-4.879 10.877-10.876 10.877zm25.876-63.503c3.269.942 6.605 1.626 10.005 2.025v33.704c-3.401.397-6.738 1.08-10.005 2.021zm-15-70.049v29.334c-20.636-3.231-36.98-19.575-40.212-40.211h29.336c5.997.001 10.876 4.88 10.876 10.877zm-227.769-10.876h29.333c-3.232 20.635-19.575 36.978-40.21 40.21v-29.334c0-5.997 4.879-10.876 10.877-10.876zm-10.877 133.552v-29.334c20.635 3.232 36.978 19.575 40.21 40.211h-29.333c-5.998-.001-10.877-4.88-10.877-10.877zm25.001 27.586v-1.709h36.403c1.827 4.001 3.096 8.239 3.778 12.589h-29.301c-6 0-10.88-4.881-10.88-10.88zm227.769 10.88h-29.311c.682-4.351 1.952-8.588 3.778-12.589h.533c13.947 0 25.345-11.093 25.852-24.918 3.24-1.268 6.589-2.172 10.029-2.704v29.331c0 5.999-4.881 10.88-10.881 10.88z"/><path d="m249.979 221.458c0-10.068-8.191-18.26-18.26-18.26 0 0-185.132.003-185.198.005-25.361.107-45.962 20.764-45.962 46.145v88.04c0 4.142 3.358 7.5 7.5 7.5s7.5-3.358 7.5-7.5v-43.368c0-14.595 10.089-26.874 23.659-30.24v107.22c-9.032 1.483-17.19 5.59-23.659 11.519v-10.152c0-4.142-3.358-7.5-7.5-7.5s-7.5 3.358-7.5 7.5v93.13c0 .067.008.133.01.2 0 .168-.01.335-.009.503.095 12.195 4.898 23.658 13.517 32.268 8.707 8.725 20.297 13.529 32.637 13.529h182.767c11.304 0 20.5-9.196 20.5-20.5zm-20.383 249.545v-10.33c1.865-.01 3.666-.286 5.382-.765v11.859c-1.716-.478-3.517-.753-5.382-.764zm-15-.005h-167.882c-1.759 0-2.953-.827-3.653-1.528-.972-.971-1.492-2.212-1.502-3.587-.012-1.555.942-2.751 1.513-3.326 1.166-1.175 2.782-1.876 4.324-1.876h167.201v10.317zm20.383-249.54v198.992c-1.753-.489-3.591-.771-5.498-.771h-175.264v-201.481h177.501c1.798 0 3.261 1.462 3.261 3.26zm-219.42 38.541v-10.651c0-14.591 10.089-26.866 23.659-30.231v29.364c-9.033 1.482-17.191 5.589-23.659 11.518zm23.658 126.301v34.13c-8.754 1.581-17.029 5.643-23.659 11.723v-15.613c.001-14.595 10.09-26.873 23.659-30.24zm190.264 110.698h-182.767c-8.328 0-16.147-3.241-22.028-9.133-5.821-5.815-9.063-13.55-9.127-21.78-.063-8.135 3.153-15.892 9.056-21.841 6.03-6.078 14.333-9.563 22.78-9.563h182.085c3.016 0 5.471 2.441 5.498 5.452v.097c-.026 3.01-2.481 5.452-5.498 5.452h-182.084c-5.535 0-10.991 2.3-14.971 6.311-2.214 2.23-5.919 7.017-5.865 14.008.042 5.322 2.138 10.323 5.893 14.074 2.208 2.212 6.997 5.924 14.262 5.924h182.767c3.033 0 5.5 2.467 5.5 5.5s-2.468 5.499-5.501 5.499z"/><path d="m95.584 292.682h105.39c4.142 0 7.5-3.358 7.5-7.5s-3.358-7.5-7.5-7.5h-105.39c-4.142 0-7.5 3.358-7.5 7.5s3.358 7.5 7.5 7.5z"/><path d="m182.63 312.267h-68.703c-4.142 0-7.5 3.358-7.5 7.5s3.358 7.5 7.5 7.5h68.703c4.142 0 7.5-3.358 7.5-7.5s-3.358-7.5-7.5-7.5z"/><path d="m71.344 177.055c3.46 5.992 9.658 9.57 16.577 9.57 6.92 0 13.118-3.578 16.578-9.57l36.133-62.577c3.46-5.994 3.461-13.15 0-19.144-3.46-5.994-9.658-9.572-16.578-9.572h-8.633v-13.953c0-3.707 3.016-6.723 6.724-6.723h60.883c15.164 0 27.5-12.336 27.5-27.5s-12.336-27.5-27.5-27.5h-60.883c-34.035 0-61.724 27.689-61.724 61.723v13.954h-8.636c-6.92 0-13.118 3.578-16.578 9.572s-3.46 13.15.001 19.144zm-23.146-74.221c.359-.623 1.429-2.071 3.587-2.071h16.136c4.142 0 7.5-3.358 7.5-7.5v-21.454c0-25.763 20.96-46.723 46.724-46.723h60.883c6.893 0 12.5 5.607 12.5 12.5s-5.607 12.5-12.5 12.5h-60.883c-11.979 0-21.724 9.745-21.724 21.723v21.454c0 4.142 3.358 7.5 7.5 7.5h16.133c2.159 0 3.228 1.449 3.588 2.071.359.623 1.079 2.273 0 4.143l-36.133 62.577c-1.079 1.87-2.869 2.071-3.588 2.071s-2.508-.202-3.587-2.071l-36.136-62.577c-1.08-1.869-.36-3.52 0-4.143z"/><path d="m442.413 280.275c-2.073-3.587-6.661-4.814-10.246-2.742-3.587 2.072-4.814 6.659-2.742 10.246l9.959 17.239c1.079 1.868.359 3.517 0 4.14-.359.622-1.428 2.07-3.585 2.07h-16.14c-4.143 0-7.5 3.358-7.5 7.5v21.46c0 25.762-20.958 46.72-46.72 46.72h-60.881c-6.893 0-12.5-5.607-12.5-12.5s5.607-12.5 12.5-12.5h60.881c11.977 0 21.72-9.744 21.72-21.72v-21.46c0-4.142-3.357-7.5-7.5-7.5h-16.13c-2.161 0-3.231-1.451-3.592-2.075-.357-.621-1.074-2.267.007-4.135l36.13-62.581c1.078-1.868 2.866-2.069 3.584-2.069.719 0 2.507.202 3.586 2.07l8.68 15.03c2.072 3.587 6.658 4.816 10.246 2.744 3.587-2.071 4.815-6.658 2.744-10.245l-8.68-15.03c-3.46-5.993-9.657-9.57-16.576-9.57s-13.115 3.578-16.574 9.57l-36.126 62.574c-3.466 5.988-3.471 13.142-.014 19.135 3.459 6 9.659 9.581 16.585 9.581h8.63v13.96c0 3.706-3.015 6.72-6.72 6.72h-60.881c-15.163 0-27.5 12.336-27.5 27.5s12.337 27.5 27.5 27.5h60.881c34.032 0 61.72-27.688 61.72-61.72v-13.96h8.64c6.919 0 13.116-3.578 16.575-9.57 3.46-5.993 3.46-13.147-.001-19.142z"/><path d="m416.236 87.214c0-35.358-28.767-64.125-64.125-64.125s-64.124 28.766-64.124 64.125 28.766 64.125 64.124 64.125 64.125-28.767 64.125-64.125zm-64.125 49.124c-27.087 0-49.124-22.037-49.124-49.125s22.037-49.125 49.124-49.125c27.088 0 49.125 22.037 49.125 49.125s-22.037 49.125-49.125 49.125z"/><path d="m360.734 79.802c-.95-.335-1.869-.654-2.758-.963-5.336-1.852-9.19-3.189-11.212-5.211-1.026-1.026-1.417-3.036-.951-4.888.317-1.259 1.13-2.892 3.205-3.517 5.77-1.737 9.491 1.167 9.897 1.504 3.186 2.65 7.913 2.214 10.562-.97 2.648-3.185 2.214-7.914-.971-10.562-2.311-1.922-5.5-3.658-9.27-4.65v-1.373c0-4.142-3.357-7.5-7.5-7.5s-7.5 3.358-7.5 7.5v1.842c-6.444 2.112-11.277 7.332-12.972 14.068-1.768 7.029.106 14.369 4.891 19.153 4.457 4.458 10.225 6.459 16.902 8.776.862.299 1.754.608 2.675.934 4.982 1.761 5.133 5.56 4.778 7.667-.604 3.588-3.623 7.466-8.826 7.5-5.742.04-7.223-.197-11.485-2.986-3.465-2.268-8.114-1.298-10.382 2.169-2.269 3.466-1.297 8.114 2.169 10.382 4.658 3.048 8.193 4.439 12.25 5.034v1.545c0 4.142 3.357 7.5 7.5 7.5s7.5-3.358 7.5-7.5v-2.344c8.992-2.956 14.742-10.935 16.066-18.814 1.82-10.809-4.036-20.573-14.568-24.296z"/></g></g></svg>