<svg id="Capa_1" enable-background="new 0 0 512 512" height="512" viewBox="0 0 512 512" width="512" xmlns="http://www.w3.org/2000/svg"><g><g><path d="m7.5 452.26v-302.909c0-8.284 6.716-15 15-15h151.68c23.594 0 43.584 15.722 50.045 37.24h63.549c6.461-21.518 26.451-37.24 50.045-37.24h151.681c8.284 0 15 6.716 15 15v302.909h-184.703l-23.943 38.706h-76.817l-20.95-36.912z" fill="#7a6d79"/><path d="m300.58 504.5h-89.16c-8.208 0-15.073-6.594-15.001-14.802.108-12.354-9.91-22.438-22.239-22.438h-151.68c-8.284 0-15-6.716-15-15 0-8.284 6.716-15 15-15h151.68c23.594 0 43.584 15.722 50.045 37.24h63.549c6.461-21.518 26.451-37.24 50.045-37.24h151.681c8.284 0 15 6.716 15 15 0 8.284-6.716 15-15 15h-151.68c-12.329 0-22.098 10.089-22.241 22.417-.095 8.203-6.774 14.823-14.999 14.823z" fill="#685e68"/><path d="m36.523 101.097h174.252c24.977 0 45.226 20.248 45.226 45.226 0-24.977 20.248-45.226 45.226-45.226h174.252v303.277h-174.253c-24.977 0-45.226 20.248-45.226 45.226 0-24.977-20.248-45.226-45.226-45.226h-174.251z" fill="#e2e2e2"/><path d="m475.48 67.97v303.28h-174.25c-24.98 0-45.23 20.25-45.23 45.23 0-12.49-5.06-23.8-13.25-31.98-8.18-8.19-19.49-13.25-31.98-13.25h-174.25v-303.28h174.25c24.98 0 45.23 20.25 45.23 45.23 0-12.49 5.06-23.8 13.25-31.98 8.18-8.19 19.49-13.25 31.98-13.25z" fill="#f8f6f6"/><path d="m313.81 67.97v303.28h-12.58c-24.98 0-45.23 20.25-45.23 45.23v-303.28c0-12.49 5.06-23.8 13.25-31.98 8.18-8.19 19.49-13.25 31.98-13.25z" fill="#ebebeb"/><g><path d="m349.145 36.845h-120.16c-47.53 0-86.06 38.531-86.06 86.06 0 47.53 38.531 86.06 86.06 86.06h120.16c47.53 0 86.06-38.531 86.06-86.06 0-47.529-38.531-86.06-86.06-86.06z" fill="#c68d7a"/><path d="m239.14 183.76c15.57 15.58 37.09 25.21 60.85 25.21h-71.01c-23.77 0-45.28-9.63-60.85-25.21-15.58-15.57-25.21-37.08-25.21-60.85 0-47.53 38.53-86.06 86.06-86.06h71.01c-47.53 0-86.06 38.53-86.06 86.06 0 23.77 9.63 45.28 25.21 60.85z" fill="#bc7c63"/><path d="m386.376 56.152v51.752c0 20.531-16.702 37.232-37.232 37.232h-120.154c-20.531 0-37.233-16.702-37.233-37.232v-51.752c0-26.867 21.785-48.652 48.652-48.652s48.652 21.785 48.652 48.652c0-26.867 21.785-48.652 48.663-48.652 26.868 0 48.652 21.785 48.652 48.652z" fill="#d1a08f"/><path d="m271.557 150.142h-42.56c-20.54 0-37.24-33.573-37.24-54.103v-39.887c0-26.87 21.79-48.65 48.66-48.65 7.63 0 14.85 1.76 21.28 4.89-16.2 7.89-27.37 24.52-27.37 43.76v66.75c0 20.53 16.7 27.24 37.23 27.24z" fill="#c68d7a"/><path d="m386.376 80.156v42.748c0 20.531-16.702 37.232-37.233 37.232h-120.153c-20.531 0-37.233-16.702-37.233-37.232v-42.748c0 20.531 16.702 37.233 37.233 37.233h120.154c20.53 0 37.232-16.702 37.232-37.233z" fill="#ffe177"/><path d="m271.557 160.144h-42.57c-20.53 0-37.23-16.71-37.23-37.24v-42.74c0 20.53 16.7 37.23 37.23 37.23h5.34v5.51c0 20.53 16.7 37.24 37.23 37.24z" fill="#ffd15b"/></g><g><path d="m117.389 366.835-29.212-29.212-70.283 58.707c-13.058 10.908-13.943 30.669-1.912 42.7 12.031 12.031 31.793 11.146 42.7-1.912z" fill="#c68d7a"/><path d="m24.334 444.859c-3.018-1.387-5.854-3.332-8.352-5.829-12.035-12.035-11.144-31.8 1.914-42.699l70.282-58.712 14.187 14.187-70.282 58.712c-10.341 8.634-13.045 22.834-7.749 34.341z" fill="#bc7c63"/><circle cx="149.94" cy="305.072" fill="#ffe177" r="79.673"/><circle cx="149.94" cy="305.072" fill="#d4f2f6" r="50.746"/><path d="m165.277 353.451c-4.845 1.535-9.992 2.361-15.343 2.361-28.023 0-50.74-22.717-50.74-50.74 0-28.032 22.716-50.749 50.74-50.749 5.351 0 10.498.825 15.343 2.36-20.525 6.504-35.397 25.707-35.397 48.388-.001 22.673 14.872 41.876 35.397 48.38z" fill="#a6e7f0"/></g></g><g><path d="m489.5 126.85h-6.52v-58.88c0-4.142-3.357-7.5-7.5-7.5h-56.67c-1.135-1.262-2.303-2.501-3.513-3.71-7.064-7.074-15.122-12.897-23.979-17.364-3.709-11.849-11.3-22.307-21.808-29.535-3.411-2.348-8.081-1.483-10.43 1.929-2.347 3.413-1.483 8.082 1.93 10.43 11.189 7.697 17.87 20.381 17.87 33.931v23.929c0 .026-.004.051-.004.077 0 16.395-13.338 29.733-29.732 29.733h-120.154c-16.357 0-29.668-13.276-29.73-29.617v-24.123c0-22.69 18.46-41.15 41.15-41.15 22.689 0 41.149 18.46 41.149 41.15 0 4.142 3.357 7.5 7.5 7.5s7.5-3.358 7.5-7.5c0-21.093 15.793-38.682 36.734-40.912 4.119-.439 7.103-4.133 6.664-8.252-.438-4.118-4.117-7.104-8.252-6.664-18.461 1.966-33.991 12.673-42.678 27.76-9.72-16.773-27.874-28.082-48.617-28.082-25.12 0-46.438 16.581-53.588 39.373-10.544 5.328-19.801 12.539-27.457 21.097h-122.845c-4.143 0-7.5 3.358-7.5 7.5v58.88h-6.52c-12.406 0-22.5 10.094-22.5 22.5v302.91c0 12.407 10.094 22.5 22.5 22.5h151.68c3.954 0 7.671 1.553 10.466 4.372 2.792 2.817 4.31 6.546 4.274 10.504-.05 5.882 2.226 11.445 6.407 15.663 4.223 4.259 10.088 6.701 16.093 6.701h89.16c12.258 0 22.351-9.972 22.499-22.235.094-8.274 6.707-15.005 14.741-15.005h151.68c6.018 0 11.669-2.346 15.893-6.586 4.261-4.244 6.607-9.896 6.607-15.914v-302.91c0-12.406-10.094-22.5-22.5-22.5zm-436.58 305.473c-.395.473-.838.957-1.316 1.436-8.351 8.351-21.954 8.337-30.322-.031-4.036-4.036-6.242-9.317-6.281-14.976v-.036c-.002-.37.005-.742.021-1.115.272-6.094 3-11.604 7.678-15.512l56.03-46.791c5.751 8.131 12.858 15.237 20.989 20.988zm97.02-55.077c-39.797 0-72.174-32.377-72.174-72.173s32.377-72.173 72.174-72.173c39.796 0 72.173 32.377 72.173 72.173s-32.377 72.173-72.173 72.173zm-37.082 6.707c11.259 5.314 23.829 8.293 37.083 8.293 17.101 0 33.065-4.953 46.54-13.496h14.289c10.084 0 19.557 3.924 26.681 11.057 6.198 6.19 9.97 14.164 10.849 22.771-.083-.084-.158-.173-.242-.257-9.95-9.963-23.192-15.45-37.287-15.45h-108.701zm355.122-308.483v269.18 19.1h-166.75c-14.775 0-28.147 6.114-37.73 15.938v-163.218h85.64c51.59 0 93.561-41.971 93.561-93.56 0-16.957-4.484-33.219-12.88-47.44zm0 303.28v18.12h-166.75c-14.674 0-27.964 6.031-37.533 15.738 1.945-18.992 18.035-33.858 37.533-33.858zm-238.99-253.861h120.153c11.404 0 21.823-4.288 29.732-11.338v9.354c0 16.395-13.338 29.732-29.732 29.732h-120.153c-7.173 0-13.76-2.553-18.902-6.797-6.609-5.459-10.829-13.716-10.829-22.939v-9.347c7.91 7.047 18.328 11.335 29.731 11.335zm-44.73-66.566-.003 64.581c0 13.875 6.35 26.295 16.296 34.506 7.735 6.388 17.646 10.23 28.437 10.23h120.15c24.67 0 44.74-20.07 44.74-44.74v-64.577c3.846 2.669 7.459 5.688 10.809 9.042 14.84 14.83 23.012 34.556 23.012 55.545 0 43.318-35.242 78.56-78.561 78.56h-120.16c-20.989 0-40.716-8.172-55.549-23.016-14.84-14.829-23.012-34.555-23.012-55.545.001-25.966 12.937-50.069 33.841-64.586zm-140.24 17.147h104.374c-8.32 14.127-12.974 30.448-12.974 47.44 0 24.998 9.733 48.492 27.405 66.152 17.663 17.675 41.158 27.409 66.155 27.409h19.52v163.2c-.151-.155-.29-.318-.443-.47-9.13-9.142-21.033-14.501-33.821-15.325 14.201-15.514 22.878-36.163 22.878-58.803 0-48.067-39.105-87.173-87.173-87.173s-87.174 39.106-87.174 87.173c0 13.255 2.979 25.825 8.294 37.085l-25.856 21.592h-1.185v-19.1zm-21.52 66.38h6.52v202.8 26.6 6.017l-14.02 11.708v-239.625c0-4.135 3.364-7.5 7.5-7.5zm472.286 315.716c-1.409 1.415-3.286 2.193-5.286 2.193h-151.68c-16.212 0-29.554 13.384-29.739 29.829-.05 4.086-3.415 7.411-7.501 7.411h-89.16c-2.032 0-4.016-.825-5.44-2.262-1.345-1.355-2.076-3.122-2.06-4.971.071-7.987-2.99-15.514-8.621-21.195-5.632-5.683-13.133-8.812-21.119-8.812h-151.68c-4.136 0-7.5-3.364-7.5-7.5 0-1.272.318-2.493.92-3.586 6.175 4.215 13.36 6.332 20.55 6.332 9.145 0 18.282-3.421 25.324-10.246h58.206c4.143 0 7.5-3.358 7.5-7.5s-3.357-7.5-7.5-7.5h-45.397l14.94-17.89h121.227c10.084 0 19.557 3.924 26.681 11.057 7.126 7.116 11.05 16.589 11.05 26.673 0 4.142 3.357 7.5 7.5 7.5s7.5-3.358 7.5-7.5c0-20.804 16.926-37.73 37.73-37.73h174.25c4.143 0 7.5-3.358 7.5-7.5v-33.12-26.6-202.8h6.52c4.136 0 7.5 3.365 7.5 7.5v281.7c-2.347-.833-4.871-1.29-7.5-1.29h-151.681c-24.26 0-46.262 15.058-55.342 37.24h-52.957c-9.08-22.183-31.082-37.24-55.342-37.24h-19.179c-4.143 0-7.5 3.358-7.5 7.5s3.357 7.5 7.5 7.5h19.18c19.593 0 37.221 13.118 42.868 31.9.953 3.17 3.872 5.34 7.183 5.34h63.539c3.311 0 6.229-2.17 7.183-5.34 5.647-18.782 23.275-31.9 42.868-31.9h151.679c4.136 0 7.5 3.364 7.5 7.5 0 2.001-.779 3.878-2.214 5.307z"/><path d="m149.94 246.827c-32.117 0-58.246 26.129-58.246 58.246s26.129 58.246 58.246 58.246c32.116 0 58.245-26.129 58.245-58.246s-26.128-58.246-58.245-58.246zm0 101.491c-23.846 0-43.246-19.4-43.246-43.246s19.4-43.246 43.246-43.246 43.245 19.4 43.245 43.246-19.399 43.246-43.245 43.246z"/><path d="m288.621 247.677c0 4.142 3.357 7.5 7.5 7.5h150.309c4.143 0 7.5-3.358 7.5-7.5s-3.357-7.5-7.5-7.5h-150.309c-4.142 0-7.5 3.358-7.5 7.5z"/><path d="m446.43 278.889h-150.309c-4.143 0-7.5 3.358-7.5 7.5s3.357 7.5 7.5 7.5h150.309c4.143 0 7.5-3.358 7.5-7.5s-3.358-7.5-7.5-7.5z"/><path d="m382.582 317.6h-86.461c-4.143 0-7.5 3.358-7.5 7.5s3.357 7.5 7.5 7.5h86.461c4.143 0 7.5-3.358 7.5-7.5s-3.357-7.5-7.5-7.5z"/></g></g></svg>