<svg id="Capa_1" enable-background="new 0 0 512 512" height="512" viewBox="0 0 512 512" width="512" xmlns="http://www.w3.org/2000/svg"><g><g><path d="m459.122 305.433h-152.73c-11.592 0-20.989-9.397-20.989-20.989v-146.983c0-53.681 43.673-97.354 97.354-97.354s97.354 43.673 97.354 97.354v146.983c0 11.592-9.397 20.989-20.989 20.989zm-131.741-41.978h110.753v-125.994c0-30.535-24.842-55.376-55.376-55.376s-55.376 24.842-55.376 55.376v125.994z" fill="#ebebeb"/><g><path d="m404.145 490.148v-78.092l.001-389.413c0-8.155-6.611-14.766-14.766-14.766h-328.852c-29.284 0-53.024 23.74-53.024 53.024v389.733z" fill="#fe9738"/><path d="m57.57 412.318h318.615v77.033h-324.87c-11.562 0-20.935-9.373-20.935-20.935v-28.91c.001-15.016 12.174-27.188 27.19-27.188z" fill="#ebebeb"/><g fill="#fe7d43"><path d="m60.534 7.881v390.2h-.01c-29.276 0-53.02 23.734-53.02 53.02v-390.2c0-29.276 23.744-53.02 53.03-53.02z"/><path d="m404.145 415.908c0 9.848-7.983 17.831-17.831 17.831h-324.856c-4.869 0-9.692 2.047-13.232 5.615-1.909 1.924-5.105 6.027-5.06 11.887.036 4.58 1.839 8.884 5.077 12.119 1.928 1.932 6.028 5.105 12.281 5.105h325.79c9.848 0 17.831 7.983 17.831 17.831 0 9.848-7.983 17.831-17.831 17.831h-325.79c-14.638 0-27.898-5.931-37.483-15.537-9.513-9.503-15.422-22.591-15.535-37.071-.229-29.393 24.558-53.442 53.953-53.442h324.855c9.847 0 17.831 7.983 17.831 17.831z"/></g></g><path d="m444.487 191.891h-145.986v-54.433c0-25.507 17.339-47.045 40.851-53.434 1.592-3.526 2.471-7.434 2.471-11.539 0-10.974 18.032-22.307 8.875-26.945-.299-.152-1.697-.241-3.729-.287-28.311-.642-55.45 12.355-72.041 35.304-11.576 16.013-18.406 35.674-18.406 56.901v54.867c-14.737 2.459-25.972 15.263-25.972 30.698v111.817c0 17.193 13.938 31.131 31.131 31.131h182.805c17.193 0 31.131-13.938 31.131-31.131v-111.817c.001-17.194-13.937-31.132-31.13-31.132z" fill="#fe7d43"/><path d="m285.404 284.444v-146.986c0-42.454 27.317-78.642 65.294-91.918 11.57 3.484 20.007 14.227 20.007 26.945 0 4.105-.879 8.013-2.471 11.539-23.512 6.39-40.851 27.927-40.851 53.434v125.997z" fill="#ebebeb"/><path d="m404.143 82.142v4.25c19.945 8.375 33.986 28.103 33.986 51.067v125.997h19.252v-125.998c0-29.819-23.688-54.2-53.238-55.316z" fill="#e2e2e2"/><path d="m359.403 49.948c-32.383 15.819-54.748 49.102-54.748 87.513v137.36l-19.252 9.626v-146.986c0-42.454 27.317-78.642 65.294-91.918 3.174.962 6.111 2.461 8.706 4.405z" fill="#e2e2e2"/><path d="m473.369 191.891h-182.805c-17.193 0-31.131 13.938-31.131 31.131v111.818c0 17.193 13.938 31.131 31.131 31.131h182.805c17.193 0 31.131-13.938 31.131-31.131v-111.817c0-17.194-13.938-31.132-31.131-31.132z" fill="#7a6d79"/><path d="m324.788 365.972h-34.224c-17.195 0-31.132-13.938-31.132-31.132v-111.811c0-17.195 13.938-31.132 31.132-31.132h34.224c-17.194 0-31.132 13.938-31.132 31.132v111.811c0 17.194 13.938 31.132 31.132 31.132z" fill="#685e68"/><path d="m407.579 302.762c5.662 9.802-1.412 22.057-12.736 22.057h-23.09c-11.324 0-18.398-12.255-12.736-22.057l9.921-17.184c-8.58-4.968-14.353-14.242-14.353-24.872 0-15.859 12.854-28.721 28.713-28.721s28.713 12.862 28.713 28.721c0 10.63-5.773 19.904-14.353 24.872z" fill="#685e68"/><g fill="#ffe177"><path d="m159.56 219.564c-16.496 0-30.372-12.365-32.266-28.752l-11.437-98.976c-2.042-17.676 11.777-33.184 29.571-33.184h28.264c17.794 0 31.613 15.508 29.571 33.184l-11.437 98.976c-1.893 16.387-15.77 28.752-32.266 28.752z"/><circle cx="159.56" cy="274.233" r="29.226"/></g></g><g><path d="m487.607 187.12v-49.662c0-23.923-8.3-47.335-23.371-65.925-13.566-16.733-32.074-28.937-52.593-34.839v-14.056c0-12.277-9.988-22.265-22.265-22.265h-328.847c-33.377 0-60.531 27.155-60.531 60.532 0 0 .003 390.356.006 390.673.125 15.99 6.423 31.019 17.726 42.311 11.416 11.439 26.613 17.739 42.792 17.739h325.79c13.967 0 25.331-11.363 25.331-25.331 0-.019-.001-.038-.001-.058v-112.769h15.347c4.142 0 7.5-3.358 7.5-7.5s-3.358-7.5-7.5-7.5h-136.431c-13.03 0-23.63-10.6-23.63-23.63v-111.82c0-13.03 10.6-23.63 23.63-23.63h182.81c13.03 0 23.63 10.6 23.63 23.63v111.82c0 13.03-10.6 23.63-23.63 23.63h-11.38c-4.142 0-7.5 3.358-7.5 7.5s3.358 7.5 7.5 7.5h11.38c21.301 0 38.63-17.329 38.63-38.63v-111.82c0-16.274-10.12-30.219-24.393-35.9zm-35.024-106.141c12.913 15.927 20.023 35.985 20.023 56.479v46.932h-26.978v-46.932c0-23.675-13.185-45.072-33.986-55.836v-29.212c15.925 5.437 30.227 15.353 40.941 28.569zm-21.954 103.411h-18.986v-85.099c11.8 8.92 18.986 22.923 18.986 38.167zm-377.601 139.051c-15.098 1.876-28.481 9.326-38.028 20.23v-221.503h.004c0-22.547 16.48-41.307 38.024-44.895zm0-307.439v46.123c-15.097 1.876-28.481 9.326-38.028 20.23v-21.45c0-22.55 16.481-41.313 38.028-44.903zm-38.028 367.482h.004c0-22.547 16.48-41.307 38.024-44.895v52.597c-13.277 1.878-25.864 8.115-35.441 17.767-.899.906-1.753 1.841-2.587 2.789zm371.314 113.143h-325.79c-12.167 0-23.593-4.736-32.183-13.343-8.506-8.498-13.242-19.799-13.336-31.824-.092-11.907 4.606-23.251 13.23-31.942 8.791-8.86 20.9-13.941 33.223-13.941h324.855c5.687 0 10.313 4.619 10.329 10.302v.058c-.016 5.683-4.643 10.302-10.329 10.302h-324.855c-6.854 0-13.618 2.855-18.556 7.832-2.731 2.752-7.303 8.649-7.236 17.23.051 6.562 2.635 12.729 7.268 17.358 2.724 2.729 8.63 7.307 17.59 7.307h325.79c5.687 0 10.313 4.619 10.329 10.302v.029h.001c.001 5.695-4.634 10.33-10.33 10.33zm-325.79-35.662c-3.368 0-5.651-1.579-6.98-2.911-1.836-1.834-2.858-4.275-2.878-6.872-.024-3.143 1.796-5.45 2.884-6.547 2.142-2.159 5.024-3.397 7.908-3.397h307.227v19.726h-308.161zm323.161-19.726h2.629c3.678 0 7.172-.794 10.329-2.211v24.147c-3.157-1.416-6.651-2.211-10.329-2.211h-2.629zm-131.755-218.219v111.82c0 21.301 17.329 38.63 38.63 38.63h106.083v19.318c-3.157-1.416-6.651-2.211-10.329-2.211h-318.286v-375.204h321.35c4.006 0 7.265 3.259 7.265 7.265v161.752h-61.76v-46.932c0-21.549 14.523-40.546 35.318-46.197 2.161-.587 3.947-2.11 4.869-4.151 2.081-4.607 3.136-9.528 3.136-14.626 0-15.599-10.422-29.632-25.344-34.126-1.517-.457-3.14-.421-4.638.102-42.06 14.703-70.319 54.487-70.319 98.998v49.072c-15.102 5.253-25.975 19.621-25.975 36.49zm67.953-38.63h-26.979v-46.932c0-37.27 23.125-70.674 57.813-83.94 7.455 3.218 12.487 10.713 12.487 18.966 0 1.871-.244 3.698-.727 5.46-25.269 8.612-42.595 32.541-42.595 59.513v46.933z"/><path d="m419.511 260.706c0-19.972-16.245-36.221-36.213-36.221s-36.213 16.249-36.213 36.221c0 10.342 4.469 20.127 12.006 26.928l-6.568 11.377c-4.015 6.951-4.017 15.252-.003 22.204 4.013 6.953 11.204 11.105 19.234 11.105h23.09c8.03 0 15.221-4.151 19.234-11.105 4.013-6.952 4.012-15.251-.003-22.202l-6.569-11.378c7.536-6.802 12.005-16.587 12.005-26.929zm-28.347 28.622 9.921 17.184s0 .001.001.001c1.877 3.25.626 6.12.001 7.202-.625 1.083-2.486 3.603-6.243 3.603h-23.09c-3.757 0-5.618-2.52-6.243-3.603s-1.876-3.952.002-7.204l9.92-17.184c2.069-3.584.844-8.167-2.737-10.24-6.545-3.79-10.611-10.833-10.611-18.382 0-11.701 9.516-21.221 21.213-21.221s21.213 9.52 21.213 21.221c0 7.549-4.066 14.592-10.611 18.382-3.581 2.075-4.806 6.657-2.736 10.241z"/><path d="m173.69 51.15h-28.26c-10.617 0-20.756 4.545-27.819 12.469-7.066 7.928-10.42 18.528-9.202 29.083l1.01 8.74c.475 4.115 4.194 7.063 8.312 6.589 4.115-.476 7.064-4.197 6.589-8.312l-1.01-8.739c-.728-6.308 1.276-12.644 5.499-17.382 4.219-4.734 10.277-7.449 16.621-7.449h28.26c6.348 0 12.41 2.718 16.631 7.456 4.219 4.737 6.22 11.068 5.488 17.374l-11.429 98.967c-1.461 12.607-12.131 22.114-24.82 22.114s-23.358-9.507-24.82-22.111l-6.41-55.47c-.475-4.115-4.199-7.062-8.311-6.589-4.115.476-7.065 4.197-6.589 8.312l6.41 55.472c2.338 20.174 19.415 35.386 39.72 35.386s37.382-15.213 39.721-35.39l11.429-98.966c1.223-10.549-2.126-21.146-9.188-29.075-7.064-7.931-17.209-12.479-27.832-12.479z"/><path d="m159.56 237.508c-20.25 0-36.726 16.475-36.726 36.725s16.475 36.726 36.726 36.726 36.726-16.475 36.726-36.726-16.475-36.725-36.726-36.725zm0 58.451c-11.979 0-21.726-9.746-21.726-21.726s9.746-21.725 21.726-21.725 21.726 9.746 21.726 21.725-9.746 21.726-21.726 21.726z"/></g></g></svg>