<svg id="Capa_1" enable-background="new 0 0 512 512" height="512" viewBox="0 0 512 512" width="512" xmlns="http://www.w3.org/2000/svg"><g><g><g><path d="m328.763 487.376v-63.251l.001-315.409c0-6.605-5.354-11.96-11.96-11.96h-266.357c-23.719 0-42.947 19.228-42.947 42.947v315.668" fill="#fe9738"/><path d="m48.051 424.337h258.065v62.394h-263.131c-9.365 0-16.956-7.592-16.956-16.956v-23.416c0-12.163 9.86-22.022 22.022-22.022z" fill="#ebebeb"/><g fill="#fe7d43"><path d="m50.452 96.76v316.046h-.008c-23.712 0-42.944 19.224-42.944 42.944v-316.046c0-23.712 19.232-42.944 42.952-42.944z"/><path d="m328.763 427.245c0 7.976-6.466 14.442-14.442 14.442h-263.12c-3.944 0-7.85 1.658-10.718 4.548-1.547 1.558-4.135 4.882-4.098 9.628.029 3.71 1.49 7.195 4.112 9.816 1.562 1.565 4.883 4.135 9.947 4.135h263.876c7.976 0 14.442 6.466 14.442 14.442 0 7.976-6.466 14.442-14.442 14.442h-263.876c-11.856 0-22.596-4.804-30.36-12.584-7.705-7.697-12.491-18.298-12.583-30.026-.185-23.807 19.891-43.286 43.699-43.286h263.12c7.977 0 14.443 6.466 14.443 14.443z"/></g></g><g><path d="m471.567 71.642v169.62c0 14.03-11.38 25.41-25.41 25.41h-299.89c-14.03 0-25.41-11.38-25.41-25.41v-169.62c0-14.03 11.38-25.41 25.41-25.41h299.89c14.03 0 25.41 11.38 25.41 25.41z" fill="#9be69d"/><g fill="#6fd7a3"><path d="m198.007 266.672h-51.74c-14.03 0-25.41-11.38-25.41-25.41v-51.74c42.61 0 77.15 34.54 77.15 77.15z"/><path d="m198.007 46.232c0 42.61-34.54 77.15-77.15 77.15v-51.74c0-14.03 11.38-25.41 25.41-25.41z"/><path d="m471.567 189.522v51.74c0 14.03-11.38 25.41-25.41 25.41h-51.74c0-42.61 34.54-77.15 77.15-77.15z"/></g></g><g><path d="m504.5 38.708v169.62c0 14.03-11.38 25.41-25.41 25.41h-299.89c-14.03 0-25.41-11.38-25.41-25.41v-169.62c0-14.03 11.38-25.41 25.41-25.41h299.89c14.03 0 25.41 11.38 25.41 25.41z" fill="#bbf49b"/><g fill="#9be69d"><path d="m230.94 233.738h-51.74c-14.03 0-25.41-11.38-25.41-25.41v-51.74c42.61 0 77.15 34.54 77.15 77.15z"/><path d="m230.94 13.298c0 42.61-34.54 77.15-77.15 77.15v-51.74c0-14.03 11.38-25.41 25.41-25.41z"/><path d="m504.5 156.588v51.74c0 14.03-11.38 25.41-25.41 25.41h-51.74c0-42.61 34.54-77.15 77.15-77.15z"/><path d="m504.5 38.708v51.74c-42.61 0-77.15-34.54-77.15-77.15h51.74c14.03 0 25.41 11.38 25.41 25.41z"/><circle cx="329.147" cy="123.519" r="78.292"/></g></g></g><g><path d="m479.092 5.802h-299.889c-18.145 0-32.908 14.763-32.908 32.908v.029h-.024c-18.146 0-32.909 14.763-32.909 32.91v17.61h-62.91c-27.818 0-50.45 22.632-50.45 50.45 0 0-.002 316.177 0 316.437.103 13.321 5.35 25.849 14.773 35.272 9.519 9.531 22.186 14.78 35.667 14.78h263.879c5.858 0 11.368-2.282 15.515-6.428 4.143-4.145 6.425-9.654 6.425-15.513v-210.089h109.9c18.146 0 32.91-14.763 32.91-32.91v-.022h.021c18.145 0 32.908-14.763 32.908-32.908v-169.618c0-18.145-14.763-32.908-32.908-32.908zm17.908 32.908v43.829c-32.424-3.488-58.25-29.313-61.74-61.737h43.832c9.875 0 17.908 8.034 17.908 17.908zm-258.91 187.526c-3.593-40.698-36.097-73.203-76.796-76.797v-51.841c40.698-3.594 73.202-36.098 76.795-76.796h182.111c3.595 40.699 36.1 73.204 76.8 76.796v51.841c-40.7 3.593-73.206 36.098-76.799 76.797zm-58.887 0c-9.875 0-17.908-8.034-17.908-17.908v-43.829c32.423 3.49 58.247 29.315 61.736 61.737zm-32.908-40.333c-5.815-1.837-11.807-3.023-17.934-3.556v-51.797c6.127-.533 12.119-1.719 17.934-3.556zm-17.934 11.515c6.176.655 12.172 2.137 17.934 4.409v6.501c0 18.145 14.763 32.908 32.908 32.908h6.499c2.272 5.76 3.753 11.756 4.408 17.932h-43.84c-9.875 0-17.909-8.035-17.909-17.91zm76.821 61.75c-.533-6.126-1.719-12.118-3.555-17.932h189.177c-1.837 5.814-3.023 11.806-3.555 17.932zm-25.979-238.366h43.828c-3.49 32.422-29.314 58.246-61.736 61.736v-43.828c0-9.874 8.033-17.908 17.908-17.908zm-32.933 32.937h.024v57.331c-5.761 2.272-11.757 3.754-17.934 4.409v-43.83c.001-9.876 8.035-17.91 17.91-17.91zm-103.322 51.326v34.376c-10.813 1.619-20.512 6.682-27.947 14.034v-13.766c0-16.973 11.993-31.191 27.947-34.644zm0 49.621v196.409c-10.813 1.619-20.512 6.682-27.947 14.034v-175.802c0-16.972 11.992-31.189 27.947-34.641zm0 211.655v39.655c-10.451 1.74-20.314 6.726-27.947 14.278v-19.291c0-16.973 11.992-31.19 27.947-34.642zm7.493 95.977c-2.237 0-3.747-1.047-4.647-1.953-1.22-1.216-1.899-2.838-1.913-4.555-.013-2.023 1.208-3.563 1.923-4.288 1.451-1.462 3.469-2.334 5.397-2.334h247.416v13.13zm263.176-13.13h.704c2.425 0 4.757-.401 6.939-1.131v15.393c-2.183-.73-4.514-1.131-6.939-1.131h-.704zm7.643-42.758c-2.183-.73-4.514-1.132-6.939-1.132h-204.21c-4.143 0-7.5 3.358-7.5 7.5s3.357 7.5 7.5 7.5h204.21c3.826 0 6.939 3.118 6.939 6.95 0 3.827-3.113 6.94-6.939 6.94h-263.12c-5.927 0-11.773 2.466-16.057 6.781-2.359 2.39-6.311 7.508-6.264 14.95.047 5.702 2.294 11.054 6.3 15.045 2.357 2.373 7.475 6.354 15.261 6.354h263.879c3.826 0 6.939 3.113 6.939 6.94 0 1.853-.723 3.596-2.032 4.907-1.312 1.312-3.055 2.034-4.907 2.034h-263.879c-9.472 0-18.369-3.687-25.057-10.383-6.625-6.625-10.312-15.426-10.384-24.784-.07-9.267 3.592-18.099 10.31-24.868 6.854-6.905 16.29-10.865 25.891-10.865h23.91c4.143 0 7.5-3.358 7.5-7.5s-3.357-7.5-7.5-7.5h-17.163v-301.04h55.413v137c0 18.147 14.763 32.91 32.909 32.91h174.99zm142.81-165.172c0 9.875-8.034 17.91-17.91 17.91h-43.84c.655-6.176 2.137-12.172 4.408-17.932h57.342zm15.022-15.022h-43.832c3.49-32.424 29.316-58.25 61.74-61.738v43.83c0 9.874-8.033 17.908-17.908 17.908z"/><path d="m388.108 71.473c-3.35 2.437-4.09 7.127-1.653 10.477 8.823 12.129 13.486 26.503 13.486 41.568 0 39.034-31.756 70.79-70.79 70.79-39.04 0-70.801-31.756-70.801-70.79s31.761-70.79 70.801-70.79c11.741 0 23.371 2.935 33.63 8.486 3.645 1.972 8.195.616 10.165-3.027 1.972-3.643.617-8.194-3.026-10.166-12.444-6.734-26.542-10.294-40.768-10.294-47.31 0-85.801 38.485-85.801 85.79s38.49 85.79 85.801 85.79c47.305 0 85.79-38.485 85.79-85.79 0-18.256-5.655-35.682-16.355-50.392-2.438-3.349-7.131-4.087-10.479-1.652z"/><path d="m328.63 183.619c4.143 0 7.5-3.358 7.5-7.5v-5.39c12.486-3.163 20.488-13.826 22.256-24.34 2.273-13.523-5.07-25.745-18.273-30.412-1.306-.461-2.569-.9-3.791-1.324-7.742-2.686-13.336-4.627-16.598-7.889-2.129-2.129-2.96-5.942-2.068-9.488.507-2.015 2.011-5.592 6.387-6.911 9.417-2.837 15.665 2.052 16.346 2.619 3.182 2.649 7.911 2.217 10.562-.967 2.649-3.184 2.217-7.913-.967-10.562-1.334-1.111-6.304-4.875-13.853-6.366v-4.17c0-4.142-3.357-7.5-7.5-7.5s-7.5 3.358-7.5 7.5v4.69c-.468.121-.938.25-1.414.394-8.25 2.485-14.458 9.07-16.607 17.614-2.199 8.746.103 17.847 6.008 23.753 5.698 5.698 13.02 8.238 22.288 11.454 1.195.415 2.432.844 3.709 1.295 9.198 3.251 8.994 10.721 8.479 13.782-1.026 6.107-6.163 12.707-15.015 12.765-8.396.055-10.996-.362-17.471-4.598-3.467-2.27-8.114-1.297-10.383 2.17-2.268 3.466-1.296 8.114 2.17 10.382 7.133 4.667 12.163 6.303 18.235 6.826v4.672c0 4.143 3.358 7.501 7.5 7.501z"/><path d="m112.396 318.654c0 4.142 3.357 7.5 7.5 7.5h144.945c4.143 0 7.5-3.358 7.5-7.5s-3.357-7.5-7.5-7.5h-144.945c-4.142 0-7.5 3.358-7.5 7.5z"/><path d="m239.614 345.738h-94.489c-4.143 0-7.5 3.358-7.5 7.5s3.357 7.5 7.5 7.5h94.489c4.143 0 7.5-3.358 7.5-7.5s-3.358-7.5-7.5-7.5z"/></g></g></svg>