<svg id="Capa_1" enable-background="new 0 0 512 512" height="512" viewBox="0 0 512 512" width="512" xmlns="http://www.w3.org/2000/svg"><g><g><path d="m209.523 74.6v21.31l-68.31 61.85v37.21c0 4.87-1.98 9.29-5.17 12.49-3.2 3.19-7.61 5.17-12.49 5.17-9.76 0-17.66-7.91-17.66-17.66v-60.65c0 4.27-1.73 8.14-4.53 10.93-2.8 2.8-6.67 4.53-10.94 4.53-8.54 0-15.46-6.92-15.46-15.46v-59.54c0-18.58 7.53-35.4 19.71-47.58 12.17-12.17 28.99-19.7 47.57-19.7 37.09 0 67.18 30.02 67.28 67.1z" fill="#ffe177"/><path d="m122.853 74.78v127.38c0 3.9 1.44 7.46 3.84 10.18-1.02.19-2.07.29-3.14.29-9.76 0-17.66-7.91-17.66-17.66v-60.65c0 4.27-1.73 8.14-4.53 10.93-2.8 2.8-6.67 4.53-10.94 4.53-8.54 0-15.46-6.92-15.46-15.46v-59.54c0-18.58 7.53-35.4 19.71-47.58 12.17-12.17 28.99-19.7 47.57-19.7 8.43 0 16.51 1.55 23.95 4.39-8.95 3.4-16.98 8.66-23.63 15.31-12.18 12.18-19.71 29-19.71 47.58z" fill="#ffd15b"/><g><g><path d="m410.625 181.285c-37.802-.605-38.386 17.978-77.357 17.978-39.556 0-39.556 20.511-79.121 20.511-28.593 0-36.52-49.196-53.657-55.134 9.538-26.295 34.048-45.422 63.236-47.063v-71.737h79.809v71.737c18.829 1.056 35.71 9.394 47.883 22.224 10.49 11.066 17.485 25.485 19.207 41.484z" fill="#d4f2f6"/><path d="m343.534 45.84v21.486h-79.809v-21.486l39.901-19.17z" fill="#a6e7f0"/><path d="m411.056 189.079c0 39.556-32.069 71.614-71.614 71.614h-71.625c-19.783 0-37.679-8.02-50.642-20.973-12.953-12.963-20.973-30.859-20.973-50.642 0-8.584 1.508-16.809 4.287-24.439 17.137 5.938 25.065 16.655 53.657 16.655 39.566 0 39.566-20.511 79.122-20.511 38.971 0 39.555 19.896 77.357 20.501.288 2.555.431 5.16.431 7.795z" fill="#fe646f"/><path d="m286.798 45.839v73.615c-23.448 5.639-42.399 22.817-50.504 45.184-2.785 7.629-4.29 15.854-4.29 24.443 0 7.836 1.254 15.37 3.581 22.419-14.747-14.289-22.393-42.46-35.099-46.862 9.54-26.294 34.053-45.418 63.235-47.061v-71.738z" fill="#a6e7f0"/><path d="m303.619 260.694h-35.802c-19.783 0-37.679-8.02-50.642-20.973-12.953-12.963-20.973-30.859-20.973-50.642 0-8.584 1.508-16.809 4.287-24.439 11.866 4.112 19.311 10.512 32.264 14.06-.492 3.384-.749 6.851-.749 10.379 0 19.783 8.02 37.679 20.973 50.642 12.963 12.953 30.859 20.973 50.642 20.973z" fill="#fd4755"/><path d="m348.71 45.84h-90.168c-10.587 0-19.17-8.583-19.17-19.17 0-10.587 8.583-19.17 19.17-19.17h90.168c10.587 0 19.17 8.583 19.17 19.17 0 10.587-8.582 19.17-19.17 19.17z" fill="#d4f2f6"/><path d="m302.537 45.848h-43.986c-10.594 0-19.178-8.584-19.178-19.178 0-5.292 2.143-10.081 5.62-13.548 3.467-3.477 8.266-5.62 13.558-5.62h43.986c-5.292 0-10.081 2.143-13.548 5.62-3.477 3.466-5.62 8.256-5.62 13.548 0 10.594 8.584 19.178 19.168 19.178z" fill="#a6e7f0"/></g></g><g><path d="m411.873 387.82v97.9h-291.6c-14.7 0-26.61-11.91-26.61-26.6v-36.74c0-19.09 15.47-34.56 34.55-34.56z" fill="#ebebeb"/><path d="m411.873 387.82v38.63h-318.21v-4.07c0-19.09 15.47-34.56 34.55-34.56z" fill="#e2e2e2"/><path d="m100.121 437.12c0 8.502 3.325 16.496 9.339 22.523 6.015 6.015 14.009 9.327 22.523 9.327h297.661c9.811 0 17.765 7.954 17.765 17.765 0 9.811-7.954 17.765-17.765 17.765h-297.673c-18.602 0-35.454-7.537-47.635-19.745-12.207-12.194-19.744-29.033-19.744-47.648 0-37.218 30.175-67.38 67.38-67.38h297.673c9.811 0 17.765 7.954 17.765 17.765 0 9.811-7.954 17.765-17.765 17.765h-297.661c-17.562 0-31.863 14.288-31.863 31.863z" fill="#6fd7a3"/></g><g><path d="m423.723 302.81v29.94c0 11.97-9.71 21.68-21.68 21.68h-306.3v-79.77h299.82c15.55 0 28.16 12.6 28.16 28.15z" fill="#ebebeb"/><path d="m423.723 302.81v9.25h-327.98v-37.4h299.82c15.55 0 28.16 12.6 28.16 28.15z" fill="#e2e2e2"/><path d="m418.459 314.825c0 6.927-2.709 13.441-7.61 18.352-4.901 4.901-11.415 7.599-18.352 7.599h-311.234c-7.994 0-14.475 6.481-14.475 14.475 0 7.994 6.481 14.475 14.475 14.475h311.244c15.157 0 28.888-6.142 38.814-16.088 9.946-9.936 16.088-23.656 16.088-38.824 0-30.325-24.587-54.902-54.902-54.902h-311.244c-7.994 0-14.475 6.481-14.475 14.475 0 7.994 6.481 14.475 14.475 14.475h311.234c14.31.001 25.962 11.643 25.962 25.963z" fill="#ffe177"/></g><g><path d="m208.052 95.91v31.45c-11.42 17.32-25.15 25.09-33.52 29.29-9.49 4.75-22.23-.89-33.32-9.31v-51.43l33.42-13.97z" fill="#d4f2f6"/><path d="m208.052 95.91v18.62h-66.839v-18.62l33.419-13.97z" fill="#a6e7f0"/><path d="m208.049 127.357v99.13c0 9.23-3.74 17.59-9.79 23.63-6.05 6.05-14.4 9.79-23.63 9.79-18.45 0-33.42-14.96-33.42-33.42v-79.15c29.16-3.09 32.98-19.32 66.84-19.98z" fill="#bd80e1"/><path d="m185.719 86.567-22.34 9.34v62.2c-7.2-1.08-15.03-5.35-22.17-10.77v-51.43l33.42-13.97z" fill="#a6e7f0"/><path d="m185.719 258.017c-3.47 1.23-7.2 1.89-11.09 1.89-18.45 0-33.42-14.96-33.42-33.42v-79.15c9.41-.99 16.18-3.36 22.17-6.13v85.28c0 14.58 9.33 26.97 22.34 31.53z" fill="#af66da"/><path d="m209.518 67.974h-69.778c-7.714 0-13.967 6.253-13.967 13.967 0 7.714 6.253 13.967 13.967 13.967h69.778c7.714 0 13.967-6.253 13.967-13.967 0-7.714-6.253-13.967-13.967-13.967z" fill="#d4f2f6"/><path d="m163.563 91.811c2.52 2.53 6.02 4.09 9.87 4.09h-33.69c-3.86 0-7.35-1.56-9.88-4.09s-4.09-6.01-4.09-9.87c0-7.72 6.25-13.97 13.97-13.97h33.69c-7.71 0-13.96 6.25-13.96 13.97 0 3.86 1.56 7.34 4.09 9.87z" fill="#a6e7f0"/></g></g><path d="m429.369 461.525h-10.235v-48.611h10.235c6.741 0 13.082-2.627 17.854-7.399 4.764-4.765 7.388-11.102 7.388-17.843 0-12.829-9.63-23.445-22.042-25.023 1.296-1.104 2.563-2.251 3.779-3.469 11.776-11.764 18.262-27.415 18.262-44.07 0-34.361-27.955-62.316-62.316-62.316h-6.757c19.833-14.366 32.77-37.693 32.77-63.998 0-13.62-3.526-27.05-10.198-38.839-2.04-3.604-6.615-4.874-10.222-2.833-3.604 2.04-4.873 6.616-2.833 10.221 2.764 4.884 4.856 10.119 6.245 15.545-10.942-1.385-17.662-4.858-25.188-8.762-10.018-5.197-21.373-11.088-42.959-11.088-21.577 0-32.933 5.889-42.951 11.085-9.729 5.045-18.13 9.403-36.056 9.403-17.902 0-26.301-4.353-36.025-9.393-.817-.423-1.656-.854-2.496-1.283v-11.082c11.216-15.776 29.177-25.786 48.506-26.874 3.972-.223 7.078-3.51 7.078-7.488v-64.128h64.686v64.128c0 3.978 3.106 7.264 7.078 7.488 10.903.614 21.523 4.04 30.712 9.906 3.491 2.228 8.127 1.207 10.357-2.286 2.229-3.491 1.206-8.128-2.285-10.357-9.354-5.971-19.905-9.896-30.862-11.518v-57.469c13.603-1.184 24.312-12.628 24.312-26.532 0-14.689-11.951-26.64-26.641-26.64h-90.026c-14.689 0-26.641 11.951-26.641 26.64 0 13.904 10.708 25.347 24.31 26.532v57.473c-15.085 2.247-29.204 8.876-40.584 18.863v-26.342c8.894-2.614 15.412-10.837 15.412-20.566 0-9.633-6.385-17.799-15.145-20.497-6.324-35.344-36.93-61.327-73.471-61.327-19.948 0-38.699 7.766-52.799 21.866-14.107 14.106-21.876 32.861-21.876 52.808v59.447c0 12.647 10.289 22.936 22.936 22.936 2.759 0 5.434-.508 7.946-1.434v39.053c0 13.858 11.274 25.133 25.132 25.133 3.543 0 6.974-.737 10.128-2.128v8.469c0 9.807 3.475 18.817 9.255 25.868h-61.606c-12.104 0-21.952 9.848-21.952 21.952 0 12.105 9.848 21.953 21.952 21.953h6.955v36.833h-6.955c-12.104 0-21.952 9.848-21.952 21.952s9.848 21.952 21.952 21.952h5.761c-18.148 13.656-29.908 35.368-29.908 59.778 0 19.979 7.784 38.759 21.912 52.875 14.105 14.13 32.879 21.911 52.863 21.911h297.206c6.732 0 13.07-2.621 17.863-7.398 4.759-4.775 7.379-11.108 7.379-17.834-.001-13.919-11.324-25.243-25.243-25.243zm-182.471-434.885c0-6.418 5.222-11.64 11.641-11.64h90.026c6.419 0 11.641 5.222 11.641 11.64s-5.222 11.64-11.641 11.64h-5.172-79.686-5.169c-6.417 0-11.64-5.221-11.64-11.64zm7.248 161.889c21.584 0 32.941-5.89 42.961-11.087 9.727-5.044 18.127-9.401 36.046-9.401 17.927 0 26.326 4.357 36.052 9.403 8.538 4.429 18.083 9.375 34.093 10.727.002.209.01.417.01.626 0 35.289-28.714 63.998-64.008 63.998h-71.508c-17.1 0-33.173-6.656-45.258-18.74-2.537-2.537-4.845-5.295-6.91-8.201v-46.15c9.067 4.503 20.045 8.825 38.522 8.825zm-105.258-84.484h51.736v16.811c-15.543 1.44-24.922 6.297-33.319 10.651-5.663 2.936-11.095 5.75-18.417 7.518zm62.8 140.364c.082.082.158.17.24.252 2.989 2.989 6.183 5.695 9.538 8.134h-15.097c2.095-2.556 3.885-5.37 5.319-8.386zm-2.097-155.364h-69.669c-3.554 0-6.445-2.891-6.445-6.445s2.891-6.445 6.445-6.445h69.669c3.554 0 6.445 2.891 6.445 6.445s-2.891 6.445-6.445 6.445zm-78.655 113.567c-1.924 1.918-4.473 2.974-7.176 2.974-5.587 0-10.132-4.545-10.132-10.133v-83.969c0-4.142-3.358-7.5-7.5-7.5s-7.5 3.358-7.5 7.5v23.414c0 2.123-.823 4.111-2.326 5.609-1.5 1.5-3.496 2.326-5.62 2.326-4.376 0-7.936-3.56-7.936-7.936v-59.447c0-15.941 6.208-30.929 17.482-42.202 11.268-11.267 26.251-17.473 42.192-17.473 27.943 0 51.552 19.003 57.964 45.38h-60.462c-11.825 0-21.445 9.62-21.445 21.445 0 9.729 6.517 17.951 15.411 20.566v92.367c-.021 2.674-1.071 5.191-2.952 7.079zm17.952 24.315v-31.313c0-.054.004-.107.004-.161v-37.152h-.004v-3.944c10.947-2.094 18.522-6.007 25.322-9.533 7.804-4.047 14.74-7.626 26.415-8.897v91c0 14.264-11.604 25.868-25.868 25.868s-25.869-11.605-25.869-25.868zm-45.398 69.773h288.794c10.158 0 18.422 8.264 18.422 18.421 0 4.906-1.92 9.532-5.402 13.021-3.476 3.476-8.1 5.391-13.02 5.391h-288.794zm-28.907 58.785c0-3.833 3.119-6.952 6.952-6.952h310.749c8.927 0 17.317-3.475 23.632-9.79 6.313-6.326 9.79-14.715 9.79-23.622 0-18.429-14.993-33.421-33.422-33.421h-310.748c-3.833 0-6.952-3.119-6.952-6.953 0-3.833 3.119-6.952 6.952-6.952h310.758c26.091 0 47.316 21.226 47.316 47.316 0 12.645-4.923 24.527-13.871 33.466-8.92 8.938-20.798 13.861-33.445 13.861h-310.758c-3.834 0-6.953-3.119-6.953-6.953zm362.043 138.511c-1.944 1.937-4.521 3.004-7.257 3.004h-297.205c-15.972 0-30.976-6.218-42.254-17.515-11.298-11.289-17.521-26.301-17.521-42.27 0-32.96 26.815-59.775 59.775-59.775h297.206c5.647 0 10.242 4.59 10.242 10.232 0 2.735-1.063 5.306-2.994 7.236-1.938 1.938-4.513 3.006-7.248 3.006h-246.057c-4.142 0-7.5 3.358-7.5 7.5s3.358 7.5 7.5 7.5h220.82v48.611h-271.96c-6.497 0-12.597-2.527-17.177-7.114-4.6-4.607-7.133-10.711-7.133-17.186 0-13.405 10.905-24.31 24.31-24.31h16.195c4.142 0 7.5-3.358 7.5-7.5s-3.358-7.5-7.5-7.5h-16.195c-21.676 0-39.31 17.635-39.31 39.31 0 10.477 4.09 20.344 11.518 27.784 7.415 7.426 17.285 11.516 27.792 11.516h297.196c5.647 0 10.242 4.595 10.242 10.242 0 2.73-1.066 5.303-2.985 7.229z"/></g></svg>