<svg id="Capa_1" enable-background="new 0 0 512 512" height="512" viewBox="0 0 512 512" width="512" xmlns="http://www.w3.org/2000/svg"><g><g><g><path d="m38.997 205.499c7.5 0 13.98-5.616 14.878-13.248l2.11-17.928c1.492-12.679 11.354-22.847 23.981-24.727l67.966-10.118c8.194-1.22 13.848-8.851 12.628-17.045s-8.852-13.848-17.045-12.628l-67.965 10.119c-25.99 3.87-46.287 24.797-49.357 50.893l-2.11 17.927c-.969 8.227 4.916 15.682 13.144 16.65.594.071 1.185.105 1.77.105z" fill="#fd4755"/></g><g><path d="m466.346 342.827v105.111h-399.063c-15.783 0-28.57-12.787-28.57-28.559v-39.446c0-20.496 16.61-37.106 37.095-37.106z" fill="#ebebeb"/><path d="m466.346 342.827v41.476h-427.633v-4.37c0-20.496 16.61-37.106 37.095-37.106z" fill="#e2e2e2"/><path d="m45.647 395.759c0 9.128 3.569 17.711 10.027 24.183 6.458 6.458 15.041 10.014 24.183 10.014h405.569c10.534 0 19.074 8.54 19.074 19.074 0 10.534-8.54 19.074-19.074 19.074h-405.583c-19.973 0-38.065-8.093-51.144-21.199-13.106-13.094-21.199-31.173-21.199-51.16 0-39.959 32.398-72.343 72.343-72.343h405.583c10.534 0 19.074 8.54 19.074 19.074 0 10.534-8.54 19.074-19.074 19.074h-405.569c-18.856-.001-34.21 15.34-34.21 34.209z" fill="#fe9738"/></g><g><path d="m479.069 251.555v32.145c0 12.852-10.425 23.277-23.277 23.277h-414.846v-85.646h407.888c16.696.001 30.235 13.529 30.235 30.224z" fill="#ebebeb"/><path d="m479.069 251.555v9.931h-438.123v-40.155h407.888c16.696.001 30.235 13.529 30.235 30.224z" fill="#e2e2e2"/><path d="m473.417 264.456c0 7.438-2.908 14.431-8.17 19.704-5.262 5.262-12.255 8.159-19.704 8.159h-420.143c-8.583 0-15.541 6.958-15.541 15.541 0 8.583 6.958 15.541 15.541 15.541h420.154c16.274 0 31.016-6.594 41.673-17.273 10.679-10.668 17.273-25.399 17.273-41.684 0-32.559-26.398-58.946-58.946-58.946h-420.154c-8.583 0-15.541 6.958-15.541 15.541 0 8.583 6.958 15.541 15.541 15.541h420.143c15.364.001 27.874 12.501 27.874 27.876z" fill="#ffe177"/></g><g><path d="m277.6 129.731c8.337 0 15.096-6.759 15.096-15.096 0-10.921 8.885-19.806 19.806-19.806s19.806 8.885 19.806 19.806c0 8.337 6.759 15.096 15.096 15.096s15.096-6.759 15.096-15.096c0-27.569-22.43-49.999-49.999-49.999s-49.999 22.43-49.999 49.999c.002 8.337 6.761 15.096 15.098 15.096z" fill="#fe646f"/><g><g><circle cx="216.548" cy="124.699" fill="#fe646f" r="80.8"/><circle cx="216.548" cy="124.699" fill="#d4f2f6" r="52.332"/><path d="m232.611 174.516c-5.062 1.631-10.457 2.516-16.062 2.516-28.904 0-52.333-23.429-52.333-52.333s23.429-52.333 52.333-52.333c5.606 0 11 .886 16.062 2.516-21.044 6.773-36.271 26.519-36.271 49.817 0 23.299 15.227 43.044 36.271 49.817z" fill="#a6e7f0"/></g><g><circle cx="408.457" cy="124.699" fill="#fe646f" r="80.8"/><circle cx="408.457" cy="124.699" fill="#d4f2f6" r="52.332"/><path d="m424.521 174.516c-5.062 1.631-10.457 2.516-16.062 2.516-28.904 0-52.333-23.429-52.333-52.333s23.429-52.333 52.333-52.333c5.606 0 11 .886 16.062 2.516-21.044 6.773-36.271 26.519-36.271 49.817 0 23.299 15.227 43.044 36.271 49.817z" fill="#a6e7f0"/></g></g></g></g><g><path d="m485.43 369.051c7.105 0 13.779-2.768 18.784-7.787 5.021-5.021 7.786-11.695 7.786-18.792 0-13.955-10.816-25.424-24.504-26.482 1.741-1.424 3.422-2.941 5.032-4.554 12.556-12.545 19.472-29.233 19.472-46.991 0-32.979-24.155-60.411-55.699-65.564 24.325-15.743 40.456-43.113 40.456-74.182 0-48.688-39.611-88.3-88.3-88.3-26.061 0-49.518 11.352-65.695 29.367-9.038-5.601-19.547-8.628-30.26-8.628-10.712 0-21.222 3.027-30.26 8.628-16.177-18.015-39.634-29.367-65.695-29.367-41.609 0-76.583 28.932-85.876 67.733l-38.916 5.79c-4.097.61-6.924 4.425-6.315 8.522.554 3.723 3.755 6.397 7.409 6.397.367 0 .739-.027 1.113-.083l34.433-5.123c-.095 1.676-.149 3.364-.149 5.063 0 3.394.199 6.741.574 10.036l-49.956 7.437c-15.97 2.378-28.44 15.238-30.324 31.272l-2.11 17.928c-.445 3.773-3.64 6.619-7.432 6.619-.32 0-.619-.016-.892-.048-4.112-.485-7.063-4.219-6.579-8.325l2.11-17.931c2.04-17.344 12.676-32.241 28.45-39.851 3.73-1.799 5.296-6.283 3.496-10.014-1.799-3.729-6.281-5.296-10.014-3.496-20.419 9.85-34.188 29.143-36.83 51.608l-2.109 17.929c-.46 3.902.109 7.761 1.587 11.288-9.198 3.026-15.86 11.692-15.86 21.889 0 12.705 10.336 23.041 23.042 23.041h8.043v40.738h-8.042c-12.705 0-23.042 10.336-23.042 23.042s10.336 23.041 23.042 23.041h7.939c-20.168 14.506-33.339 38.157-33.339 64.84 0 21.347 8.311 41.4 23.391 56.457 15.057 15.091 35.104 23.403 56.449 23.403h405.59c7.091 0 13.762-2.766 18.783-7.787s7.787-11.692 7.787-18.783c0-14.656-11.919-26.58-26.57-26.58h-11.58v-53.4zm-76.972-317.652c40.417 0 73.3 32.882 73.3 73.3s-32.882 73.3-73.3 73.3-73.3-32.882-73.3-73.3 32.882-73.3 73.3-73.3zm-105.435 55.4c2.312-2.802 5.765-4.469 9.48-4.469s7.168 1.667 9.48 4.47c-1.195 5.782-1.825 11.768-1.825 17.899 0 30.496 15.541 57.429 39.118 73.3h-93.546c23.577-15.871 39.118-42.804 39.118-73.3 0-6.131-.63-12.118-1.825-17.9zm9.479-34.661c7.451 0 14.766 1.988 21.167 5.673-2.688 4.272-5.02 8.79-6.955 13.511-4.202-2.564-9.094-3.991-14.212-3.991-5.119 0-10.01 1.427-14.212 3.991-1.935-4.721-4.266-9.239-6.955-13.511 6.402-3.685 13.716-5.673 21.167-5.673zm-95.954-20.739c40.417 0 73.3 32.882 73.3 73.3s-32.882 73.3-73.3 73.3-73.3-32.882-73.3-73.3 32.882-73.3 73.3-73.3zm-153.109 123.797c1.096-9.325 8.348-16.804 17.636-18.187l50.712-7.55c5.862 20.034 18.646 37.141 35.579 48.54h-107.192c.549-1.552.955-3.175 1.155-4.872zm-14.995 68.885h397.099c11.234 0 20.375 9.14 20.375 20.375 0 5.426-2.124 10.542-5.974 14.401-3.845 3.845-8.959 5.962-14.401 5.962h-397.099zm-23.044 71.821c-4.434 0-8.042-3.607-8.042-8.041s3.607-8.042 8.042-8.042h420.143c9.448 0 18.329-3.678 25.013-10.361 6.682-6.696 10.361-15.575 10.361-25.002 0-19.505-15.869-35.375-35.375-35.375h-420.142c-4.434 0-8.042-3.607-8.042-8.042s3.607-8.041 8.042-8.041h420.154c28.367 0 51.446 23.079 51.446 51.446 0 13.749-5.353 26.668-15.082 36.386-9.689 9.709-22.588 15.059-36.324 15.07zm433.45 106.549h-378.99c-7.141 0-13.848-2.775-18.878-7.805-5.05-5.066-7.832-11.773-7.832-18.885 0-14.728 11.982-26.71 26.71-26.71h313.02c4.142 0 7.5-3.358 7.5-7.5s-3.358-7.5-7.5-7.5h-313.02c-22.999 0-41.71 18.711-41.71 41.71 0 11.11 4.336 21.578 12.217 29.483 7.872 7.872 18.346 12.207 29.493 12.207h405.57c6.38 0 11.57 5.194 11.57 11.58 0 3.084-1.205 5.989-3.393 8.177s-5.092 3.394-8.177 3.394h-405.59c-17.332 0-33.608-6.747-45.84-19.008-12.252-12.232-19-28.517-19-45.852 0-35.74 29.066-64.818 64.801-64.839l405.629-.001c6.38 0 11.57 5.19 11.57 11.57 0 3.091-1.205 5.998-3.401 8.194-2.177 2.184-5.078 3.386-8.169 3.386h-57.55c-4.142 0-7.5 3.358-7.5 7.5s3.358 7.5 7.5 7.5h30.97z"/><path d="m216.548 184.531c32.992 0 59.833-26.841 59.833-59.833s-26.841-59.833-59.833-59.833-59.832 26.841-59.832 59.833 26.84 59.833 59.832 59.833zm0-104.665c24.721 0 44.833 20.112 44.833 44.833s-20.112 44.833-44.833 44.833-44.832-20.112-44.832-44.833 20.111-44.833 44.832-44.833z"/><path d="m408.458 184.531c32.992 0 59.833-26.841 59.833-59.833s-26.841-59.833-59.833-59.833-59.833 26.841-59.833 59.833 26.841 59.833 59.833 59.833zm0-104.665c24.721 0 44.833 20.112 44.833 44.833s-20.112 44.833-44.833 44.833-44.833-20.112-44.833-44.833 20.112-44.833 44.833-44.833z"/></g></g></svg>