<svg id="Capa_1" enable-background="new 0 0 512 512" height="512" viewBox="0 0 512 512" width="512" xmlns="http://www.w3.org/2000/svg"><g><g><path d="m401.618 56.357h-291.236c-15.406 0-27.895 12.489-27.895 27.895v171.465c0 15.406 12.489 27.895 27.895 27.895h291.235c15.406 0 27.895-12.489 27.895-27.895v-171.465c0-15.406-12.489-27.895-27.894-27.895z" fill="#ebebeb"/><path d="m460.51 131.791v194.76c0 18.16-14.72 32.88-32.88 32.88h-343.26c-18.16 0-32.88-14.72-32.88-32.88v-194.76c0-18.16 14.72-32.88 32.88-32.88h343.26c18.16 0 32.88 14.72 32.88 32.88z" fill="#f8f6f6"/><path d="m460.51 197.821v128.73c0 18.16-14.72 32.88-32.88 32.88h-343.26c-18.16 0-32.88-14.72-32.88-32.88v-128.73h77.65c10.98 0 20.56 7.45 23.25 18.1l5.48 21.66c2.69 10.64 12.27 18.1 23.25 18.1h149.76c10.98 0 20.56-7.46 23.25-18.1l5.48-21.66c2.69-10.65 12.27-18.1 23.25-18.1z" fill="#ebebeb"/><path d="m504.5 263.891v153.61c0 21.064-17.076 38.14-38.14 38.14h-420.72c-21.064 0-38.14-17.076-38.14-38.14v-153.61c0-21.064 17.076-38.14 38.14-38.14h83.501c10.979 0 20.555 7.455 23.248 18.099l5.481 21.663c2.693 10.643 12.27 18.099 23.248 18.099h149.762c10.979 0 20.555-7.455 23.248-18.099l5.481-21.663c2.693-10.643 12.27-18.099 23.248-18.099h83.501c21.066 0 38.142 17.076 38.142 38.14z" fill="#fe9738"/><g fill="#fe7d43"><path d="m392.039 265.512 5.481-21.663c2.693-10.643 12.27-18.099 23.248-18.099h-37.91c-10.979 0-20.555 7.455-23.248 18.099l-5.481 21.663c-2.693 10.643-12.27 18.099-23.249 18.099h37.91c10.979 0 20.556-7.455 23.249-18.099z"/><path d="m45.41 417.501v-153.61c0-21.064 17.076-38.14 38.14-38.14h-37.91c-21.064 0-38.14 17.076-38.14 38.14v153.61c0 21.064 17.076 38.14 38.14 38.14h37.91c-21.065 0-38.14-17.076-38.14-38.14z"/></g></g><g><path d="m468.01 218.291v-39.982c0-4.142-3.358-7.5-7.5-7.5s-7.5 3.358-7.5 7.5v39.94h-70.15c-14.434 0-26.984 9.771-30.521 23.761l-5.48 21.663c-1.85 7.322-8.42 12.437-15.979 12.437h-149.76c-7.559 0-14.129-5.114-15.979-12.439l-5.48-21.659c-3.537-13.991-16.087-23.762-30.521-23.762h-70.15v-86.46c0-13.995 11.385-25.38 25.38-25.38h343.26c13.995 0 25.38 11.385 25.38 25.38v11.66c0 4.142 3.358 7.5 7.5 7.5s7.5-3.358 7.5-7.5v-11.66c0-19.036-13.245-35.027-31-39.268v-8.27c0-19.514-15.875-35.39-35.39-35.39h-291.24c-19.514 0-35.39 15.876-35.39 35.39v8.27c-17.755 4.241-31 20.232-31 39.268v86.502c-24.403.872-43.99 20.984-43.99 45.597v153.61c0 25.166 20.474 45.64 45.64 45.64h20.41c4.142 0 7.5-3.358 7.5-7.5s-3.358-7.5-7.5-7.5h-20.41c-16.895 0-30.64-13.745-30.64-30.64v-153.61c0-16.895 13.745-30.64 30.64-30.64h83.5c7.557 0 14.127 5.115 15.979 12.439l5.479 21.657c3.534 13.992 16.084 23.764 30.521 23.764h149.76c14.437 0 26.988-9.772 30.521-23.761l5.48-21.661c1.852-7.324 8.422-12.438 15.979-12.438h83.5c16.895 0 30.64 13.745 30.64 30.64v153.61c0 16.895-13.745 30.64-30.64 30.64h-365.309c-4.142 0-7.5 3.358-7.5 7.5s3.358 7.5 7.5 7.5h365.31c25.166 0 45.64-20.474 45.64-45.64v-153.61c0-24.613-19.587-44.725-43.99-45.598zm-357.63-154.43h291.24c11.243 0 20.39 9.147 20.39 20.39v7.158h-332.02v-7.158c0-11.243 9.147-20.39 20.39-20.39z"/><path d="m334.084 151.926c0-4.142-3.358-7.5-7.5-7.5h-223.468c-4.142 0-7.5 3.358-7.5 7.5s3.358 7.5 7.5 7.5h223.468c4.142 0 7.5-3.358 7.5-7.5z"/><path d="m103.116 181.338c-4.142 0-7.5 3.358-7.5 7.5s3.358 7.5 7.5 7.5h131.687c4.142 0 7.5-3.358 7.5-7.5s-3.358-7.5-7.5-7.5z"/><path d="m405.075 128.714c-1.349-3.274-4.506-5.388-8.046-5.388-.003 0-.007 0-.011 0-3.544.004-6.702 2.127-8.043 5.408-.023.056-.045.113-.067.169l-19.915 52.289c-1.474 3.871.468 8.204 4.339 9.678.878.335 1.781.493 2.668.493 3.022 0 5.871-1.84 7.01-4.833l3.12-8.192h21.644l3.083 8.17c1.462 3.875 5.789 5.832 9.665 4.369 3.875-1.462 5.832-5.79 4.369-9.665l-19.734-52.292c-.027-.068-.054-.137-.082-.206zm-13.233 34.625 5.159-13.544 5.111 13.544z"/><path d="m100.568 423.468c.879 0 1.775-.156 2.646-.485 3.875-1.463 5.832-5.79 4.369-9.665l-29.708-78.72c-.026-.068-.053-.136-.081-.204-1.441-3.506-4.82-5.77-8.61-5.77-.003 0-.006 0-.009 0-3.794.003-7.173 2.275-8.608 5.787-.023.056-.045.112-.066.168l-29.98 78.717c-1.474 3.871.468 8.204 4.339 9.678 3.873 1.474 8.204-.469 9.678-4.339l5.627-14.774h37.816l5.568 14.753c1.135 3.003 3.988 4.854 7.019 4.854zm-44.689-34.607 13.282-34.873 13.16 34.873z"/><path d="m214.387 344.353c4.142 0 7.5-3.358 7.5-7.5s-3.358-7.5-7.5-7.5h-33.334c-4.142 0-7.5 3.358-7.5 7.5v79.113c0 4.142 3.358 7.5 7.5 7.5h33.334c4.142 0 7.5-3.358 7.5-7.5s-3.358-7.5-7.5-7.5h-25.834v-24.556h23.377c4.142 0 7.5-3.358 7.5-7.5s-3.358-7.5-7.5-7.5h-23.377v-24.557z"/><path d="m153.532 383.909c4.142 0 7.5-3.358 7.5-7.5s-3.358-7.5-7.5-7.5h-33.919c-4.142 0-7.5 3.358-7.5 7.5s3.358 7.5 7.5 7.5z"/></g></g></svg>