<svg id="Capa_1" enable-background="new 0 0 512 512" height="512" viewBox="0 0 512 512" width="512" xmlns="http://www.w3.org/2000/svg"><g><g><g><path d="m367.417 492.778v-65.485l.001-326.545c0-6.838-5.544-12.382-12.382-12.382h-275.761c-24.557 0-44.464 19.907-44.464 44.464v326.813" fill="#fe9738"/><path d="m76.794 427.513h267.177v64.597h-272.422c-9.695 0-17.555-7.86-17.555-17.555v-24.242c0-12.593 10.208-22.8 22.8-22.8z" fill="#ebebeb"/><g fill="#fe7d43"><path d="m79.279 88.37v327.205h-.008c-24.549 0-44.46 19.902-44.46 44.46v-327.205c0-24.549 19.911-44.46 44.468-44.46z"/><path d="m367.417 430.523c0 8.258-6.694 14.952-14.952 14.952h-272.41c-4.083 0-8.127 1.716-11.096 4.708-1.601 1.613-4.281 5.054-4.243 9.968.03 3.841 1.542 7.449 4.258 10.162 1.617 1.62 5.055 4.281 10.298 4.281h273.193c8.258 0 14.952 6.694 14.952 14.952 0 8.258-6.694 14.952-14.952 14.952h-273.194c-12.275 0-23.394-4.974-31.432-13.028-7.977-7.969-12.932-18.944-13.027-31.086-.192-24.648 20.594-44.814 45.242-44.814h272.41c8.258.001 14.953 6.696 14.953 14.953z"/></g></g><g><path d="m390.229 17.156 18.252 36.982c2.523 5.113 7.401 8.656 13.043 9.476l40.812 5.93c14.208 2.065 19.882 19.525 9.601 29.547l-29.532 28.786c-4.083 3.98-5.946 9.714-4.982 15.333l6.971 40.647c2.427 14.151-12.426 24.942-25.134 18.261l-36.503-19.191c-5.047-2.653-11.075-2.653-16.122 0l-36.503 19.191c-12.708 6.681-27.562-4.11-25.134-18.261l6.971-40.647c.964-5.619-.899-11.353-4.982-15.333l-29.532-28.786c-10.281-10.022-4.608-27.483 9.601-29.547l40.812-5.93c5.642-.82 10.52-4.364 13.043-9.476l18.252-36.982c6.352-12.875 24.711-12.875 31.066 0z" fill="#ffe177"/><path d="m390.237 17.163 6.355 12.883-16.133 32.697c-2.531 5.119-7.405 8.656-13.042 9.476l-40.821 5.939c-14.206 2.056-19.872 19.526-9.591 29.548l29.534 28.786c4.069 3.969 5.938 9.706 4.975 15.328l-6.974 40.649c-.129.748-.201 1.481-.23 2.2l-14.178 7.448c-12.711 6.686-27.564-4.098-25.134-18.261l6.974-40.635c.963-5.622-.906-11.359-4.975-15.342l-29.534-28.786c-10.281-10.022-4.616-27.478 9.591-29.548l40.821-5.924c5.637-.82 10.511-4.371 13.042-9.476l18.247-36.982c6.355-12.884 24.717-12.884 31.073 0z" fill="#ffd15b"/></g><g><path d="m210.055 194.841-45.558-33.62-45.559 33.62v-106.475h91.117z" fill="#fe646f"/></g></g><path d="m477.174 104.46c6.813-6.642 9.221-16.391 6.281-25.442-2.939-9.052-10.617-15.528-20.041-16.901l-5.45-.79c-4.101-.595-7.904 2.247-8.499 6.347-.594 4.099 2.248 7.904 6.347 8.498l5.445.79c3.785.551 6.751 3.052 7.932 6.69 1.181 3.636.252 7.399-2.485 10.068l-29.525 28.785c-5.855 5.698-8.529 13.91-7.151 21.975l6.979 40.645c.645 3.77-.818 7.362-3.913 9.609-3.093 2.248-6.962 2.527-10.345.748l-36.505-19.192c-7.234-3.797-15.87-3.797-23.095.002l-36.51 19.189c-3.385 1.78-7.253 1.5-10.346-.748-3.091-2.247-4.55-5.837-3.902-9.605l6.97-40.655c1.376-8.052-1.292-16.262-7.137-21.963l-29.533-28.793c-1.696-1.652-2.695-3.724-2.932-5.926-.006-.074-.007-.149-.015-.223-.107-1.282.033-2.604.457-3.91 1.182-3.641 4.148-6.144 7.935-6.695l40.812-5.93c8.089-1.176 15.074-6.25 18.687-13.572l18.249-36.979c1.695-3.432 4.989-5.48 8.813-5.48h.003c3.821.001 7.112 2.048 8.804 5.479l18.254 36.988c3.623 7.32 10.607 12.391 18.641 13.559l.73.11c4.093.613 7.917-2.2 8.536-6.296.618-4.096-2.2-7.917-6.296-8.536l-.771-.116c-3.195-.465-5.961-2.474-7.393-5.367l-18.249-36.977c-4.21-8.539-12.736-13.844-22.253-13.846-.003 0-.004 0-.007 0-9.517 0-18.048 5.303-22.264 13.841l-18.251 36.981c-1.428 2.895-4.191 4.9-7.392 5.366l-40.813 5.93c-9.425 1.373-17.104 7.852-20.043 16.91-.198.611-.368 1.226-.518 1.842h-186.136c-28.65 0-51.96 23.309-51.96 51.96v192.66c0 4.142 3.357 7.5 7.5 7.5s7.5-3.358 7.5-7.5v-141.592c.146-17.676 12.755-32.434 29.456-35.89v203.911c-11.445 1.662-21.691 7.065-29.456 14.929v-6.378c0-4.142-3.357-7.5-7.5-7.5s-7.5 3.358-7.5 7.5c0 0-.008 99.744-.006 99.973.106 13.729 5.514 26.633 15.218 36.326 9.801 9.821 22.849 15.23 36.74 15.23h273.194c12.379 0 22.451-10.072 22.452-22.452l-.004-301.093c1.497.033 2.989.397 4.354 1.114l36.501 19.191c8.425 4.427 18.44 3.703 26.14-1.889s11.487-14.894 9.882-24.28l-6.979-40.643c-.545-3.189.513-6.439 2.833-8.697zm-175.423 28.789c2.313 2.256 3.369 5.508 2.824 8.694l-6.969 40.648c-1.61 9.379 2.171 18.682 9.868 24.276 4.352 3.163 9.442 4.77 14.569 4.769 3.943 0 7.909-.951 11.573-2.877l26.296-13.821.003 214.41c-2.333-.823-4.84-1.276-7.451-1.276h-265.689v-312.202h24.664v98.97c0 2.83 1.594 5.419 4.12 6.695 2.526 1.275 5.556 1.021 7.833-.661l41.104-30.333 41.105 30.333c2.282 1.685 5.317 1.932 7.833.661 2.526-1.276 4.12-3.865 4.12-6.695v-98.97h48.904c1.267 3.167 3.205 6.098 5.764 8.59zm-222.479 333.847c-2.409 0-4.044-1.13-4.997-2.086-1.313-1.312-2.044-3.058-2.059-4.917-.018-2.195 1.287-3.841 2.065-4.625 1.571-1.583 3.676-2.492 5.773-2.492h256.416v14.12zm272.199-14.12h.994c2.612 0 5.118-.453 7.452-1.276v16.673c-2.333-.823-4.84-1.276-7.452-1.276h-.994zm-148.916-357.106v84.115l-33.605-24.799c-1.323-.977-2.889-1.465-4.453-1.465s-3.13.488-4.453 1.465l-33.604 24.798v-84.114zm-160.236 51.85v-14.89c0-17.809 12.662-32.716 29.456-36.193v36.153c-11.445 1.663-21.691 7.066-29.456 14.93zm0 255.307c.146-17.676 12.755-32.434 29.456-35.89v41.614c-11.008 1.784-21.402 7.06-29.368 15.088-.03.03-.058.062-.088.093zm310.146 93.973h-273.194c-9.879 0-19.156-3.845-26.131-10.834-6.907-6.899-10.752-16.075-10.827-25.839-.075-9.659 3.739-18.865 10.742-25.923 7.146-7.202 16.987-11.333 27-11.333h272.41c4.104 0 7.442 3.335 7.451 7.438v.03c-.008 4.102-3.348 7.437-7.451 7.437h-272.41c-6.067 0-12.052 2.524-16.422 6.927-2.423 2.443-6.478 7.68-6.417 15.309.046 5.822 2.339 11.294 6.448 15.401 2.416 2.421 7.656 6.483 15.607 6.483h273.193c4.109 0 7.452 3.343 7.452 7.451 0 4.11-3.343 7.453-7.451 7.453z"/></g></svg>