<svg id="Capa_1" enable-background="new 0 0 512 512" height="512" viewBox="0 0 512 512" width="512" xmlns="http://www.w3.org/2000/svg"><g><g><g><g><path d="m242.19 494.308v-56.935l.001-215.913c0-5.946-4.82-10.765-10.765-10.765h-185c-21.351 0-38.659 17.308-38.659 38.659v216.146" fill="#60b7ff"/><path d="m44.269 437.564h177.536v56.163h-182.096c-8.429 0-15.263-6.833-15.263-15.263v-21.077c0-10.948 8.875-19.823 19.823-19.823z" fill="#ebebeb"/><g fill="#26a6fe"><path d="m46.43 210.699v216.486h-.007c-21.344 0-38.655 17.304-38.655 38.655v-216.486c-.001-21.344 17.311-38.655 38.662-38.655z"/><path d="m242.19 440.182c0 7.18-5.82 13-13 13h-182.086c-3.55 0-7.066 1.492-9.647 4.094-1.392 1.403-3.722 4.394-3.689 8.667.026 3.339 1.341 6.477 3.702 8.835 1.406 1.409 4.395 3.722 8.954 3.722h182.766c7.18 0 13 5.82 13 13 0 7.18-5.82 13-13 13h-182.767c-10.672 0-20.34-4.324-27.328-11.327-6.936-6.929-11.244-16.471-11.326-27.028-.167-21.43 17.905-38.963 39.336-38.963h182.085c7.179 0 13 5.82 13 13z"/></g></g><g><path d="m504.232 291.113v-56.935l.001-215.913c0-5.946-4.82-10.765-10.765-10.765h-185c-21.351 0-38.659 17.308-38.659 38.659v216.146" fill="#9be69d"/><path d="m306.311 234.369h177.536v56.163h-182.096c-8.429 0-15.263-6.833-15.263-15.263v-21.077c0-10.948 8.875-19.823 19.823-19.823z" fill="#ebebeb"/><g fill="#6fd7a3"><path d="m308.472 7.503v216.487h-.007c-21.344 0-38.655 17.304-38.655 38.655v-216.486c0-21.345 17.311-38.656 38.662-38.656z"/><path d="m504.232 236.987c0 7.18-5.82 13-13 13h-182.086c-3.55 0-7.066 1.492-9.647 4.094-1.392 1.403-3.722 4.394-3.689 8.667.026 3.339 1.341 6.477 3.702 8.835 1.406 1.409 4.395 3.722 8.954 3.722h182.767c7.18 0 13 5.82 13 13 0 7.18-5.82 13-13 13h-182.768c-10.672 0-20.34-4.324-27.328-11.327-6.936-6.929-11.244-16.471-11.326-27.028-.167-21.43 17.905-38.963 39.336-38.963h182.086c7.179-.001 12.999 5.82 12.999 13z"/></g></g></g><g fill="#fe646f"><path d="m207.737 17.588h-60.883c-29.899 0-54.224 24.324-54.224 54.223v21.454h-16.136c-8.963 0-14.565 9.703-10.083 17.465l36.136 62.577c4.482 7.761 15.684 7.76 20.165 0l36.133-62.577c4.482-7.762-1.12-17.465-10.083-17.465h-16.132v-21.454c0-7.843 6.381-14.223 14.224-14.223h60.883c11.046 0 20-8.954 20-20s-8.954-20-20-20z"/><path d="m304.263 494.412h60.883c29.899 0 54.224-24.324 54.224-54.223v-21.454h16.136c8.963 0 14.565-9.703 10.083-17.465l-36.136-62.577c-4.482-7.761-15.684-7.76-20.165 0l-36.133 62.577c-4.482 7.762 1.12 17.465 10.083 17.465h16.133v21.454c0 7.843-6.381 14.223-14.224 14.223h-60.883c-11.046 0-20 8.954-20 20s8.953 20 19.999 20z"/></g></g><g><path d="m231.425 203.195h-184.999c-25.452 0-46.158 20.707-46.158 46.159l.013 216.146c-.002.235-.014.468-.012.703.095 12.195 4.898 23.657 13.518 32.268 8.705 8.724 20.296 13.529 32.636 13.529h182.767c11.304 0 20.5-9.196 20.5-20.5l.001-270.039c-.001-10.072-8.195-18.266-18.266-18.266zm-17.12 267.805h-167.882c-1.759 0-2.952-.826-3.653-1.529-.972-.971-1.491-2.211-1.502-3.587-.013-1.555.942-2.75 1.514-3.326 1.165-1.175 2.781-1.876 4.323-1.876h167.2zm15-10.324c1.866-.01 3.667-.286 5.385-.766v11.861c-1.718-.479-3.519-.755-5.385-.765zm5.385-239.215-.001 198.993c-1.753-.49-3.593-.771-5.5-.771h-175.263v-201.488h177.499c1.801 0 3.265 1.465 3.265 3.266zm-195.764-2.347v29.369c-9.032 1.483-17.19 5.59-23.658 11.519v-10.647c0-14.597 10.089-26.875 23.658-30.241zm0 44.668v107.221c-9.032 1.483-17.19 5.59-23.658 11.519v-88.5c0-14.595 10.089-26.873 23.658-30.24zm0 122.521v34.13c-8.753 1.581-17.028 5.643-23.658 11.722v-15.613c0-14.595 10.089-26.873 23.658-30.239zm190.263 110.697h-182.766c-8.327 0-16.147-3.241-22.027-9.133-5.822-5.816-9.063-13.551-9.127-21.78-.063-8.135 3.152-15.892 9.056-21.841 6.03-6.078 14.334-9.563 22.78-9.563h182.085c3.032 0 5.5 2.467 5.5 5.5s-2.468 5.5-5.5 5.5h-182.086c-5.535 0-10.992 2.3-14.97 6.31-2.215 2.23-5.921 7.017-5.867 14.009.042 5.322 2.139 10.324 5.893 14.073 2.207 2.213 6.996 5.925 14.263 5.925h182.767c3.032 0 5.5 2.467 5.5 5.5s-2.468 5.5-5.501 5.5z"/><path d="m511.73 18.27c0-10.074-8.191-18.27-18.26-18.27h-185c-25.453 0-46.16 20.708-46.16 46.16v65.56c0 4.142 3.357 7.5 7.5 7.5s7.5-3.358 7.5-7.5v-20.893c0-14.596 10.089-26.874 23.658-30.24v107.221c-9.032 1.483-17.19 5.59-23.658 11.519v-32.607c0-4.142-3.357-7.5-7.5-7.5s-7.5 3.358-7.5 7.5c0 0 0 116.117.001 116.289.096 12.195 4.899 23.657 13.518 32.267 8.707 8.724 20.298 13.529 32.637 13.529h182.768c11.045 0 20.053-8.786 20.461-19.732.028-.252.026-.512.039-.768zm-35.382 249.535h-167.883c-1.759 0-2.952-.826-3.652-1.528-.973-.971-1.492-2.212-1.503-3.587-.013-1.555.942-2.751 1.514-3.327 1.165-1.175 2.781-1.876 4.323-1.876h167.201zm15-10.325c1.866-.01 3.667-.286 5.385-.765v11.861c-1.718-.479-3.519-.755-5.385-.765zm5.382-239.21.001 198.988c-1.753-.49-3.592-.771-5.5-.771h-175.263v-201.487h177.502c1.798 0 3.26 1.467 3.26 3.27zm-219.42 38.535v-10.645c0-14.595 10.089-26.874 23.658-30.241v29.368c-9.032 1.482-17.19 5.589-23.658 11.518zm23.658 126.302v34.13c-8.753 1.581-17.028 5.644-23.658 11.723v-15.613c0-14.596 10.089-26.874 23.658-30.24zm190.264 110.698h-182.767c-8.326 0-16.146-3.241-22.027-9.133-5.821-5.815-9.062-13.55-9.127-21.78-.063-8.136 3.153-15.893 9.057-21.842 6.03-6.078 14.333-9.563 22.779-9.563h182.086c3.03 0 5.496 2.463 5.5 5.493v.015c-.004 3.029-2.47 5.493-5.5 5.493h-182.087c-5.535 0-10.992 2.3-14.97 6.31-2.215 2.23-5.921 7.017-5.867 14.01.042 5.322 2.138 10.323 5.893 14.073 2.207 2.213 6.996 5.925 14.263 5.925h182.768c3.032 0 5.5 2.467 5.5 5.5-.001 3.031-2.468 5.499-5.501 5.499z"/><path d="m95.293 292.685h105.39c4.143 0 7.5-3.358 7.5-7.5s-3.357-7.5-7.5-7.5h-105.39c-4.143 0-7.5 3.358-7.5 7.5s3.357 7.5 7.5 7.5z"/><path d="m182.339 312.269h-68.703c-4.143 0-7.5 3.358-7.5 7.5s3.357 7.5 7.5 7.5h68.703c4.143 0 7.5-3.358 7.5-7.5s-3.358-7.5-7.5-7.5z"/><path d="m353.065 73.208h105.39c4.143 0 7.5-3.358 7.5-7.5s-3.357-7.5-7.5-7.5h-105.39c-4.143 0-7.5 3.358-7.5 7.5s3.358 7.5 7.5 7.5z"/><path d="m440.112 92.792h-68.703c-4.143 0-7.5 3.358-7.5 7.5s3.357 7.5 7.5 7.5h68.703c4.143 0 7.5-3.358 7.5-7.5s-3.357-7.5-7.5-7.5z"/><path d="m96.053 177.058c3.461 5.992 9.657 9.57 16.577 9.57s13.117-3.578 16.578-9.57l36.133-62.577c3.461-5.993 3.461-13.15.001-19.144s-9.657-9.572-16.578-9.572h-8.634v-13.954c0-3.707 3.017-6.723 6.724-6.723h60.883c15.163 0 27.5-12.336 27.5-27.5s-12.337-27.5-27.5-27.5h-60.883c-34.034 0-61.724 27.689-61.724 61.723v13.954h-8.636c-6.92 0-13.118 3.578-16.578 9.571-3.46 5.994-3.461 13.15 0 19.145zm-23.147-74.222c.359-.623 1.429-2.071 3.588-2.071h16.136c4.143 0 7.5-3.358 7.5-7.5v-21.454c0-25.763 20.96-46.723 46.724-46.723h60.883c6.893 0 12.5 5.607 12.5 12.5s-5.607 12.5-12.5 12.5h-60.883c-11.979 0-21.724 9.745-21.724 21.723v21.454c0 4.142 3.357 7.5 7.5 7.5h16.134c2.159 0 3.229 1.449 3.588 2.071.359.623 1.079 2.273-.001 4.143l-36.133 62.577c-1.079 1.87-2.868 2.071-3.588 2.071-.719 0-2.508-.202-3.587-2.071l-36.137-62.576c-1.079-1.87-.359-3.521 0-4.144z"/><path d="m415.945 334.94c-3.46-5.993-9.657-9.57-16.576-9.57s-13.115 3.578-16.574 9.569l-36.14 62.581c-3.46 5.992-3.46 13.146-.001 19.137 3.461 5.994 9.661 9.573 16.586 9.573h8.63v13.96c0 3.706-3.015 6.72-6.72 6.72h-60.89c-15.163 0-27.5 12.336-27.5 27.5s12.337 27.5 27.5 27.5h60.891c8.613 0 16.955-1.752 24.795-5.208 3.79-1.67 5.508-6.098 3.838-9.888-1.671-3.791-6.096-5.509-9.889-3.838-5.921 2.61-12.228 3.933-18.744 3.933h-60.891c-6.893 0-12.5-5.607-12.5-12.5s5.607-12.5 12.5-12.5h60.891c11.977 0 21.72-9.744 21.72-21.72v-21.46c0-4.142-3.357-7.5-7.5-7.5h-16.13c-2.165 0-3.235-1.449-3.596-2.073-.358-.622-1.077-2.27.001-4.137l36.14-62.581c1.078-1.868 2.866-2.069 3.584-2.069.719 0 2.507.202 3.586 2.07l36.14 62.58c1.079 1.868.359 3.517 0 4.14-.359.622-1.428 2.07-3.585 2.07h-16.14c-4.143 0-7.5 3.358-7.5 7.5v21.46c0 7.968-2.048 15.836-5.924 22.755-2.023 3.614-.735 8.185 2.879 10.208 3.611 2.023 8.184.735 10.209-2.878 5.126-9.153 7.836-19.556 7.836-30.085v-13.96h8.64c6.919 0 13.116-3.578 16.575-9.57 3.46-5.993 3.46-13.147 0-19.14z"/></g></g></svg>