<svg id="Capa_1" enable-background="new 0 0 512 512" height="512" viewBox="0 0 512 512" width="512" xmlns="http://www.w3.org/2000/svg"><g><g><path d="m177.188 370.539h157.624v88.848h-157.624z" fill="#685e68"/><path d="m471.414 393.543h-430.828c-18.273 0-33.086-14.813-33.086-33.086v-296.708c0-18.273 14.813-33.086 33.086-33.086h430.828c18.273 0 33.086 14.813 33.086 33.086v296.708c0 18.273-14.813 33.086-33.086 33.086z" fill="#7a6d79"/><path d="m60.53 393.539h-19.95c-18.27 0-33.08-14.81-33.08-33.09v-296.7c0-18.28 14.81-33.09 33.08-33.09h19.95c-18.27 0-33.08 14.81-33.08 33.09v296.7c0 18.28 14.81 33.09 33.08 33.09z" fill="#685e68"/><path d="m42.5 335.353v-246.5c0-12.808 10.383-23.191 23.191-23.191h380.619c12.808 0 23.191 10.383 23.191 23.191v246.5c0 12.808-10.383 23.191-23.191 23.191h-380.619c-12.808-.001-23.191-10.383-23.191-23.191z" fill="#60b7ff"/><path d="m92.62 358.543h-26.93c-12.81 0-23.19-10.38-23.19-23.19v-246.5c0-12.81 10.38-23.19 23.19-23.19h26.93c-12.8 0-23.19 10.38-23.19 23.19v246.5c0 12.81 10.39 23.19 23.19 23.19z" fill="#26a6fe"/><path d="m367.763 481.334h-223.526c-12.121 0-21.948-9.826-21.948-21.948 0-12.121 9.826-21.948 21.948-21.948h223.526c12.121 0 21.948 9.826 21.948 21.948 0 12.122-9.827 21.948-21.948 21.948z" fill="#7a6d79"/><path d="m199.109 481.337h-54.87c-12.12 0-21.95-9.83-21.95-21.95 0-6.06 2.46-11.55 6.43-15.52s9.46-6.43 15.52-6.43h54.87c-6.07 0-11.55 2.46-15.52 6.43s-6.43 9.46-6.43 15.52c0 12.12 9.82 21.95 21.95 21.95z" fill="#685e68"/><g><path d="m387.332 333.227h-262.664c-11.215 0-20.307-9.092-20.307-20.307v-147.203c0-11.215 9.092-20.307 20.307-20.307h262.664c11.215 0 20.307 9.092 20.307 20.307v147.203c0 11.216-9.092 20.307-20.307 20.307z" fill="#fe646f"/><path d="m132.577 260.207 8.148 49.339h230.55l8.148-49.339-123.423-33.395z" fill="#ebebeb"/><path d="m379.42 89.663v170.54h-74.08c-4.31 0-8.49.55-12.48 1.59-21.21 5.53-36.86 24.81-36.86 47.75 0-13.62-5.52-25.96-14.45-34.89s-21.27-14.45-34.89-14.45h-74.08v-170.54h74.08c27.25 0 49.34 22.09 49.34 49.34 0-13.62 5.52-25.96 14.45-34.89 6.1-6.1 13.8-10.61 22.41-12.86 3.99-1.04 8.17-1.59 12.48-1.59z" fill="#f8f6f6"/><path d="m292.86 91.252v170.54c-21.21 5.53-36.86 24.81-36.86 47.75v-170.54c0-13.62 5.52-25.96 14.45-34.89 6.1-6.099 13.8-10.61 22.41-12.86z" fill="#ebebeb"/></g></g><g><path d="m471.414 23.162h-430.828c-22.379 0-40.586 18.207-40.586 40.587v296.708c0 22.379 18.207 40.586 40.586 40.586h129.102v28.895h-25.448c-7.864 0-15.26 3.063-20.824 8.627-5.562 5.563-8.626 12.958-8.626 20.823 0 16.239 13.211 29.45 29.45 29.45h22.399c4.143 0 7.5-3.358 7.5-7.5s-3.357-7.5-7.5-7.5h-22.399c-7.968 0-14.45-6.482-14.45-14.45 0-3.859 1.503-7.487 4.232-10.216 2.73-2.73 6.359-4.234 10.218-4.234h223.52c7.968 0 14.45 6.482 14.45 14.45 0 3.858-1.504 7.487-4.232 10.216-2.73 2.73-6.359 4.233-10.218 4.233h-166.16c-4.143 0-7.5 3.358-7.5 7.5s3.357 7.5 7.5 7.5h166.16c7.864 0 15.26-3.063 20.824-8.627 5.562-5.563 8.626-12.958 8.626-20.823 0-16.239-13.211-29.45-29.45-29.45h-25.447v-28.895h129.102c22.379 0 40.586-18.207 40.586-40.586v-296.707c-.001-22.38-18.208-40.587-40.587-40.587zm-144.102 406.776h-142.624v-28.895h142.625v28.895zm169.688-69.481c0 14.108-11.478 25.586-25.586 25.586h-430.828c-14.108 0-25.586-11.477-25.586-25.586v-296.708c0-14.108 11.478-25.586 25.586-25.586h430.828c14.108-.001 25.586 11.477 25.586 25.586z"/><path d="m446.31 58.162h-380.62c-16.922 0-30.69 13.768-30.69 30.691v246.5c0 16.923 13.768 30.69 30.69 30.69h380.62c16.923 0 30.69-13.768 30.69-30.69v-246.5c0-16.923-13.768-30.691-30.69-30.691zm15.69 277.191c0 8.652-7.039 15.69-15.69 15.69h-380.62c-8.651 0-15.69-7.039-15.69-15.69v-246.5c0-8.652 7.039-15.691 15.69-15.691h380.62c8.651 0 15.69 7.039 15.69 15.691z"/><path d="m387.33 137.912h-.41v-48.254c0-4.142-3.357-7.5-7.5-7.5h-39.6c-4.143 0-7.5 3.358-7.5 7.5s3.357 7.5 7.5 7.5h32.1v155.55h-66.58c-16.537 0-31.444 7.099-41.84 18.409v-132.118s0 0 0 0c0-11.178 4.352-21.686 12.254-29.587 7.788-7.789 18.137-12.137 29.139-12.244 4.143-.04 7.468-3.43 7.428-7.572-.04-4.117-3.39-7.427-7.498-7.427-.024 0-.05 0-.074 0-14.954.145-29.019 6.053-39.601 16.636-3.618 3.618-6.688 7.637-9.169 11.958-9.815-17.08-28.245-28.604-49.318-28.604h-74.08c-4.143 0-7.5 3.358-7.5 7.5v48.254h-.41c-15.334 0-27.81 12.471-27.81 27.8v147.21c0 15.329 12.476 27.8 27.81 27.8h262.66c15.334 0 27.81-12.471 27.81-27.8v-147.21c-.001-15.329-12.477-27.801-27.811-27.801zm-81.99 129.796h65.243l-5.671 34.338h-100.725c3.546-19.501 20.644-34.338 41.153-34.338zm-165.26-170.55h66.58c23.07 0 41.84 18.769 41.84 41.84s0 0 0 0v132.114c-.543-.59-1.076-1.188-1.646-1.758-10.734-10.735-25.009-16.647-40.193-16.647h-66.58v-155.549zm107.742 204.888h-100.734l-5.671-34.338h65.243c11.178 0 21.685 4.352 29.587 12.254 6.103 6.102 10.077 13.763 11.575 22.084zm152.318 10.877c0 7.058-5.746 12.8-12.81 12.8h-262.66c-7.063 0-12.81-5.742-12.81-12.8v-147.21c0-7.058 5.746-12.8 12.81-12.8h.41v107.295c0 .417.042.822.108 1.22l-.01.002 8.147 49.339c.598 3.621 3.729 6.278 7.399 6.278h230.551c3.671 0 6.802-2.657 7.399-6.278l8.147-49.339-.01-.002c.065-.398.108-.803.108-1.22v-107.296h.41c7.063 0 12.81 5.742 12.81 12.8v147.211z"/><path d="m173.065 145.455h38.602c4.143 0 7.5-3.358 7.5-7.5s-3.357-7.5-7.5-7.5h-38.602c-4.143 0-7.5 3.358-7.5 7.5s3.358 7.5 7.5 7.5z"/><path d="m173.065 173.257h38.602c4.143 0 7.5-3.358 7.5-7.5s-3.357-7.5-7.5-7.5h-38.602c-4.143 0-7.5 3.358-7.5 7.5s3.358 7.5 7.5 7.5z"/><path d="m173.065 201.058h38.602c4.143 0 7.5-3.358 7.5-7.5s-3.357-7.5-7.5-7.5h-38.602c-4.143 0-7.5 3.358-7.5 7.5s3.358 7.5 7.5 7.5z"/><path d="m338.935 130.455h-38.602c-4.143 0-7.5 3.358-7.5 7.5s3.357 7.5 7.5 7.5h38.602c4.143 0 7.5-3.358 7.5-7.5s-3.358-7.5-7.5-7.5z"/><path d="m338.935 158.257h-38.602c-4.143 0-7.5 3.358-7.5 7.5s3.357 7.5 7.5 7.5h38.602c4.143 0 7.5-3.358 7.5-7.5s-3.358-7.5-7.5-7.5z"/><path d="m338.935 186.058h-38.602c-4.143 0-7.5 3.358-7.5 7.5s3.357 7.5 7.5 7.5h38.602c4.143 0 7.5-3.358 7.5-7.5s-3.358-7.5-7.5-7.5z"/><path d="m219.167 221.359c0-4.142-3.357-7.5-7.5-7.5h-38.602c-4.143 0-7.5 3.358-7.5 7.5s3.357 7.5 7.5 7.5h38.602c4.143 0 7.5-3.358 7.5-7.5z"/><path d="m338.935 213.859h-38.602c-4.143 0-7.5 3.358-7.5 7.5s3.357 7.5 7.5 7.5h38.602c4.143 0 7.5-3.358 7.5-7.5s-3.358-7.5-7.5-7.5z"/></g></g></svg>