<svg id="Capa_1" enable-background="new 0 0 512 512" height="512" viewBox="0 0 512 512" width="512" xmlns="http://www.w3.org/2000/svg"><g><g><path d="m186.811 251.539h-110.889c-11.134 0-20.16 9.026-20.16 20.16 0 11.134 9.026 20.16 20.16 20.16h110.889c11.134 0 20.16-9.026 20.16-20.16 0-11.134-9.026-20.16-20.16-20.16z" fill="#60b7ff"/><path d="m110.372 285.947c3.651 3.651 8.681 5.911 14.253 5.911h-48.703c-5.561 0-10.613-2.26-14.253-5.911-3.651-3.651-5.911-8.681-5.911-14.253 0-11.133 9.032-20.154 20.165-20.154h48.703c-11.133 0-20.154 9.021-20.154 20.154-.001 5.572 2.249 10.602 5.9 14.253z" fill="#26a6fe"/><g><path d="m369.801 306.889c34.424-17.398 48.226-59.408 30.828-93.831l-103.505-204.799c-68.848 34.796-96.452 118.815-61.656 187.663l40.502 80.139c17.398 34.423 59.407 48.226 93.831 30.828z" fill="#ebebeb"/><path d="m398.522 363.717c8.178-4.133 11.457-14.114 7.324-22.292l-86.275-170.706c-4.133-8.178-14.114-11.457-22.292-7.324s-11.457 14.114-7.324 22.292l86.275 170.706c4.133 8.178 14.114 11.457 22.292 7.324z" fill="#7a6d79"/></g><path d="m47.164 436.493s-1.375-17.412-17.241-33.403c-5.673-5.718-1.613-15.445 6.442-15.445h166.428c29.385 0 53.207 23.821 53.207 53.207 0-29.385 23.821-53.207 53.207-53.207h166.428c8.055 0 12.115 9.726 6.442 15.445-15.866 15.992-17.241 33.403-17.241 33.403v15h-142.243l-25.273 41.235h-81.14l-17.292-35.914-140.997-6.651z" fill="#ebebeb"/><path d="m300.58 503.733h-89.16c-8.208 0-15.073-6.594-15.001-14.802.108-12.354-9.91-22.438-22.239-22.438h-151.68c-8.284 0-15-6.716-15-15 0-8.284 6.716-15 15-15h151.68c23.594 0 43.584 15.722 50.045 37.24h63.549c6.461-21.518 26.451-37.24 50.045-37.24h151.681c8.284 0 15 6.716 15 15 0 8.284-6.716 15-15 15h-151.68c-12.329 0-22.098 10.089-22.241 22.417-.095 8.202-6.774 14.823-14.999 14.823z" fill="#c68d7a"/><path d="m182.088 291.858-50.722-20.16-50.722 20.16c-26.451 0-47.893 21.442-47.893 47.893 0 26.451 21.442 47.893 47.893 47.893h101.443c26.451 0 47.893-21.442 47.893-47.893.001-26.45-21.441-47.893-47.892-47.893z" fill="#60b7ff"/><path d="m112.93 373.614c8.66 8.671 20.642 14.03 33.866 14.03h-66.15c-13.224 0-25.195-5.36-33.866-14.03-8.671-8.671-14.03-20.642-14.03-33.866 0-26.447 21.449-47.896 47.896-47.896h66.15c-26.458 0-47.896 21.449-47.896 47.896-.001 13.224 5.359 25.196 14.03 33.866z" fill="#26a6fe"/><path d="m149.863 251.542v46.899c0 8.48-6.867 15.346-15.346 15.346s-15.357-6.867-15.357-15.346v18.297c0 8.48-6.867 15.357-15.346 15.357-8.48 0-15.357-6.877-15.357-15.357v-65.195h61.406z" fill="#7a6d79"/></g><g><path d="m269.276 279.449c13.409 26.528 40.227 42.501 68.874 42.499 3.909 0 7.856-.306 11.805-.915l19.58 38.743c4.236 8.382 12.734 13.222 21.541 13.222 3.65 0 7.354-.832 10.827-2.588 11.855-5.992 16.627-20.512 10.635-32.368l-19.582-38.744c23.581-23.461 29.604-59.468 14.366-89.625l-52.97-104.8c-1.869-3.697-6.383-5.178-10.076-3.31-3.697 1.868-5.18 6.38-3.311 10.077l25.208 49.875-16.886 51.38-23.025-45.557c-5.991-11.856-20.512-16.627-32.368-10.635-5.743 2.903-10.013 7.868-12.021 13.982-.448 1.363-.764 2.747-.964 4.138l-50.563-16.612c-1.606-8.237-2.427-16.639-2.427-25.173 0-47.691 25.096-90.905 65.983-114.508l31.273 61.881c1.868 3.697 6.382 5.179 10.076 3.311 3.697-1.868 5.18-6.38 3.311-10.077l-34.75-68.76c-1.868-3.697-6.377-5.179-10.076-3.311-24.762 12.513-45.382 31.633-59.632 55.291-13.859 23.011-21.186 49.351-21.186 76.173 0 23.159 5.335 45.457 15.856 66.273zm13.387-6.766-30.98-61.303 51.391 16.89 39.67 78.493c-24.765 1.824-48.561-11.29-60.081-34.08zm93.08-92.239 18.193 35.995c11.519 22.797 7.968 49.736-8.188 68.593l-26.891-53.207zm-79.618-5.079c.758-2.307 2.369-4.181 4.536-5.276 1.312-.663 2.709-.977 4.087-.977 3.323 0 6.53 1.827 8.129 4.99l86.275 170.706c2.261 4.474.46 9.954-4.014 12.215-4.477 2.263-9.955.46-12.216-4.013l-86.274-170.706c-1.095-2.168-1.281-4.632-.523-6.939zm-11.462 16.478 8.841 17.492-51.388-16.889c-2.79-5.531-5.164-11.179-7.136-16.926z"/><path d="m489.5 428.996h-15.153c1.97-5.587 5.776-13.289 13.054-20.624 4.723-4.76 6.107-11.836 3.529-18.027-2.581-6.196-8.584-10.2-15.295-10.2h-166.429c-22.893 0-42.866 12.738-53.206 31.498-7.998-14.511-21.763-25.413-38.182-29.61 12.015-10.168 19.663-25.344 19.663-42.28 0-14.803-5.764-28.712-16.224-39.16-4.185-4.189-8.929-7.61-14.057-10.225 4.512-4.924 7.271-11.48 7.271-18.669 0-15.251-12.408-27.66-27.659-27.66h-110.89c-15.251 0-27.659 12.408-27.659 27.66 0 7.202 2.77 13.768 7.296 18.695-17.968 9.168-30.309 27.844-30.309 49.358 0 14.803 5.764 28.712 16.224 39.16.422.422.859.825 1.292 1.232h-6.4c-6.711 0-12.714 4.004-15.295 10.2-2.578 6.192-1.193 13.268 3.529 18.027 7.281 7.339 11.087 15.045 13.056 20.625h-15.156c-6.008 0-11.655 2.339-15.893 6.576-4.26 4.245-6.607 9.9-6.607 15.924 0 12.406 10.094 22.5 22.5 22.5h151.68c3.955 0 7.672 1.553 10.466 4.372 2.792 2.817 4.31 6.546 4.274 10.504-.05 5.88 2.227 11.442 6.409 15.661 4.224 4.26 10.089 6.703 16.091 6.703h89.16c12.258 0 22.351-9.977 22.499-22.245.094-8.268 6.707-14.995 14.741-14.995h151.68c6.017 0 11.668-2.346 15.893-6.586 4.261-4.244 6.607-9.896 6.607-15.914 0-12.407-10.094-22.5-22.5-22.5zm-290.029-157.297c0 6.98-5.679 12.66-12.659 12.66v.215c-1.562-.131-3.135-.211-4.722-.211h-24.727v-25.323h29.448c6.981-.001 12.66 5.678 12.66 12.659zm-57.108-12.657v39.399c0 4.326-3.52 7.846-7.847 7.846-4.333 0-7.857-3.52-7.857-7.846 0-4.142-3.357-7.5-7.5-7.5s-7.5 3.358-7.5 7.5v18.297c0 4.332-3.52 7.857-7.846 7.857-4.333 0-7.857-3.525-7.857-7.857v-57.695h46.407zm-79.1 12.657c0-6.98 5.679-12.66 12.659-12.66h5.034v25.323h-.306c-1.594 0-3.168.083-4.729.216v-.22c-6.98 0-12.658-5.679-12.658-12.659zm-23.013 68.053c0-22.271 18.124-40.39 40.4-40.39h.306v17.375c0 12.603 10.254 22.857 22.857 22.857 11.553 0 21.131-8.624 22.639-19.775 2.509.948 5.228 1.468 8.064 1.468 12.289 0 22.337-9.753 22.823-21.924h24.75c10.793 0 20.934 4.201 28.561 11.836 7.629 7.62 11.83 17.761 11.83 28.553 0 22.271-18.119 40.39-40.391 40.39h-101.439c-10.8 0-20.943-4.201-28.57-11.836-7.629-7.62-11.83-17.761-11.83-28.554zm454.536 117.05c-1.409 1.414-3.286 2.193-5.286 2.193h-151.68c-16.212 0-29.554 13.379-29.739 29.819-.05 4.092-3.415 7.421-7.501 7.421h-89.16c-2.029 0-4.012-.825-5.438-2.264-1.346-1.357-2.078-3.123-2.062-4.969.071-7.986-2.99-15.513-8.621-21.194-5.632-5.683-13.133-8.813-21.119-8.813h-151.68c-4.136 0-7.5-3.365-7.5-7.5 0-2.007.779-3.887 2.204-5.307 1.414-1.414 3.295-2.193 5.296-2.193h88.25c4.143 0 7.5-3.358 7.5-7.5s-3.357-7.5-7.5-7.5h-57.412c-1.937-7.419-6.671-19.679-18.09-31.189-.181-.182-.73-.735-.33-1.695.267-.642.754-.967 1.447-.967h166.429c25.202 0 45.706 20.504 45.706 45.707 0 4.142 3.357 7.5 7.5 7.5s7.5-3.358 7.5-7.5c0-25.203 20.504-45.707 45.706-45.707h166.429c.693 0 1.181.325 1.447.967.4.959-.149 1.513-.33 1.695-11.419 11.51-16.153 23.77-18.09 31.189h-120.842c-24.26 0-46.262 15.057-55.342 37.24h-52.957c-9.08-22.183-31.082-37.24-55.342-37.24h-28.43c-4.143 0-7.5 3.358-7.5 7.5s3.357 7.5 7.5 7.5h28.43c19.593 0 37.221 13.118 42.868 31.9.953 3.17 3.872 5.34 7.183 5.34h63.539c3.311 0 6.229-2.17 7.183-5.34 5.647-18.782 23.275-31.9 42.868-31.9h151.68c4.136 0 7.5 3.365 7.5 7.5 0 2.001-.779 3.878-2.214 5.307z"/></g></g></svg>