<svg id="Capa_1" enable-background="new 0 0 512 512" height="512" viewBox="0 0 512 512" width="512" xmlns="http://www.w3.org/2000/svg"><g><g><path d="m56.403 160.511h398.456v322.981h-398.456z" fill="#c68d7a"/><path d="m56.403 160.511h20.073v322.981h-20.073z" fill="#bc7c63"/><path d="m28.013 160.511v13.885c0 16.462 13.345 29.807 29.807 29.807 10.295 0 19.371-5.22 24.726-13.157 5.355 7.937 14.431 13.157 24.726 13.157 10.295 0 19.371-5.22 24.726-13.157 5.355 7.937 14.431 13.157 24.726 13.157 10.295 0 19.371-5.22 24.726-13.157 5.355 7.937 14.431 13.157 24.726 13.157 10.295 0 19.371-5.22 24.726-13.157 5.355 7.937 14.431 13.157 24.726 13.157 10.295 0 19.371-5.22 24.726-13.157 5.355 7.937 14.431 13.157 24.726 13.157 10.295 0 19.371-5.22 24.726-13.157 5.355 7.937 14.431 13.157 24.726 13.157 10.295 0 19.371-5.22 24.726-13.157 5.355 7.937 14.431 13.157 24.726 13.157 10.295 0 19.371-5.22 24.726-13.157 5.355 7.937 14.431 13.157 24.726 13.157 16.462 0 29.807-13.345 29.807-29.807v-13.885z" fill="#ebebeb"/><path d="m504.5 99.196v44.157c0 9.476-7.682 17.158-17.158 17.158h-461.945c-9.476 0-17.158-7.682-17.158-17.158v-44.157c0-9.476 7.682-17.158 17.158-17.158h24.6c27.689-42.996 109.617-74.17 206.373-74.17s178.684 31.174 206.373 74.17h24.6c9.475 0 17.157 7.682 17.157 17.158z" fill="#fd8087"/><path d="m280.287 8.517c-86.161 4.643-157.096 34.12-182.468 73.521h-24.603c-9.476 0-17.155 7.679-17.155 17.154v44.164c0 9.476 7.679 17.155 17.155 17.155h-47.819c-9.476 0-17.154-7.679-17.154-17.155v-44.164c0-9.476 7.679-17.154 17.154-17.154h24.603c27.689-42.996 109.617-74.17 206.373-74.17 8.088 0 16.066.22 23.914.649z" fill="#fe646f"/><g fill="#ebebeb"><circle cx="463.617" cy="120.437" r="14.444"/><circle cx="49.121" cy="120.437" r="14.444"/></g><path d="m92.414 239.72h189.931v170.008h-189.931z" fill="#7a6d79"/><path d="m128.337 255.72h118.085v138.008h-118.085z" fill="#d4f2f6" transform="matrix(0 1 -1 0 512.103 137.344)"/><path d="m313.023 239.72h106.958v239.074h-106.958z" fill="#7a6d79"/><path d="m294.478 310.187h144.047v55.035h-144.047z" fill="#d4f2f6" transform="matrix(0 1 -1 0 704.206 -28.797)"/><path d="m483.124 462.855h-454.987c-11.398 0-20.637 9.24-20.637 20.637 0 11.398 9.24 20.637 20.637 20.637h454.987c11.398 0 20.637-9.24 20.637-20.637 0-11.397-9.24-20.637-20.637-20.637z" fill="#9be69d"/><path d="m85.264 498.081c3.734 3.744 8.897 6.051 14.598 6.051h-71.723c-5.701 0-10.864-2.307-14.598-6.051-3.734-3.734-6.041-8.897-6.041-14.588 0-11.393 9.236-20.639 20.639-20.639h71.723c-11.403 0-20.639 9.246-20.639 20.639 0 5.691 2.307 10.853 6.041 14.588z" fill="#6fd7a3"/></g><g><path d="m479.827 200.773c7.045-7.044 10.925-16.41 10.925-26.373v-6.632c11.988-1.667 21.248-11.978 21.248-24.418v-44.15c0-13.598-11.062-24.66-24.66-24.66h-20.632c-10.981-15.334-28.652-29.439-51.395-40.979-3.693-1.874-8.208-.399-10.082 3.295s-.399 8.208 3.295 10.082c22.061 11.193 38.626 24.734 47.906 39.159 1.381 2.146 3.757 3.442 6.308 3.442h24.6c5.326 0 9.66 4.333 9.66 9.66v44.15c0 5.326-4.334 9.66-9.66 9.66h-461.94c-5.326 0-9.66-4.333-9.66-9.66v-44.149c0-5.327 4.333-9.66 9.66-9.66h24.6c2.55 0 4.925-1.295 6.306-3.439 12.68-19.691 38.801-37.528 73.552-50.226 36.711-13.415 80.458-20.505 126.512-20.505 43.557 0 85.346 6.4 120.849 18.508 3.917 1.334 8.182-.756 9.52-4.678 1.337-3.92-.757-8.183-4.678-9.52-37.043-12.632-80.506-19.31-125.691-19.31-94.892 0-178.519 29.655-210.34 74.17h-20.63c-13.597 0-24.66 11.062-24.66 24.66v44.15c0 11.923 8.507 21.896 19.769 24.171v6.879c0 17.5 12.116 32.218 28.398 36.223v244.732h-20.77c-15.515 0-28.137 12.622-28.137 28.137s12.622 28.138 28.137 28.138h454.987c15.515 0 28.137-12.623 28.137-28.138s-12.622-28.137-28.137-28.137h-20.771v-244.719c6.558-1.6 12.577-4.965 17.474-9.863zm-159.305 254.578v-208.131h91.958v208.131zm99.458-223.131h-106.958c-4.143 0-7.5 3.358-7.5 7.5v215.631h-241.615v-244.163c4.093-.677 8.065-2.016 11.708-3.997 2.483-1.35 4.809-2.986 6.925-4.859 6.743 5.976 15.501 9.375 24.73 9.375 6.199 0 12.353-1.56 17.801-4.516 2.481-1.349 4.805-2.984 6.92-4.859 6.749 5.977 15.507 9.375 24.735 9.375 6.212 0 12.368-1.562 17.801-4.516 2.479-1.348 4.802-2.982 6.917-4.856 6.743 5.975 15.499 9.372 24.728 9.372 6.212 0 12.368-1.562 17.801-4.516 2.483-1.35 4.809-2.985 6.924-4.858 6.744 5.976 15.501 9.374 24.73 9.374 6.199 0 12.352-1.56 17.801-4.516 2.481-1.349 4.805-2.984 6.921-4.859 6.748 5.977 15.508 9.375 24.734 9.375 6.213 0 12.368-1.562 17.801-4.516 2.479-1.348 4.803-2.982 6.917-4.856 6.743 5.975 15.499 9.372 24.729 9.372 6.213 0 12.368-1.562 17.801-4.516 2.484-1.35 4.81-2.985 6.925-4.858 6.743 5.976 15.501 9.374 24.73 9.374 6.2 0 12.354-1.56 17.801-4.515 2.481-1.349 4.806-2.984 6.921-4.86 5.242 4.642 11.698 7.719 18.643 8.866v244.154h-19.871v-215.632c0-4.142-3.357-7.5-7.5-7.5zm-384.471-57.82v-6.391h440.243v6.391c0 5.956-2.319 11.554-6.531 15.766-4.217 4.217-9.819 6.54-15.774 6.54-7.426 0-14.349-3.686-18.519-9.858-1.395-2.065-3.725-3.302-6.216-3.302-2.492 0-4.821 1.238-6.215 3.304-2.013 2.98-4.734 5.458-7.865 7.159-3.299 1.79-6.88 2.697-10.643 2.697-7.428 0-14.345-3.683-18.504-9.853-1.394-2.067-3.724-3.307-6.217-3.308-.001 0-.001 0-.002 0-2.492 0-4.822 1.238-6.216 3.304-2.009 2.975-4.733 5.451-7.881 7.163-3.241 1.762-6.92 2.693-10.637 2.693-7.428 0-14.345-3.683-18.504-9.853-1.394-2.067-3.723-3.307-6.216-3.308-.001 0-.002 0-.003 0-2.492 0-4.821 1.238-6.216 3.303-2.013 2.981-4.735 5.458-7.871 7.164-3.241 1.762-6.92 2.693-10.637 2.693-7.426 0-14.349-3.686-18.519-9.858-1.395-2.065-3.725-3.302-6.216-3.302-2.492 0-4.821 1.238-6.215 3.304-2.013 2.98-4.733 5.458-7.863 7.159-3.301 1.79-6.882 2.697-10.644 2.697-7.427 0-14.345-3.683-18.504-9.853-1.394-2.067-3.724-3.307-6.217-3.307-.001 0-.001 0-.002 0-2.492 0-4.822 1.238-6.216 3.304-2.008 2.975-4.733 5.452-7.88 7.163-3.241 1.762-6.919 2.693-10.636 2.693-7.427 0-14.345-3.683-18.504-9.853-1.394-2.067-3.724-3.306-6.216-3.307-.001 0-.001 0-.002 0-2.492 0-4.821 1.238-6.216 3.303-2.013 2.981-4.734 5.458-7.871 7.164-3.241 1.762-6.919 2.693-10.636 2.693-7.426 0-14.349-3.685-18.519-9.858-1.395-2.065-3.724-3.302-6.216-3.302s-4.821 1.238-6.215 3.304c-2.012 2.98-4.733 5.457-7.864 7.159-3.3 1.79-6.881 2.697-10.643 2.697-7.427 0-14.345-3.683-18.504-9.853-1.394-2.067-3.723-3.306-6.216-3.307-.001 0-.001 0-.002 0-2.492 0-4.821 1.238-6.216 3.303-2.009 2.976-4.734 5.453-7.881 7.164-3.241 1.762-6.919 2.693-10.636 2.693-12.3.002-22.307-10.004-22.307-22.304zm460.752 309.092c0 7.244-5.894 13.138-13.137 13.138h-454.987c-7.244 0-13.137-5.894-13.137-13.138s5.893-13.137 13.137-13.137h454.987c7.243 0 13.137 5.893 13.137 13.137z"/><path d="m318.737 64.415c-4.143 0-7.5 3.358-7.5 7.5v54.563c0 4.142 3.357 7.5 7.5 7.5s7.5-3.358 7.5-7.5v-12.53l18.582 17.927c1.455 1.404 3.332 2.103 5.206 2.103 1.965 0 3.927-.767 5.398-2.292 2.876-2.981 2.791-7.729-.19-10.605l-23.81-22.971 21.74-19.984c3.05-2.803 3.25-7.548.446-10.598-2.803-3.049-7.548-3.249-10.597-.446l-16.776 15.421v-10.588c.001-4.143-3.356-7.5-7.499-7.5z"/><path d="m120.271 64.415h-15.849c-4.142 0-7.5 3.358-7.5 7.5v25.125.041 29.397c0 1.995.795 3.908 2.208 5.315 1.406 1.4 3.309 2.185 5.292 2.185h.033s14.568-.065 18.584-.065c12.234 0 22.187-9.953 22.187-22.187 0-6.758-3.04-12.815-7.821-16.888 1.841-3.03 2.921-6.572 2.921-10.369 0-11.058-8.997-20.054-20.055-20.054zm0 15c2.788 0 5.055 2.268 5.055 5.055 0 2.788-2.268 5.055-5.055 5.055-1.156 0-3.328.006-5.7.015h-2.649v-10.125zm2.768 39.498c-2.061 0-6.889.017-11.117.034v-14.397c.889-.003 1.789-.007 2.664-.01h8.454c3.963 0 7.187 3.224 7.187 7.187s-3.226 7.186-7.188 7.186z"/><path d="m387.341 79.953c7.333-2.208 14.191 3.188 14.392 3.349 3.17 2.625 7.87 2.205 10.523-.952 2.665-3.17 2.256-7.902-.915-10.567-.527-.442-13.067-10.789-28.326-6.192-7.788 2.346-13.3 8.496-14.385 16.048-1.02 7.103 2.061 13.937 8.038 17.833.331.216.679.406 1.04.567.316.141 7.851 3.494 16.333 6.624 1.741.642 7.372 3.021 6.721 6.671-.495 2.774-3.945 5.644-8.862 5.644-5.234 0-10.266-2.103-13.457-5.625-2.782-3.07-7.525-3.301-10.595-.521-3.068 2.782-3.302 7.524-.521 10.594 6.078 6.706 15.034 10.551 24.572 10.551 11.828 0 21.766-7.573 23.629-18.007 1.406-7.878-2.136-18.158-16.296-23.381-6.584-2.429-12.723-5.071-14.729-5.948-1.147-.978-1.105-2.309-1.024-2.871.119-.834.735-2.875 3.862-3.817z"/><path d="m152.518 99.196c0 19.179 15.603 34.782 34.782 34.782s34.782-15.603 34.782-34.782c0-19.178-15.603-34.781-34.782-34.781s-34.782 15.603-34.782 34.781zm54.563 0c0 10.908-8.874 19.782-19.782 19.782s-19.782-8.874-19.782-19.782c0-10.907 8.874-19.781 19.782-19.781s19.782 8.874 19.782 19.781z"/><path d="m231.135 99.196c0 19.179 15.603 34.782 34.781 34.782 19.179 0 34.782-15.603 34.782-34.782 0-19.178-15.604-34.781-34.782-34.781s-34.781 15.603-34.781 34.781zm54.563 0c0 10.908-8.874 19.782-19.782 19.782-10.907 0-19.781-8.874-19.781-19.782 0-10.907 8.874-19.781 19.781-19.781 10.908 0 19.782 8.874 19.782 19.781z"/><path d="m360.26 47.745c1.073-4-1.301-8.114-5.301-9.187-30.251-8.114-63.421-12.228-98.589-12.228-35.048 0-68.139 4.114-98.352 12.229-4 1.074-6.373 5.188-5.298 9.188.899 3.349 3.929 5.557 7.238 5.557.644 0 1.299-.083 1.95-.259 28.945-7.773 60.727-11.715 94.461-11.715 33.856 0 65.719 3.942 94.703 11.716 4.003 1.071 8.115-1.299 9.188-5.301z"/><path d="m485.562 120.437c0-12.1-9.844-21.944-21.944-21.944s-21.943 9.844-21.943 21.944 9.844 21.944 21.943 21.944c12.1 0 21.944-9.844 21.944-21.944zm-28.888 0c0-3.829 3.115-6.944 6.943-6.944 3.829 0 6.944 3.115 6.944 6.944s-3.115 6.944-6.944 6.944c-3.828 0-6.943-3.115-6.943-6.944z"/><path d="m49.122 98.493c-12.1 0-21.944 9.844-21.944 21.944s9.844 21.944 21.944 21.944 21.944-9.844 21.944-21.944-9.844-21.944-21.944-21.944zm0 28.888c-3.829 0-6.944-3.115-6.944-6.944s3.115-6.944 6.944-6.944 6.944 3.115 6.944 6.944-3.115 6.944-6.944 6.944z"/><path d="m282.34 232.22h-189.93c-4.142 0-7.5 3.358-7.5 7.5v170.01c0 4.142 3.358 7.5 7.5 7.5h25.86c4.142 0 7.5-3.358 7.5-7.5s-3.358-7.5-7.5-7.5h-18.36v-155.01h174.93v155.01h-121.57c-4.142 0-7.5 3.358-7.5 7.5s3.358 7.5 7.5 7.5h129.07c4.143 0 7.5-3.358 7.5-7.5v-170.01c0-4.142-3.358-7.5-7.5-7.5z"/><path d="m263.883 383.767v-118.086c0-4.142-3.357-7.5-7.5-7.5h-138.008c-4.142 0-7.5 3.358-7.5 7.5v118.085c0 4.142 3.358 7.5 7.5 7.5h138.008c4.142.001 7.5-3.357 7.5-7.499zm-15-7.5h-123.008v-103.086h123.008z"/><path d="m394.02 258.181h-55.035c-4.143 0-7.5 3.358-7.5 7.5v144.046c0 4.142 3.357 7.5 7.5 7.5h55.035c4.143 0 7.5-3.358 7.5-7.5v-144.046c0-4.142-3.358-7.5-7.5-7.5zm-7.5 144.047h-40.035v-129.047h40.035z"/></g></g></svg>