<svg id="Capa_1" enable-background="new 0 0 512 512" height="512" viewBox="0 0 512 512" width="512" xmlns="http://www.w3.org/2000/svg"><g><g><g><path d="m7.504 452.258v-302.905c0-8.284 6.716-15 15-15h151.678c23.594 0 43.584 15.721 50.045 37.239h63.548c6.461-21.518 26.451-37.239 50.045-37.239h151.678c8.284 0 15 6.716 15 15v302.905h-184.7l-23.943 38.706h-76.816l-20.95-36.911z" fill="#ffe177"/><path d="m300.579 504.497h-89.159c-8.207 0-15.073-6.594-15.001-14.801.108-12.354-9.909-22.438-22.239-22.438h-151.677c-8.284 0-15-6.716-15-15 0-8.284 6.716-15 15-15h151.678c23.594 0 43.584 15.721 50.045 37.239h63.548c6.461-21.518 26.451-37.239 50.045-37.239h151.678c8.284 0 15 6.716 15 15 0 8.284-6.716 15-15 15h-151.678c-12.329 0-22.098 10.089-22.24 22.417-.096 8.202-6.775 14.822-15 14.822z" fill="#ffd15b"/><path d="m36.526 101.099h174.249c24.977 0 45.225 20.248 45.225 45.225 0-24.977 20.248-45.225 45.225-45.225h174.249v303.273h-174.249c-24.977 0-45.225 20.248-45.225 45.225 0-24.977-20.248-45.225-45.225-45.225h-174.249z" fill="#e2e2e2"/><path d="m475.477 67.973v303.276h-174.248c-24.98 0-45.229 20.25-45.229 45.229 0-12.49-5.06-23.8-13.25-31.979-8.18-8.19-19.49-13.25-31.98-13.25h-174.247v-303.276h174.247c24.98 0 45.229 20.25 45.229 45.229 0-12.49 5.06-23.8 13.25-31.98 8.18-8.19 19.49-13.25 31.979-13.25h174.249z" fill="#f8f6f6"/><path d="m313.809 67.973v303.276h-12.58c-24.98 0-45.229 20.25-45.229 45.229v-303.275c0-12.49 5.06-23.8 13.25-31.98 8.18-8.19 19.49-13.25 31.979-13.25z" fill="#ebebeb"/></g><g><path d="m402.653 153.923c.109 68.594-46.875 126.228-110.428 142.377l-24.966 41.747c-5.093 8.517-17.432 8.516-22.524-.001l-24.959-41.746c-63.469-16.12-110.428-73.649-110.428-142.138 0-81.359 66.244-147.241 147.729-146.654 80.146.578 145.448 66.267 145.576 146.415z" fill="#60b7ff"/><path d="m249.035 296.296 21.59 36.109-3.37 5.64c-5.09 8.51-17.43 8.51-22.52 0l-24.96-41.749c-63.469-16.12-110.428-73.649-110.428-142.138 0-81.359 66.239-147.238 147.728-146.658 4.57.03 9.09.28 13.55.73-74.109 7.33-132.018 69.869-132.018 145.928-.001 68.489 46.958 126.018 110.428 142.138z" fill="#26a6fe"/><g fill="#f8f6f6"><circle cx="256" cy="78.537" r="33.919"/><path d="m256.001 266.431c-16.052 0-29.065-13.013-29.065-29.064v-67.55c0-16.052 13.013-29.064 29.064-29.064 16.052 0 29.064 13.013 29.064 29.064v67.55c.001 16.052-13.012 29.064-29.063 29.064z"/></g><g fill="#e2e2e2"><path d="m267.355 110.507c-3.55 1.26-7.37 1.95-11.35 1.95-18.73 0-33.919-15.18-33.919-33.919 0-18.73 15.19-33.92 33.919-33.92 3.98 0 7.8.69 11.35 1.95-13.15 4.67-22.56 17.22-22.56 31.969.001 14.761 9.411 27.301 22.56 31.97z"/><path d="m267.355 264.135c-3.49 1.48-7.32 2.3-11.35 2.3-16.05 0-29.069-13.01-29.069-29.059v-67.559c0-16.05 13.02-29.06 29.069-29.06 4.03 0 7.86.82 11.35 2.3-10.41 4.42-17.71 14.74-17.71 26.76v67.559c.001 12.02 7.3 22.339 17.71 26.759z"/></g></g></g><g><path d="m511.996 452.103v-302.75c0-12.407-10.094-22.5-22.5-22.5h-6.52v-58.88c0-4.142-3.357-7.5-7.5-7.5h-97.292c-28.664-37.178-73.322-60.123-121.05-60.467-41.417-.268-80.366 15.591-109.732 44.747-5.005 4.969-9.616 10.224-13.84 15.72h-97.039c-4.143 0-7.5 3.358-7.5 7.5v58.879h-6.52c-12.406 0-22.5 10.093-22.5 22.5v302.824c0 .027-.004.053-.004.08 0 12.407 10.094 22.5 22.5 22.5h151.68c3.954 0 7.671 1.553 10.466 4.372 2.792 2.817 4.31 6.546 4.274 10.504-.05 5.882 2.226 11.445 6.407 15.663 4.223 4.259 10.088 6.701 16.093 6.701h89.16c12.258 0 22.351-9.972 22.499-22.235.094-8.274 6.707-15.005 14.741-15.005h151.681c6.018 0 11.669-2.346 15.893-6.586 4.261-4.244 6.607-9.896 6.607-15.914 0-.051-.003-.102-.004-.153zm-467.97-73.354h166.744c10.083 0 19.556 3.924 26.68 11.057 6.206 6.197 9.98 14.182 10.852 22.801-9.568-9.705-22.855-15.734-37.527-15.734h-166.749zm113.945-323.351c26.264-26.075 61.034-40.395 98.018-40.395.344 0 .693.001 1.038.004 53.383.385 102.532 32.1 125.215 80.797 1.749 3.755 6.213 5.381 9.966 3.632 3.755-1.749 5.381-6.211 3.632-9.965-2.246-4.822-4.736-9.487-7.434-13.997h79.572l-.003 288.275h-166.746c-14.775 0-28.147 6.113-37.729 15.938v-29.148c4.197-1.626 7.787-4.609 10.196-8.642l23.404-39.131c66.835-18.417 113.161-79.179 113.05-148.846-.011-9.914-.988-19.848-2.903-29.528-.804-4.062-4.75-6.704-8.813-5.901-4.063.804-6.705 4.75-5.901 8.813 1.728 8.728 2.608 17.688 2.618 26.636.102 63.836-42.98 119.387-104.768 135.089-1.921.488-3.571 1.718-4.589 3.419l-24.973 41.752c-1.475 2.468-3.862 2.736-4.82 2.736-.001 0-.001 0-.002 0-.962 0-3.353-.268-4.831-2.737l-24.95-41.75c-1.018-1.703-2.668-2.934-4.592-3.422-61.69-15.668-104.776-71.125-104.776-134.861 0-37.366 14.603-72.442 41.121-98.768zm310.003 323.351v18.124h-166.749c-14.672 0-27.959 6.029-37.527 15.734 1.945-18.992 18.035-33.858 37.532-33.858zm-344.598-303.276c-14.033 23.557-21.526 50.536-21.526 78.693 0 69.558 46.332 130.217 113.06 148.598l23.386 39.134c2.414 4.034 6.008 7.016 10.205 8.641v29.129c-.151-.155-.29-.318-.443-.47-9.95-9.963-23.192-15.45-37.286-15.45h-166.746l-.003-288.275zm366.124 384.284h-151.68c-16.212 0-29.554 13.384-29.739 29.829-.05 4.086-3.415 7.411-7.501 7.411h-89.16c-2.032 0-4.016-.825-5.44-2.262-1.345-1.355-2.076-3.122-2.06-4.971.071-7.987-2.99-15.514-8.621-21.195-5.632-5.683-13.133-8.812-21.119-8.812h-151.68c-4.135 0-7.5-3.364-7.5-7.499h.004v-.081c.021-1.97.795-3.816 2.21-5.226 1.409-1.415 3.286-2.194 5.286-2.194h31.66c4.143 0 7.5-3.358 7.5-7.5s-3.357-7.5-7.5-7.5h-31.66c-2.599 0-5.119.463-7.496 1.302v-281.707c0-4.136 3.364-7.5 7.5-7.5h6.52l.003 262.52c0 4.142 3.357 7.5 7.5 7.5h174.249c20.802 0 37.725 16.923 37.725 37.725 0 4.142 3.357 7.5 7.5 7.5s7.5-3.358 7.5-7.5c0-20.802 16.923-37.725 37.725-37.725h174.249c4.143 0 7.5-3.358 7.5-7.5l.003-262.52h6.52c4.136 0 7.5 3.364 7.5 7.5v281.693c-2.346-.832-4.868-1.289-7.496-1.289h-151.682c-24.269 0-46.271 15.059-55.344 37.24h-52.953c-9.072-22.182-31.075-37.24-55.344-37.24h-85.019c-4.143 0-7.5 3.358-7.5 7.5s3.357 7.5 7.5 7.5h85.02c19.602 0 37.229 13.116 42.867 31.897.952 3.171 3.872 5.343 7.184 5.343h63.539c3.312 0 6.231-2.172 7.184-5.343 5.638-18.781 23.266-31.897 42.867-31.897h151.679c4.11 0 7.454 3.323 7.496 7.423v.078h.004c0 2-.78 3.877-2.214 5.306-1.409 1.415-3.286 2.194-5.286 2.194z"/><path d="m256.001 119.955c22.838 0 41.418-18.581 41.418-41.419s-18.58-41.418-41.418-41.418c-22.839 0-41.419 18.58-41.419 41.418s18.58 41.419 41.419 41.419zm0-67.837c14.567 0 26.418 11.851 26.418 26.418s-11.851 26.419-26.418 26.419-26.419-11.852-26.419-26.419 11.852-26.418 26.419-26.418z"/><path d="m256 133.252c-20.162 0-36.564 16.403-36.564 36.564v67.55c0 20.162 16.403 36.564 36.565 36.564s36.564-16.403 36.564-36.564v-67.55c0-20.161-16.403-36.564-36.565-36.564zm21.565 104.115c0 11.891-9.674 21.564-21.564 21.564h-.001c-11.891 0-21.564-9.674-21.564-21.564v-67.55c0-11.891 9.674-21.564 21.565-21.564s21.564 9.674 21.564 21.564z"/></g></g></svg>