<svg id="Capa_1" enable-background="new 0 0 512 512" height="512" viewBox="0 0 512 512" width="512" xmlns="http://www.w3.org/2000/svg"><g><g><path d="m83.623 264.257c-3.547 0-7.106-1.25-9.965-3.792-6.189-5.506-6.744-14.987-1.238-21.177l172.372-193.778c5.508-6.19 14.988-6.743 21.178-1.238 6.189 5.506 6.744 14.987 1.237 21.177l-172.371 193.778c-2.964 3.331-7.08 5.03-11.213 5.03z" fill="#c68d7a"/><path d="m428.377 264.257c-4.134 0-8.249-1.699-11.213-5.03l-172.371-193.777c-5.507-6.19-4.952-15.671 1.237-21.177 6.19-5.505 15.672-4.952 21.178 1.238l172.372 193.777c5.506 6.19 4.951 15.671-1.238 21.177-2.859 2.542-6.418 3.792-9.965 3.792z" fill="#c68d7a"/><path d="m469.01 492.677h-426.02c-19.6 0-35.49-15.889-35.49-35.49v-202.369c0-19.6 15.889-35.49 35.49-35.49h426.02c19.6 0 35.49 15.889 35.49 35.49v202.369c0 19.601-15.889 35.49-35.49 35.49z" fill="#fd8087"/><path d="m78.9 492.678h-35.91c-19.6 0-35.49-15.89-35.49-35.49v-202.37c0-19.6 15.89-35.49 35.49-35.49h35.91c-19.6 0-35.49 15.89-35.49 35.49v202.37c0 19.6 15.89 35.49 35.49 35.49z" fill="#fe646f"/><circle cx="256" cy="55.48" fill="#7a6d79" r="36.153"/><path d="m269.957 88.84c-4.29 1.8-9.01 2.8-13.96 2.8-19.97 0-36.15-16.19-36.15-36.16 0-19.96 16.18-36.15 36.15-36.15 4.95 0 9.67 1 13.96 2.8-13.03 5.46-22.18 18.34-22.18 33.35 0 15.02 9.15 27.89 22.18 33.36z" fill="#685e68"/></g><g><path d="m469.01 211.833h-43.814l-27.482-30.895c-2.751-3.094-7.493-3.373-10.588-.619-3.096 2.753-3.372 7.494-.619 10.589l18.614 20.925h-20.079l-106.08-119.25c4.286-2.663 8.075-6.048 11.205-9.982l73.079 82.157c1.481 1.666 3.539 2.515 5.606 2.515 1.772 0 3.553-.625 4.981-1.896 3.095-2.753 3.372-7.494.619-10.589l-76.776-86.313c1.283-4.106 1.975-8.471 1.975-12.994 0-24.07-19.582-43.653-43.652-43.653s-43.651 19.582-43.651 43.652c0 4.524.693 8.89 1.976 12.997l-127.525 143.356h-43.809c-23.705 0-42.99 19.285-42.99 42.99v145.68c0 4.142 3.357 7.5 7.5 7.5s7.5-3.358 7.5-7.5v-145.68c0-15.434 12.557-27.99 27.99-27.99h426.02c15.434 0 27.99 12.556 27.99 27.99v202.36c0 15.434-12.557 27.99-27.99 27.99h-426.02c-15.434 0-27.99-12.556-27.99-27.99v-21.68c0-4.142-3.357-7.5-7.5-7.5s-7.5 3.358-7.5 7.5v21.68c0 23.705 19.285 42.99 42.99 42.99h426.02c23.705 0 42.99-19.285 42.99-42.99v-202.36c0-23.705-19.285-42.99-42.99-42.99zm-104.045 0h-217.93l100.923-113.455c2.608.488 5.294.755 8.042.755s5.433-.267 8.042-.755zm-108.965-185.006c15.799 0 28.652 12.854 28.652 28.653s-12.854 28.652-28.652 28.652-28.652-12.854-28.652-28.652c0-15.799 12.853-28.653 28.652-28.653zm-34.166 55.776c3.129 3.934 6.918 7.318 11.204 9.98l-106.079 119.25h-20.084z"/><path d="m58.396 255.779c4.143 0 7.5-3.358 7.5-7.5s-3.357-7.5-7.5-7.5c-13.487 0-24.46 10.973-24.46 24.459 0 13.487 10.973 24.46 24.46 24.46h36.791c20.277 0 37.185-14.65 40.726-33.919h21.248c4.143 0 7.5-3.358 7.5-7.5s-3.357-7.5-7.5-7.5h-47.886c-20.277 0-37.186 14.65-40.727 33.919h-10.152c-5.216 0-9.46-4.244-9.46-9.46s4.244-9.459 9.46-9.459zm50.878 0h11.247c-3.24 10.926-13.372 18.919-25.335 18.919h-11.248c3.241-10.926 13.373-18.919 25.336-18.919z"/><path d="m453.604 274.698h-10.152c-3.541-19.269-20.45-33.919-40.727-33.919h-47.885c-4.143 0-7.5 3.358-7.5 7.5s3.357 7.5 7.5 7.5h21.248c3.541 19.269 20.449 33.919 40.726 33.919h36.791c13.487 0 24.46-10.973 24.46-24.46s-10.973-24.459-24.46-24.459c-4.143 0-7.5 3.358-7.5 7.5s3.357 7.5 7.5 7.5c5.216 0 9.46 4.244 9.46 9.459-.001 5.216-4.245 9.46-9.461 9.46zm-36.791 0c-11.963 0-22.095-7.993-25.335-18.919h11.247c11.964 0 22.096 7.993 25.336 18.919z"/><path d="m58.396 437.308h10.152c3.541 19.269 20.45 33.919 40.727 33.919h47.886c4.143 0 7.5-3.358 7.5-7.5s-3.357-7.5-7.5-7.5h-21.248c-3.541-19.269-20.449-33.919-40.726-33.919h-36.791c-13.487 0-24.46 10.973-24.46 24.46s10.973 24.459 24.46 24.459c4.143 0 7.5-3.358 7.5-7.5s-3.357-7.5-7.5-7.5c-5.216 0-9.46-4.244-9.46-9.459 0-5.216 4.244-9.46 9.46-9.46zm36.791 0c11.963 0 22.095 7.993 25.335 18.919h-11.247c-11.964 0-22.096-7.993-25.336-18.919z"/><path d="m354.84 471.227h47.886c20.277 0 37.186-14.65 40.727-33.919h10.152c5.216 0 9.46 4.244 9.46 9.46s-4.244 9.459-9.46 9.459c-4.143 0-7.5 3.358-7.5 7.5s3.357 7.5 7.5 7.5c13.487 0 24.46-10.973 24.46-24.459 0-13.487-10.973-24.46-24.46-24.46h-36.791c-20.277 0-37.185 14.65-40.726 33.919h-21.248c-4.143 0-7.5 3.358-7.5 7.5s3.357 7.5 7.5 7.5zm61.973-33.919h11.248c-3.24 10.926-13.372 18.919-25.336 18.919h-11.247c3.241-10.926 13.373-18.919 25.335-18.919z"/><path d="m169.467 395.377c-.023-4.128-3.376-7.458-7.499-7.458-.015 0-.028 0-.043 0-7.088.04-14.731.066-20.105.066-.001 0-.003 0-.004 0v-71.465c0-4.142-3.357-7.5-7.5-7.5s-7.5 3.358-7.5 7.5v78.899c0 3.654 2.633 6.776 6.234 7.393.528.09 1.037.177 9.74.177 4.195 0 10.295-.02 19.219-.07 4.141-.023 7.481-3.4 7.458-7.542z"/><path d="m392.114 324.741c4.143 0 7.5-3.358 7.5-7.5s-3.357-7.5-7.5-7.5h-32.969c-4.143 0-7.5 3.358-7.5 7.5v78.244c0 4.142 3.357 7.5 7.5 7.5h32.969c4.143 0 7.5-3.358 7.5-7.5s-3.357-7.5-7.5-7.5h-25.469v-24.122h23.038c4.143 0 7.5-3.358 7.5-7.5s-3.357-7.5-7.5-7.5h-23.038v-24.122z"/><path d="m439.664 311.356h-21.703c-1.991 0-3.901.792-5.309 2.202-1.406 1.41-2.195 3.321-2.191 5.312 0 0 .155 76.365.156 76.643.007 1.989.805 3.894 2.217 5.295 1.404 1.395 3.304 2.177 5.283 2.177h.028c.655-.002 16.116-.062 22.285-.17 21.833-.381 37.679-19.578 37.679-45.645 0-27.402-15.45-45.814-38.445-45.814zm.505 76.462c-3.32.058-9.571.103-14.577.131-.03-9.015-.101-52.243-.117-61.593h14.189c17.286 0 23.445 15.918 23.445 30.814 0 14.568-7.178 30.373-22.94 30.648z"/><path d="m80.873 402.986c10.286 0 19.504-3.368 26.657-9.739 1.402-1.249 2.735-2.624 3.963-4.086 2.662-3.173 2.248-7.904-.926-10.566-3.174-2.663-7.903-2.248-10.566.925-.762.908-1.585 1.758-2.447 2.526-4.426 3.942-10.038 5.94-16.681 5.94-17.635 0-31.982-14.347-31.982-31.982s14.348-31.983 31.982-31.983c6.41 0 12.592 1.887 17.877 5.458 3.433 2.319 8.095 1.416 10.413-2.016 2.318-3.433 1.416-8.095-2.017-10.414-7.774-5.252-16.859-8.028-26.273-8.028-25.906 0-46.982 21.077-46.982 46.983s21.076 46.982 46.982 46.982z"/><path d="m304.374 387.986c-8.507 0-16.716-3.455-21.96-9.242-2.781-3.069-7.524-3.303-10.594-.521s-3.303 7.524-.521 10.594c8.04 8.873 20.404 14.169 33.075 14.169 15.241 0 28.522-10.015 30.894-23.296 1.798-10.065-2.892-23.259-21.441-30.101-10.084-3.72-19.445-7.779-21.895-8.854-2.355-1.75-3.497-4.528-3.065-7.532.552-3.84 3.521-6.927 7.943-8.26 12.425-3.745 23.695 5.279 23.919 5.461 3.171 2.638 7.881 2.221 10.538-.94 2.665-3.171 2.256-7.902-.915-10.567-.706-.593-17.515-14.452-37.868-8.317-10.008 3.015-17.083 10.866-18.465 20.491-1.288 8.973 2.599 17.604 10.144 22.522.331.216.679.406 1.04.567.454.202 11.26 5.012 23.433 9.502 8.501 3.136 12.826 8.017 11.867 13.392-.961 5.373-7.256 10.932-16.129 10.932z"/><path d="m264.228 356.003c0-25.906-21.076-46.983-46.982-46.983s-46.983 21.077-46.983 46.983 21.077 46.982 46.983 46.982 46.982-21.076 46.982-46.982zm-78.966 0c0-17.635 14.348-31.983 31.983-31.983s31.982 14.348 31.982 31.983-14.348 31.982-31.982 31.982c-17.636.001-31.983-14.347-31.983-31.982z"/></g></g></svg>