<svg id="Capa_1" enable-background="new 0 0 512 512" height="512" viewBox="0 0 512 512" width="512" xmlns="http://www.w3.org/2000/svg"><g><g><path d="m235.905 287.379v64.322h-16.215c-9.007 0-14.635 9.75-10.131 17.55l36.312 62.88c4.503 7.798 15.76 7.798 20.263 0l36.308-62.88c4.504-7.8-1.125-17.55-10.132-17.55h-16.211v-64.322" fill="#ffe177"/><g><path d="m373.78 292.489v-57.211l.001-216.961c0-5.974-4.843-10.818-10.818-10.818h-185.897c-21.454 0-38.846 17.392-38.846 38.846v217.195" fill="#fd8087"/><path d="m174.898 235.47h178.398v56.435h-182.98c-8.47 0-15.337-6.867-15.337-15.337v-21.179c.001-11.001 8.919-19.919 19.919-19.919z" fill="#ebebeb"/><g fill="#fe646f"><path d="m177.07 7.503v217.537h-.007c-21.448 0-38.843 17.388-38.843 38.843v-217.537c0-21.448 17.395-38.843 38.85-38.843z"/><path d="m373.78 238.1c0 7.215-5.848 13.063-13.063 13.063h-182.969c-3.567 0-7.1 1.499-9.694 4.114-1.399 1.41-3.74 4.416-3.707 8.709.026 3.356 1.347 6.508 3.72 8.878 1.413 1.416 4.416 3.74 8.997 3.74h183.654c7.215 0 13.063 5.849 13.063 13.063 0 7.214-5.849 13.063-13.063 13.063h-183.655c-10.724 0-20.438-4.345-27.461-11.382-6.969-6.962-11.298-16.55-11.381-27.159-.168-21.534 17.992-39.152 39.526-39.152h182.969c7.215 0 13.064 5.849 13.064 13.063z"/></g></g><path d="m369.454 504.5h-226.907c-26.225 0-47.562-21.335-47.562-47.561v-54.738c0-11.1 8.998-20.097 20.097-20.097s20.097 8.998 20.097 20.097v54.738c0 4.062 3.305 7.367 7.368 7.367h226.907c4.062 0 7.367-3.305 7.367-7.367v-54.738c0-11.1 8.998-20.097 20.097-20.097s20.097 8.998 20.097 20.097v54.738c0 26.226-21.335 47.561-47.561 47.561z" fill="#60b7ff"/><g fill="#26a6fe"><path d="m395.534 456.939v-54.738c0-7.719 4.357-14.412 10.741-17.779-2.796-1.474-5.976-2.318-9.356-2.318-11.1 0-20.097 8.998-20.097 20.097v54.738c0 4.062-3.305 7.367-7.367 7.367h18.713c4.061 0 7.366-3.305 7.366-7.367z"/><path d="m113.698 456.939v-54.738c0-7.719 4.357-14.412 10.741-17.779-2.796-1.474-5.976-2.318-9.356-2.318-11.1 0-20.097 8.998-20.097 20.097v54.738c0 26.225 21.336 47.561 47.562 47.561h18.713c-26.227 0-47.563-21.335-47.563-47.561z"/></g></g><g><path d="m130.721 264.248c.096 12.245 4.919 23.754 13.573 32.398 8.741 8.76 20.379 13.584 32.769 13.584h51.346v33.972h-8.232c-7.117 0-13.848 3.692-17.292 9.92-3.287 5.943-3.226 12.972.182 18.875l36.309 62.89c3.477 6.007 9.691 9.593 16.629 9.593h.01c6.937-.003 13.148-3.592 16.616-9.599l36.062-62.462c3.558-6.163 3.727-13.838.057-19.934-3.503-5.819-9.621-9.282-16.438-9.282h-8.708v-33.973h77.114c11.357 0 20.563-9.207 20.563-20.563v-183.157c0-4.142-3.358-7.5-7.5-7.5-4.142 0-7.5 3.358-7.5 7.5v111.813c-1.772-.5-3.634-.786-5.563-.786h-176.15v-202.537h178.392c1.834 0 3.32 1.487 3.32 3.32v55.375c0 4.107 3.165 7.688 7.27 7.811 4.247.127 7.73-3.278 7.73-7.497v-55.689c0-10.118-8.202-18.32-18.32-18.32h-185.89c-25.558 0-46.351 20.792-46.351 46.35.001 0 0 217.726.002 217.898zm145.382 94.955h16.208c2.187 0 3.27 1.467 3.634 2.098s1.093 2.303 0 4.196l-36.306 62.884c-1.093 1.893-2.904 2.098-3.633 2.099-.001 0-.001 0-.002 0-.731 0-2.547-.206-3.643-2.099l-36.306-62.884c-1.093-1.894-.364-3.565 0-4.196s1.447-2.098 3.634-2.098h16.219c4.143 0 7.5-3.358 7.5-7.5v-41.473h25.194v41.472c.001 4.143 3.358 7.501 7.501 7.501zm69.693-90.099h-168.733c-1.78 0-2.988-.836-3.697-1.547-.983-.982-1.509-2.238-1.52-3.63-.013-1.576.953-2.786 1.531-3.369 1.178-1.187 2.811-1.896 4.369-1.896h168.049v10.442zm15-10.444c1.902-.007 3.737-.289 5.484-.782v12.012c-1.748-.493-3.583-.774-5.484-.782zm5.484-20.56c0 3.068-2.496 5.563-5.563 5.563h-182.97c-5.552 0-11.025 2.308-15.016 6.33-2.222 2.237-5.938 7.037-5.885 14.052.042 5.338 2.145 10.355 5.91 14.116 2.214 2.22 7.018 5.943 14.307 5.943h183.653c3.067 0 5.563 2.496 5.563 5.563s-2.496 5.563-5.563 5.563h-183.654c-8.377 0-16.243-3.26-22.159-9.188-5.857-5.85-9.118-13.632-9.183-21.911-.063-8.185 3.172-15.989 9.111-21.974 6.066-6.114 14.419-9.62 22.916-9.62h182.969c3.068 0 5.564 2.496 5.564 5.563zm-196.714-222.186v29.586c-9.11 1.489-17.335 5.639-23.847 11.63v-10.78c.001-14.7 10.173-27.063 23.847-30.436zm0 44.884v107.817c-9.11 1.489-17.335 5.639-23.847 11.63v-89.014c.001-14.699 10.174-27.062 23.847-30.433zm0 123.116v34.372c-8.828 1.588-17.172 5.692-23.847 11.835v-15.774c.001-14.7 10.174-27.063 23.847-30.433z"/><path d="m396.92 374.6c-15.219 0-27.6 12.381-27.6 27.6v54.61h-226.64v-54.61c0-15.219-12.381-27.6-27.6-27.6-15.213 0-27.59 12.381-27.59 27.6v54.74c0 30.36 24.699 55.06 55.06 55.06h18.71c4.143 0 7.5-3.358 7.5-7.5s-3.357-7.5-7.5-7.5h-18.71c-22.089 0-40.06-17.971-40.06-40.06v-54.74c0-6.948 5.647-12.6 12.59-12.6 6.947 0 12.6 5.652 12.6 12.6v54.74c0 8.199 6.671 14.87 14.87 14.87h226.9c8.199 0 14.87-6.671 14.87-14.87v-54.74c0-6.948 5.652-12.6 12.6-12.6 6.942 0 12.59 5.652 12.59 12.6v54.74c0 22.089-17.971 40.06-40.06 40.06h-173.19c-4.143 0-7.5 3.358-7.5 7.5s3.357 7.5 7.5 7.5h173.19c30.36 0 55.06-24.7 55.06-55.06v-54.74c0-15.219-12.377-27.6-27.59-27.6z"/><path d="m340.047 92.475c0-4.142-3.357-7.5-7.5-7.5h-105.901c-4.143 0-7.5 3.358-7.5 7.5s3.357 7.5 7.5 7.5h105.901c4.142 0 7.5-3.358 7.5-7.5z"/><path d="m245.078 119.727c-4.143 0-7.5 3.358-7.5 7.5s3.357 7.5 7.5 7.5h69.036c4.143 0 7.5-3.358 7.5-7.5s-3.357-7.5-7.5-7.5z"/></g></g></svg>