<svg id="Capa_1" enable-background="new 0 0 512 512" height="512" viewBox="0 0 512 512" width="512" xmlns="http://www.w3.org/2000/svg"><g><g><path d="m227.236 176.408-78.48-50.546 251.002-70.97c3.94-2.43 8.59-3.83 13.55-3.83 14.28 0 25.87 11.58 25.87 25.87 0 8.72-4.32 16.43-10.93 21.12 3.7 4.3 5.95 9.9 5.95 16.03 0 13.46-10.79 24.39-24.2 24.61z" fill="#ebebeb"/><path d="m376.446 110.018c3.7 4.3 5.95 9.9 5.95 16.03 0 8.66-4.47 16.28-11.23 20.65l-143.93 29.71-78.48-50.55 219.28-62c11.12 2.9 19.34 13.01 19.34 25.04 0 8.72-4.32 16.43-10.93 21.12z" fill="#e2e2e2"/><path d="m47.164 422.942s-1.375-17.412-17.241-33.403c-5.673-5.718-1.613-15.445 6.442-15.445h166.428c29.385 0 53.207 23.821 53.207 53.207 0-29.385 23.821-53.207 53.207-53.207h166.428c8.055 0 12.115 9.726 6.442 15.445-15.866 15.992-17.241 33.403-17.241 33.403v15h-142.243l-25.273 41.235h-81.14l-17.292-35.914-140.997-6.651z" fill="#ebebeb"/><path d="m300.58 490.182h-89.16c-8.208 0-15.073-6.594-15.001-14.802.108-12.354-9.91-22.438-22.239-22.438h-151.68c-8.284 0-15-6.716-15-15 0-8.284 6.716-15 15-15h151.68c23.594 0 43.584 15.722 50.045 37.24h63.549c6.461-21.518 26.451-37.24 50.045-37.24h151.681c8.284 0 15 6.716 15 15 0 8.284-6.716 15-15 15h-151.68c-12.329 0-22.098 10.089-22.241 22.417-.095 8.202-6.774 14.823-14.999 14.823z" fill="#c68d7a"/><path d="m149.672 502.022-33.254-24.54-33.254 24.54v-99.995h66.508z" fill="#fe646f"/><path d="m180.192 37.874h79.81v66.508h-79.81z" fill="#60b7ff" transform="matrix(-.959 .283 -.283 -.959 451.325 77.037)"/><path d="m181.189 44.776h31.053v66.508h-31.053z" fill="#26a6fe" transform="matrix(-.959 .283 -.283 -.959 407.473 97.177)"/><path d="m84.087 241.143h83.8c10.285 0 18.622-8.337 18.622-18.622 0-10.285-8.337-18.622-18.622-18.622h-83.8c-10.285 0-18.622 8.337-18.622 18.622 0 10.285 8.337 18.622 18.622 18.622z" fill="#685e68"/><path d="m409.997 134.73h-305.938v173.336c0 36.466 29.562 66.028 66.028 66.028h173.882c36.466 0 66.028-29.562 66.028-66.028z" fill="#60b7ff"/><path d="m269.857 374.094h-99.77c-36.46 0-66.02-29.56-66.02-66.03v-173.33h99.76v173.33c0 36.47 29.56 66.03 66.03 66.03z" fill="#26a6fe"/><path d="m355.441 241.143h83.8c10.285 0 18.622-8.337 18.622-18.622 0-10.285-8.337-18.622-18.622-18.622h-83.8c-10.285 0-18.622 8.337-18.622 18.622-.001 10.285 8.337 18.622 18.622 18.622z" fill="#7a6d79"/><path d="m388.498 235.681c3.37 3.38 8.03 5.46 13.17 5.46h-46.23c-5.15 0-9.8-2.08-13.17-5.46-3.37-3.36-5.45-8.02-5.45-13.16 0-10.29 8.33-18.62 18.62-18.62h46.23c-10.29 0-18.63 8.33-18.63 18.62 0 5.14 2.09 9.8 5.46 13.16z" fill="#685e68"/><path d="m72.343 132.078 304.922-90.006c9.512-2.808 19.499 2.627 22.306 12.139 2.808 9.512-2.627 19.499-12.139 22.306l-304.922 90.006c-9.512 2.808-19.499-2.627-22.306-12.139-2.808-9.512 2.627-19.498 12.139-22.306z" fill="#7a6d79"/><path d="m186.83 135.733-104.32 30.79c-9.51 2.81-19.5-2.63-22.31-12.14-.5-1.69-.74-3.4-.74-5.08 0-7.76 5.06-14.92 12.88-17.22l104.5-30.85c-3.12 3.85-4.9 8.7-4.9 13.77 0 2.05.29 4.13.9 6.2 2.09 7.1 7.47 12.33 13.99 14.53z" fill="#685e68"/><path d="m163.229 35.905 85.493-25.235c8.807-2.6 18.054 2.433 20.654 11.24 2.6 8.807-2.433 18.054-11.24 20.654l-85.493 25.235c-8.807 2.6-18.054-2.433-20.654-11.24-2.599-8.807 2.433-18.054 11.24-20.654z" fill="#7a6d79"/><path d="m207.843 57.409-35.2 10.39c-8.81 2.6-18.05-2.44-20.65-11.24-.46-1.57-.68-3.16-.68-4.72 0-7.18 4.68-13.8 11.92-15.94l33.47-9.88c-3.25 3.43-5.13 8.03-5.13 12.85 0 1.76.25 3.54.77 5.3 2.16 7.31 8.4 12.31 15.5 13.24z" fill="#685e68"/></g><path d="m489.5 415.442h-15.149c1.969-5.587 5.775-13.287 13.051-20.624 4.722-4.755 6.107-11.828 3.53-18.019-2.581-6.2-8.587-10.206-15.302-10.206h-87.221c17.662-13.442 29.092-34.674 29.092-58.532v-59.419h21.741c14.404 0 26.122-11.719 26.122-26.122s-11.718-26.122-26.122-26.122h-21.742v-51.208c13.863-3.562 24.198-16.231 24.198-31.108 0-5.184-1.259-10.259-3.621-14.8 5.473-6.076 8.601-14.031 8.601-22.35 0-18.4-14.97-33.37-33.37-33.37-3.365 0-6.682.522-9.856 1.503-6.047-8.952-17.417-13.399-28.316-10.184l-31.84 9.4c-3.973 1.173-6.242 5.344-5.069 9.317 1.172 3.972 5.341 6.243 9.316 5.07l31.839-9.4c5.527-1.633 11.36 1.54 12.992 7.063.289.982.436 1.983.436 2.974 0 4.597-3.083 8.715-7.503 10.017l-304.922 90.01c-2.674.791-5.502.491-7.957-.845s-4.243-3.548-5.036-6.231c-.287-.969-.432-1.962-.432-2.952 0-4.605 3.086-8.732 7.503-10.037l239.52-70.7c3.973-1.173 6.243-5.344 5.07-9.316-1.173-3.973-5.346-6.243-9.316-5.07l-41.592 12.277-5.215-17.668c11.083-4.74 17.134-17.163 13.639-29.003-1.825-6.181-5.947-11.281-11.607-14.362-5.662-3.081-12.184-3.772-18.363-1.948l-85.493 25.236c-6.181 1.824-11.282 5.947-14.362 11.607-3.081 5.661-3.772 12.182-1.948 18.363 1.825 6.181 5.947 11.282 11.607 14.362 4.821 2.621 10.264 3.524 15.593 2.579l5.217 17.674-106.998 31.583c-10.749 3.175-18.255 13.218-18.255 24.423 0 2.431.353 4.856 1.047 7.205 1.926 6.52 6.277 11.902 12.25 15.153 5.987 3.262 12.89 3.976 19.376 2.056l11.927-3.521v26.206h-12.47c-14.408 0-26.13 11.717-26.13 26.12 0 6.998 2.725 13.561 7.649 18.456 4.928 4.942 11.492 7.664 18.481 7.664h12.47v59.42c0 23.858 11.429 45.09 29.092 58.532h-36.692c-4.142 0-7.5 3.358-7.5 7.5s3.358 7.5 7.5 7.5h113.83c12.216 0 23.696 4.753 32.324 13.38 8.632 8.641 13.386 20.123 13.386 32.33 0 4.142 3.358 7.5 7.5 7.5s7.5-3.358 7.5-7.5c0-25.205 20.505-45.71 45.71-45.71h166.42c.697 0 1.186.327 1.454.97.398.956-.146 1.505-.328 1.688-11.419 11.512-16.153 23.769-18.089 31.19h-120.847c-24.26 0-46.261 15.057-55.341 37.24h-52.957c-9.08-22.183-31.082-37.24-55.341-37.24h-17.008v-13.415c0-4.142-3.358-7.5-7.5-7.5h-66.509c-4.142 0-7.5 3.358-7.5 7.5v13.415h-22.33c-1.937-7.421-6.671-19.678-18.092-31.193-.179-.18-.723-.729-.325-1.685.268-.644.757-.971 1.454-.971h17.59c4.142 0 7.5-3.358 7.5-7.5s-3.358-7.5-7.5-7.5h-17.591c-6.715 0-12.721 4.006-15.302 10.206-2.577 6.191-1.192 13.264 3.527 18.016 7.279 7.339 11.084 15.039 13.053 20.626h-15.148c-6.017 0-11.668 2.346-15.894 6.587-4.26 4.245-6.606 9.896-6.606 15.913 0 12.406 10.093 22.5 22.5 22.5h53.164v41.58c0 2.83 1.593 5.42 4.12 6.695 1.068.539 2.226.805 3.379.805 1.575 0 3.14-.495 4.454-1.465l28.801-21.254 28.8 21.254c2.278 1.68 5.307 1.936 7.833.66 2.527-1.275 4.12-3.865 4.12-6.695v-41.58h17.008c3.954 0 7.67 1.552 10.465 4.372 2.792 2.817 4.311 6.547 4.275 10.505-.05 5.883 2.226 11.445 6.408 15.663 4.222 4.258 10.087 6.701 16.092 6.701h89.16c12.257 0 22.35-9.972 22.5-22.235.094-8.274 6.707-15.005 14.74-15.005h151.681c6.018 0 11.669-2.346 15.894-6.587 4.26-4.245 6.606-9.896 6.606-15.913 0-12.408-10.093-22.501-22.5-22.501zm-325.927-355.573c-2.141-1.165-3.701-3.095-4.391-5.433-1.425-4.827 1.343-9.913 6.169-11.337l85.493-25.236c2.326-.687 4.8-.432 6.947.737 2.141 1.166 3.701 3.095 4.391 5.433 1.425 4.827-1.343 9.913-6.169 11.338l-4.472 1.32c-.001 0-.001 0-.002 0l-81.019 23.915c-2.339.689-4.805.429-6.947-.737zm22.861 11.679 62.158-18.348 5.167 17.503-62.159 18.348zm263.929 150.973c0 6.133-4.989 11.122-11.122 11.122h-83.8c-6.133 0-11.123-4.99-11.123-11.122s4.99-11.122 11.123-11.122h83.8c6.133-.001 11.122 4.989 11.122 11.122zm-60.814-138.813c10.717-3.156 18.208-13.138 18.257-24.296 1.769-.554 3.621-.85 5.503-.85 10.129 0 18.37 8.241 18.37 18.37 0 5.942-2.905 11.551-7.77 15.003-1.722 1.221-2.849 3.112-3.105 5.207s.383 4.201 1.76 5.801c2.667 3.099 4.135 7.055 4.135 11.138 0 7.19-4.536 13.398-10.887 15.911-1.375-1.684-3.467-2.761-5.811-2.761h-167.894zm-305.459 149.934c-2.975 0-5.766-1.156-7.882-3.279-2.094-2.082-3.248-4.867-3.248-7.841 0-6.132 4.993-11.12 11.13-11.12h12.47v22.24zm27.47 74.42v-142.294l79.732-23.536h211.208v54.167h-47.059c-14.404 0-26.123 11.719-26.123 26.122s11.719 26.122 26.123 26.122h47.059v59.419c0 32.273-26.256 58.53-58.53 58.53h-173.88c-32.274 0-58.53-26.257-58.53-58.53zm144.462 89.992c-2.733-4.96-6.184-9.565-10.299-13.683-.968-.968-1.972-1.885-2.992-2.779h26.58c-5.329 4.657-9.844 10.223-13.289 16.462zm-233.522 47.388c-4.136 0-7.5-3.365-7.5-7.5 0-2 .779-3.878 2.213-5.307 1.409-1.414 3.287-2.193 5.287-2.193h53.164v15zm119.672 41.724-21.3-15.719c-2.648-1.954-6.26-1.954-8.907 0l-21.301 15.719v-77.639h51.508zm352.615-43.917c-1.409 1.414-3.287 2.193-5.287 2.193h-151.68c-16.211 0-29.552 13.384-29.739 29.828-.05 4.087-3.415 7.412-7.5 7.412h-89.16c-2.032 0-4.015-.824-5.44-2.262-1.344-1.355-2.076-3.122-2.06-4.971.071-7.987-2.991-15.514-8.621-21.195-5.632-5.682-13.132-8.812-21.118-8.812h-17.008v-15h17.008c19.593 0 37.22 13.118 42.867 31.899.953 3.17 3.872 5.341 7.183 5.341h63.54c3.311 0 6.229-2.17 7.183-5.341 5.647-18.782 23.274-31.899 42.867-31.899h151.678c4.136 0 7.5 3.365 7.5 7.5 0 2-.779 3.877-2.213 5.307z"/></g></svg>