<svg id="Capa_1" enable-background="new 0 0 512 512" height="512" viewBox="0 0 512 512" width="512" xmlns="http://www.w3.org/2000/svg"><g><g><g><path d="m418.902 478.082v-74.068l.001-369.349c0-7.735-6.27-14.005-14.005-14.005h-311.908c-27.776 0-50.292 22.517-50.292 50.292v369.652z" fill="#ffe177"/><path d="m140.634 47.552s-64.775 202.894 154.74 310.491c60.104-29.459 98.895-66.054 123.528-103.679v-206.812zm43.926 105.04c-.175-1.691-.268-3.403-.268-5.135 0-27.149 22.014-49.164 49.174-49.164 27.149 0 49.164 22.014 49.164 49.164 0 1.732-.093 3.444-.268 5.135-13.456-10.6-30.439-16.931-48.896-16.931-18.468 0-35.45 6.331-48.906 16.931zm110.814 106.216c-41.214 0-74.643-33.419-74.643-74.643 0-2.64.134-5.238.402-7.806 20.437 16.106 46.204 25.716 74.241 25.716 28.046 0 53.814-9.61 74.251-25.716.268 2.567.402 5.166.402 7.806 0 41.224-33.429 74.643-74.653 74.643zm110.825-106.216c-13.456-10.6-30.439-16.931-48.896-16.931-18.467 0-35.45 6.331-48.906 16.931-.175-1.691-.268-3.403-.268-5.135 0-27.149 22.015-49.164 49.174-49.164 27.139 0 49.164 22.014 49.164 49.164 0 1.732-.093 3.444-.268 5.135z" fill="#ffd15b"/><path d="m90.184 404.262h302.198v73.064h-308.13c-10.966 0-19.856-8.89-19.856-19.856v-27.42c0-14.243 11.546-25.788 25.788-25.788z" fill="#ebebeb"/><g fill="#ffd15b"><path d="m92.995 20.664v370.095h-.009c-27.767 0-50.288 22.511-50.288 50.288v-370.095c0-27.767 22.521-50.288 50.297-50.288z"/><path d="m418.902 407.667c0 9.34-7.572 16.912-16.912 16.912h-308.118c-4.618 0-9.192 1.941-12.551 5.326-1.811 1.825-4.842 5.717-4.799 11.275.034 4.344 1.744 8.426 4.816 11.494 1.829 1.833 5.718 4.842 11.648 4.842h309.004c9.34 0 16.912 7.572 16.912 16.912 0 9.34-7.572 16.912-16.912 16.912h-309.004c-13.884 0-26.46-5.625-35.552-14.736-9.023-9.014-14.627-21.427-14.734-35.161-.217-27.879 23.293-50.688 51.173-50.688h308.117c9.34 0 16.912 7.572 16.912 16.912z"/></g></g><path d="m486.383 47.552h-309.491s-64.775 202.894 154.74 310.491c219.526-107.598 154.751-310.491 154.751-310.491zm-265.565 105.04c-.175-1.691-.268-3.403-.268-5.135 0-27.149 22.014-49.164 49.174-49.164 27.149 0 49.164 22.014 49.164 49.164 0 1.732-.093 3.444-.268 5.135-13.456-10.6-30.439-16.931-48.896-16.931-18.468 0-35.45 6.331-48.906 16.931zm110.814 106.216c-41.214 0-74.643-33.419-74.643-74.643 0-2.64.134-5.238.402-7.806 20.437 16.106 46.205 25.716 74.241 25.716 28.046 0 53.814-9.61 74.251-25.716.268 2.567.402 5.166.402 7.806 0 41.224-33.428 74.643-74.653 74.643zm110.825-106.216c-13.456-10.6-30.439-16.931-48.896-16.931-18.468 0-35.45 6.331-48.906 16.931-.175-1.691-.268-3.403-.268-5.135 0-27.149 22.015-49.164 49.174-49.164 27.139 0 49.164 22.014 49.164 49.164 0 1.732-.093 3.444-.268 5.135z" fill="#fe646f"/><path d="m238.665 141.99c-6.434 2.743-12.425 6.331-17.849 10.6-.175-1.691-.268-3.403-.268-5.135 0-15.065 6.774-28.552 17.457-37.564.474-37.234 5.063-62.341 5.063-62.341h-66.177s-64.775 202.893 154.74 310.491c-69.663-59.661-89.306-148.626-92.966-216.051z" fill="#fd4755"/></g><g><path d="m313.975 158.485c1.346 1.061 2.986 1.61 4.644 1.61.985 0 1.977-.194 2.915-.59 2.517-1.062 4.258-3.409 4.543-6.126.204-1.943.308-3.936.308-5.922 0-31.243-25.418-56.661-56.66-56.661-31.248 0-56.671 25.418-56.671 56.661 0 1.98.104 3.972.309 5.922.285 2.717 2.026 5.064 4.543 6.126s5.413.672 7.559-1.02c12.724-10.028 28.028-15.329 44.261-15.329 16.223 0 31.525 5.301 44.249 15.329zm-44.251-52.689c19.81 0 36.435 13.9 40.636 32.458-12.416-6.64-26.225-10.098-40.636-10.098-14.415 0-28.229 3.458-40.646 10.098 4.199-18.56 20.829-32.458 40.646-32.458z"/><path d="m393.56 90.796c-31.248 0-56.67 25.418-56.67 56.661 0 1.98.104 3.972.309 5.922.285 2.717 2.026 5.064 4.543 6.126s5.413.672 7.559-1.02c12.724-10.028 28.028-15.329 44.26-15.329 16.227 0 31.528 5.301 44.252 15.329 1.346 1.061 2.986 1.61 4.644 1.61.985 0 1.977-.194 2.915-.59 2.517-1.062 4.258-3.409 4.543-6.126.204-1.943.308-3.936.308-5.922-.002-31.243-25.42-56.661-56.663-56.661zm-40.646 47.459c4.2-18.56 20.83-32.459 40.646-32.459 6.384 0 12.433 1.45 17.847 4.028v20.163c-5.803-1.209-11.771-1.831-17.847-1.831-14.415 0-28.229 3.458-40.646 10.099zm73.492-3.666v-12.717c3.708 4.749 6.416 10.314 7.79 16.382-2.539-1.358-5.14-2.576-7.79-3.665z"/><path d="m408.797 169.45c-2.517-1.062-5.412-.671-7.558 1.02-20.012 15.773-44.082 24.11-69.609 24.11-25.518 0-49.583-8.337-69.595-24.11-2.146-1.692-5.041-2.082-7.558-1.02s-4.258 3.408-4.544 6.125c-.297 2.82-.447 5.709-.447 8.587 0 45.294 36.85 82.144 82.144 82.144 45.302 0 82.157-36.85 82.157-82.144 0-2.884-.15-5.773-.446-8.587-.286-2.716-2.028-5.063-4.544-6.125zm-77.167 81.856c-34.82 0-63.534-26.642-66.828-60.611 20.028 12.396 42.864 18.885 66.828 18.885 23.972 0 46.812-6.489 66.842-18.885-3.295 33.97-32.015 60.611-66.842 60.611z"/><path d="m504.5 143.132h-2.982c5.363-55.1-7.383-95.951-7.993-97.863-.992-3.109-3.881-5.219-7.145-5.219h-59.974v-5.387c0-11.857-9.65-21.503-21.513-21.503h-311.903c-31.864 0-57.788 25.924-57.788 57.788v72.409c-19.757 2.097-35.202 18.859-35.202 39.164s15.445 37.067 35.202 39.164c0 0-.004 219.516-.002 219.815.122 15.272 6.134 29.623 16.924 40.401 10.912 10.923 25.425 16.939 40.866 16.939h309c6.523 0 12.654-2.538 17.264-7.147 4.608-4.609 7.146-10.74 7.146-17.263l-.004-173.218c10.399-10.318 19.781-21.212 28.101-32.669 22.615-31.146 37.493-66.406 44.221-104.8.33-1.883.635-3.753.92-5.611h4.862c4.143 0 7.5-3.358 7.5-7.5s-3.357-7.5-7.5-7.5zm-419.01 0h-35.288v-14.223c.075-20.967 15.307-38.418 35.288-41.967zm-35.288-72.184c0-21.034 15.26-38.559 35.288-42.116v42.941c-13.915 1.812-26.295 8.577-35.288 18.483zm-35.202 111.573c0-12.02 8.743-22.03 20.202-24.022v48.044c-11.459-1.992-20.202-12.003-20.202-24.022zm35.202-24.39h35.288v161.493c-13.915 1.812-26.295 8.577-35.288 18.483zm0 218.629c.075-20.967 15.307-38.418 35.288-41.966v49.08c-12.555 1.849-24.442 7.786-33.505 16.921-.612.617-1.203 1.248-1.783 1.885zm351.788 107.08h-309c-11.432 0-22.176-4.454-30.26-12.546-7.99-7.982-12.44-18.605-12.53-29.913-.089-11.189 4.327-21.852 12.434-30.022 8.266-8.331 19.65-13.109 31.236-13.109h308.12c5.179 0 9.393 4.21 9.409 9.391v.058c-.016 5.175-4.23 9.381-9.409 9.381h-308.12c-6.598 0-13.111 2.746-17.882 7.545-2.627 2.656-7.026 8.345-6.969 16.625.059 6.333 2.554 12.275 7.003 16.709 2.623 2.637 8.315 7.061 16.968 7.061h24.75c4.143 0 7.5-3.358 7.5-7.5s-3.357-7.5-7.5-7.5h-24.75c-3.064 0-5.136-1.435-6.355-2.662-1.665-1.659-2.594-3.877-2.615-6.23-.021-2.844 1.641-4.95 2.62-5.94 1.963-1.975 4.598-3.107 7.23-3.107h291.013v17.94h-232.143c-4.143 0-7.5 3.358-7.5 7.5s3.357 7.5 7.5 7.5h249.25c5.188 0 9.41 4.221 9.41 9.41 0 2.517-.979 4.881-2.753 6.656-1.776 1.775-4.14 2.753-6.657 2.753zm0-51.76c3.333 0 6.512-.673 9.409-1.888v21.717c-2.897-1.215-6.076-1.889-9.41-1.889h-2.107v-17.94zm9.408-46.941c-2.897-1.215-6.075-1.889-9.408-1.889h-301.5v-225.119h63.143c.285 1.859.59 3.729.92 5.612 6.729 38.393 21.607 73.653 44.224 104.799 28.151 38.77 68.378 71.147 119.562 96.232 1.041.51 2.171.765 3.301.765s2.26-.255 3.301-.766c29.097-14.261 54.647-30.881 76.457-49.691zm72.433-223.356c-6.406 36.02-20.441 69.086-41.715 98.281-26.081 35.791-63.236 65.924-110.477 89.605-47.242-23.681-84.399-53.815-110.481-89.605-21.275-29.194-35.312-62.261-41.719-98.281-.218-1.224-.417-2.438-.614-3.652h20.83c4.143 0 7.5-3.357 7.5-7.5 0-4.142-3.357-7.5-7.5-7.5h-22.813c-4.245-41.766 2.637-75.564 5.77-88.082h181.538c4.143 0 7.5-3.358 7.5-7.5s-3.357-7.5-7.5-7.5h-187.26c-3.264 0-6.152 2.11-7.145 5.219-.611 1.911-13.356 42.763-7.992 97.863h-61.263v-114.971h304.403c3.591 0 6.513 2.917 6.513 6.503v5.387h-12.256c-4.143 0-7.5 3.358-7.5 7.5s3.357 7.5 7.5 7.5h81.506c3.133 12.523 10.015 46.319 5.771 88.082h-5.161c-4.143 0-7.5 3.358-7.5 7.5s3.357 7.5 7.5 7.5h3.179c-.198 1.214-.396 2.428-.614 3.651z"/></g></g></svg>