<svg id="Capa_1" enable-background="new 0 0 512 512" height="512" viewBox="0 0 512 512" width="512" xmlns="http://www.w3.org/2000/svg"><g><g><path d="m484.504 470.822h-457.008c-11.043 0-19.996-8.952-19.996-19.996v-389.652c0-11.043 8.952-19.996 19.996-19.996h457.009c11.043 0 19.996 8.952 19.996 19.996v389.652c-.001 11.043-8.953 19.996-19.997 19.996z" fill="#ebebeb"/><path d="m76.178 42.5h359.643v427h-359.643z" fill="#60b7ff" transform="matrix(0 1 -1 0 512 0)"/><path d="m42.5 103.46h32.781c14.054 0 25.447 11.393 25.447 25.447 0 14.054 11.393 25.447 25.447 25.447h37.844c9.009 0 16.312 7.303 16.312 16.312 0 9.009-7.303 16.312-16.312 16.312h-18.27c-10.45 0-18.922 8.472-18.922 18.922v33.929c0 10.45-8.472 18.922-18.922 18.922-10.45 0-18.922 8.472-18.922 18.922 0 10.45 8.472 18.922 18.922 18.922h44.369c11.892 0 21.532 9.64 21.532 21.532 0 11.892-9.64 21.532-21.532 21.532-15.495 0-28.057 12.562-28.057 28.057v.653c0 15.856-12.854 28.709-28.709 28.709-13.694 0-24.795 11.101-24.795 24.795v13.947h-28.213z" fill="#9be69d"/><path d="m469.5 111.677h-148.171c-10.285 0-18.622 8.337-18.622 18.622v3.991c0 10.285-8.337 18.622-18.622 18.622h-11.971c-10.285 0-18.622 8.337-18.622 18.622 0 10.285 8.337 18.622 18.622 18.622h40.57c10.652 0 19.287 8.635 19.287 19.287 0 10.652-8.635 19.287-19.287 19.287h-35.274c-10.652 0-19.287 8.635-19.287 19.287 0 10.652 8.635 19.287 19.287 19.287h7.34c10.652 0 19.287 8.635 19.287 19.287v56.532c0 11.019 8.933 19.952 19.952 19.952 11.019 0 19.952 8.933 19.952 19.952v7.981c0 9.55 7.742 17.292 17.292 17.292 9.55 0 17.292-7.742 17.292-17.292v-24.608c0-14.325 11.613-25.938 25.938-25.938 14.325 0 25.938-11.613 25.938-25.938v-43.23c0-11.754-9.529-21.283-21.283-21.283-10.285 0-18.622-8.337-18.622-18.622 0-10.285 8.337-18.622 18.622-18.622h60.38" fill="#9be69d"/><g fill="#6fd7a3"><path d="m258.94 184.706c-3.36-3.38-5.45-8.03-5.45-13.17 0-10.29 8.34-18.62 18.62-18.62h11.97c10.29 0 18.63-8.34 18.63-18.63v-3.99c0-10.28 8.33-18.62 18.62-18.62h26.6c-10.28 0-18.62 8.34-18.62 18.62v3.99c0 10.29-8.34 18.63-18.62 18.63h-11.97c-10.29 0-18.63 8.33-18.63 18.62 0 5.14 2.09 9.79 5.46 13.17 3.37 3.36 8.03 5.45 13.17 5.45h-26.61c-5.14 0-9.79-2.09-13.17-5.45z"/><path d="m339.29 190.156c10.65 0 19.28 8.64 19.28 19.29 0 5.32-2.16 10.15-5.65 13.64-3.48 3.49-8.3 5.65-13.63 5.65h-26.61c5.32 0 10.15-2.16 13.64-5.65s5.65-8.32 5.65-13.64c0-10.65-8.64-19.29-19.29-19.29z"/><path d="m374.54 402.066c-.35.41-.7.8-1.08 1.18-3.13 3.12-7.46 5.06-12.23 5.06-9.55 0-17.29-7.74-17.29-17.29v-7.99c0-5.5-2.23-10.49-5.84-14.1-3.61-3.62-8.6-5.85-14.11-5.85-11.02 0-19.95-8.93-19.95-19.95v-56.53c0-10.65-8.64-19.29-19.29-19.29h-7.34c-5.33 0-10.15-2.16-13.64-5.65s-5.65-8.31-5.65-13.64c0-10.65 8.64-19.28 19.29-19.28h26.6c-10.65 0-19.28 8.63-19.28 19.28 0 5.33 2.16 10.15 5.65 13.64 3.48 3.49 8.3 5.65 13.63 5.65h7.34c10.65 0 19.29 8.64 19.29 19.29v56.53c0 11.02 8.93 19.95 19.95 19.95 5.51 0 10.5 2.23 14.11 5.85 3.61 3.61 5.84 8.6 5.84 14.1v7.99c0 4.2 1.5 8.05 4 11.05z"/></g><g><path d="m442.742 175.32c0-26.381-21.769-47.678-48.323-46.908-24.308.705-44.329 20.338-45.479 44.629-.749 15.832 6.354 30.035 17.747 39.063 7.284 5.772 11.53 14.556 11.53 23.849v.541c0 9.719 7.879 17.598 17.598 17.598 9.719 0 17.598-7.879 17.598-17.598v-.535c0-9.433 4.493-18.18 11.837-24.101 10.666-8.599 17.492-21.769 17.492-36.538z" fill="#fe646f"/><circle cx="394.418" cy="175.313" fill="#f8f6f6" r="19.701"/></g></g><g><path d="m484.504 33.679h-457.008c-15.162 0-27.496 12.334-27.496 27.495v389.651c0 15.161 12.334 27.496 27.496 27.496h457.008c15.161 0 27.496-12.334 27.496-27.496v-389.651c0-15.161-12.335-27.495-27.496-27.495zm12.496 417.147c0 6.89-5.605 12.496-12.496 12.496h-457.008c-6.89 0-12.496-5.605-12.496-12.496v-389.652c0-6.89 5.605-12.496 12.496-12.496h457.008c6.891 0 12.496 5.605 12.496 12.496z"/><path d="m469.5 68.68h-427c-4.142 0-7.5 3.358-7.5 7.5v279.5c0 4.142 3.358 7.5 7.5 7.5s7.5-3.358 7.5-7.5v-244.72h25.281c9.896 0 17.947 8.051 17.947 17.947 0 18.167 14.78 32.947 32.947 32.947h37.844c4.859 0 8.812 3.953 8.812 8.812s-3.953 8.812-8.812 8.812h-18.27c-14.569 0-26.422 11.853-26.422 26.422v33.93c0 6.298-5.124 11.422-11.422 11.422-14.569 0-26.422 11.853-26.422 26.422s11.853 26.422 26.422 26.422h44.369c7.737 0 14.032 6.295 14.032 14.032s-6.295 14.032-14.032 14.032c-19.606 0-35.557 15.951-35.557 35.557v.652c0 11.695-9.515 21.209-21.209 21.209-17.807 0-32.294 14.487-32.294 32.294v6.445h-13.214v-37.64c0-4.142-3.358-7.5-7.5-7.5s-7.5 3.358-7.5 7.5v45.14c0 4.142 3.358 7.5 7.5 7.5h427c4.143 0 7.5-3.358 7.5-7.5v-359.637c0-4.142-3.357-7.5-7.5-7.5zm-391.287 359.64v-6.445c0-9.536 7.758-17.294 17.294-17.294 19.966 0 36.209-16.244 36.209-36.209v-.652c0-11.335 9.222-20.557 20.557-20.557 16.008 0 29.032-13.024 29.032-29.032s-13.024-29.032-29.032-29.032h-44.369c-6.298 0-11.422-5.124-11.422-11.422s5.124-11.422 11.422-11.422c14.569 0 26.422-11.853 26.422-26.422v-33.93c0-6.298 5.124-11.422 11.422-11.422h18.27c13.13 0 23.812-10.682 23.812-23.812s-10.682-23.812-23.812-23.812h-37.844c-9.896 0-17.947-8.051-17.947-17.947 0-18.167-14.78-32.947-32.947-32.947h-25.28v-12.283h412v20.5h-36.38c-4.143 0-7.5 3.358-7.5 7.5s3.357 7.5 7.5 7.5h36.38v86.086h-20.745c5.802-8.778 8.987-19.123 8.987-29.946 0-14.837-5.862-28.703-16.507-39.043-10.641-10.336-24.661-15.784-39.534-15.361-28.246.819-51.418 23.56-52.753 51.771-.828 17.494 6.865 34.427 20.58 45.295 5.521 4.375 8.688 10.926 8.688 17.972v.541c0 13.839 11.259 25.098 25.098 25.098 5.033 0 9.72-1.494 13.653-4.055 7.438.186 13.434 6.281 13.434 13.762v43.23c0 4.93-1.917 9.558-5.41 13.043-3.473 3.48-8.101 5.397-13.03 5.397-18.434 0-33.43 15.001-33.43 33.44v24.61c0 2.614-1.021 5.074-2.865 6.918-1.857 1.852-4.32 2.872-6.935 2.872-5.398 0-9.79-4.392-9.79-9.79v-7.99c0-7.33-2.854-14.221-8.029-19.395-5.179-5.194-12.076-8.055-19.421-8.055-6.865 0-12.45-5.585-12.45-12.45v-56.53c0-14.772-12.018-26.79-26.79-26.79h-7.34c-3.149 0-6.11-1.227-8.337-3.453-2.227-2.228-3.453-5.188-3.453-8.337 0-6.496 5.289-11.78 11.79-11.78h35.27c7.156 0 13.884-2.787 18.944-7.848 5.06-5.06 7.846-11.787 7.846-18.942 0-14.772-12.018-26.79-26.79-26.79h-40.571c-2.962 0-5.762-1.161-7.852-3.238-2.107-2.12-3.269-4.919-3.269-7.882 0-6.132 4.988-11.12 11.12-11.12h11.97c14.408 0 26.13-11.722 26.13-26.13v-3.99c0-6.131 4.988-11.12 11.12-11.12h69.29c4.143 0 7.5-3.358 7.5-7.5s-3.357-7.5-7.5-7.5h-69.29c-14.402 0-26.12 11.717-26.12 26.12v3.99c0 6.137-4.993 11.13-11.13 11.13h-11.97c-14.402 0-26.12 11.717-26.12 26.12 0 6.953 2.71 13.508 7.663 18.489 4.951 4.921 11.505 7.631 18.458 7.631h40.569c6.501 0 11.79 5.289 11.79 11.79 0 3.149-1.227 6.11-3.453 8.336-2.227 2.227-5.188 3.454-8.337 3.454h-35.27c-14.772 0-26.79 12.013-26.79 26.78 0 7.155 2.786 13.882 7.847 18.944 5.061 5.06 11.788 7.846 18.943 7.846h7.34c6.501 0 11.79 5.289 11.79 11.79v56.53c0 15.136 12.314 27.45 27.45 27.45 3.33 0 6.454 1.294 8.807 3.654 2.35 2.349 3.644 5.473 3.644 8.796v7.99c0 13.669 11.121 24.79 24.79 24.79 6.612 0 12.836-2.574 17.533-7.257 4.686-4.686 7.267-10.913 7.267-17.533v-24.61c0-10.168 8.268-18.44 18.43-18.44 8.942 0 17.342-3.481 23.638-9.791 6.321-6.308 9.803-14.707 9.803-23.649v-43.23c0-12.174-7.602-22.599-18.306-26.798.85-2.517 1.318-5.208 1.318-8.008v-.535c0-5.772 2.265-11.323 6.302-15.693h34.785v208.054zm327.699-192.361v.535c0 5.568-4.53 10.098-10.099 10.098-5.567 0-10.098-4.53-10.098-10.098v-.541c0-11.655-5.238-22.49-14.371-29.728-10.087-7.994-15.522-19.96-14.914-32.831.967-20.427 17.749-36.893 38.206-37.486.396-.012.789-.018 1.184-.018 10.325 0 20.039 3.932 27.463 11.144 7.712 7.491 11.959 17.536 11.959 28.284 0 11.979-5.358 23.168-14.7 30.699-9.298 7.497-14.63 18.41-14.63 29.942z"/><path d="m446.044 386.842h-11.123v-11.122c0-4.142-3.357-7.5-7.5-7.5s-7.5 3.358-7.5 7.5v11.122h-11.122c-4.143 0-7.5 3.358-7.5 7.5s3.357 7.5 7.5 7.5h11.122v11.123c0 4.142 3.357 7.5 7.5 7.5s7.5-3.358 7.5-7.5v-11.123h11.123c4.143 0 7.5-3.358 7.5-7.5s-3.357-7.5-7.5-7.5z"/><path d="m394.419 148.112c-14.999 0-27.201 12.202-27.201 27.201s12.202 27.201 27.201 27.201 27.201-12.202 27.201-27.201-12.202-27.201-27.201-27.201zm0 39.402c-6.728 0-12.201-5.474-12.201-12.201s5.474-12.201 12.201-12.201 12.201 5.474 12.201 12.201-5.474 12.201-12.201 12.201z"/></g></g></svg>