<svg id="Capa_1" enable-background="new 0 0 512 512" height="512" viewBox="0 0 512 512" width="512" xmlns="http://www.w3.org/2000/svg"><g><g><g><path d="m397.513 486.233v-76.787l.001-382.906c0-8.019-6.5-14.519-14.519-14.519h-323.357c-28.795 0-52.138 23.343-52.138 52.138v383.221" fill="#fd8087"/><path d="m56.729 409.704h313.291v75.746h-319.44c-11.369 0-20.585-9.216-20.585-20.585v-28.426c0-14.766 11.969-26.735 26.734-26.735z" fill="#ebebeb"/><g fill="#fe646f"><path d="m59.644 12.026v383.68h-.01c-28.786 0-52.134 23.338-52.134 52.134v-383.681c0-28.786 23.348-52.133 52.144-52.133z"/><path d="m397.513 413.234c0 9.683-7.85 17.533-17.533 17.533h-319.427c-4.788 0-9.53 2.012-13.011 5.521-1.877 1.892-5.02 5.926-4.975 11.689.036 4.504 1.808 8.735 4.992 11.916 1.896 1.9 5.927 5.02 12.076 5.02h320.345c9.683 0 17.533 7.85 17.533 17.533 0 9.683-7.85 17.533-17.533 17.533h-320.346c-14.393 0-27.432-5.832-36.857-15.277-9.354-9.344-15.164-22.214-15.275-36.452-.225-28.902 24.148-52.549 53.051-52.549h319.427c9.683 0 17.533 7.85 17.533 17.533z"/></g></g><g><g fill="#ffe177"><path d="m485.557 174.606h-29.363v-29.363c0-10.462-8.481-18.943-18.943-18.943s-18.943 8.481-18.943 18.943v29.363h-30.526c-10.462 0-18.943 8.481-18.943 18.943s8.481 18.943 18.943 18.943h30.526v30.525c0 10.462 8.481 18.943 18.943 18.943s18.943-8.481 18.943-18.943v-30.525h29.363c10.462 0 18.943-8.481 18.943-18.943s-8.481-18.943-18.943-18.943z"/><path d="m189.785 114.162h-31.614c-10.462 0-18.943 8.481-18.943 18.943s8.481 18.943 18.943 18.943h12.671v128.966c0 10.462 8.481 18.943 18.943 18.943s18.943-8.481 18.943-18.943v-147.909c.001-10.462-8.48-18.943-18.943-18.943z"/><path d="m335.014 190.359c5.502-8.045 8.728-17.764 8.728-28.225 0-27.64-22.486-50.126-50.126-50.126s-50.126 22.486-50.126 50.126c0 10.461 3.226 20.18 8.728 28.225-12.471 11.3-20.317 27.615-20.317 45.729 0 34.03 27.685 61.715 61.715 61.715 34.029 0 61.714-27.685 61.714-61.715.001-18.114-7.845-34.429-20.316-45.729zm-53.637-28.225c0-6.749 5.491-12.24 12.24-12.24s12.239 5.491 12.239 12.24-5.491 12.24-12.239 12.24c-6.75 0-12.24-5.491-12.24-12.24zm12.24 97.783c-13.139 0-23.829-10.689-23.829-23.828s10.69-23.828 23.829-23.828 23.828 10.689 23.828 23.828-10.689 23.828-23.828 23.828z"/></g><g fill="#ffd15b"><path d="m387.123 193.549c0-10.462 8.481-18.943 18.943-18.943h-18.284c-10.462 0-18.943 8.481-18.943 18.943s8.481 18.943 18.943 18.943h18.284c-10.462 0-18.943-8.481-18.943-18.943z"/><path d="m436.592 145.243c0-7.146 3.959-13.366 9.801-16.592-2.711-1.497-5.826-2.351-9.142-2.351-10.462 0-18.943 8.481-18.943 18.943v29.363h18.284z"/><path d="m436.592 243.017v-30.525h-18.284v30.525c0 10.462 8.481 18.943 18.943 18.943 3.316 0 6.431-.854 9.142-2.351-5.843-3.226-9.801-9.445-9.801-16.592z"/></g><path d="m189.127 281.014v-128.966h-12.671c-10.462 0-18.943-8.481-18.943-18.943s8.481-18.943 18.943-18.943h-18.284c-10.462 0-18.943 8.481-18.943 18.943s8.481 18.943 18.943 18.943h12.671v128.966c0 10.462 8.481 18.943 18.943 18.943 3.316 0 6.431-.854 9.142-2.351-5.843-3.226-9.801-9.446-9.801-16.592z" fill="#ffd15b"/><g><path d="m250.186 236.088c0-18.114 7.846-34.429 20.317-45.729-5.502-8.045-8.728-17.764-8.728-28.225 0-24.517 17.697-44.964 40.984-49.275-2.967-.549-6.019-.851-9.142-.851-27.64 0-50.126 22.486-50.126 50.126 0 10.461 3.226 20.18 8.728 28.225-12.471 11.3-20.317 27.615-20.317 45.729 0 34.03 27.685 61.715 61.715 61.715 3.106 0 6.158-.236 9.142-.681-29.71-4.431-52.573-30.11-52.573-61.034z" fill="#ffd15b"/></g></g></g><g><path d="m485.557 167.106h-21.862v-21.863c0-14.581-11.862-26.443-26.443-26.443s-26.443 11.862-26.443 26.443v21.863h-5.798v-140.565c0-12.142-9.878-22.02-22.02-22.02h-323.351c-32.886 0-59.64 26.754-59.64 59.64v383.22h.016c-.002.309-.019.616-.016.925.066 8.887 2.046 17.43 5.884 25.391 1.799 3.731 6.279 5.3 10.013 3.499 3.731-1.798 5.298-6.281 3.499-10.013-2.867-5.947-4.346-12.336-4.396-18.99-.089-11.677 4.521-22.802 12.98-31.325 8.62-8.687 20.492-13.668 32.57-13.668h319.431c5.53 0 10.029 4.5 10.029 10.03 0 5.536-4.499 10.04-10.029 10.04h-319.431c-6.777 0-13.461 2.821-18.327 7.731-2.703 2.718-7.227 8.546-7.152 17.028.042 6.491 2.597 12.589 7.173 17.152 2.688 2.7 8.519 7.229 17.387 7.229h320.351c5.53 0 10.029 4.504 10.029 10.04 0 2.678-1.042 5.195-2.934 7.087-1.897 1.897-4.418 2.943-7.096 2.943h-320.351c-6.783 0-13.286-1.479-19.331-4.395-3.729-1.801-8.214-.235-10.014 3.496s-.235 8.214 3.496 10.014c8.093 3.905 16.79 5.885 25.849 5.885h320.351c6.686 0 12.973-2.606 17.703-7.337 4.725-4.725 7.326-11.008 7.326-17.693v-262.458h5.798v23.025c0 14.581 11.862 26.443 26.443 26.443s26.443-11.862 26.443-26.443v-23.025h21.862c14.581 0 26.443-11.862 26.443-26.443s-11.861-26.443-26.442-26.443zm-470.557-102.945c0-22.057 16.084-40.418 37.138-43.997v45.089c-14.713 1.855-27.769 9.083-37.138 19.661zm0 60.241c0-22.057 16.084-40.417 37.138-43.996v241.795c-14.713 1.856-27.769 9.083-37.138 19.661zm2.333 281.899c-.807.813-1.579 1.648-2.333 2.496v-27.444c0-22.057 16.084-40.417 37.138-43.996v51.457c-13.039 1.868-25.395 8.006-34.805 17.487zm35.523 48.278c-1.78-1.774-2.769-4.135-2.785-6.665-.027-3.046 1.734-5.277 2.796-6.344 2.079-2.097 4.88-3.3 7.684-3.3h301.971v19.14h-302.892c-3.27 0-5.478-1.529-6.774-2.831zm327.125 2.831h-2.46v-19.14h2.46c3.565 0 6.957-.755 10.029-2.105v23.35c-3.073-1.35-6.464-2.105-10.029-2.105zm10.029-67.106c-3.073-1.35-6.464-2.104-10.029-2.104h-312.843v-368.679h315.852c3.87 0 7.02 3.149 7.02 7.02v140.565h-2.228c-14.581 0-26.443 11.862-26.443 26.443s11.862 26.443 26.443 26.443h2.228zm95.547-185.312h-29.362c-4.143 0-7.5 3.358-7.5 7.5v30.525c0 6.31-5.134 11.443-11.443 11.443s-11.443-5.133-11.443-11.443v-30.525c0-4.142-3.357-7.5-7.5-7.5h-30.525c-6.31 0-11.443-5.133-11.443-11.443s5.134-11.443 11.443-11.443h30.525c4.143 0 7.5-3.358 7.5-7.5v-29.363c0-6.31 5.134-11.443 11.443-11.443s11.443 5.133 11.443 11.443v29.363c0 4.142 3.357 7.5 7.5 7.5h29.362c6.31 0 11.443 5.133 11.443 11.443s-5.134 11.443-11.443 11.443z"/><path d="m189.785 106.662h-31.614c-14.581 0-26.443 11.862-26.443 26.443s11.862 26.443 26.443 26.443h5.171v121.466c0 14.581 11.862 26.443 26.443 26.443s26.443-11.862 26.443-26.443v-147.909c.001-14.581-11.862-26.443-26.443-26.443zm11.444 174.352c0 6.31-5.134 11.443-11.443 11.443s-11.443-5.133-11.443-11.443v-128.966c0-4.142-3.357-7.5-7.5-7.5h-12.671c-6.31 0-11.443-5.133-11.443-11.443s5.134-11.443 11.443-11.443h31.614c6.31 0 11.443 5.133 11.443 11.443z"/><path d="m351.24 162.13c0-7.902-1.576-15.561-4.685-22.762-1.641-3.802-6.053-5.555-9.857-3.914s-5.556 6.055-3.914 9.858c2.293 5.313 3.456 10.972 3.456 16.818 0 8.605-2.565 16.902-7.42 23.994-2.117 3.094-1.625 7.276 1.153 9.794 11.348 10.283 17.856 24.925 17.856 40.172 0 29.892-24.318 54.21-54.21 54.21-29.896 0-54.22-24.318-54.22-54.21 0-15.247 6.508-29.889 17.855-40.172 2.776-2.516 3.271-6.695 1.156-9.789-4.855-7.107-7.422-15.405-7.422-23.999 0-23.501 19.124-42.62 42.63-42.62 6.677 0 13.069 1.506 19.003 4.477 3.704 1.854 8.21.355 10.063-3.349 1.854-3.704.355-8.209-3.349-10.064-8.036-4.023-16.689-6.063-25.718-6.063-31.777 0-57.63 25.848-57.63 57.62 0 9.512 2.323 18.755 6.765 27.065-11.731 12.734-18.354 29.503-18.354 46.895 0 38.163 31.052 69.21 69.22 69.21 38.162 0 69.21-31.047 69.21-69.21 0-17.391-6.622-34.159-18.353-46.892 4.442-8.304 6.765-17.548 6.765-27.069z"/><path d="m262.287 236.089c0 17.274 14.054 31.328 31.329 31.328 17.274 0 31.328-14.054 31.328-31.328 0-17.275-14.054-31.329-31.328-31.329-17.275 0-31.329 14.054-31.329 31.329zm31.329-16.329c9.003 0 16.328 7.325 16.328 16.329s-7.325 16.328-16.328 16.328c-9.004 0-16.329-7.325-16.329-16.328s7.326-16.329 16.329-16.329z"/><path d="m313.356 162.134c0-10.884-8.855-19.739-19.739-19.739-10.885 0-19.74 8.855-19.74 19.739 0 10.885 8.855 19.74 19.74 19.74 10.883 0 19.739-8.855 19.739-19.74zm-24.48 0c0-2.613 2.127-4.739 4.74-4.739s4.739 2.126 4.739 4.739-2.126 4.74-4.739 4.74-4.74-2.127-4.74-4.74z"/></g></g></svg>