<svg id="Capa_1" enable-background="new 0 0 511.998 511.998" height="512" viewBox="0 0 511.998 511.998" width="512" xmlns="http://www.w3.org/2000/svg"><g><g><path d="m454.617 490.495.001-468.207c0-8.167-6.621-14.788-14.788-14.788h-329.346c-29.329 0-53.104 23.775-53.104 53.104v390.318" fill="#ffe177"/><path d="m107.521 412.548h319.094v77.149h-325.358c-11.579 0-20.966-9.387-20.966-20.966v-28.953c0-15.039 12.191-27.23 27.23-27.23z" fill="#ebebeb"/><path d="m110.489 7.504v390.786h-.01c-29.32 0-53.099 23.77-53.099 53.1v-390.786c0-29.32 23.78-53.1 53.109-53.1z" fill="#ffd15b"/><path d="m454.615 179.036v87.509c0-8.167-6.622-14.789-14.789-14.789h-329.345c-29.325 0-53.096 23.782-53.096 53.106v-87.509c0-29.325 23.771-53.096 53.096-53.096h329.345c8.167 0 14.789 6.612 14.789 14.779z" fill="#fd8087"/><path d="m110.492 164.257v87.499h-.011c-29.325 0-53.096 23.782-53.096 53.106v-87.509c0-29.325 23.771-53.096 53.096-53.096z" fill="#fe646f"/><path d="m454.617 416.144c0 9.862-7.995 17.858-17.858 17.858h-325.343c-4.876 0-9.706 2.05-13.252 5.623-1.912 1.927-5.113 6.036-5.067 11.905.036 4.587 1.842 8.897 5.085 12.137 1.931 1.935 6.037 5.113 12.299 5.113h326.279c9.862 0 17.858 7.995 17.858 17.858 0 9.862-7.995 17.857-17.858 17.857h-326.28c-14.66 0-27.94-5.94-37.54-15.56-9.527-9.518-15.445-22.625-15.558-37.127-.229-29.438 24.595-53.522 54.034-53.522h325.343c9.862 0 17.858 7.995 17.858 17.858z" fill="#ffd15b"/><path d="m216.212 7.5h83.797v390.786h-83.797z" fill="#fd8087"/><path d="m216.212 398.286h83.797v106.209h-83.797z" fill="#fe646f"/><g><g fill="#fe646f"><path d="m233.857 167.424-110.469 48.684c-15.049 6.632-21.872 24.208-15.24 39.257 6.401 14.524 22.995 21.382 37.673 15.881l-.691.691c-11.629 11.629-11.629 30.482 0 42.111 11.629 11.629 30.482 11.629 42.111 0l.691-.691c-5.502 14.678 1.357 31.273 15.881 37.674 15.049 6.632 32.625-.191 39.257-15.24l48.383-109.786z"/><path d="m224.467 176.814 48.684-110.469c6.632-15.049 24.208-21.872 39.257-15.24 14.524 6.401 21.382 22.995 15.88 37.673l.691-.691c11.629-11.629 30.482-11.629 42.111 0 11.629 11.629 11.629 30.482 0 42.111l-.691.691c14.678-5.502 31.273 1.357 37.674 15.881 6.632 15.049-.191 32.625-15.24 39.257l-109.785 48.383z"/></g><g><path d="m145.197 237.917 103.952-45.812 45.812-103.952c5.921-13.436 20.566-20.306 34.348-16.905-2.133-8.658-8.109-16.269-16.9-20.143-15.049-6.632-32.625.191-39.257 15.24l-45.812 103.952-103.952 45.812c-15.049 6.632-21.872 24.208-15.24 39.257 3.874 8.791 11.485 14.767 20.143 16.9-3.4-13.783 3.469-28.427 16.906-34.349z" fill="#fd4755"/></g><path d="m221.078 150.787-13.249 13.249c-13.251 13.251-13.251 34.735 0 47.986l39.327 39.327c13.251 13.251 34.735 13.251 47.986 0l13.249-13.249c13.251-13.251 13.251-34.735 0-47.986l-39.327-39.327c-13.251-13.251-34.735-13.251-47.986 0z" fill="#fe646f"/><path d="m311.097 235.057c-.825 1.058-1.724 2.073-2.698 3.047l-13.255 13.245c-13.245 13.255-34.731 13.255-47.986 0l-39.322-39.322c-13.255-13.255-13.255-34.731 0-47.986l13.245-13.245c.973-.973 1.989-1.872 3.036-2.687-10.463 13.319-9.553 32.657 2.719 44.918l39.322 39.333c12.281 12.271 31.63 13.17 44.939 2.697z" fill="#fd4755"/></g></g><path d="m462.117 486.562.001-464.274c0-12.29-9.998-22.288-22.288-22.288h-329.346c-33.417 0-60.604 27.187-60.604 60.604v390.318h.025c-.002.313-.018.624-.016.938.111 15.997 6.413 31.048 17.744 42.379 11.441 11.452 26.657 17.759 42.846 17.759h326.28c6.778 0 13.146-2.645 17.906-7.42 3.884-3.859 6.356-8.76 7.163-14.083.002-.186.31-3.746.289-3.933zm-270.127-179.511c-2.967-1.911-6.867-1.494-9.363 1.003l-.688.687c-4.212 4.212-9.809 6.531-15.76 6.531-5.944 0-11.538-2.319-15.749-6.531-8.684-8.684-8.684-22.814 0-31.498l.698-.698c2.496-2.496 2.914-6.395 1.003-9.363s-5.632-4.202-8.938-2.964c-2.509.94-5.13 1.417-7.789 1.417-8.833 0-16.839-5.219-20.397-13.294-4.949-11.242.167-24.418 11.405-29.374l64.493-28.424c1.349 8.591 5.354 16.513 11.621 22.78l2.651 2.651-42.903 30.504c-3.375 2.4-4.167 7.083-1.766 10.458 1.462 2.057 3.773 3.154 6.119 3.154 1.503 0 3.021-.451 4.34-1.388l44.968-31.972 12.515 12.515-31.974 44.964c-2.4 3.376-1.61 8.059 1.766 10.459 1.318.938 2.836 1.388 4.34 1.388 2.345 0 4.656-1.097 6.119-3.154l30.507-42.9 2.648 2.648c6.265 6.266 14.187 10.271 22.776 11.621l-28.426 64.499c-3.559 8.078-11.566 13.297-20.399 13.297-3.096 0-6.113-.639-8.972-1.902-10.801-4.759-16.02-17.135-11.881-28.175 1.238-3.305.004-7.028-2.964-8.939zm-93.804-61.527c-13.194 2.729-24.785 9.762-33.305 19.52v-47.691h.005c0-25.142 20.454-45.596 45.596-45.596h83.224c-.838 1.963-1.528 3.988-2.052 6.065l-71.292 31.42c-14.614 6.444-23.035 21.197-22.176 36.282zm194.328-230.524v26.853c-10.863 2.335-20.514 9.526-25.71 20.376-1.789 3.736-.211 8.215 3.525 10.003 3.734 1.789 8.214.211 10.004-3.525 5.221-10.904 17.981-15.623 29.05-10.737 8.083 3.563 13.306 11.569 13.306 20.397 0 2.638-.479 5.255-1.425 7.78-1.236 3.305-.003 7.025 2.965 8.936s6.864 1.493 9.361-1.001l.692-.692c8.684-8.685 22.821-8.683 31.513 0 4.199 4.199 6.513 9.792 6.513 15.747 0 5.962-2.312 11.552-6.517 15.75l-.699.7c-2.494 2.497-2.909 6.395-.998 9.361 1.911 2.967 5.631 4.198 8.937 2.962 11.043-4.14 23.424 1.081 28.176 11.861 1.263 2.886 1.902 5.909 1.902 8.985 0 8.834-5.22 16.845-13.295 20.407l-64.499 28.425c-1.35-8.59-5.354-16.512-11.621-22.778l-2.648-2.648 42.9-30.507c3.375-2.4 4.166-7.083 1.766-10.458-2.4-3.376-7.083-4.167-10.459-1.766l-44.964 31.974-12.514-12.515 31.971-44.967c2.4-3.376 1.609-8.059-1.767-10.458-3.376-2.402-8.058-1.609-10.458 1.766l-30.504 42.903-2.651-2.651c-6.418-6.418-14.436-10.276-22.781-11.595l14.715-33.386c1.67-3.79-.048-8.217-3.838-9.888-3.79-1.67-8.217.047-9.888 3.838l-17.714 40.189c-3.879.979-7.64 2.527-11.155 4.642v-124.283zm123.247 156.757h24.065c4.02 0 7.289 3.265 7.289 7.279h.003v66.451c-2.286-.794-4.738-1.231-7.292-1.231h-126.985l.853-.853c5.36-5.359 9.069-11.929 10.875-19.093l71.297-31.42c9.377-4.137 16.443-11.858 19.895-21.133zm-108.252 254.741v-20.71h129.249c5.701 0 10.339 4.624 10.359 10.315v.071c-.02 5.696-4.658 10.324-10.359 10.324zm-57.578-87.678 31.421-71.294c3.934-.992 7.689-2.559 11.163-4.657v127.916h-68.807v-30.571c11.506-2.495 21.353-10.342 26.223-21.394zm186.828 51.968h-129.245v-131.532h132.312c4.02 0 7.289 3.27 7.289 7.29h.002v126.463c-3.165-1.423-6.669-2.221-10.358-2.221zm-223.626-221.45 13.249-13.249c5.153-5.153 11.92-7.729 18.69-7.729 6.768 0 13.538 2.577 18.689 7.729l39.327 39.328c4.992 4.992 7.742 11.63 7.742 18.689 0 7.06-2.75 13.697-7.742 18.689l-13.248 13.249c-4.992 4.992-11.629 7.742-18.689 7.742s-13.697-2.75-18.689-7.742l-39.328-39.327c-10.306-10.305-10.306-27.073-.001-37.379zm79.376 236.45v91.207h-68.797v-91.207zm-83.797 55.495h-98.231c-3.369 0-5.667-1.59-7-2.924-1.84-1.84-2.863-4.284-2.881-6.897-.028-3.142 1.796-5.45 2.895-6.554 2.146-2.166 5.033-3.408 7.918-3.408h97.3v19.783zm98.797-19.785h111.605v19.79h-111.605zm126.606 0h2.644c3.689 0 7.193-.798 10.359-2.221v24.231c-3.165-1.422-6.669-2.22-10.358-2.22h-2.644v-19.79zm13.003-419.21v135.7c-2.287-.794-4.738-1.231-7.292-1.231h-21.772c-.24-4.461-1.28-8.826-3.112-13.014-5.501-12.478-17.077-20.503-29.805-21.996 1.428-3.989 2.171-8.24 2.171-12.609 0-9.962-3.873-19.321-10.909-26.356-10.521-10.512-25.808-13.417-38.959-8.72-1.513-13.023-9.814-24.443-22.003-29.815-2.599-1.147-5.255-1.967-7.923-2.497v-26.75h132.316c4.018 0 7.288 3.269 7.288 7.288zm-336.634-7.288h98.223v137.551l-4.206 4.206h-94.02c-18.17 0-34.485 8.05-45.601 20.757v-116.91c0-25.146 20.458-45.604 45.604-45.604zm-32.242 468.635c-8.528-8.528-13.27-19.849-13.353-31.888-.098-11.921 4.605-23.281 13.241-31.988 8.807-8.878 20.936-13.971 33.279-13.971h15.84c4.142 0 7.5-3.358 7.5-7.5s-3.358-7.5-7.5-7.5h-15.84c-16.314 0-32.325 6.709-43.928 18.407-.903.911-1.762 1.852-2.601 2.805v-107.138h.005c0-22.111 15.957-40.849 37.193-44.814 5.649 11.276 16.601 18.9 29.027 20.34-4.705 13.155-1.798 28.443 8.718 38.96 7.044 7.045 16.404 10.924 26.355 10.924 4.365 0 8.616-.746 12.608-2.177 1.494 12.723 9.517 24.297 21.991 29.793 2.568 1.135 5.22 1.958 7.929 2.486v30.413h-46.458c-4.142 0-7.5 3.358-7.5 7.5s3.358 7.5 7.5 7.5h46.463v20.713h-97.3c-6.859 0-13.628 2.861-18.563 7.839-2.741 2.756-7.326 8.662-7.25 17.242.045 6.566 2.629 12.74 7.275 17.385 2.732 2.733 8.653 7.317 17.606 7.317h98.231v20.715h-98.233c-12.177 0-23.625-4.745-32.235-13.363zm358.517 13.363h-129.25v-20.71h129.249c5.7 0 10.337 4.623 10.358 10.312v.078c-.01 2.752-1.083 5.329-3.051 7.285-1.949 1.957-4.545 3.035-7.306 3.035z"/></g></svg>